<svg width="260" xmlns="http://www.w3.org/2000/svg" height="281" xmlns:xlink="http://www.w3.org/1999/xlink" fill="none"><g class="fills"><rect rx="0" ry="0" x="26" y="12" width="212.287" height="269" class="frame-background"/></g><g class="frame-children"><g style="fill: rgb(0, 0, 0); fill-opacity: 1;"><path d="M77.287 92a57.204 57.204 0 0 1 5.254-23.943 56.933 56.933 0 0 1 2.531-4.846 55.75 55.75 0 0 1 12.221-14.499 55.406 55.406 0 0 1 4.313-3.274 54.255 54.255 0 0 1 4.607-2.825 53.746 53.746 0 0 1 7.36-3.339 54.562 54.562 0 0 1 5.139-1.595 53.396 53.396 0 0 1 7.932-1.409 53.4 53.4 0 0 1 5.364-.269h.002a53.4 53.4 0 0 1 13.296 1.678 54.069 54.069 0 0 1 7.645 2.584 54.118 54.118 0 0 1 7.191 3.705 54.886 54.886 0 0 1 8.617 6.539 56.056 56.056 0 0 1 5.551 5.967 56 56 0 0 1 4.636 6.737 56.726 56.726 0 0 1 2.531 4.846 57 57 0 0 1 5.188 21.195c.044.915.066 1.831.066 2.748v6.169a10.977 10.977 0 0 1 1.005.22 10.752 10.752 0 0 1 .982.31 11.68 11.68 0 0 1 5.338 3.964 11.674 11.674 0 0 1 .592.86 13.626 13.626 0 0 1 .517.91 13.656 13.656 0 0 1 .436.953 12.63 12.63 0 0 1 .621 2.004 12.705 12.705 0 0 1 .179 1.036 11.446 11.446 0 0 1 .09 1.048c.008.175.012.35.012.526v14.002a11.981 11.981 0 0 1-.106 1.603 11.891 11.891 0 0 1-.463 2.088 11.15 11.15 0 0 1-.367 1.004 12.491 12.491 0 0 1-.452.967 11.712 11.712 0 0 1-.832 1.362 10.97 10.97 0 0 1-.65.84 11.08 11.08 0 0 1-.721.778 11.946 11.946 0 0 1-2.073 1.629 12.171 12.171 0 0 1-1.88.939 10.787 10.787 0 0 1-.994.337 11.119 11.119 0 0 1-1.537.332 56.227 56.227 0 0 1-.478 3.546 58.41 58.41 0 0 1-.321 1.759 57.76 57.76 0 0 1-3.066 10.252 56.356 56.356 0 0 1-3.083 6.421 57.473 57.473 0 0 1-1.836 3.046c-.322.497-.651.989-.988 1.477a58.306 58.306 0 0 1-2.113 2.852 56.38 56.38 0 0 1-2.285 2.708c-.396.438-.798.871-1.206 1.297a52.702 52.702 0 0 1-2.529 2.472 56.384 56.384 0 0 1-2.677 2.302 56.336 56.336 0 0 1-2.817 2.121 53.258 53.258 0 0 1-2.943 1.934c-.5.306-1.005.604-1.514.894-.511.289-1.025.57-1.542.843-.519.272-1.042.537-1.569.793v18.403h34.691a38.108 38.108 0 0 1 3.879.195 37.798 37.798 0 0 1 5.736 1.019c.629.16 1.253.337 1.873.53a37.72 37.72 0 0 1 3.656 1.339 37.76 37.76 0 0 1 3.511 1.699 38.458 38.458 0 0 1 3.331 2.043c.539.368 1.069.75 1.588 1.145.521.394 1.031.802 1.532 1.223a39.537 39.537 0 0 1 4.217 4.108 40.705 40.705 0 0 1 3.582 4.698 40.737 40.737 0 0 1 3.657 7.002 40.53 40.53 0 0 1 1.826 5.658 40.438 40.438 0 0 1 .996 5.87 42.421 42.421 0 0 1 .191 3.97v40.501H34.291V239.5a41.138 41.138 0 0 1 .191-3.97 40.632 40.632 0 0 1 .569-3.931 42.36 42.36 0 0 1 .944-3.855 41.092 41.092 0 0 1 2.969-7.335A39.814 39.814 0 0 1 40.961 217a39.699 39.699 0 0 1 3.582-4.697 39.537 39.537 0 0 1 5.748-5.332 39.404 39.404 0 0 1 8.43-4.887 38.933 38.933 0 0 1 7.424-2.305c.635-.13 1.273-.243 1.914-.34a37.968 37.968 0 0 1 5.807-.438h34.691v-18.403a56.12 56.12 0 0 1-3.111-1.636 54.726 54.726 0 0 1-7.274-4.949 56.432 56.432 0 0 1-3.961-3.517 54.706 54.706 0 0 1-3.615-3.889 56.416 56.416 0 0 1-6.058-8.748 57.594 57.594 0 0 1-1.642-3.16 56.382 56.382 0 0 1-2.085-4.925 55.968 55.968 0 0 1-1.129-3.387 54.906 54.906 0 0 1-.916-3.454 57.747 57.747 0 0 1-.699-3.506 59.34 59.34 0 0 1-.478-3.546 11.104 11.104 0 0 1-1.536-.332 11.198 11.198 0 0 1-1.955-.764 11.43 11.43 0 0 1-1.791-1.107 10.805 10.805 0 0 1-.816-.671 11.974 11.974 0 0 1-2.054-2.422 12.245 12.245 0 0 1-1.631-3.925 13.906 13.906 0 0 1-.186-1.055 11.888 11.888 0 0 1-.093-1.067 11.981 11.981 0 0 1-.012-.536V110a13.146 13.146 0 0 1 .045-1.051 13.052 13.052 0 0 1 .135-1.043 12.705 12.705 0 0 1 .368-1.532 12.63 12.63 0 0 1 .354-.988 11.426 11.426 0 0 1 .436-.953 13.65 13.65 0 0 1 .517-.91c.092-.147.188-.293.287-.436a10.572 10.572 0 0 1 .628-.833 11.592 11.592 0 0 1 .698-.773 11.597 11.597 0 0 1 1.163-1.035 12.43 12.43 0 0 1 .845-.599 11.084 11.084 0 0 1 1.356-.751 11.665 11.665 0 0 1 2.435-.828c.167-.037.336-.07.505-.099V92Z" fill-rule="evenodd" style="fill: rgb(97, 67, 53); fill-opacity: 1;" class="fills"/><path d="M77.287 130.001v8a57.266 57.266 0 0 0 3.199 18.865 56.91 56.91 0 0 0 2.055 5.078 56.726 56.726 0 0 0 3.968 7.168 56.643 56.643 0 0 0 3.199 4.414 57.09 57.09 0 0 0 1.754 2.082 56.115 56.115 0 0 0 5.831 5.681 55.406 55.406 0 0 0 4.313 3.273 55.31 55.31 0 0 0 4.607 2.826 53.727 53.727 0 0 0 4.854 2.349 54.562 54.562 0 0 0 7.645 2.585 54.574 54.574 0 0 0 5.267 1.072 54.323 54.323 0 0 0 5.344.539c.894.044 1.789.067 2.685.067h.002c.896 0 1.791-.023 2.685-.067a54.567 54.567 0 0 0 5.344-.539 55.313 55.313 0 0 0 2.647-.47 54.069 54.069 0 0 0 7.758-2.197 54.118 54.118 0 0 0 9.698-4.694 55.966 55.966 0 0 0 4.466-3.053 55.343 55.343 0 0 0 11.354-11.62 56.401 56.401 0 0 0 4.308-6.961 57.512 57.512 0 0 0 2.295-4.968c.343-.847.665-1.702.968-2.565a56.898 56.898 0 0 0 2.606-10.648 56.837 56.837 0 0 0 .526-5.469c.044-.916.066-1.832.066-2.748v-8a57.266 57.266 0 0 1-3.198 18.865 58.175 58.175 0 0 1-2.056 5.078 56.726 56.726 0 0 1-3.969 7.168 55.575 55.575 0 0 1-12.9 13.868 55.472 55.472 0 0 1-4.466 3.053 54.337 54.337 0 0 1-9.698 4.694 54.524 54.524 0 0 1-5.138 1.595c-.869.222-1.742.423-2.62.602a54.323 54.323 0 0 1-7.991 1.009c-.894.044-1.789.067-2.685.067h-.002c-.896 0-1.791-.023-2.685-.067a54.474 54.474 0 0 1-5.344-.539 54.574 54.574 0 0 1-7.856-1.805 54.562 54.562 0 0 1-5.056-1.852 54.118 54.118 0 0 1-7.191-3.704 55.31 55.31 0 0 1-4.465-3.053 55.406 55.406 0 0 1-4.151-3.486 56.115 56.115 0 0 1-3.798-3.886 57.09 57.09 0 0 1-3.406-4.248 56.643 56.643 0 0 1-2.984-4.57 56.726 56.726 0 0 1-3.62-7.359 56.91 56.91 0 0 1-2.525-7.823 57.502 57.502 0 0 1-1.048-5.39 58.146 58.146 0 0 1-.329-2.728 58.408 58.408 0 0 1-.263-5.489Z" fill-rule="evenodd" style="fill: rgb(0, 0, 0); fill-opacity: 0.101961;" class="fills"/></g><g style="fill: rgb(0, 0, 0); fill-opacity: 1;"><g clip-path="url(#c)" style="fill: rgb(0, 0, 0); fill-opacity: 1;"><defs><clipPath id="c" class="svg-def" transform="translate(79.5 133)"><use xlink:href="#d" clip-rule="evenodd"/></clipPath><rect width="108" height="44" id="d"/></defs><path d="M119 148c0 7.732 6.268 14 14 14s14-6.268 14-14" fill-rule="evenodd" style="fill: rgb(0, 0, 0); fill-opacity: 0.698039;" class="fills"/></g><g clip-path="url(#e)" style="fill: rgb(0, 0, 0); fill-opacity: 1;"><defs><clipPath id="e" class="svg-def" transform="matrix(.99997 0 0 1.0269 75.501 80.515)"><use xlink:href="#f" clip-rule="evenodd"/></clipPath><rect width="112" height="24" id="f"/></defs><path d="M93.13 98.158c3.915-5.508 14.648-8.597 23.893-6.327a2 2 0 0 0 .954-3.885c-10.737-2.636-23.165.941-28.107 7.895a2 2 0 1 0 3.26 2.317ZM173.87 98.158c-3.915-5.508-14.648-8.597-23.893-6.327a2 2 0 0 1-.954-3.885c10.737-2.636 23.165.941 28.108 7.895a2.001 2.001 0 0 1-3.261 2.317Z" fill-rule="evenodd" style="fill: rgb(0, 0, 0); fill-opacity: 0.6;" class="fills"/></g><g clip-path="url(#g)" style="fill: rgb(0, 0, 0); fill-opacity: 1;"><defs><clipPath id="g" class="svg-def" transform="translate(79.5 89)"><use xlink:href="#h" clip-rule="evenodd"/></clipPath><rect width="112" height="44" id="h"/></defs><path d="M107 117.474a6 6 0 1 0 0-12 6 6 0 0 0 0 12ZM159 117.474a6 6 0 1 0 0-12 6 6 0 0 0 0 12Z" fill-rule="evenodd" style="fill: rgb(0, 0, 0); fill-opacity: 0.6;" class="fills"/></g><g clip-path="url(#i)" style="fill: rgb(0, 0, 0); fill-opacity: 1;"><defs><clipPath id="i" class="svg-def" transform="matrix(.97718 0 0 1 107.578 121)"><use xlink:href="#j" clip-rule="evenodd"/></clipPath><rect width="56" height="24" id="j"/></defs><path d="M120.281 129c0 4.418 5.25 8 11.726 8 6.476 0 11.726-3.582 11.726-8" fill-rule="evenodd" style="fill: rgb(0, 0, 0); fill-opacity: 0.160784;" class="fills"/></g></g></g><defs><rect width="264" height="110" id="l"/></defs><g class="fills"><rect width="200" height="81" class="frame-background" x="36" ry="0" rx="0" y="200" clip-path="url(#-clip_2)"/></g><g class="frame-children"><path d="M186 207.301c0 16.291-22.162 29.498-49.5 29.498S87 223.592 87 207.301c0-2.52.53-4.966 1.528-7.301H76.473a39.883 39.883 0 0 0-3.967.195 40.967 40.967 0 0 0-3.929.583 40.16 40.16 0 0 0-3.853.966 40.772 40.772 0 0 0-3.739 1.339 39.744 39.744 0 0 0-3.591 1.699 40.797 40.797 0 0 0-5.031 3.188 40.127 40.127 0 0 0-3.07 2.521 40.458 40.458 0 0 0-8.514 10.917 40.316 40.316 0 0 0-3.036 7.335 39.635 39.635 0 0 0-.965 3.855 40.812 40.812 0 0 0-.778 7.901V281h200v-40.501a39.893 39.893 0 0 0-.195-3.97 40.812 40.812 0 0 0-1.018-5.87 40.071 40.071 0 0 0-1.868-5.658 40.31 40.31 0 0 0-3.74-7.002 39.88 39.88 0 0 0-2.366-3.192 40.475 40.475 0 0 0-7.176-6.837 40.882 40.882 0 0 0-3.303-2.208 40.797 40.797 0 0 0-3.503-1.874 40.236 40.236 0 0 0-3.669-1.521 40.772 40.772 0 0 0-5.739-1.589 40.771 40.771 0 0 0-7.896-.778h-11.055c.998 2.335 1.528 4.781 1.528 7.301Z" fill-rule="evenodd" style="fill: rgb(191, 101, 118); fill-opacity: 1;" class="fills"/></g><g class="fills"><rect rx="0" ry="0" x="114" y="237" width="49" height="41" class="frame-background"/></g><g class="frame-children"><path d="M148.78 264.736c-2.389 2.657-4.857 5.244-7.335 7.821.985-3.553 1.74-7.578 3.204-10.957.417-.963.1-1.085.927-1.494.609-.302 2.078.043 2.807.062 1.558.039 3.151.192 4.696-.049a223.12 223.12 0 0 0-4.299 4.617Zm-15.264 4.062c-2.699-3.282-5.384-6.568-8.658-9.317 1.289.137 2.696-.043 3.958.206 1.944.384 1.837.991 2.82 2.959 1.451 2.906 2.889 5.789 4.05 8.823-.711-.9-1.441-1.785-2.17-2.671Zm-9.098-12.531c.963-1.575 1.144-2.972 2.919-3.781 2.062-.938 5.301-.741 7.489-.915-1.371 1.523-3.037 3.103-3.604 5.122-.874-1.718-1.962-3.174-3.67-4.171-.215-.106 1.158 4.551 1.338 4.871-1.716-.096-3.521-.408-5.225-.092l.753-1.034Zm16.406-5.008a33.55 33.55 0 0 1 4.739.419c-1.266 1.675-1.648 3.632-2.098 5.631-.478-2.258-2.209-4.362-3.734-6.048l1.093-.002Zm-3.498 1.074c.234-.158 4.457 5.086 5.066 5.556-3.312-.008-6.618-.17-9.926-.315 1.907-1.487 3.023-3.688 4.86-5.241Zm2.687 17.096c-.402 1.349-.778 2.708-1.215 4.047-1.555-4.732-3.862-9.188-6.008-13.674 3.34.088 6.676.209 10.016.255-.82 3.159-1.862 6.246-2.793 9.372Zm7.229-17.463c1.277 1.128 3.097 3.44 3.686 4.217.059.077.118.154.179.229.211.262.966 1.256 1.263 1.645-2.227-.226-4.545-.13-6.78-.15.498-2.054 1.104-4.012.584-6.128.357.057.713.12 1.068.187Zm7.648 5.617c-2.158-2.676-4.37-7.258-7.864-8.077-3.472-.814-7.548-.454-11.074-.231-3.075.195-8.083-.203-10.795 1.594-1.393.923-2.425 3.005-2.908 4.551-.435 1.393.266 2.285-1.246 2.285-.096 0 2.504 3.673 2.81 3.962 2.272 2.14 4.444 4.202 6.457 6.597 2.835 3.374 5.405 8.338 9.145 9.736-.686-.339 2.792-2.967 3.209-3.419 2.112-2.288 4.247-4.554 6.373-6.829 1.938-2.074 4.05-4.031 5.93-6.152 1.435-1.617 1.439-2.174-.037-4.017ZM120.999 249c.043.014-.909-2.045-.825-1.919-.475-.719-1.046-1.241-1.738-1.727-.728-.511-4.309-1.1-4.436-1.354 1.494 2.652 4.167 4.128 6.999 5ZM136.355 244.196c.173.652.438 1.253.794 1.803.07.078.859-4.184.851-4.547-.013-.62-.388-4.452-1.186-4.452-1.337 0-.674 6.469-.459 7.196ZM162.969 242c-2.991 0-9.679 5.854-8.907 9 .005.01.447-.35.351-.283l.056-.043c1.271-1.025 2.718-2.019 3.992-3.206.911-.849 1.987-1.612 2.816-2.541.085-.094 1.986-2.927 1.692-2.927Z" fill-rule="evenodd" style="fill: rgb(217, 217, 217); fill-opacity: 1;" class="fills"/></g><g class="fills"><rect rx="0" ry="0" x="69" y="95" width="126" height="48" class="frame-background"/></g><g class="frame-children"><path d="M101 143c-13.255 0-24-10.745-24-24 0-2.435.363-4.785 1.037-7h-6.538a2.512 2.512 0 0 1-1.388-.421 2.572 2.572 0 0 1-.544-.493 2.572 2.572 0 0 1-.377-.629 2.367 2.367 0 0 1-.178-.711 2.512 2.512 0 0 1-.012-.245v-.002a2.512 2.512 0 0 1 .421-1.388 2.572 2.572 0 0 1 .493-.544 2.572 2.572 0 0 1 .629-.377 2.418 2.418 0 0 1 .956-.19h8.002c.224 0 .443.029.659.088C84.297 99.866 92.08 95 101 95c9.352 0 17.455 5.349 21.416 13.155 2.077-3.116 5.533-5.155 9.446-5.155 4.013 0 7.545 2.144 9.603 5.394C145.38 100.459 153.553 95 163 95c8.92 0 16.703 4.866 20.84 12.088.216-.059.436-.088.659-.088h8.002a2.496 2.496 0 0 1 2.499 2.499v.002a2.512 2.512 0 0 1-.421 1.388 2.332 2.332 0 0 1-.311.379 2.58 2.58 0 0 1-.589.437 2.258 2.258 0 0 1-.453.187 2.418 2.418 0 0 1-.725.108h-6.538a24.008 24.008 0 0 1 1.037 7c0 13.255-10.745 24-24 24s-24-10.745-24-24c0-1.422.124-2.815.361-4.169-.085-4.376-3.447-7.831-7.499-7.831-3.736 0-6.887 2.94-7.42 6.83.365 1.665.558 3.395.558 5.17 0 13.255-10.745 24-24 24Zm0-4c11.046 0 20-8.954 20-20s-8.954-20-20-20-20 8.954-20 20 8.954 20 20 20Zm82-20c0 11.046-8.954 20-20 20s-20-8.954-20-20 8.954-20 20-20 20 8.954 20 20Z" fill-rule="evenodd" filter="[object Object]" style="fill: rgb(217, 217, 217); fill-opacity: 1;" class="fills"/></g><defs><rect width="266" height="280" id="m"/></defs><g class="fills"><rect width="88.584" height="84.021" class="frame-background" x="85.708" transform="matrix(2.93506 0 0 2.32086 -251.558 -128.783)" ry="0" rx="0" y="55.49" clip-path="url(#-clip_12)"/></g><g class="frame-children"><path d="M249 70.5c0 .799-.033 1.591-.097 2.374C255.882 82.449 260 94.244 260 107a57.867 57.867 0 0 1-3.667 20.341A28.6 28.6 0 0 1 257 133.5c0 9.788-4.934 18.424-12.451 23.555C235.837 174.792 217.594 187 196.5 187a54.12 54.12 0 0 1-5.81-.312A36.355 36.355 0 0 1 167.5 195c-4.018 0-7.884-.649-11.5-1.849v-12.554a56.084 56.084 0 0 0 17.447-12.938c.408-.449.809-.905 1.202-1.368a55.322 55.322 0 0 0 5.314-7.384 57.496 57.496 0 0 0 2.588-4.811 55.007 55.007 0 0 0 1.46-3.337 57.286 57.286 0 0 0 1.775-5.166 55.575 55.575 0 0 0 .899-3.53 54.242 54.242 0 0 0 .669-3.58 57.94 57.94 0 0 0 .247-1.805 57.9 57.9 0 0 0 .187-1.812 13.075 13.075 0 0 0 1.046-.205 13.007 13.007 0 0 0 1.023-.297 11.565 11.565 0 0 0 .993-.387 11.757 11.757 0 0 0 1.415-.742 13.115 13.115 0 0 0 .883-.596 12.137 12.137 0 0 0 1.948-1.811 11.83 11.83 0 0 0 1.5-2.195c.083-.157.163-.315.24-.476a11.1 11.1 0 0 0 .414-.982c.062-.167.12-.334.175-.503a13.002 13.002 0 0 0 .28-1.028 11.482 11.482 0 0 0 .189-1.049c.023-.176.043-.353.059-.53a13.516 13.516 0 0 0 .047-1.064v-13.002a11.539 11.539 0 0 0-.046-1.051 11.45 11.45 0 0 0-.138-1.043 12.72 12.72 0 0 0-.229-1.027 11.205 11.205 0 0 0-.318-1.003c-.06-.165-.124-.328-.192-.49a11.478 11.478 0 0 0-1.269-2.299 12.786 12.786 0 0 0-.643-.833 11.8 11.8 0 0 0-1.492-1.48 12.814 12.814 0 0 0-1.277-.927 13.799 13.799 0 0 0-.451-.271 13.766 13.766 0 0 0-.936-.48 11.523 11.523 0 0 0-.975-.397 12.676 12.676 0 0 0-1.005-.31 11.512 11.512 0 0 0-1.029-.22v-6.169a55.93 55.93 0 0 0-2.215-15.594l1.368 12.79-11.34-24-45.136-19.524-30.114 10.557-21.498 20.191-.044-2.565A56.039 56.039 0 0 0 76 91.999v6.169a11.482 11.482 0 0 0-1.029.22 12.149 12.149 0 0 0-2.916 1.187 12.812 12.812 0 0 0-.89.561 12.814 12.814 0 0 0-.838.637 11.81 11.81 0 0 0-1.492 1.48 11.853 11.853 0 0 0-1.211 1.719 11.478 11.478 0 0 0-.701 1.413 10.808 10.808 0 0 0-.362.988 12.681 12.681 0 0 0-.274 1.016 12.72 12.72 0 0 0-.183 1.036 11.45 11.45 0 0 0-.104 1.574v13.002a11.814 11.814 0 0 0 .106 1.594 13.42 13.42 0 0 0 .189 1.049 11.479 11.479 0 0 0 .28 1.028 12.446 12.446 0 0 0 .829 1.961 11.737 11.737 0 0 0 1.162 1.784 11.184 11.184 0 0 0 1.069 1.187 11.16 11.16 0 0 0 .796.708 12.137 12.137 0 0 0 2.237 1.439 12.412 12.412 0 0 0 .974.43 11.565 11.565 0 0 0 1.524.48 11.504 11.504 0 0 0 1.046.205 55.041 55.041 0 0 0 .434 3.617 57.455 57.455 0 0 0 .669 3.58 55.575 55.575 0 0 0 4.134 12.033 54.933 54.933 0 0 0 1.673 3.235 54.585 54.585 0 0 0 2.896 4.633 54.67 54.67 0 0 0 2.175 2.921 55.7 55.7 0 0 0 7.597 7.833c.463.393.932.778 1.408 1.155a54.704 54.704 0 0 0 4.44 3.182 58.667 58.667 0 0 0 3.123 1.875 57.517 57.517 0 0 0 3.239 1.667v10.958A36.36 36.36 0 0 1 92.5 195a36.355 36.355 0 0 1-23.19-8.312 54.12 54.12 0 0 1-5.81.312c-21.094 0-39.337-12.208-48.049-29.945C7.934 151.924 3 143.288 3 133.5c0-2.115.23-4.175.667-6.159A57.867 57.867 0 0 1 0 107c0-12.756 4.118-24.551 11.097-34.126A29.141 29.141 0 0 1 11 70.5c0-11.297 6.574-21.06 16.104-25.67 8.433-18.128 26.454-30.894 47.546-31.781A28.407 28.407 0 0 1 94.5 5c2.327 0 4.589.279 6.754.805C110.776 2.058 121.148 0 132 0c10.346 0 20.255 1.87 29.408 5.292A28.606 28.606 0 0 1 165.5 5a28.407 28.407 0 0 1 19.85 8.049c21.092.887 39.113 13.653 47.546 31.781C242.427 49.44 249 59.203 249 70.5Z" fill-rule="evenodd" style="fill: rgb(49, 71, 86); fill-opacity: 1;" class="fills"/><path d="M75.631 98.975c4.089-25.092 27.545-44.329 55.869-44.329 28.324 0 51.78 19.237 55.869 44.329.415-2.552.631-5.164.631-7.823C188 62.349 162.704 39 131.5 39S75 62.349 75 91.152c0 2.659.216 5.271.631 7.823Z" fill-rule="evenodd" style="fill: rgb(191, 101, 118); fill-opacity: 1;" class="fills"/></g></svg>