<svg width="200" xmlns="http://www.w3.org/2000/svg" height="263.948" fill="none"><g class="fills"><rect rx="0" ry="0" x="65.929" y="88.433" width="68.142" height="105.134" transform="matrix(2.935063, 0.000001, -0.000001, 2.320856, -193.506388, -186.240760)" class="frame-background"/></g><g class="frame-children"><path d="M44.000,74.999C44.000,74.083,44.023,73.167,44.068,72.251C44.113,71.336,44.180,70.422,44.270,69.510C44.360,68.598,44.472,67.689,44.606,66.782C44.741,65.876,44.897,64.973,45.076,64.074C45.255,63.175,45.456,62.281,45.678,61.392C45.901,60.503,46.145,59.620,46.411,58.743C46.677,57.866,46.965,56.996,47.274,56.133C47.582,55.271,47.912,54.416,48.263,53.569C48.613,52.722,48.985,51.885,49.377,51.056C49.768,50.228,50.180,49.410,50.612,48.601C51.044,47.793,51.496,46.996,51.967,46.210C52.438,45.424,52.928,44.650,53.438,43.888C53.947,43.126,54.474,42.377,55.020,41.640C55.566,40.904,56.130,40.182,56.711,39.474C57.293,38.765,57.891,38.071,58.507,37.392C59.122,36.713,59.754,36.050,60.402,35.402C61.050,34.754,61.713,34.122,62.392,33.506C63.071,32.891,63.765,32.293,64.474,31.711C65.182,31.130,65.904,30.566,66.640,30.020C67.377,29.474,68.126,28.947,68.888,28.438C69.650,27.928,70.424,27.438,71.210,26.967C71.996,26.496,72.793,26.044,73.601,25.612C74.410,25.180,75.228,24.768,76.056,24.376C76.885,23.985,77.722,23.613,78.569,23.263C79.416,22.912,80.271,22.582,81.134,22.273C81.996,21.965,82.866,21.677,83.743,21.411C84.620,21.145,85.503,20.901,86.392,20.678C87.281,20.456,88.175,20.255,89.074,20.076C89.973,19.897,90.876,19.741,91.782,19.606C92.689,19.472,93.598,19.359,94.510,19.270C95.422,19.180,96.336,19.112,97.251,19.067C98.167,19.022,99.083,19.000,99.999,19.000L100.001,19.000C100.918,19.000,101.834,19.022,102.749,19.067C103.664,19.112,104.578,19.180,105.490,19.270C106.402,19.359,107.311,19.472,108.218,19.606C109.125,19.741,110.027,19.897,110.926,20.076C111.825,20.255,112.719,20.456,113.608,20.678C114.497,20.901,115.380,21.145,116.257,21.411C117.134,21.677,118.003,21.965,118.866,22.273C119.729,22.582,120.584,22.912,121.431,23.263C122.278,23.613,123.115,23.985,123.944,24.376C124.772,24.768,125.590,25.180,126.399,25.612C127.207,26.044,128.004,26.496,128.790,26.967C129.576,27.438,130.350,27.928,131.112,28.438C131.874,28.947,132.623,29.474,133.360,30.020C134.096,30.566,134.818,31.130,135.526,31.711C136.235,32.293,136.929,32.891,137.608,33.506C138.287,34.122,138.950,34.754,139.598,35.402C140.246,36.050,140.878,36.713,141.494,37.392C142.109,38.071,142.708,38.765,143.289,39.474C143.870,40.182,144.434,40.904,144.980,41.640C145.526,42.377,146.053,43.126,146.562,43.888C147.071,44.650,147.562,45.424,148.033,46.210C148.504,46.996,148.956,47.793,149.388,48.601C149.820,49.410,150.232,50.228,150.623,51.056C151.015,51.885,151.386,52.722,151.737,53.569C152.088,54.416,152.418,55.271,152.727,56.133C153.036,56.996,153.323,57.866,153.589,58.743C153.855,59.620,154.099,60.503,154.322,61.392C154.545,62.281,154.745,63.175,154.924,64.074C155.103,64.973,155.259,65.876,155.394,66.782C155.529,67.689,155.641,68.598,155.730,69.510C155.820,70.422,155.888,71.336,155.933,72.251C155.978,73.167,156.000,74.083,156.000,74.999L156.000,81.168C156.173,81.197,156.345,81.230,156.517,81.267C156.688,81.303,156.859,81.344,157.029,81.388C157.198,81.433,157.367,81.481,157.535,81.532C157.702,81.584,157.869,81.639,158.034,81.698C158.199,81.757,158.363,81.820,158.526,81.886C158.689,81.952,158.850,82.022,159.009,82.095C159.168,82.168,159.326,82.245,159.482,82.325C159.638,82.405,159.792,82.489,159.945,82.575C160.097,82.662,160.247,82.753,160.396,82.846C160.545,82.940,160.691,83.036,160.835,83.136C160.979,83.236,161.121,83.339,161.261,83.445C161.400,83.552,161.538,83.661,161.673,83.773C161.808,83.885,161.940,84.000,162.070,84.118C162.200,84.236,162.327,84.357,162.451,84.480C162.576,84.604,162.698,84.730,162.817,84.859C162.936,84.988,163.052,85.119,163.165,85.253C163.278,85.387,163.389,85.524,163.496,85.663C163.603,85.801,163.707,85.943,163.808,86.086C163.909,86.229,164.007,86.375,164.102,86.523C164.197,86.670,164.288,86.820,164.376,86.972C164.464,87.123,164.549,87.277,164.631,87.432C164.712,87.588,164.790,87.745,164.864,87.904C164.939,88.063,165.010,88.223,165.077,88.385C165.145,88.547,165.209,88.710,165.269,88.875C165.329,89.040,165.386,89.206,165.439,89.373C165.492,89.540,165.542,89.709,165.587,89.878C165.632,90.047,165.674,90.218,165.713,90.389C165.751,90.560,165.785,90.732,165.816,90.905C165.847,91.078,165.873,91.251,165.896,91.425C165.919,91.599,165.939,91.773,165.954,91.948C165.969,92.123,165.981,92.298,165.988,92.473C165.996,92.648,166.000,92.824,166.000,92.999L166.000,107.001C166.000,107.180,165.996,107.358,165.988,107.537C165.980,107.715,165.968,107.894,165.952,108.072C165.936,108.250,165.916,108.427,165.892,108.604C165.869,108.781,165.841,108.958,165.809,109.134C165.777,109.310,165.741,109.485,165.702,109.659C165.663,109.833,165.619,110.006,165.572,110.179C165.525,110.351,165.473,110.522,165.418,110.692C165.363,110.862,165.305,111.031,165.242,111.198C165.179,111.366,165.113,111.532,165.043,111.696C164.973,111.861,164.899,112.024,164.822,112.185C164.745,112.346,164.665,112.505,164.580,112.663C164.496,112.820,164.408,112.976,164.317,113.130C164.226,113.283,164.131,113.435,164.033,113.584C163.935,113.734,163.834,113.881,163.729,114.026C163.624,114.171,163.516,114.313,163.405,114.453C163.294,114.593,163.180,114.731,163.063,114.866C162.946,115.001,162.826,115.133,162.703,115.263C162.580,115.392,162.454,115.519,162.325,115.643C162.196,115.767,162.065,115.888,161.931,116.006C161.797,116.124,161.660,116.239,161.521,116.351C161.382,116.463,161.240,116.572,161.096,116.678C160.952,116.783,160.806,116.886,160.657,116.985C160.508,117.084,160.357,117.180,160.204,117.272C160.051,117.365,159.896,117.453,159.739,117.539C159.582,117.624,159.424,117.706,159.263,117.785C159.102,117.863,158.940,117.938,158.776,118.009C158.612,118.080,158.447,118.147,158.280,118.211C158.113,118.275,157.945,118.335,157.775,118.391C157.606,118.447,157.435,118.500,157.263,118.548C157.091,118.597,156.918,118.641,156.744,118.682C156.570,118.723,156.395,118.760,156.219,118.793C156.044,118.826,155.867,118.855,155.690,118.880C155.628,119.474,155.556,120.066,155.474,120.657C155.393,121.248,155.302,121.838,155.201,122.426C155.101,123.014,154.991,123.600,154.872,124.185C154.753,124.770,154.624,125.352,154.486,125.932C154.349,126.513,154.202,127.091,154.045,127.667C153.889,128.243,153.724,128.816,153.549,129.386C153.374,129.957,153.191,130.524,152.998,131.089C152.805,131.654,152.604,132.215,152.393,132.773C152.182,133.332,151.963,133.886,151.735,134.437C151.506,134.988,151.269,135.536,151.023,136.079C150.777,136.623,150.523,137.163,150.260,137.698C149.997,138.233,149.725,138.764,149.445,139.291C149.165,139.818,148.877,140.341,148.580,140.858C148.283,141.375,147.978,141.888,147.665,142.396C147.352,142.904,147.030,143.407,146.701,143.904C146.372,144.401,146.035,144.894,145.690,145.381C145.345,145.868,144.992,146.349,144.632,146.824C144.271,147.299,143.903,147.769,143.528,148.233C143.153,148.696,142.770,149.154,142.380,149.606C141.990,150.057,141.593,150.502,141.189,150.941C140.784,151.380,140.373,151.812,139.955,152.238C139.537,152.664,139.112,153.083,138.681,153.495C138.250,153.907,137.812,154.312,137.367,154.710C136.923,155.108,136.473,155.499,136.016,155.883C135.559,156.266,135.096,156.643,134.627,157.012C134.158,157.381,133.684,157.742,133.203,158.096C132.722,158.449,132.236,158.795,131.745,159.133C131.254,159.472,130.757,159.802,130.255,160.124C129.753,160.447,129.246,160.761,128.733,161.067C128.221,161.373,127.704,161.671,127.183,161.961C126.661,162.250,126.135,162.531,125.605,162.804C125.074,163.077,124.539,163.341,124.000,163.597L124.000,182.000L159.501,182.000C160.164,182.000,160.826,182.016,161.488,182.049C162.150,182.082,162.811,182.130,163.471,182.195C164.130,182.260,164.788,182.341,165.443,182.438C166.099,182.535,166.752,182.649,167.402,182.778C168.052,182.907,168.698,183.053,169.341,183.214C169.984,183.375,170.623,183.551,171.257,183.744C171.892,183.936,172.521,184.144,173.145,184.367C173.769,184.590,174.387,184.829,174.999,185.083C175.612,185.336,176.218,185.605,176.817,185.888C177.416,186.171,178.007,186.469,178.592,186.782C179.177,187.095,179.753,187.421,180.322,187.762C180.890,188.103,181.450,188.457,182.001,188.825C182.552,189.194,183.094,189.575,183.626,189.970C184.159,190.365,184.681,190.772,185.193,191.193C185.706,191.614,186.207,192.046,186.698,192.491C187.189,192.936,187.669,193.393,188.138,193.862C188.607,194.331,189.064,194.810,189.509,195.301C189.954,195.792,190.386,196.294,190.807,196.807C191.228,197.319,191.635,197.841,192.030,198.374C192.425,198.906,192.806,199.448,193.175,199.999C193.543,200.550,193.897,201.110,194.238,201.678C194.579,202.247,194.905,202.823,195.218,203.408C195.531,203.993,195.829,204.584,196.112,205.183C196.395,205.782,196.664,206.388,196.917,207.001C197.171,207.613,197.410,208.231,197.633,208.855C197.856,209.479,198.064,210.108,198.256,210.743C198.449,211.377,198.625,212.016,198.786,212.659C198.947,213.302,199.093,213.948,199.222,214.598C199.351,215.248,199.465,215.901,199.562,216.557C199.659,217.212,199.740,217.870,199.805,218.529C199.870,219.189,199.918,219.850,199.951,220.512C199.984,221.174,200.000,221.836,200.000,222.499L200.000,263.000L0.000,263.000L0.000,222.499C0.000,221.836,0.016,221.174,0.049,220.512C0.081,219.850,0.130,219.189,0.195,218.529C0.260,217.870,0.341,217.212,0.438,216.557C0.536,215.901,0.649,215.248,0.778,214.598C0.908,213.948,1.053,213.302,1.214,212.659C1.375,212.016,1.552,211.377,1.744,210.743C1.936,210.108,2.144,209.479,2.367,208.855C2.591,208.231,2.829,207.613,3.083,207.001C3.337,206.388,3.605,205.782,3.888,205.183C4.172,204.584,4.470,203.993,4.782,203.408C5.095,202.823,5.421,202.247,5.762,201.678C6.103,201.110,6.457,200.550,6.825,199.999C7.194,199.448,7.575,198.906,7.970,198.374C8.365,197.841,8.772,197.319,9.193,196.807C9.613,196.294,10.046,195.793,10.491,195.302C10.936,194.811,11.393,194.331,11.862,193.862C12.331,193.393,12.811,192.936,13.302,192.491C13.793,192.046,14.294,191.614,14.807,191.193C15.319,190.772,15.841,190.365,16.374,189.970C16.906,189.575,17.448,189.194,17.999,188.825C18.550,188.457,19.110,188.103,19.678,187.762C20.247,187.421,20.823,187.095,21.408,186.782C21.993,186.469,22.584,186.171,23.183,185.888C23.783,185.605,24.388,185.336,25.001,185.083C25.613,184.829,26.231,184.590,26.855,184.367C27.479,184.144,28.109,183.936,28.743,183.744C29.377,183.551,30.016,183.375,30.659,183.214C31.302,183.053,31.948,182.907,32.598,182.778C33.248,182.649,33.901,182.535,34.557,182.438C35.212,182.341,35.870,182.260,36.529,182.195C37.189,182.130,37.850,182.082,38.512,182.049C39.174,182.016,39.836,182.000,40.499,182.000L76.000,182.000L76.000,163.597C75.461,163.341,74.926,163.077,74.396,162.804C73.865,162.531,73.339,162.250,72.817,161.961C72.296,161.671,71.779,161.373,71.267,161.067C70.755,160.761,70.247,160.447,69.745,160.124C69.243,159.802,68.747,159.472,68.255,159.133C67.764,158.795,67.278,158.449,66.797,158.096C66.317,157.742,65.842,157.381,65.373,157.012C64.904,156.643,64.441,156.266,63.984,155.883C63.528,155.499,63.077,155.108,62.633,154.710C62.188,154.312,61.750,153.907,61.319,153.495C60.888,153.083,60.463,152.664,60.045,152.238C59.627,151.812,59.216,151.380,58.811,150.941C58.407,150.502,58.010,150.057,57.620,149.606C57.230,149.154,56.847,148.696,56.472,148.233C56.097,147.769,55.729,147.299,55.368,146.824C55.008,146.349,54.655,145.868,54.310,145.381C53.965,144.894,53.628,144.401,53.299,143.904C52.970,143.407,52.649,142.904,52.335,142.396C52.022,141.888,51.717,141.375,51.420,140.858C51.124,140.341,50.835,139.818,50.555,139.291C50.275,138.764,50.003,138.233,49.740,137.698C49.477,137.163,49.223,136.623,48.977,136.079C48.731,135.536,48.494,134.988,48.265,134.437C48.037,133.886,47.818,133.332,47.607,132.773C47.396,132.215,47.195,131.654,47.002,131.089C46.809,130.524,46.625,129.957,46.451,129.386C46.276,128.816,46.111,128.243,45.955,127.667C45.798,127.091,45.651,126.513,45.514,125.932C45.376,125.352,45.247,124.770,45.128,124.185C45.009,123.600,44.899,123.014,44.799,122.426C44.698,121.838,44.607,121.248,44.526,120.657C44.444,120.066,44.372,119.474,44.310,118.880C44.133,118.855,43.956,118.826,43.781,118.793C43.605,118.760,43.430,118.723,43.256,118.682C43.082,118.641,42.909,118.597,42.737,118.548C42.565,118.500,42.395,118.447,42.225,118.391C42.055,118.335,41.887,118.275,41.720,118.211C41.553,118.147,41.388,118.080,41.224,118.009C41.060,117.938,40.898,117.863,40.737,117.785C40.576,117.706,40.418,117.624,40.261,117.539C40.104,117.453,39.949,117.365,39.796,117.272C39.643,117.180,39.492,117.084,39.343,116.985C39.195,116.886,39.048,116.783,38.904,116.678C38.760,116.572,38.618,116.463,38.479,116.351C38.340,116.239,38.203,116.124,38.069,116.006C37.935,115.888,37.803,115.767,37.675,115.643C37.546,115.519,37.420,115.392,37.297,115.263C37.174,115.133,37.054,115.001,36.937,114.866C36.820,114.731,36.706,114.593,36.595,114.453C36.484,114.313,36.376,114.171,36.271,114.026C36.167,113.881,36.065,113.734,35.967,113.584C35.869,113.435,35.775,113.283,35.683,113.130C35.592,112.976,35.504,112.820,35.420,112.663C35.336,112.505,35.255,112.346,35.178,112.185C35.100,112.024,35.027,111.861,34.957,111.696C34.887,111.532,34.821,111.366,34.758,111.198C34.696,111.031,34.637,110.862,34.582,110.692C34.527,110.522,34.476,110.351,34.428,110.179C34.381,110.006,34.338,109.833,34.298,109.659C34.259,109.485,34.223,109.310,34.191,109.134C34.159,108.958,34.132,108.781,34.108,108.604C34.084,108.427,34.064,108.250,34.048,108.072C34.032,107.894,34.020,107.715,34.012,107.537C34.004,107.358,34.000,107.180,34.000,107.001L34.000,92.999C34.000,92.824,34.004,92.648,34.012,92.473C34.019,92.298,34.031,92.123,34.046,91.948C34.062,91.773,34.081,91.599,34.104,91.425C34.127,91.251,34.154,91.078,34.184,90.905C34.215,90.732,34.249,90.560,34.287,90.389C34.326,90.218,34.367,90.047,34.413,89.878C34.459,89.709,34.508,89.540,34.561,89.373C34.614,89.206,34.671,89.040,34.731,88.875C34.791,88.710,34.855,88.547,34.923,88.385C34.990,88.223,35.061,88.063,35.136,87.904C35.210,87.745,35.288,87.588,35.369,87.432C35.451,87.277,35.536,87.123,35.624,86.972C35.712,86.820,35.803,86.670,35.898,86.523C35.993,86.375,36.091,86.229,36.192,86.086C36.293,85.943,36.397,85.801,36.504,85.663C36.611,85.524,36.722,85.387,36.835,85.253C36.948,85.119,37.064,84.988,37.183,84.859C37.302,84.730,37.424,84.604,37.549,84.480C37.673,84.357,37.801,84.236,37.930,84.118C38.060,84.000,38.193,83.885,38.327,83.773C38.462,83.661,38.600,83.552,38.739,83.445C38.879,83.339,39.021,83.236,39.165,83.136C39.309,83.036,39.456,82.940,39.604,82.846C39.753,82.753,39.903,82.662,40.055,82.575C40.208,82.489,40.362,82.405,40.518,82.325C40.674,82.245,40.832,82.168,40.991,82.095C41.151,82.022,41.312,81.952,41.474,81.886C41.637,81.820,41.801,81.757,41.966,81.698C42.131,81.639,42.298,81.584,42.465,81.532C42.633,81.481,42.802,81.433,42.971,81.388C43.141,81.344,43.312,81.303,43.483,81.267C43.655,81.230,43.827,81.197,44.000,81.168L44.000,74.999ZZZZZZZ" fill-rule="evenodd" style="fill: rgb(136, 104, 93); fill-opacity: 1;" class="fills"/><path d="M44.000,113.000L44.000,121.000C44.000,121.917,44.023,122.833,44.068,123.748C44.113,124.663,44.180,125.577,44.270,126.489C44.360,127.401,44.472,128.310,44.606,129.217C44.741,130.124,44.897,131.026,45.076,131.925C45.255,132.824,45.456,133.718,45.678,134.607C45.901,135.496,46.145,136.379,46.411,137.256C46.677,138.133,46.965,139.002,47.274,139.865C47.582,140.728,47.912,141.583,48.263,142.430C48.613,143.277,48.985,144.114,49.377,144.943C49.768,145.771,50.180,146.589,50.612,147.398C51.044,148.206,51.496,149.003,51.967,149.789C52.438,150.575,52.928,151.349,53.438,152.111C53.947,152.873,54.474,153.622,55.020,154.359C55.566,155.095,56.130,155.817,56.711,156.525C57.293,157.234,57.891,157.928,58.507,158.607C59.122,159.286,59.754,159.949,60.402,160.597C61.050,161.245,61.713,161.877,62.392,162.493C63.071,163.108,63.765,163.707,64.474,164.288C65.182,164.869,65.904,165.433,66.640,165.979C67.377,166.525,68.126,167.052,68.888,167.561C69.650,168.070,70.424,168.561,71.210,169.032C71.996,169.503,72.793,169.955,73.601,170.387C74.410,170.819,75.228,171.231,76.056,171.622C76.885,172.014,77.722,172.385,78.569,172.736C79.416,173.087,80.271,173.417,81.134,173.726C81.996,174.035,82.866,174.322,83.743,174.588C84.620,174.854,85.503,175.098,86.392,175.321C87.281,175.544,88.175,175.744,89.074,175.923C89.973,176.102,90.876,176.258,91.782,176.393C92.689,176.528,93.598,176.640,94.510,176.729C95.422,176.819,96.336,176.887,97.251,176.932C98.167,176.977,99.083,176.999,99.999,176.999L100.001,176.999C100.918,176.999,101.834,176.977,102.749,176.932C103.664,176.887,104.578,176.819,105.490,176.729C106.402,176.640,107.311,176.528,108.218,176.393C109.125,176.258,110.027,176.102,110.926,175.923C111.825,175.744,112.719,175.544,113.608,175.321C114.497,175.098,115.380,174.854,116.257,174.588C117.134,174.322,118.003,174.035,118.866,173.726C119.729,173.417,120.584,173.087,121.431,172.736C122.278,172.385,123.115,172.014,123.944,171.622C124.772,171.231,125.590,170.819,126.399,170.387C127.207,169.955,128.004,169.503,128.790,169.032C129.576,168.561,130.350,168.070,131.112,167.561C131.874,167.052,132.623,166.525,133.360,165.979C134.096,165.433,134.818,164.869,135.526,164.288C136.235,163.707,136.929,163.108,137.608,162.493C138.287,161.877,138.950,161.245,139.598,160.597C140.246,159.949,140.878,159.286,141.494,158.607C142.109,157.928,142.708,157.234,143.289,156.525C143.870,155.817,144.434,155.095,144.980,154.359C145.526,153.622,146.053,152.873,146.562,152.111C147.071,151.349,147.562,150.575,148.033,149.789C148.504,149.003,148.956,148.206,149.388,147.398C149.820,146.589,150.232,145.771,150.623,144.943C151.015,144.114,151.386,143.277,151.737,142.430C152.088,141.583,152.418,140.728,152.727,139.865C153.036,139.002,153.323,138.133,153.589,137.256C153.855,136.379,154.099,135.496,154.322,134.607C154.545,133.718,154.745,132.824,154.924,131.925C155.103,131.026,155.259,130.124,155.394,129.217C155.529,128.310,155.641,127.401,155.730,126.489C155.820,125.577,155.888,124.663,155.933,123.748C155.978,122.833,156.000,121.917,156.000,121.000L156.000,113.000C156.000,113.916,155.978,114.832,155.933,115.748C155.888,116.663,155.820,117.577,155.730,118.489C155.641,119.401,155.529,120.310,155.394,121.217C155.259,122.124,155.103,123.026,154.924,123.925C154.745,124.824,154.545,125.718,154.322,126.607C154.099,127.496,153.855,128.379,153.589,129.256C153.323,130.133,153.036,131.002,152.727,131.865C152.418,132.728,152.088,133.583,151.737,134.430C151.386,135.277,151.015,136.114,150.623,136.943C150.232,137.771,149.820,138.589,149.388,139.398C148.956,140.206,148.504,141.003,148.033,141.789C147.562,142.575,147.071,143.349,146.562,144.111C146.053,144.873,145.526,145.622,144.980,146.359C144.434,147.095,143.870,147.817,143.289,148.525C142.708,149.234,142.109,149.928,141.494,150.607C140.878,151.286,140.246,151.949,139.598,152.597C138.950,153.245,138.287,153.877,137.608,154.493C136.929,155.108,136.235,155.707,135.526,156.288C134.818,156.869,134.096,157.433,133.360,157.979C132.623,158.525,131.874,159.052,131.112,159.561C130.350,160.070,129.576,160.561,128.790,161.032C128.004,161.503,127.207,161.955,126.399,162.387C125.590,162.819,124.772,163.231,123.944,163.622C123.115,164.014,122.278,164.385,121.431,164.736C120.584,165.087,119.729,165.417,118.866,165.726C118.003,166.035,117.134,166.322,116.257,166.588C115.380,166.854,114.497,167.098,113.608,167.321C112.719,167.544,111.825,167.744,110.926,167.923C110.027,168.102,109.125,168.258,108.218,168.393C107.311,168.528,106.402,168.640,105.490,168.729C104.578,168.819,103.664,168.887,102.749,168.932C101.834,168.977,100.918,168.999,100.001,168.999L99.999,168.999C99.083,168.999,98.167,168.977,97.251,168.932C96.336,168.887,95.422,168.819,94.510,168.729C93.598,168.640,92.689,168.528,91.782,168.393C90.876,168.258,89.973,168.102,89.074,167.923C88.175,167.744,87.281,167.544,86.392,167.321C85.503,167.098,84.620,166.854,83.743,166.588C82.866,166.322,81.996,166.035,81.134,165.726C80.271,165.417,79.416,165.087,78.569,164.736C77.722,164.385,76.885,164.014,76.056,163.622C75.228,163.231,74.410,162.819,73.601,162.387C72.793,161.955,71.996,161.503,71.210,161.032C70.424,160.561,69.650,160.070,68.888,159.561C68.126,159.052,67.377,158.525,66.640,157.979C65.904,157.433,65.182,156.869,64.474,156.288C63.765,155.707,63.071,155.108,62.392,154.493C61.713,153.877,61.050,153.245,60.402,152.597C59.754,151.949,59.122,151.286,58.507,150.607C57.891,149.928,57.293,149.234,56.711,148.525C56.130,147.817,55.566,147.095,55.020,146.359C54.474,145.622,53.947,144.873,53.438,144.111C52.928,143.349,52.438,142.575,51.967,141.789C51.496,141.003,51.044,140.206,50.612,139.398C50.180,138.589,49.768,137.771,49.377,136.943C48.985,136.114,48.613,135.277,48.263,134.430C47.912,133.583,47.582,132.728,47.274,131.865C46.965,131.002,46.677,130.133,46.411,129.256C46.145,128.379,45.901,127.496,45.678,126.607C45.456,125.718,45.255,124.824,45.076,123.925C44.897,123.026,44.741,122.124,44.606,121.217C44.472,120.310,44.360,119.401,44.270,118.489C44.180,117.577,44.113,116.663,44.068,115.748C44.023,114.832,44.000,113.916,44.000,113.000ZZZZZZZ" fill-rule="evenodd" style="fill: rgb(0, 0, 0); fill-opacity: 0.101961;" class="fills"/></g><defs><rect width="56" height="24" id="a"/></defs><g class="fills"><rect width="24" height="8" class="frame-background" x="88" transform="matrix(1.000000, 0.000000, -0.000000, 1.000000, 0.000002, 0.000007)" ry="0" rx="0" y="120" clip-path="url(#-clip_10)"/></g><g class="frame-children"><path d="M88.000,120.000C88.000,124.418,93.373,128.000,100.000,128.000L100.000,128.000C106.627,128.000,112.000,124.418,112.000,120.000" fill-rule="evenodd" style="fill: rgb(0, 0, 0); fill-opacity: 0.160784;" class="fills"/></g><defs><rect width="108" height="44" id="b"/></defs><g class="fills"><rect width="28" height="14" class="frame-background" x="86" transform="matrix(1.000000, 0.000000, 0.000000, 1.000000, -0.000001, -0.000005)" ry="0" rx="0" y="138" clip-path="url(#-clip_9)"/></g><g class="frame-children"><path d="M86.000,138.000C86.000,145.732,92.268,152.000,100.000,152.000L100.000,152.000C107.732,152.000,114.000,145.732,114.000,138.000" fill-rule="evenodd" style="fill: rgb(0, 0, 0); fill-opacity: 0.698039;" class="fills"/></g><defs><rect width="112" height="24" id="c"/></defs><g class="fills"><rect width="88.001" height="18.815" class="frame-background" x="56" transform="matrix(1.000000, 0.000000, -0.000000, 1.000000, 0.000001, 0.000000)" ry="0" rx="0" y="77" clip-path="url(#-clip_6)"/></g><g class="frame-children"><path d="M59.976,94.125C61.471,84.602,74.059,78.106,83.164,82.298C84.167,82.760,85.355,82.321,85.817,81.318C86.279,80.315,85.840,79.127,84.837,78.665C73.349,73.375,57.936,81.330,56.025,93.505C55.853,94.596,56.599,95.619,57.690,95.791C58.781,95.962,59.805,95.216,59.976,94.125ZZZZZZZ" fill-rule="evenodd" style="fill: rgb(0, 0, 0); fill-opacity: 0.6;" class="fills"/><path d="M140.025,94.125C138.530,84.602,125.942,78.106,116.837,82.298C115.834,82.760,114.646,82.321,114.184,81.318C113.722,80.315,114.161,79.127,115.164,78.665C126.652,73.375,142.065,81.330,143.976,93.505C144.148,94.596,143.402,95.619,142.311,95.791C141.220,95.962,140.196,95.216,140.025,94.125ZZZZZZZ" fill-rule="evenodd" style="fill: rgb(0, 0, 0); fill-opacity: 0.6;" class="fills"/></g><defs><rect width="112" height="44" id="d"/></defs><g class="fills"><rect width="80" height="8" class="frame-background" x="61" transform="matrix(1.000000, 0.000000, 0.000000, 1.000000, 0.000004, -0.000006)" ry="0" rx="0" y="97" clip-path="url(#-clip_7)"/></g><g class="frame-children"><path d="M61.160,103.447C63.007,99.649,67.164,97.000,71.998,97.000C76.814,97.000,80.959,99.630,82.815,103.407C83.367,104.529,82.582,105.448,81.791,104.767C79.340,102.660,75.859,101.344,71.998,101.344C68.257,101.344,64.874,102.579,62.438,104.572C61.547,105.300,60.620,104.558,61.160,103.447ZZZZZZZ" fill-rule="evenodd" style="fill: rgb(0, 0, 0); fill-opacity: 0.6;" class="fills"/><path d="M119.160,103.447C121.007,99.649,125.164,97.000,129.998,97.000C134.814,97.000,138.959,99.630,140.815,103.407C141.367,104.529,140.582,105.448,139.791,104.767C137.340,102.660,133.859,101.344,129.998,101.344C126.257,101.344,122.874,102.579,120.438,104.572C119.547,105.300,118.620,104.558,119.160,103.447ZZZZZZZ" fill-rule="evenodd" style="fill: rgb(0, 0, 0); fill-opacity: 0.6;" class="fills"/></g><defs><rect width="264" height="110" id="e"/></defs><g class="fills"><rect width="200" height="80.948" class="frame-background" transform="matrix(1.000000, 0.000000, 0.000000, 1.000000, 0.000000, 0.000000)" ry="0" rx="0" y="183" clip-path="url(#-clip_2)"/></g><g class="frame-children"><path d="M134.000,184.296C134.000,196.159,119.002,205.776,100.500,205.776C81.998,205.776,67.000,196.159,67.000,184.296C67.000,183.861,67.020,183.429,67.060,183.000L40.473,183.000C39.811,183.000,39.149,183.016,38.487,183.049C37.826,183.081,37.165,183.130,36.506,183.195C35.847,183.260,35.190,183.341,34.535,183.438C33.879,183.535,33.227,183.649,32.577,183.778C31.928,183.907,31.282,184.052,30.639,184.213C29.997,184.374,29.358,184.551,28.724,184.743C28.091,184.935,27.462,185.143,26.838,185.366C26.215,185.589,25.597,185.827,24.985,186.081C24.373,186.334,23.767,186.603,23.169,186.886C22.570,187.169,21.978,187.467,21.394,187.779C20.810,188.091,20.234,188.418,19.666,188.758C19.098,189.099,18.538,189.453,17.988,189.821C17.437,190.189,16.895,190.570,16.363,190.965C15.831,191.359,15.309,191.767,14.797,192.187C14.285,192.607,13.784,193.040,13.293,193.485C12.802,193.929,12.323,194.386,11.854,194.854C11.386,195.323,10.929,195.802,10.485,196.293C10.040,196.784,9.607,197.285,9.187,197.797C8.767,198.309,8.359,198.831,7.965,199.363C7.570,199.895,7.189,200.437,6.821,200.988C6.453,201.538,6.099,202.098,5.758,202.666C5.418,203.234,5.091,203.810,4.779,204.394C4.467,204.978,4.169,205.570,3.886,206.169C3.603,206.767,3.334,207.373,3.081,207.985C2.827,208.597,2.589,209.215,2.366,209.838C2.143,210.462,1.935,211.091,1.743,211.724C1.551,212.358,1.374,212.996,1.213,213.639C1.052,214.282,0.907,214.928,0.778,215.577C0.649,216.227,0.535,216.879,0.438,217.535C0.341,218.190,0.260,218.847,0.195,219.506C0.130,220.165,0.081,220.826,0.049,221.487C0.016,222.149,0.000,222.811,0.000,223.473L0.000,263.948L200.000,263.948L200.000,223.473C200.000,222.811,199.984,222.149,199.951,221.487C199.919,220.826,199.870,220.165,199.805,219.506C199.740,218.847,199.659,218.190,199.562,217.535C199.465,216.879,199.351,216.227,199.222,215.577C199.093,214.928,198.948,214.282,198.787,213.639C198.626,212.996,198.450,212.358,198.257,211.724C198.065,211.091,197.857,210.462,197.634,209.838C197.411,209.215,197.172,208.597,196.919,207.985C196.666,207.373,196.397,206.767,196.114,206.169C195.831,205.570,195.533,204.978,195.221,204.394C194.909,203.810,194.583,203.234,194.242,202.666C193.901,202.098,193.547,201.538,193.179,200.988C192.811,200.437,192.430,199.895,192.035,199.363C191.640,198.831,191.233,198.309,190.813,197.797C190.393,197.285,189.960,196.784,189.515,196.293C189.070,195.802,188.614,195.323,188.146,194.854C187.677,194.386,187.198,193.929,186.707,193.485C186.216,193.040,185.715,192.607,185.203,192.187C184.691,191.767,184.169,191.359,183.637,190.965C183.105,190.570,182.564,190.189,182.013,189.821C181.462,189.453,180.902,189.099,180.334,188.758C179.766,188.418,179.190,188.091,178.606,187.779C178.021,187.467,177.430,187.169,176.831,186.886C176.232,186.603,175.627,186.334,175.015,186.081C174.403,185.827,173.785,185.589,173.162,185.366C172.538,185.143,171.909,184.935,171.276,184.743C170.642,184.551,170.004,184.374,169.361,184.213C168.718,184.052,168.072,183.907,167.423,183.778C166.773,183.649,166.120,183.535,165.465,183.438C164.810,183.341,164.153,183.260,163.494,183.195C162.835,183.130,162.174,183.081,161.513,183.049C160.851,183.016,160.189,183.000,159.527,183.000L133.940,183.000C133.980,183.429,134.000,183.861,134.000,184.296ZZZZZZ" fill-rule="evenodd" style="fill: rgb(13, 13, 13); fill-opacity: 1;" class="fills"/><path d="M139.924,183.000L133.940,183.000C133.980,183.429,134.000,183.861,134.000,184.296C134.000,196.159,119.002,205.776,100.500,205.776C81.998,205.776,67.000,196.159,67.000,184.296C67.000,183.861,67.020,183.429,67.060,183.000L61.076,183.000C60.937,183.919,60.865,184.852,60.865,185.796C60.865,200.660,78.610,212.710,100.500,212.710C122.390,212.710,140.135,200.660,140.135,185.796C140.135,184.852,140.064,183.919,139.924,183.000Z" style="fill: rgb(0, 0, 0); fill-opacity: 0.160784;" class="fills"/></g><defs><rect width="266" height="280" id="f"/></defs><g class="fills"><rect width="168.484" height="259" class="frame-background" x="20" transform="matrix(1.000000, 0.000000, -0.000000, 1.000000, 0.000009, -0.000007)" ry="0" rx="0" clip-path="url(#-clip_12)"/></g><g class="frame-children"><path d="M42.979,84.000C44.423,51.705,68.728,26.008,98.500,26.008C128.272,26.008,152.577,51.705,154.021,84.000C154.664,80.285,155.000,76.452,155.000,72.534C155.000,38.550,129.704,11.000,98.500,11.000C67.296,11.000,42.000,38.550,42.000,72.534C42.000,76.452,42.336,80.285,42.979,84.000ZL42.979,84.000ZL42.979,84.000ZL42.979,84.000ZL42.979,84.000ZL42.979,84.000ZL42.979,84.000Z" fill-rule="evenodd" style="fill: rgb(18, 17, 17); fill-opacity: 0.501961;" class="fills"/></g></svg>