<svg width="200" xmlns="http://www.w3.org/2000/svg" height="247" id="screenshot-f849ad70-aaaf-805e-8005-8a28f944ad79" xmlns:xlink="http://www.w3.org/1999/xlink" fill="none" version="1.1"><style>@font-face {
    font-family: &apos;sourcesanspro&apos;;
    font-style: normal;
    font-weight: 400;
    font-display: block;
    src: url(https://design.penpot.app/fonts/sourcesanspro-regular.woff) format(&apos;woff&apos;);
  }</style><g id="shape-f849ad70-aaaf-805e-8005-8a28f944ad79"><g id="shape-f849ad70-aaaf-805e-8005-8a28f944ad7a"><g class="fills" id="fills-f849ad70-aaaf-805e-8005-8a28f944ad7a"><rect rx="0" ry="0" x="65.929" y="69.433" width="68.142" height="105.134" transform="matrix(2.935063, 0.000001, -0.000001, 2.320856, -193.506403, -161.144550)" class="frame-background"/></g><g class="frame-children"><g id="shape-f849ad70-aaaf-805e-8005-8a28f944ad84"><path d="M44.000,55.999C44.000,55.083,44.023,54.167,44.068,53.251C44.113,52.336,44.180,51.422,44.270,50.510C44.360,49.598,44.472,48.689,44.606,47.782C44.741,46.876,44.897,45.973,45.076,45.074C45.255,44.175,45.456,43.281,45.678,42.392C45.901,41.503,46.145,40.620,46.411,39.743C46.677,38.866,46.965,37.996,47.274,37.134C47.582,36.271,47.912,35.416,48.263,34.569C48.613,33.722,48.985,32.885,49.377,32.056C49.768,31.228,50.180,30.410,50.612,29.601C51.044,28.793,51.496,27.996,51.967,27.210C52.438,26.424,52.928,25.650,53.438,24.888C53.947,24.126,54.474,23.377,55.020,22.640C55.566,21.904,56.130,21.182,56.711,20.474C57.293,19.765,57.891,19.072,58.507,18.392C59.122,17.713,59.754,17.050,60.402,16.402C61.050,15.754,61.713,15.122,62.392,14.507C63.071,13.891,63.765,13.293,64.474,12.711C65.182,12.130,65.904,11.566,66.640,11.020C67.377,10.474,68.126,9.947,68.888,9.438C69.650,8.928,70.424,8.438,71.210,7.967C71.996,7.496,72.793,7.044,73.601,6.612C74.410,6.180,75.228,5.768,76.056,5.377C76.885,4.985,77.722,4.613,78.569,4.263C79.416,3.912,80.271,3.582,81.134,3.274C81.996,2.965,82.866,2.677,83.743,2.411C84.620,2.145,85.503,1.901,86.392,1.678C87.281,1.456,88.175,1.255,89.074,1.076C89.973,0.897,90.876,0.741,91.782,0.606C92.689,0.472,93.598,0.360,94.510,0.270C95.422,0.180,96.336,0.112,97.251,0.067C98.167,0.023,99.083,0.000,99.999,0.000L100.001,0.000C100.918,0.000,101.834,0.023,102.749,0.067C103.664,0.112,104.578,0.180,105.490,0.270C106.402,0.360,107.311,0.472,108.218,0.606C109.125,0.741,110.027,0.897,110.926,1.076C111.825,1.255,112.719,1.456,113.608,1.678C114.497,1.901,115.380,2.145,116.257,2.411C117.134,2.677,118.003,2.965,118.866,3.274C119.729,3.582,120.584,3.912,121.431,4.263C122.278,4.613,123.115,4.985,123.944,5.377C124.772,5.768,125.590,6.180,126.399,6.612C127.207,7.044,128.004,7.496,128.790,7.967C129.576,8.438,130.350,8.928,131.112,9.438C131.874,9.947,132.623,10.474,133.360,11.020C134.096,11.566,134.818,12.130,135.526,12.711C136.235,13.293,136.929,13.891,137.608,14.507C138.287,15.122,138.950,15.754,139.598,16.402C140.246,17.050,140.878,17.713,141.494,18.392C142.109,19.072,142.708,19.765,143.289,20.474C143.870,21.182,144.434,21.904,144.980,22.640C145.526,23.377,146.053,24.126,146.562,24.888C147.071,25.650,147.562,26.424,148.033,27.210C148.504,27.996,148.956,28.793,149.388,29.601C149.820,30.410,150.232,31.228,150.623,32.056C151.015,32.885,151.386,33.722,151.737,34.569C152.088,35.416,152.418,36.271,152.727,37.134C153.036,37.996,153.323,38.866,153.589,39.743C153.855,40.620,154.099,41.503,154.322,42.392C154.545,43.281,154.745,44.175,154.924,45.074C155.103,45.973,155.259,46.876,155.394,47.782C155.529,48.689,155.641,49.598,155.730,50.510C155.820,51.422,155.888,52.336,155.933,53.251C155.978,54.167,156.000,55.083,156.000,55.999L156.000,62.168C156.173,62.197,156.345,62.230,156.517,62.267C156.688,62.304,156.859,62.344,157.029,62.388C157.198,62.433,157.367,62.481,157.535,62.532C157.702,62.584,157.869,62.639,158.034,62.698C158.199,62.757,158.363,62.820,158.526,62.886C158.689,62.952,158.850,63.022,159.009,63.095C159.168,63.168,159.326,63.245,159.482,63.325C159.638,63.405,159.792,63.489,159.945,63.576C160.097,63.662,160.247,63.753,160.396,63.846C160.545,63.940,160.691,64.036,160.835,64.136C160.979,64.236,161.121,64.339,161.261,64.445C161.400,64.552,161.538,64.661,161.673,64.773C161.808,64.885,161.940,65.000,162.070,65.118C162.200,65.236,162.327,65.357,162.451,65.480C162.576,65.604,162.698,65.730,162.817,65.859C162.936,65.988,163.052,66.119,163.165,66.253C163.278,66.387,163.389,66.524,163.496,66.663C163.603,66.801,163.707,66.943,163.808,67.086C163.909,67.229,164.007,67.375,164.102,67.523C164.197,67.670,164.288,67.820,164.376,67.972C164.464,68.123,164.549,68.277,164.631,68.432C164.712,68.588,164.790,68.745,164.864,68.904C164.939,69.063,165.010,69.223,165.077,69.385C165.145,69.547,165.209,69.710,165.269,69.875C165.329,70.040,165.386,70.206,165.439,70.373C165.492,70.540,165.542,70.709,165.587,70.878C165.632,71.047,165.674,71.218,165.713,71.389C165.751,71.560,165.785,71.732,165.816,71.905C165.847,72.078,165.873,72.251,165.896,72.425C165.919,72.599,165.939,72.773,165.954,72.948C165.969,73.123,165.981,73.298,165.988,73.473C165.996,73.648,166.000,73.824,166.000,73.999L166.000,88.001C166.000,88.180,165.996,88.358,165.988,88.537C165.980,88.715,165.968,88.894,165.952,89.072C165.936,89.250,165.916,89.427,165.892,89.604C165.869,89.781,165.841,89.958,165.809,90.134C165.777,90.310,165.741,90.485,165.702,90.659C165.663,90.833,165.619,91.007,165.572,91.179C165.525,91.351,165.473,91.522,165.418,91.692C165.363,91.862,165.305,92.031,165.242,92.199C165.179,92.366,165.113,92.532,165.043,92.696C164.973,92.861,164.899,93.024,164.822,93.185C164.745,93.346,164.665,93.505,164.580,93.663C164.496,93.820,164.408,93.976,164.317,94.130C164.226,94.283,164.131,94.435,164.033,94.584C163.935,94.734,163.834,94.881,163.729,95.026C163.624,95.171,163.516,95.313,163.405,95.453C163.294,95.593,163.180,95.731,163.063,95.866C162.946,96.001,162.826,96.133,162.703,96.263C162.580,96.392,162.454,96.519,162.325,96.643C162.196,96.767,162.065,96.888,161.931,97.006C161.797,97.124,161.660,97.239,161.521,97.351C161.382,97.463,161.240,97.572,161.096,97.678C160.952,97.783,160.806,97.886,160.657,97.985C160.508,98.084,160.357,98.180,160.204,98.272C160.051,98.365,159.896,98.453,159.739,98.539C159.582,98.624,159.424,98.706,159.263,98.785C159.102,98.863,158.940,98.938,158.776,99.009C158.612,99.080,158.447,99.147,158.280,99.211C158.113,99.275,157.945,99.335,157.775,99.391C157.606,99.447,157.435,99.500,157.263,99.548C157.091,99.597,156.918,99.642,156.744,99.682C156.570,99.723,156.395,99.760,156.219,99.793C156.044,99.826,155.867,99.855,155.690,99.881C155.628,100.474,155.556,101.066,155.474,101.657C155.393,102.248,155.302,102.838,155.201,103.426C155.101,104.014,154.991,104.600,154.872,105.185C154.753,105.770,154.624,106.352,154.486,106.932C154.349,107.513,154.202,108.091,154.045,108.667C153.889,109.243,153.724,109.816,153.549,110.386C153.374,110.957,153.191,111.524,152.998,112.089C152.805,112.654,152.604,113.215,152.393,113.773C152.182,114.332,151.963,114.886,151.735,115.437C151.506,115.988,151.269,116.536,151.023,117.079C150.777,117.623,150.523,118.163,150.260,118.698C149.997,119.233,149.725,119.764,149.445,120.291C149.165,120.818,148.877,121.341,148.580,121.858C148.283,122.375,147.978,122.888,147.665,123.396C147.352,123.904,147.030,124.407,146.701,124.904C146.372,125.401,146.035,125.894,145.690,126.381C145.345,126.868,144.992,127.349,144.632,127.824C144.271,128.299,143.903,128.769,143.528,129.233C143.153,129.696,142.770,130.154,142.380,130.606C141.990,131.057,141.593,131.502,141.189,131.941C140.784,132.380,140.373,132.812,139.955,133.238C139.537,133.664,139.112,134.083,138.681,134.495C138.250,134.907,137.812,135.312,137.367,135.710C136.923,136.108,136.473,136.499,136.016,136.883C135.559,137.266,135.096,137.643,134.627,138.012C134.158,138.381,133.684,138.742,133.203,139.096C132.722,139.449,132.236,139.795,131.745,140.133C131.254,140.472,130.757,140.802,130.255,141.124C129.753,141.447,129.246,141.761,128.733,142.067C128.221,142.373,127.704,142.671,127.183,142.961C126.661,143.250,126.135,143.531,125.605,143.804C125.074,144.077,124.539,144.341,124.000,144.597L124.000,163.000L159.501,163.000C160.164,163.000,160.826,163.016,161.488,163.049C162.150,163.082,162.811,163.130,163.471,163.195C164.130,163.260,164.788,163.341,165.443,163.438C166.099,163.535,166.752,163.649,167.402,163.778C168.052,163.907,168.698,164.053,169.341,164.214C169.984,164.375,170.623,164.551,171.257,164.744C171.892,164.936,172.521,165.144,173.145,165.367C173.769,165.590,174.387,165.829,174.999,166.083C175.612,166.336,176.218,166.605,176.817,166.888C177.416,167.171,178.007,167.469,178.592,167.782C179.177,168.095,179.753,168.421,180.322,168.762C180.890,169.103,181.450,169.457,182.001,169.825C182.552,170.194,183.094,170.575,183.626,170.970C184.159,171.365,184.681,171.772,185.193,172.193C185.706,172.614,186.207,173.046,186.698,173.491C187.189,173.936,187.669,174.393,188.138,174.862C188.607,175.331,189.064,175.810,189.509,176.301C189.954,176.792,190.386,177.294,190.807,177.807C191.228,178.319,191.635,178.841,192.030,179.374C192.425,179.906,192.806,180.448,193.175,180.999C193.543,181.550,193.897,182.110,194.238,182.678C194.579,183.247,194.905,183.823,195.218,184.408C195.531,184.993,195.829,185.584,196.112,186.183C196.395,186.782,196.664,187.388,196.917,188.001C197.171,188.613,197.410,189.231,197.633,189.855C197.856,190.479,198.064,191.108,198.256,191.743C198.449,192.377,198.625,193.016,198.786,193.659C198.947,194.302,199.093,194.948,199.222,195.598C199.351,196.248,199.465,196.901,199.562,197.557C199.659,198.212,199.740,198.870,199.805,199.529C199.870,200.189,199.918,200.850,199.951,201.512C199.984,202.174,200.000,202.836,200.000,203.499L200.000,244.000L0.000,244.000L0.000,203.499C0.000,202.836,0.016,202.174,0.049,201.512C0.081,200.850,0.130,200.189,0.195,199.529C0.260,198.870,0.341,198.212,0.438,197.557C0.536,196.901,0.649,196.248,0.778,195.598C0.908,194.948,1.053,194.302,1.214,193.659C1.375,193.016,1.552,192.377,1.744,191.743C1.936,191.108,2.144,190.479,2.367,189.855C2.591,189.231,2.829,188.613,3.083,188.001C3.337,187.388,3.605,186.782,3.888,186.183C4.172,185.584,4.470,184.993,4.782,184.408C5.095,183.823,5.421,183.247,5.762,182.678C6.103,182.110,6.457,181.550,6.825,180.999C7.194,180.448,7.575,179.906,7.970,179.374C8.365,178.841,8.772,178.319,9.193,177.807C9.613,177.294,10.046,176.793,10.491,176.302C10.936,175.811,11.393,175.331,11.862,174.862C12.331,174.393,12.811,173.936,13.302,173.491C13.793,173.046,14.294,172.614,14.807,172.193C15.319,171.772,15.841,171.365,16.374,170.970C16.906,170.575,17.448,170.194,17.999,169.825C18.550,169.457,19.110,169.103,19.678,168.762C20.247,168.421,20.823,168.095,21.408,167.782C21.993,167.469,22.584,167.171,23.183,166.888C23.783,166.605,24.388,166.336,25.001,166.083C25.613,165.829,26.231,165.590,26.855,165.367C27.479,165.144,28.109,164.936,28.743,164.744C29.377,164.551,30.016,164.375,30.659,164.214C31.302,164.053,31.948,163.907,32.598,163.778C33.248,163.649,33.901,163.535,34.557,163.438C35.212,163.341,35.870,163.260,36.529,163.195C37.189,163.130,37.850,163.082,38.512,163.049C39.174,163.016,39.836,163.000,40.499,163.000L76.000,163.000L76.000,144.597C75.461,144.341,74.926,144.077,74.396,143.804C73.865,143.531,73.339,143.250,72.817,142.961C72.296,142.671,71.779,142.373,71.267,142.067C70.755,141.761,70.247,141.447,69.745,141.124C69.243,140.802,68.747,140.472,68.255,140.133C67.764,139.795,67.278,139.449,66.797,139.096C66.317,138.742,65.842,138.381,65.373,138.012C64.904,137.643,64.441,137.266,63.984,136.883C63.528,136.499,63.077,136.108,62.633,135.710C62.188,135.312,61.750,134.907,61.319,134.495C60.888,134.083,60.463,133.664,60.045,133.238C59.627,132.812,59.216,132.380,58.811,131.941C58.407,131.502,58.010,131.057,57.620,130.606C57.230,130.154,56.847,129.696,56.472,129.233C56.097,128.769,55.729,128.299,55.368,127.824C55.008,127.349,54.655,126.868,54.310,126.381C53.965,125.894,53.628,125.401,53.299,124.904C52.970,124.407,52.649,123.904,52.335,123.396C52.022,122.888,51.717,122.375,51.420,121.858C51.124,121.341,50.835,120.818,50.555,120.291C50.275,119.764,50.003,119.233,49.740,118.698C49.477,118.163,49.223,117.623,48.977,117.079C48.731,116.536,48.494,115.988,48.265,115.437C48.037,114.886,47.818,114.332,47.607,113.773C47.396,113.215,47.195,112.654,47.002,112.089C46.809,111.524,46.625,110.957,46.451,110.386C46.276,109.816,46.111,109.243,45.955,108.667C45.798,108.091,45.651,107.513,45.514,106.932C45.376,106.352,45.247,105.770,45.128,105.185C45.009,104.600,44.899,104.014,44.799,103.426C44.698,102.838,44.607,102.248,44.526,101.657C44.444,101.066,44.372,100.474,44.310,99.881C44.133,99.855,43.956,99.826,43.781,99.793C43.605,99.760,43.430,99.723,43.256,99.682C43.082,99.642,42.909,99.597,42.737,99.548C42.565,99.500,42.395,99.447,42.225,99.391C42.055,99.335,41.887,99.275,41.720,99.211C41.553,99.147,41.388,99.080,41.224,99.009C41.060,98.938,40.898,98.863,40.737,98.785C40.576,98.706,40.418,98.624,40.261,98.539C40.104,98.453,39.949,98.365,39.796,98.272C39.643,98.180,39.492,98.084,39.343,97.985C39.195,97.886,39.048,97.783,38.904,97.678C38.760,97.572,38.618,97.463,38.479,97.351C38.340,97.239,38.203,97.124,38.069,97.006C37.935,96.888,37.803,96.767,37.675,96.643C37.546,96.519,37.420,96.392,37.297,96.263C37.174,96.133,37.054,96.001,36.937,95.866C36.820,95.731,36.706,95.593,36.595,95.453C36.484,95.313,36.376,95.171,36.271,95.026C36.167,94.881,36.065,94.734,35.967,94.584C35.869,94.435,35.775,94.283,35.683,94.130C35.592,93.976,35.504,93.820,35.420,93.663C35.336,93.505,35.255,93.346,35.178,93.185C35.100,93.024,35.027,92.861,34.957,92.696C34.887,92.532,34.821,92.366,34.758,92.199C34.696,92.031,34.637,91.862,34.582,91.692C34.527,91.522,34.476,91.351,34.428,91.179C34.381,91.007,34.338,90.833,34.298,90.659C34.259,90.485,34.223,90.310,34.191,90.134C34.159,89.958,34.132,89.781,34.108,89.604C34.084,89.427,34.064,89.250,34.048,89.072C34.032,88.894,34.020,88.715,34.012,88.537C34.004,88.358,34.000,88.180,34.000,88.001L34.000,73.999C34.000,73.824,34.004,73.648,34.012,73.473C34.019,73.298,34.031,73.123,34.046,72.948C34.062,72.773,34.081,72.599,34.104,72.425C34.127,72.251,34.154,72.078,34.184,71.905C34.215,71.732,34.249,71.560,34.287,71.389C34.326,71.218,34.367,71.047,34.413,70.878C34.459,70.709,34.508,70.540,34.561,70.373C34.614,70.206,34.671,70.040,34.731,69.875C34.791,69.710,34.855,69.547,34.923,69.385C34.990,69.223,35.061,69.063,35.136,68.904C35.210,68.745,35.288,68.588,35.369,68.432C35.451,68.277,35.536,68.123,35.624,67.972C35.712,67.820,35.803,67.670,35.898,67.523C35.993,67.375,36.091,67.229,36.192,67.086C36.293,66.943,36.397,66.801,36.504,66.663C36.611,66.524,36.722,66.387,36.835,66.253C36.948,66.119,37.064,65.988,37.183,65.859C37.302,65.730,37.424,65.604,37.549,65.480C37.673,65.357,37.801,65.236,37.930,65.118C38.060,65.000,38.193,64.885,38.327,64.773C38.462,64.661,38.600,64.552,38.739,64.445C38.879,64.339,39.021,64.236,39.165,64.136C39.309,64.036,39.456,63.940,39.604,63.846C39.753,63.753,39.903,63.662,40.055,63.576C40.208,63.489,40.362,63.405,40.518,63.325C40.674,63.245,40.832,63.168,40.991,63.095C41.151,63.022,41.312,62.952,41.474,62.886C41.637,62.820,41.801,62.757,41.966,62.698C42.131,62.639,42.298,62.584,42.465,62.532C42.633,62.481,42.802,62.433,42.971,62.388C43.141,62.344,43.312,62.304,43.483,62.267C43.655,62.230,43.827,62.197,44.000,62.168L44.000,55.999ZZZZZZZ" fill-rule="evenodd" style="fill: rgb(107, 83, 73); fill-opacity: 1;" class="fills" id="fills-f849ad70-aaaf-805e-8005-8a28f944ad84"/></g><g id="shape-f849ad70-aaaf-805e-8005-8a28f944ad85"><path d="M44.000,94.000L44.000,102.000C44.000,102.917,44.023,103.833,44.068,104.748C44.113,105.663,44.180,106.577,44.270,107.489C44.360,108.401,44.472,109.310,44.606,110.217C44.741,111.124,44.897,112.026,45.076,112.925C45.255,113.824,45.456,114.718,45.678,115.607C45.901,116.496,46.145,117.379,46.411,118.256C46.677,119.133,46.965,120.002,47.274,120.865C47.582,121.728,47.912,122.583,48.263,123.430C48.613,124.277,48.985,125.114,49.377,125.943C49.768,126.771,50.180,127.589,50.612,128.398C51.044,129.206,51.496,130.003,51.967,130.789C52.438,131.575,52.928,132.349,53.438,133.111C53.947,133.873,54.474,134.622,55.020,135.359C55.566,136.095,56.130,136.817,56.711,137.525C57.293,138.234,57.891,138.928,58.507,139.607C59.122,140.286,59.754,140.949,60.402,141.597C61.050,142.245,61.713,142.877,62.392,143.493C63.071,144.108,63.765,144.707,64.474,145.288C65.182,145.869,65.904,146.433,66.640,146.979C67.377,147.525,68.126,148.052,68.888,148.561C69.650,149.070,70.424,149.561,71.210,150.032C71.996,150.503,72.793,150.955,73.601,151.387C74.410,151.819,75.228,152.231,76.056,152.622C76.885,153.014,77.722,153.385,78.569,153.736C79.416,154.087,80.271,154.417,81.134,154.726C81.996,155.035,82.866,155.322,83.743,155.588C84.620,155.854,85.503,156.098,86.392,156.321C87.281,156.544,88.175,156.744,89.074,156.923C89.973,157.102,90.876,157.258,91.782,157.393C92.689,157.528,93.598,157.640,94.510,157.729C95.422,157.819,96.336,157.887,97.251,157.932C98.167,157.977,99.083,157.999,99.999,157.999L100.001,157.999C100.918,157.999,101.834,157.977,102.749,157.932C103.664,157.887,104.578,157.819,105.490,157.729C106.402,157.640,107.311,157.528,108.218,157.393C109.125,157.258,110.027,157.102,110.926,156.923C111.825,156.744,112.719,156.544,113.608,156.321C114.497,156.098,115.380,155.854,116.257,155.588C117.134,155.322,118.003,155.035,118.866,154.726C119.729,154.417,120.584,154.087,121.431,153.736C122.278,153.385,123.115,153.014,123.944,152.622C124.772,152.231,125.590,151.819,126.399,151.387C127.207,150.955,128.004,150.503,128.790,150.032C129.576,149.561,130.350,149.070,131.112,148.561C131.874,148.052,132.623,147.525,133.360,146.979C134.096,146.433,134.818,145.869,135.526,145.288C136.235,144.707,136.929,144.108,137.608,143.493C138.287,142.877,138.950,142.245,139.598,141.597C140.246,140.949,140.878,140.286,141.494,139.607C142.109,138.928,142.708,138.234,143.289,137.525C143.870,136.817,144.434,136.095,144.980,135.359C145.526,134.622,146.053,133.873,146.562,133.111C147.071,132.349,147.562,131.575,148.033,130.789C148.504,130.003,148.956,129.206,149.388,128.398C149.820,127.589,150.232,126.771,150.623,125.943C151.015,125.114,151.386,124.277,151.737,123.430C152.088,122.583,152.418,121.728,152.727,120.865C153.036,120.002,153.323,119.133,153.589,118.256C153.855,117.379,154.099,116.496,154.322,115.607C154.545,114.718,154.745,113.824,154.924,112.925C155.103,112.026,155.259,111.124,155.394,110.217C155.529,109.310,155.641,108.401,155.730,107.489C155.820,106.577,155.888,105.663,155.933,104.748C155.978,103.833,156.000,102.917,156.000,102.000L156.000,94.000C156.000,94.917,155.978,95.832,155.933,96.748C155.888,97.663,155.820,98.577,155.730,99.489C155.641,100.401,155.529,101.310,155.394,102.217C155.259,103.124,155.103,104.026,154.924,104.925C154.745,105.824,154.545,106.718,154.322,107.607C154.099,108.496,153.855,109.379,153.589,110.256C153.323,111.133,153.036,112.002,152.727,112.865C152.418,113.728,152.088,114.583,151.737,115.430C151.386,116.277,151.015,117.114,150.623,117.943C150.232,118.771,149.820,119.589,149.388,120.398C148.956,121.206,148.504,122.003,148.033,122.789C147.562,123.575,147.071,124.349,146.562,125.111C146.053,125.873,145.526,126.622,144.980,127.359C144.434,128.095,143.870,128.817,143.289,129.525C142.708,130.234,142.109,130.928,141.494,131.607C140.878,132.286,140.246,132.949,139.598,133.597C138.950,134.245,138.287,134.877,137.608,135.493C136.929,136.108,136.235,136.707,135.526,137.288C134.818,137.869,134.096,138.433,133.360,138.979C132.623,139.525,131.874,140.052,131.112,140.561C130.350,141.070,129.576,141.561,128.790,142.032C128.004,142.503,127.207,142.955,126.399,143.387C125.590,143.819,124.772,144.231,123.944,144.622C123.115,145.014,122.278,145.385,121.431,145.736C120.584,146.087,119.729,146.417,118.866,146.726C118.003,147.035,117.134,147.322,116.257,147.588C115.380,147.854,114.497,148.098,113.608,148.321C112.719,148.544,111.825,148.744,110.926,148.923C110.027,149.102,109.125,149.258,108.218,149.393C107.311,149.528,106.402,149.640,105.490,149.729C104.578,149.819,103.664,149.887,102.749,149.932C101.834,149.977,100.918,149.999,100.001,149.999L99.999,149.999C99.083,149.999,98.167,149.977,97.251,149.932C96.336,149.887,95.422,149.819,94.510,149.729C93.598,149.640,92.689,149.528,91.782,149.393C90.876,149.258,89.973,149.102,89.074,148.923C88.175,148.744,87.281,148.544,86.392,148.321C85.503,148.098,84.620,147.854,83.743,147.588C82.866,147.322,81.996,147.035,81.134,146.726C80.271,146.417,79.416,146.087,78.569,145.736C77.722,145.385,76.885,145.014,76.056,144.622C75.228,144.231,74.410,143.819,73.601,143.387C72.793,142.955,71.996,142.503,71.210,142.032C70.424,141.561,69.650,141.070,68.888,140.561C68.126,140.052,67.377,139.525,66.640,138.979C65.904,138.433,65.182,137.869,64.474,137.288C63.765,136.707,63.071,136.108,62.392,135.493C61.713,134.877,61.050,134.245,60.402,133.597C59.754,132.949,59.122,132.286,58.507,131.607C57.891,130.928,57.293,130.234,56.711,129.525C56.130,128.817,55.566,128.095,55.020,127.359C54.474,126.622,53.947,125.873,53.438,125.111C52.928,124.349,52.438,123.575,51.967,122.789C51.496,122.003,51.044,121.206,50.612,120.398C50.180,119.589,49.768,118.771,49.377,117.943C48.985,117.114,48.613,116.277,48.263,115.430C47.912,114.583,47.582,113.728,47.274,112.865C46.965,112.002,46.677,111.133,46.411,110.256C46.145,109.379,45.901,108.496,45.678,107.607C45.456,106.718,45.255,105.824,45.076,104.925C44.897,104.026,44.741,103.124,44.606,102.217C44.472,101.310,44.360,100.401,44.270,99.489C44.180,98.577,44.113,97.663,44.068,96.748C44.023,95.832,44.000,94.917,44.000,94.000ZZZZZZZ" fill-rule="evenodd" style="fill: rgb(0, 0, 0); fill-opacity: 0.101961;" class="fills" id="fills-f849ad70-aaaf-805e-8005-8a28f944ad85"/></g></g></g><g id="shape-f849ad70-aaaf-805e-8005-8a28f944ad7b"><defs><clipPath id="render-5-clip_2" transform="matrix(1.000000, 0.000000, 0.000000, 1.003201, -31.833395, 132.566665)"><use xlink:href="#render-5-artboard_2" clip-rule="evenodd"/></clipPath><rect width="264" height="110" id="render-5-artboard_2"/></defs><g class="fills" id="fills-f849ad70-aaaf-805e-8005-8a28f944ad7b"><rect width="200" height="81" class="frame-background" transform="matrix(1.000000, 0.000000, 0.000000, 1.000000, 0.000000, 0.000000)" ry="0" rx="0" y="163" clip-path="url(#-clip_2)"/></g><g class="frame-children"><g id="shape-f849ad70-aaaf-805e-8005-8a28f944ad86"><path d="M150.000,170.301C150.000,186.592,127.838,199.800,100.500,199.800C73.162,199.800,51.000,186.592,51.000,170.301C51.000,167.781,51.530,165.335,52.528,163.000L40.473,163.000C39.811,163.000,39.149,163.016,38.487,163.049C37.826,163.081,37.165,163.130,36.506,163.195C35.847,163.260,35.190,163.341,34.534,163.438C33.879,163.536,33.227,163.649,32.577,163.778C31.928,163.908,31.281,164.053,30.639,164.214C29.996,164.375,29.358,164.552,28.724,164.744C28.091,164.936,27.462,165.144,26.838,165.367C26.215,165.591,25.597,165.829,24.985,166.083C24.373,166.337,23.767,166.605,23.169,166.888C22.570,167.172,21.978,167.470,21.394,167.782C20.810,168.095,20.234,168.421,19.666,168.762C19.098,169.103,18.538,169.457,17.988,169.825C17.437,170.194,16.895,170.575,16.363,170.970C15.831,171.365,15.309,171.772,14.797,172.193C14.285,172.613,13.784,173.046,13.293,173.491C12.802,173.936,12.323,174.393,11.854,174.862C11.386,175.331,10.929,175.811,10.485,176.302C10.040,176.793,9.607,177.294,9.187,177.807C8.767,178.319,8.359,178.841,7.965,179.374C7.570,179.906,7.189,180.448,6.821,180.999C6.453,181.550,6.099,182.110,5.758,182.678C5.418,183.247,5.091,183.823,4.779,184.408C4.467,184.993,4.169,185.584,3.886,186.184C3.603,186.783,3.334,187.388,3.081,188.001C2.827,188.613,2.589,189.231,2.366,189.855C2.143,190.479,1.935,191.109,1.743,191.743C1.550,192.377,1.374,193.016,1.213,193.659C1.052,194.302,0.907,194.948,0.778,195.598C0.648,196.248,0.535,196.901,0.438,197.557C0.341,198.212,0.260,198.870,0.195,199.529C0.130,200.189,0.081,200.850,0.049,201.512C0.016,202.174,0.000,202.836,0.000,203.499L0.000,244.000L200.000,244.000L200.000,203.499C200.000,202.836,199.984,202.174,199.951,201.512C199.919,200.850,199.870,200.189,199.805,199.529C199.740,198.870,199.659,198.212,199.562,197.557C199.465,196.901,199.351,196.248,199.222,195.598C199.093,194.948,198.948,194.302,198.787,193.659C198.626,193.016,198.450,192.377,198.257,191.743C198.065,191.109,197.857,190.479,197.634,189.855C197.411,189.231,197.172,188.613,196.919,188.001C196.666,187.388,196.397,186.783,196.114,186.184C195.831,185.584,195.533,184.993,195.221,184.408C194.909,183.823,194.583,183.247,194.242,182.678C193.901,182.110,193.547,181.550,193.179,180.999C192.811,180.448,192.430,179.906,192.035,179.374C191.640,178.841,191.233,178.319,190.813,177.807C190.393,177.294,189.960,176.793,189.515,176.302C189.070,175.811,188.614,175.331,188.146,174.862C187.677,174.393,187.198,173.936,186.707,173.491C186.216,173.046,185.715,172.613,185.203,172.193C184.691,171.772,184.169,171.365,183.637,170.970C183.105,170.575,182.564,170.194,182.013,169.825C181.462,169.457,180.902,169.103,180.334,168.762C179.766,168.421,179.190,168.095,178.606,167.782C178.021,167.470,177.430,167.172,176.831,166.888C176.232,166.605,175.627,166.337,175.015,166.083C174.403,165.829,173.785,165.591,173.162,165.367C172.538,165.144,171.909,164.936,171.276,164.744C170.642,164.552,170.004,164.375,169.361,164.214C168.718,164.053,168.072,163.908,167.423,163.778C166.773,163.649,166.120,163.536,165.465,163.438C164.810,163.341,164.153,163.260,163.494,163.195C162.835,163.130,162.174,163.081,161.513,163.049C160.851,163.016,160.189,163.000,159.527,163.000L148.472,163.000C149.470,165.335,150.000,167.781,150.000,170.301ZZZZZZZ" fill-rule="evenodd" style="fill: rgb(255, 255, 255); fill-opacity: 1;" class="fills" id="fills-f849ad70-aaaf-805e-8005-8a28f944ad86"/></g></g></g><g transform="matrix(1.000000, 0.000000, 0.000000, 1.000000, 0.000000, 0.000000)" class="text-container" id="shape-f849ad70-aaaf-805e-8005-8a28f944ad7d"><defs><pattern patternUnits="userSpaceOnUse" x="90" y="218" width="24" height="31" id="fill-0-render-7-0"><rect width="24" height="31" style="fill: rgb(0, 0, 0); fill-opacity: 1;"/></pattern></defs><text x="90" y="247.5" dominant-baseline="ideographic" textLength="24" lengthAdjust="spacingAndGlyphs" style="text-transform: none; font-family: sourcesanspro; letter-spacing: normal; font-style: normal; font-weight: 400; white-space: pre; font-size: 24px; text-decoration: none solid rgb(0, 0, 0); direction: ltr; fill: rgb(0, 0, 0); fill-opacity: 1;" class="fills" id="fills-f849ad70-aaaf-805e-8005-8a28f944ad7d">✨</text></g><g id="shape-f849ad70-aaaf-805e-8005-8a28f944ad7e"><defs><clipPath id="render-8-clip_7" transform="matrix(0.999999, 0.000000, 0.000000, 1.000001, 46.499946, 53.999982)"><use xlink:href="#render-8-artboard_7" clip-rule="evenodd"/></clipPath><rect width="112" height="44" id="render-8-artboard_7"/></defs><g class="fills" id="fills-f849ad70-aaaf-805e-8005-8a28f944ad7e"><rect width="80" height="8" class="frame-background" x="61" transform="matrix(1.000000, 0.000000, 0.000000, 1.000000, 0.000004, -0.000004)" ry="0" rx="0" y="70" clip-path="url(#-clip_7)"/></g><g class="frame-children"><g id="shape-f849ad70-aaaf-805e-8005-8a28f944ad89"><path d="M61.160,76.447C63.007,72.649,67.164,70.000,71.998,70.000C76.814,70.000,80.959,72.630,82.815,76.407C83.367,77.529,82.582,78.448,81.791,77.767C79.339,75.660,75.859,74.344,71.998,74.344C68.257,74.344,64.874,75.579,62.437,77.572C61.547,78.300,60.620,77.558,61.160,76.447ZZZZZZZ" fill-rule="evenodd" style="fill: rgb(0, 0, 0); fill-opacity: 0.6;" class="fills" id="fills-f849ad70-aaaf-805e-8005-8a28f944ad89"/></g><g id="shape-f849ad70-aaaf-805e-8005-8a28f944ad8a"><path d="M119.160,76.447C121.007,72.649,125.164,70.000,129.998,70.000C134.814,70.000,138.959,72.630,140.815,76.407C141.367,77.529,140.582,78.448,139.791,77.767C137.339,75.660,133.859,74.344,129.998,74.344C126.257,74.344,122.874,75.579,120.437,77.572C119.547,78.300,118.620,77.558,119.160,76.447ZZZZZZZ" fill-rule="evenodd" style="fill: rgb(0, 0, 0); fill-opacity: 0.6;" class="fills" id="fills-f849ad70-aaaf-805e-8005-8a28f944ad8a"/></g></g></g><g id="shape-f849ad70-aaaf-805e-8005-8a28f944ad7f"><defs><clipPath id="render-11-clip_7" transform="matrix(1.000000, 0.000000, 0.000000, 1.000000, 45.999999, 55.999999)"><use xlink:href="#render-11-artboard_7" clip-rule="evenodd"/></clipPath><rect width="112" height="44" id="render-11-artboard_7"/></defs><g class="fills" id="fills-f849ad70-aaaf-805e-8005-8a28f944ad7f"><rect width="64" height="12" class="frame-background" x="68" transform="matrix(1.000000, 0.000000, 0.000000, 1.000000, 0.000000, 0.000000)" ry="0" rx="0" y="72" clip-path="url(#-clip_7)"/></g><g class="frame-children"><g id="shape-f849ad70-aaaf-805e-8005-8a28f944ad8b"><path d="M74.000,84.000C77.314,84.000,80.000,81.314,80.000,78.000C80.000,74.686,77.314,72.000,74.000,72.000C70.686,72.000,68.000,74.686,68.000,78.000C68.000,81.314,70.686,84.000,74.000,84.000ZZZZZZZ" fill-rule="evenodd" style="fill: rgb(0, 0, 0); fill-opacity: 0.6;" class="fills" id="fills-f849ad70-aaaf-805e-8005-8a28f944ad8b"/></g><g id="shape-f849ad70-aaaf-805e-8005-8a28f944ad8c"><path d="M126.000,84.000C129.314,84.000,132.000,81.314,132.000,78.000C132.000,74.686,129.314,72.000,126.000,72.000C122.686,72.000,120.000,74.686,120.000,78.000C120.000,81.314,122.686,84.000,126.000,84.000ZZZZZZZ" fill-rule="evenodd" style="fill: rgb(0, 0, 0); fill-opacity: 0.6;" class="fills" id="fills-f849ad70-aaaf-805e-8005-8a28f944ad8c"/></g></g></g><g id="shape-f849ad70-aaaf-805e-8005-8a28f944ad80"><defs><clipPath id="render-14-clip_6" transform="matrix(1.000000, 0.000000, 0.000000, 1.000000, 39.410484, 47.876221)"><use xlink:href="#render-14-artboard_6" clip-rule="evenodd"/></clipPath><rect width="112" height="24" id="render-14-artboard_6"/></defs><g class="fills" id="fills-f849ad70-aaaf-805e-8005-8a28f944ad80"><rect width="89.821" height="10.572" class="frame-background" x="51" transform="matrix(1.000000, 0.000000, 0.000000, 1.000000, -0.000000, 0.000002)" ry="0" rx="0" y="54" clip-path="url(#-clip_6)"/></g><g class="frame-children"><g id="shape-f849ad70-aaaf-805e-8005-8a28f944ad8d"><path d="M65.958,54.025C60.151,54.293,50.763,58.513,51.005,64.368C51.013,64.560,51.294,64.644,51.432,64.497C54.187,61.538,73.747,58.547,80.637,60.132C81.267,60.277,81.746,59.655,81.347,59.206C77.925,55.357,71.160,53.779,65.958,54.025ZZZZZZ" fill-rule="evenodd" style="fill: rgb(0, 0, 0); fill-opacity: 0.6;" class="fills" id="fills-f849ad70-aaaf-805e-8005-8a28f944ad8d"/></g><g id="shape-f849ad70-aaaf-805e-8005-8a28f944ad8e"><path d="M125.863,54.025C131.670,54.293,141.058,58.513,140.816,64.368C140.808,64.560,140.526,64.644,140.389,64.497C137.634,61.538,118.074,58.547,111.184,60.132C110.554,60.277,110.075,59.655,110.474,59.206C113.896,55.357,120.661,53.779,125.863,54.025ZZZZZZ" fill-rule="evenodd" style="fill: rgb(0, 0, 0); fill-opacity: 0.6;" class="fills" id="fills-f849ad70-aaaf-805e-8005-8a28f944ad8e"/></g></g></g><g id="shape-f849ad70-aaaf-805e-8005-8a28f944ad81"><defs><clipPath id="render-17-clip_10" transform="matrix(1.000000, 0.000000, 0.000000, 1.000000, 69.999999, 87.999999)"><use xlink:href="#render-17-artboard_10" clip-rule="evenodd"/></clipPath><rect width="56" height="24" id="render-17-artboard_10"/></defs><g class="fills" id="fills-f849ad70-aaaf-805e-8005-8a28f944ad81"><rect width="24" height="8" class="frame-background" x="83" transform="matrix(1.000000, 0.000000, -0.000000, 1.000000, 0.000001, 0.000006)" ry="0" rx="0" y="96" clip-path="url(#-clip_10)"/></g><g class="frame-children"><g id="shape-f849ad70-aaaf-805e-8005-8a28f944ad8f"><path d="M83.000,96.000C83.000,100.418,88.373,104.000,95.000,104.000L95.000,104.000C101.627,104.000,107.000,100.418,107.000,96.000" fill-rule="evenodd" style="fill: rgb(0, 0, 0); fill-opacity: 0.160784;" class="fills" id="fills-f849ad70-aaaf-805e-8005-8a28f944ad8f"/></g></g></g><g id="shape-f849ad70-aaaf-805e-8005-8a28f944ad82"><defs><clipPath id="render-19-clip_9" transform="matrix(1.000000, 0.000000, 0.000000, 1.000000, 42.500001, 102.000002)"><use xlink:href="#render-19-artboard_9" clip-rule="evenodd"/></clipPath><rect width="108" height="44" id="render-19-artboard_9"/></defs><g class="fills" id="fills-f849ad70-aaaf-805e-8005-8a28f944ad82"><rect width="28" height="14" class="frame-background" x="82" transform="matrix(1.000000, 0.000000, 0.000000, 1.000000, -0.000001, -0.000004)" ry="0" rx="0" y="117" clip-path="url(#-clip_9)"/></g><g class="frame-children"><g id="shape-f849ad70-aaaf-805e-8005-8a28f944ad90"><path d="M82.000,117.000C82.000,124.732,88.268,131.000,96.000,131.000L96.000,131.000C103.732,131.000,110.000,124.732,110.000,117.000" fill-rule="evenodd" style="fill: rgb(0, 0, 0); fill-opacity: 0.698039;" class="fills" id="fills-f849ad70-aaaf-805e-8005-8a28f944ad90"/></g></g></g><g id="shape-f849ad70-aaaf-805e-8005-8a28f944ad83"><g class="fills" id="fills-f849ad70-aaaf-805e-8005-8a28f944ad83"><rect rx="0" ry="0" x="39" y="57" width="126" height="38" transform="matrix(1.000000, 0.000000, 0.000000, 1.000000, 0.000000, 0.000000)" class="frame-background"/></g><g class="frame-children"><g id="shape-f849ad70-aaaf-805e-8005-8a28f944ad91"><path d="M85.249,64.275C87.621,64.297,88.742,64.692,89.146,67.165C89.555,69.670,89.157,72.487,88.685,74.955C87.965,78.723,86.767,82.414,83.978,85.168C82.509,86.619,80.717,87.775,78.811,88.564C77.799,88.983,76.730,89.286,75.661,89.516C75.349,89.583,72.682,89.950,74.318,89.763C70.501,90.199,66.360,90.182,63.172,87.752C59.640,85.060,57.220,80.800,56.157,76.556C55.534,74.073,54.226,68.134,56.616,66.149C59.353,63.874,85.249,64.275,85.249,64.275ZZZZZZL85.249,64.275ZZZZZZZM61.218,57.490C55.778,57.678,52.147,58.634,49.463,64.069C44.546,74.030,52.963,88.969,62.352,93.039C73.329,97.799,85.592,92.532,91.396,83.006C94.469,77.962,96.023,70.323,95.923,64.504C95.795,57.076,90.607,56.870,84.509,57.034L61.218,57.490ZZZZZZZ" fill-rule="evenodd" style="fill: rgb(255, 255, 255); fill-opacity: 1;" class="fills" id="fills-f849ad70-aaaf-805e-8005-8a28f944ad91"/></g><g id="shape-f849ad70-aaaf-805e-8005-8a28f944ad92"><path d="M118.681,64.272C116.309,64.295,115.188,64.689,114.784,67.163C114.374,69.668,114.772,72.485,115.244,74.952C115.965,78.720,117.163,82.412,119.952,85.166C121.421,86.616,123.213,87.772,125.119,88.562C126.131,88.981,127.200,89.284,128.268,89.513C128.581,89.580,131.247,89.948,129.612,89.761C133.429,90.197,137.570,90.179,140.757,87.750C144.290,85.058,146.709,80.798,147.773,76.554C148.396,74.071,149.703,68.132,147.314,66.146C144.576,63.872,118.681,64.272,118.681,64.272ZZZZZZL118.681,64.272ZZZZZZZM142.712,57.488C148.152,57.675,151.783,58.631,154.466,64.066C159.384,74.028,150.967,88.966,141.577,93.037C130.600,97.797,118.338,92.529,112.534,83.004C109.461,77.960,107.907,70.321,108.007,64.501C108.135,57.074,113.323,56.868,119.421,57.031L142.712,57.488ZZZZZZZ" fill-rule="evenodd" style="fill: rgb(255, 255, 255); fill-opacity: 1;" class="fills" id="fills-f849ad70-aaaf-805e-8005-8a28f944ad92"/></g><g id="shape-f849ad70-aaaf-805e-8005-8a28f944ad93"><path d="M52.197,61.927C48.785,62.118,44.886,62.164,41.690,63.639C38.305,65.201,37.782,68.739,42.049,69.226C43.971,69.446,45.895,69.083,47.787,68.745C49.337,68.468,51.442,68.558,52.907,67.966C55.636,66.862,55.460,61.740,52.197,61.927ZZZZZZ" fill-rule="evenodd" style="fill: rgb(255, 255, 255); fill-opacity: 1;" class="fills" id="fills-f849ad70-aaaf-805e-8005-8a28f944ad93"/></g><g id="shape-f849ad70-aaaf-805e-8005-8a28f944ad94"><path d="M151.735,61.927C155.147,62.118,159.046,62.164,162.242,63.639C165.626,65.201,166.149,68.739,161.882,69.226C159.961,69.446,158.037,69.083,156.144,68.745C154.595,68.468,152.490,68.558,151.025,67.966C148.296,66.862,148.471,61.740,151.735,61.927ZZZZZZ" fill-rule="evenodd" style="fill: rgb(255, 255, 255); fill-opacity: 1;" class="fills" id="fills-f849ad70-aaaf-805e-8005-8a28f944ad94"/></g><g id="shape-f849ad70-aaaf-805e-8005-8a28f944ad95"><path d="M112.109,64.013C110.163,61.713,105.091,60.385,101.892,60.385C98.691,60.385,93.768,61.713,91.822,64.013C90.841,65.172,90.807,66.724,92.508,67.451C94.626,68.357,96.518,66.714,98.213,65.855C100.381,64.757,103.712,64.877,105.719,65.855C107.427,66.688,109.305,68.357,111.423,67.451C113.124,66.724,113.091,65.172,112.109,64.013ZZZZZZ" fill-rule="evenodd" style="fill: rgb(255, 255, 255); fill-opacity: 1;" class="fills" id="fills-f849ad70-aaaf-805e-8005-8a28f944ad95"/></g></g></g><g transform="matrix(1.000000, 0.000000, 0.000000, 1.000000, 0.000000, 0.000000)" class="text-container" id="shape-f849ad70-aaaf-805e-8005-8a2942635c0d"><defs><pattern patternUnits="userSpaceOnUse" x="38" y="204" width="24" height="31" id="fill-0-render-27-0"><rect width="24" height="31" style="fill: rgb(0, 0, 0); fill-opacity: 1;"/></pattern></defs><text x="38" y="233.5" dominant-baseline="ideographic" textLength="24" lengthAdjust="spacingAndGlyphs" style="text-transform: none; font-family: sourcesanspro; letter-spacing: normal; font-style: normal; font-weight: 400; white-space: pre; font-size: 24px; text-decoration: none solid rgb(0, 0, 0); direction: ltr; fill: rgb(0, 0, 0); fill-opacity: 1;" class="fills" id="fills-f849ad70-aaaf-805e-8005-8a2942635c0d">✨</text></g><g transform="matrix(1.000000, 0.000000, 0.000000, 1.000000, 0.000000, 0.000000)" class="text-container" id="shape-f849ad70-aaaf-805e-8005-8a2945fbd26a"><defs><pattern patternUnits="userSpaceOnUse" x="123" y="190" width="24" height="31" id="fill-0-render-28-0"><rect width="24" height="31" style="fill: rgb(0, 0, 0); fill-opacity: 1;"/></pattern></defs><text x="123" y="219.5" dominant-baseline="ideographic" textLength="24" lengthAdjust="spacingAndGlyphs" style="text-transform: none; font-family: sourcesanspro; letter-spacing: normal; font-style: normal; font-weight: 400; white-space: pre; font-size: 24px; text-decoration: none solid rgb(0, 0, 0); direction: ltr; fill: rgb(0, 0, 0); fill-opacity: 1;" class="fills" id="fills-f849ad70-aaaf-805e-8005-8a2945fbd26a">✨</text></g><g transform="matrix(1.000000, 0.000000, 0.000000, 1.000000, 0.000000, 0.000000)" class="text-container" id="shape-f849ad70-aaaf-805e-8005-8a294b626baf"><defs><pattern patternUnits="userSpaceOnUse" x="3" y="189" width="24" height="31" id="fill-0-render-29-0"><rect width="24" height="31" style="fill: rgb(0, 0, 0); fill-opacity: 1;"/></pattern></defs><text x="3" y="218.5" dominant-baseline="ideographic" textLength="24" lengthAdjust="spacingAndGlyphs" style="text-transform: none; font-family: sourcesanspro; letter-spacing: normal; font-style: normal; font-weight: 400; white-space: pre; font-size: 24px; text-decoration: none solid rgb(0, 0, 0); direction: ltr; fill: rgb(0, 0, 0); fill-opacity: 1;" class="fills" id="fills-f849ad70-aaaf-805e-8005-8a294b626baf">✨</text></g><g transform="matrix(1.000000, 0.000000, 0.000000, 1.000000, 0.000000, 0.000000)" class="text-container" id="shape-f849ad70-aaaf-805e-8005-8a29520d9066"><defs><pattern patternUnits="userSpaceOnUse" x="176" y="204" width="24" height="31" id="fill-0-render-30-0"><rect width="24" height="31" style="fill: rgb(0, 0, 0); fill-opacity: 1;"/></pattern></defs><text x="176" y="233.5" dominant-baseline="ideographic" textLength="24" lengthAdjust="spacingAndGlyphs" style="text-transform: none; font-family: sourcesanspro; letter-spacing: normal; font-style: normal; font-weight: 400; white-space: pre; font-size: 24px; text-decoration: none solid rgb(0, 0, 0); direction: ltr; fill: rgb(0, 0, 0); fill-opacity: 1;" class="fills" id="fills-f849ad70-aaaf-805e-8005-8a29520d9066">✨</text></g></g></svg>