<svg width="65" xmlns="http://www.w3.org/2000/svg" height="58" fill="none"><g class="fills"><rect rx="0" ry="0" width="65" height="58" class="frame-background"/></g><g class="frame-children"><path d="m18.929 7.341-1.321 3.534H8.125C3.644 10.875 0 14.126 0 18.125v29c0 3.999 3.644 7.25 8.125 7.25h48.75c4.481 0 8.125-3.251 8.125-7.25v-29c0-3.999-3.644-7.25-8.125-7.25h-9.483l-1.321-3.534c-.825-2.221-3.148-3.716-5.776-3.716h-15.59c-2.628 0-4.951 1.495-5.776 3.716ZM32.5 21.75c6.731 0 12.188 4.869 12.188 10.875S39.231 43.5 32.5 43.5c-6.731 0-12.187-4.869-12.187-10.875S25.769 21.75 32.5 21.75Z" class="fills" style="fill: rgb(0, 0, 0);"/></g></svg>