<svg width="55" xmlns="http://www.w3.org/2000/svg" height="51.01" fill="none"><g class="fills"><rect rx="0" ry="0" width="55" height="51" class="frame-background"/></g><g class="frame-children"><path d="M0 6.375C0 2.859 2.74 0 6.111 0h15.278v12.75c0 1.763 1.365 3.188 3.055 3.188h12.223v12.52l-8.289 8.646a8.02 8.02 0 0 0-2.005 3.706l-1.785 7.461a4.937 4.937 0 0 0 .124 2.739H6.111C2.74 51.01 0 48.151 0 44.635V6.375Zm36.667 6.375H24.444V0l12.223 12.75Zm15.831 10.728 1.375 1.434c1.49 1.554 1.49 4.074 0 5.638l-2.807 2.929-6.78-7.073 2.808-2.928c1.489-1.554 3.905-1.554 5.404 0ZM29.782 41.537l12.337-12.869 6.779 7.072-12.336 12.859a2.99 2.99 0 0 1-1.423.837L29.4 50.93a1.47 1.47 0 0 1-1.451-.418 1.623 1.623 0 0 1-.401-1.514l1.432-5.987a3.172 3.172 0 0 1 .802-1.474Z" class="fills" style="fill: rgb(0, 0, 0);"/></g></svg>