<svg width="236" xmlns="http://www.w3.org/2000/svg" height="24" fill="none"><g class="fills"><rect rx="0" ry="0" x="44" width="24" height="24" transform="matrix(1.000000, 0.000000, 0.000000, 1.000000, 0.000000, 0.000000)" class="frame-background"/></g><g class="frame-children"><path d="M64.200,6.000L47.000,11.000L46.100,8.600C45.800,7.500,46.400,6.400,47.400,6.100L60.900,2.100C62.000,1.800,63.100,2.400,63.400,3.400Z" style="fill: none;" class="fills"/><g stroke-linecap="round" stroke-linejoin="round" class="strokes"><path d="M64.200,6.000L47.000,11.000L46.100,8.600C45.800,7.500,46.400,6.400,47.400,6.100L60.900,2.100C62.000,1.800,63.100,2.400,63.400,3.400Z" style="fill: none; stroke-width: 2; stroke: rgb(0, 0, 0); stroke-opacity: 1;" class="stroke-shape"/></g><path d="M50.200,5.300L53.300,9.200" style="fill: none;" class="fills"/><g stroke-linecap="round" stroke-linejoin="round" class="strokes"><path d="M50.200,5.300L53.300,9.200" style="fill: none; stroke-width: 2; stroke: rgb(0, 0, 0); stroke-opacity: 1;" class="stroke-shape"/></g><path d="M56.400,3.400L59.500,7.400" style="fill: none;" class="fills"/><g stroke-linecap="round" stroke-linejoin="round" class="strokes"><path d="M56.400,3.400L59.500,7.400" style="fill: none; stroke-width: 2; stroke: rgb(0, 0, 0); stroke-opacity: 1;" class="stroke-shape"/></g><path d="M47.000,11.000L65.000,11.000L65.000,19.000C65.000,20.105,64.105,21.000,63.000,21.000L49.000,21.000C47.895,21.000,47.000,20.105,47.000,19.000Z" style="fill: none;" class="fills"/><g stroke-linecap="round" stroke-linejoin="round" class="strokes"><path d="M47.000,11.000L65.000,11.000L65.000,19.000C65.000,20.105,64.105,21.000,63.000,21.000L49.000,21.000C47.895,21.000,47.000,20.105,47.000,19.000Z" style="fill: none; stroke-width: 2; stroke: rgb(0, 0, 0); stroke-opacity: 1;" class="stroke-shape"/></g></g><g class="fills"><rect rx="0" ry="0" x="212" width="24" height="24" transform="matrix(1.000000, 0.000000, 0.000000, 1.000000, 0.000000, 0.000000)" class="frame-background"/></g><g class="frame-children"><path d="M218.000,11.000L222.000,11.000" style="fill: none;" class="fills"/><g stroke-linejoin="round" stroke-linecap="round" class="strokes"><path d="M218.000,11.000L222.000,11.000" style="fill: none; stroke-width: 2; stroke: rgb(0, 0, 0); stroke-opacity: 1;" class="stroke-shape"/></g><path d="M220.000,9.000L220.000,13.000" style="fill: none;" class="fills"/><g stroke-linejoin="round" stroke-linecap="round" class="strokes"><path d="M220.000,9.000L220.000,13.000" style="fill: none; stroke-width: 2; stroke: rgb(0, 0, 0); stroke-opacity: 1;" class="stroke-shape"/></g><path d="M227.000,12.000L227.000,12.000Z" style="fill: none;" class="fills"/><g stroke-linejoin="round" stroke-linecap="round" class="strokes"><path d="M227.000,12.000L227.000,12.000Z" style="fill: none; stroke-width: 2; stroke: rgb(0, 0, 0); stroke-opacity: 1;" class="stroke-shape"/></g><path d="M230.000,10.000L230.000,10.000Z" style="fill: none;" class="fills"/><g stroke-linejoin="round" stroke-linecap="round" class="strokes"><path d="M230.000,10.000L230.000,10.000Z" style="fill: none; stroke-width: 2; stroke: rgb(0, 0, 0); stroke-opacity: 1;" class="stroke-shape"/></g><path d="M229.320,5.000L218.680,5.000C216.630,5.000,214.912,6.551,214.702,8.590C214.696,8.642,214.692,8.691,214.685,8.742C214.604,9.416,214.000,14.456,214.000,16.000C214.000,17.657,215.343,19.000,217.000,19.000C218.000,19.000,218.500,18.500,219.000,18.000L220.414,16.586C220.789,16.211,221.298,16.000,221.828,16.000L226.172,16.000C226.702,16.000,227.211,16.211,227.586,16.586L229.000,18.000C229.500,18.500,230.000,19.000,231.000,19.000C232.657,19.000,234.000,17.657,234.000,16.000C234.000,14.455,233.396,9.416,233.315,8.742C233.308,8.692,233.304,8.642,233.298,8.591C233.088,6.551,231.370,5.001,229.320,5.000ZZ" style="fill: none;" class="fills"/><g stroke-linecap="round" stroke-linejoin="round" class="strokes"><path d="M229.320,5.000L218.680,5.000C216.630,5.000,214.912,6.551,214.702,8.590C214.696,8.642,214.692,8.691,214.685,8.742C214.604,9.416,214.000,14.456,214.000,16.000C214.000,17.657,215.343,19.000,217.000,19.000C218.000,19.000,218.500,18.500,219.000,18.000L220.414,16.586C220.789,16.211,221.298,16.000,221.828,16.000L226.172,16.000C226.702,16.000,227.211,16.211,227.586,16.586L229.000,18.000C229.500,18.500,230.000,19.000,231.000,19.000C232.657,19.000,234.000,17.657,234.000,16.000C234.000,14.455,233.396,9.416,233.315,8.742C233.308,8.692,233.304,8.642,233.298,8.591C233.088,6.551,231.370,5.001,229.320,5.000ZZ" style="fill: none; stroke-width: 2; stroke: rgb(0, 0, 0); stroke-opacity: 1;" class="stroke-shape"/></g></g><g class="fills"><rect rx="0" ry="0" x="88" width="24" height="24" transform="matrix(1.000000, 0.000000, 0.000000, 1.000000, 0.000000, 0.000000)" class="frame-background"/></g><g class="frame-children"><path d="M91.000,11.000L109.000,6.000L109.000,18.000L91.000,14.000L91.000,11.000ZZ" style="fill: none;" class="fills"/><g stroke-linecap="round" stroke-linejoin="round" class="strokes"><path d="M91.000,11.000L109.000,6.000L109.000,18.000L91.000,14.000L91.000,11.000ZZ" style="fill: none; stroke-width: 2; stroke: rgb(0, 0, 0); stroke-opacity: 1;" class="stroke-shape"/></g><path d="M99.600,16.800C99.314,17.836,98.497,18.641,97.457,18.911C96.417,19.182,95.312,18.877,94.557,18.111C93.803,17.346,93.514,16.236,93.800,15.200" style="fill: none;" class="fills"/><g stroke-linecap="round" stroke-linejoin="round" class="strokes"><path d="M99.600,16.800C99.314,17.836,98.497,18.641,97.457,18.911C96.417,19.182,95.312,18.877,94.557,18.111C93.803,17.346,93.514,16.236,93.800,15.200" style="fill: none; stroke-width: 2; stroke: rgb(0, 0, 0); stroke-opacity: 1;" class="stroke-shape"/></g></g><g class="fills"><rect rx="0" ry="0" x="132" width="24" height="24" transform="matrix(1.000000, 0.000000, 0.000000, 1.000000, 0.000000, 0.000000)" class="frame-background"/></g><g class="frame-children"><path d="M139.900,20.000C143.843,22.023,148.672,20.874,151.282,17.292C153.892,13.710,153.505,8.762,150.372,5.628C147.238,2.495,142.290,2.108,138.708,4.718C135.126,7.328,133.977,12.157,136.000,16.100L134.000,22.000Z" style="fill: none;" class="fills"/><g stroke-linecap="round" stroke-linejoin="round" class="strokes"><path d="M139.900,20.000C143.843,22.023,148.672,20.874,151.282,17.292C153.892,13.710,153.505,8.762,150.372,5.628C147.238,2.495,142.290,2.108,138.708,4.718C135.126,7.328,133.977,12.157,136.000,16.100L134.000,22.000Z" style="fill: none; stroke-width: 2; stroke: rgb(0, 0, 0); stroke-opacity: 1;" class="stroke-shape"/></g></g><g class="fills"><rect rx="0" ry="0" x="174" width="24" height="24" transform="matrix(1.000000, 0.000000, 0.000000, 1.000000, 0.000000, 0.000000)" class="frame-background"/></g><g class="frame-children"><path d="M186.000,2.000C184.343,2.000,183.000,3.343,183.000,5.000L183.000,12.000C183.000,13.657,184.343,15.000,186.000,15.000C187.657,15.000,189.000,13.657,189.000,12.000L189.000,5.000C189.000,3.343,187.657,2.000,186.000,2.000ZZ" style="fill: none;" class="fills"/><g stroke-linecap="round" stroke-linejoin="round" class="strokes"><path d="M186.000,2.000C184.343,2.000,183.000,3.343,183.000,5.000L183.000,12.000C183.000,13.657,184.343,15.000,186.000,15.000C187.657,15.000,189.000,13.657,189.000,12.000L189.000,5.000C189.000,3.343,187.657,2.000,186.000,2.000ZZ" style="fill: none; stroke-width: 2; stroke: rgb(0, 0, 0); stroke-opacity: 1;" class="stroke-shape"/></g><path d="M193.000,10.000L193.000,12.000C193.000,15.866,189.866,19.000,186.000,19.000C182.134,19.000,179.000,15.866,179.000,12.000L179.000,10.000" style="fill: none;" class="fills"/><g stroke-linecap="round" stroke-linejoin="round" class="strokes"><path d="M193.000,10.000L193.000,12.000C193.000,15.866,189.866,19.000,186.000,19.000C182.134,19.000,179.000,15.866,179.000,12.000L179.000,10.000" style="fill: none; stroke-width: 2; stroke: rgb(0, 0, 0); stroke-opacity: 1;" class="stroke-shape"/></g><path d="M186.000,19.000L186.000,22.000" style="fill: none;" class="fills"/><g stroke-linejoin="round" stroke-linecap="round" class="strokes"><path d="M186.000,19.000L186.000,22.000" style="fill: none; stroke-width: 2; stroke: rgb(0, 0, 0); stroke-opacity: 1;" class="stroke-shape"/></g></g><g class="fills"><rect rx="0" ry="0" width="24" height="24" transform="matrix(1.000000, 0.000000, 0.000000, 1.000000, 0.000000, 0.000000)" class="frame-background"/></g><g class="frame-children"><path d="M9.000,18.000L9.000,5.000L21.000,3.000L21.000,16.000" style="fill: none;" class="fills"/><g stroke-linecap="round" stroke-linejoin="round" class="strokes"><path d="M9.000,18.000L9.000,5.000L21.000,3.000L21.000,16.000" style="fill: none; stroke-width: 2; stroke: rgb(0, 0, 0); stroke-opacity: 1;" class="stroke-shape"/></g><ellipse cy="18" transform="matrix(1.000000, 0.000000, 0.000000, 1.000000, 0.000000, 0.000000)" style="fill: none;" ry="3" rx="3" cx="6" class="fills"/><g stroke-linecap="round" stroke-linejoin="round" class="strokes"><ellipse cx="6" cy="18" rx="3" ry="3" transform="matrix(1.000000, 0.000000, 0.000000, 1.000000, 0.000000, 0.000000)" style="fill: none; stroke-width: 2; stroke: rgb(0, 0, 0); stroke-opacity: 1;" class="stroke-shape"/></g><ellipse cy="16" transform="matrix(1.000000, 0.000000, 0.000000, 1.000000, 0.000000, 0.000000)" style="fill: none;" ry="3" rx="3" cx="18" class="fills"/><g stroke-linecap="round" stroke-linejoin="round" class="strokes"><ellipse cx="18" cy="16" rx="3" ry="3" transform="matrix(1.000000, 0.000000, 0.000000, 1.000000, 0.000000, 0.000000)" style="fill: none; stroke-width: 2; stroke: rgb(0, 0, 0); stroke-opacity: 1;" class="stroke-shape"/></g></g></svg>