<svg width="475" xmlns="http://www.w3.org/2000/svg" height="27" fill="none"><g class="fills"><rect rx="0" ry="0" x="35" y="2" width="24" height="24" transform="matrix(1.000000, 0.000000, 0.000000, 1.000000, 0.000000, 0.000000)" class="frame-background"/></g><g class="frame-children"><rect width="8" height="18" x="38" transform="matrix(1.000000, 0.000000, 0.000000, 1.000000, 0.000000, 0.000000)" style="fill: none;" ry="1" rx="1" y="5" class="fills"/><g stroke-linejoin="round" stroke-linecap="round" class="strokes"><rect rx="1" ry="1" x="38" y="5" transform="matrix(1.000000, 0.000000, 0.000000, 1.000000, 0.000000, 0.000000)" width="8" height="18" style="fill: none; stroke-width: 2; stroke: rgb(0, 0, 0); stroke-opacity: 1;" class="stroke-shape"/></g><path d="M42.000,5.000L42.000,23.000" style="fill: none;" class="fills"/><g stroke-linecap="round" stroke-linejoin="round" class="strokes"><path d="M42.000,5.000L42.000,23.000" style="fill: none; stroke-width: 2; stroke: rgb(0, 0, 0); stroke-opacity: 1;" class="stroke-shape"/></g><path d="M55.400,20.900C55.600,21.400,55.300,22.000,54.800,22.200L52.900,22.900C52.400,23.100,51.800,22.800,51.600,22.300L46.100,7.100C45.900,6.600,46.200,6.000,46.700,5.800L48.600,5.100C49.100,4.900,49.700,5.200,49.900,5.700Z" style="fill: none;" class="fills"/><g stroke-linecap="round" stroke-linejoin="round" class="strokes"><path d="M55.400,20.900C55.600,21.400,55.300,22.000,54.800,22.200L52.900,22.900C52.400,23.100,51.800,22.800,51.600,22.300L46.100,7.100C45.900,6.600,46.200,6.000,46.700,5.800L48.600,5.100C49.100,4.900,49.700,5.200,49.900,5.700Z" style="fill: none; stroke-width: 2; stroke: rgb(0, 0, 0); stroke-opacity: 1;" class="stroke-shape"/></g></g><g class="fills"><rect rx="0" ry="0" x="67" y="2" width="24" height="24" transform="matrix(1.000000, 0.000000, 0.000000, 1.000000, 0.000000, 0.000000)" class="frame-background"/></g><g class="frame-children"><path d="M71.900,18.100C68.000,14.200,68.000,7.800,71.900,3.900" style="fill: none;" class="fills"/><g stroke-linecap="round" stroke-linejoin="round" class="strokes"><path d="M71.900,18.100C68.000,14.200,68.000,7.800,71.900,3.900" style="fill: none; stroke-width: 2; stroke: rgb(0, 0, 0); stroke-opacity: 1;" class="stroke-shape"/></g><path d="M74.800,6.700C72.848,8.722,72.519,11.812,74.000,14.200" style="fill: none;" class="fills"/><g stroke-linecap="round" stroke-linejoin="round" class="strokes"><path d="M74.800,6.700C72.848,8.722,72.519,11.812,74.000,14.200" style="fill: none; stroke-width: 2; stroke: rgb(0, 0, 0); stroke-opacity: 1;" class="stroke-shape"/></g><ellipse cy="11" transform="matrix(1.000000, 0.000000, 0.000000, 1.000000, 0.000000, 0.000000)" style="fill: none;" ry="2" rx="2" cx="79" class="fills"/><g stroke-linecap="round" stroke-linejoin="round" class="strokes"><ellipse cx="79" cy="11" rx="2" ry="2" transform="matrix(1.000000, 0.000000, 0.000000, 1.000000, 0.000000, 0.000000)" style="fill: none; stroke-width: 2; stroke: rgb(0, 0, 0); stroke-opacity: 1;" class="stroke-shape"/></g><path d="M83.200,6.800C85.200,8.800,85.460,11.910,84.000,14.270" style="fill: none;" class="fills"/><g stroke-linecap="round" stroke-linejoin="round" class="strokes"><path d="M83.200,6.800C85.200,8.800,85.460,11.910,84.000,14.270" style="fill: none; stroke-width: 2; stroke: rgb(0, 0, 0); stroke-opacity: 1;" class="stroke-shape"/></g><path d="M86.100,3.900C87.972,5.768,89.024,8.305,89.024,10.950C89.024,13.595,87.972,16.132,86.100,18.000" style="fill: none;" class="fills"/><g stroke-linecap="round" stroke-linejoin="round" class="strokes"><path d="M86.100,3.900C87.972,5.768,89.024,8.305,89.024,10.950C89.024,13.595,87.972,16.132,86.100,18.000" style="fill: none; stroke-width: 2; stroke: rgb(0, 0, 0); stroke-opacity: 1;" class="stroke-shape"/></g><path d="M76.500,20.000L81.500,20.000" style="fill: none;" class="fills"/><g stroke-linecap="round" stroke-linejoin="round" class="strokes"><path d="M76.500,20.000L81.500,20.000" style="fill: none; stroke-width: 2; stroke: rgb(0, 0, 0); stroke-opacity: 1;" class="stroke-shape"/></g><path d="M75.000,24.000L79.000,13.000L83.000,24.000" style="fill: none;" class="fills"/><g stroke-linecap="round" stroke-linejoin="round" class="strokes"><path d="M75.000,24.000L79.000,13.000L83.000,24.000" style="fill: none; stroke-width: 2; stroke: rgb(0, 0, 0); stroke-opacity: 1;" class="stroke-shape"/></g></g><g class="fills"><rect rx="0" ry="0" x="103" y="2" width="24" height="24" transform="matrix(1.000000, 0.000000, 0.000000, 1.000000, 0.000000, 0.000000)" class="frame-background"/></g><g class="frame-children"><path d="M107.000,4.000L107.000,24.000L109.000,23.000L111.000,24.000L113.000,23.000L115.000,24.000L117.000,23.000L119.000,24.000L121.000,23.000L123.000,24.000L123.000,4.000L121.000,5.000L119.000,4.000L117.000,5.000L115.000,4.000L113.000,5.000L111.000,4.000L109.000,5.000L107.000,4.000ZZ" style="fill: none;" class="fills"/><g stroke-linecap="round" stroke-linejoin="round" class="strokes"><path d="M107.000,4.000L107.000,24.000L109.000,23.000L111.000,24.000L113.000,23.000L115.000,24.000L117.000,23.000L119.000,24.000L121.000,23.000L123.000,24.000L123.000,4.000L121.000,5.000L119.000,4.000L117.000,5.000L115.000,4.000L113.000,5.000L111.000,4.000L109.000,5.000L107.000,4.000ZZ" style="fill: none; stroke-width: 2; stroke: rgb(0, 0, 0); stroke-opacity: 1;" class="stroke-shape"/></g><path d="M119.000,10.000L113.000,10.000C111.895,10.000,111.000,10.895,111.000,12.000C111.000,13.105,111.895,14.000,113.000,14.000L117.000,14.000C118.105,14.000,119.000,14.895,119.000,16.000C119.000,17.105,118.105,18.000,117.000,18.000L111.000,18.000" style="fill: none;" class="fills"/><g stroke-linecap="round" stroke-linejoin="round" class="strokes"><path d="M119.000,10.000L113.000,10.000C111.895,10.000,111.000,10.895,111.000,12.000C111.000,13.105,111.895,14.000,113.000,14.000L117.000,14.000C118.105,14.000,119.000,14.895,119.000,16.000C119.000,17.105,118.105,18.000,117.000,18.000L111.000,18.000" style="fill: none; stroke-width: 2; stroke: rgb(0, 0, 0); stroke-opacity: 1;" class="stroke-shape"/></g><path d="M115.000,19.000L115.000,9.000" style="fill: none;" class="fills"/><g stroke-linecap="round" stroke-linejoin="round" class="strokes"><path d="M115.000,19.000L115.000,9.000" style="fill: none; stroke-width: 2; stroke: rgb(0, 0, 0); stroke-opacity: 1;" class="stroke-shape"/></g></g><g class="fills"><rect rx="0" ry="0" x="143" y="2" width="24" height="24" transform="matrix(1.000000, 0.000000, 0.000000, 1.000000, 0.000000, 0.000000)" class="frame-background"/></g><g class="frame-children"><rect width="20" height="8" x="145" transform="matrix(1.000000, 0.000000, 0.000000, 1.000000, 0.000000, 0.000000)" style="fill: none;" ry="2" rx="2" y="16" class="fills"/><g stroke-linejoin="round" stroke-linecap="round" class="strokes"><rect rx="2" ry="2" x="145" y="16" transform="matrix(1.000000, 0.000000, 0.000000, 1.000000, 0.000000, 0.000000)" width="20" height="8" style="fill: none; stroke-width: 2; stroke: rgb(0, 0, 0); stroke-opacity: 1;" class="stroke-shape"/></g><path d="M149.010,20.000L149.010,20.000Z" style="fill: none;" class="fills"/><g stroke-linecap="round" stroke-linejoin="round" class="strokes"><path d="M149.010,20.000L149.010,20.000Z" style="fill: none; stroke-width: 2; stroke: rgb(0, 0, 0); stroke-opacity: 1;" class="stroke-shape"/></g><path d="M153.010,20.000L153.010,20.000Z" style="fill: none;" class="fills"/><g stroke-linecap="round" stroke-linejoin="round" class="strokes"><path d="M153.010,20.000L153.010,20.000Z" style="fill: none; stroke-width: 2; stroke: rgb(0, 0, 0); stroke-opacity: 1;" class="stroke-shape"/></g><path d="M158.000,12.000L158.000,16.000" style="fill: none;" class="fills"/><g stroke-linecap="round" stroke-linejoin="round" class="strokes"><path d="M158.000,12.000L158.000,16.000" style="fill: none; stroke-width: 2; stroke: rgb(0, 0, 0); stroke-opacity: 1;" class="stroke-shape"/></g><path d="M160.840,9.170C160.090,8.419,159.072,7.997,158.010,7.997C156.948,7.997,155.930,8.419,155.180,9.170" style="fill: none;" class="fills"/><g stroke-linecap="round" stroke-linejoin="round" class="strokes"><path d="M160.840,9.170C160.090,8.419,159.072,7.997,158.010,7.997C156.948,7.997,155.930,8.419,155.180,9.170" style="fill: none; stroke-width: 2; stroke: rgb(0, 0, 0); stroke-opacity: 1;" class="stroke-shape"/></g><path d="M163.660,6.340C160.536,3.218,155.474,3.218,152.350,6.340" style="fill: none;" class="fills"/><g stroke-linecap="round" stroke-linejoin="round" class="strokes"><path d="M163.660,6.340C160.536,3.218,155.474,3.218,152.350,6.340" style="fill: none; stroke-width: 2; stroke: rgb(0, 0, 0); stroke-opacity: 1;" class="stroke-shape"/></g></g><g class="fills"><rect rx="0" ry="0" x="181" y="2" width="24" height="24" transform="matrix(1.000000, 0.000000, 0.000000, 1.000000, 0.000000, 0.000000)" class="frame-background"/></g><g class="frame-children"><path d="M185.000,12.000C183.323,14.869,183.792,18.508,186.142,20.858C188.492,23.208,192.131,23.677,195.000,22.000Z" style="fill: none;" class="fills"/><g stroke-linecap="round" stroke-linejoin="round" class="strokes"><path d="M185.000,12.000C183.323,14.869,183.792,18.508,186.142,20.858C188.492,23.208,192.131,23.677,195.000,22.000Z" style="fill: none; stroke-width: 2; stroke: rgb(0, 0, 0); stroke-opacity: 1;" class="stroke-shape"/></g><path d="M190.000,17.000L193.000,14.000" style="fill: none;" class="fills"/><g stroke-linecap="round" stroke-linejoin="round" class="strokes"><path d="M190.000,17.000L193.000,14.000" style="fill: none; stroke-width: 2; stroke: rgb(0, 0, 0); stroke-opacity: 1;" class="stroke-shape"/></g><path d="M198.000,15.000C198.000,11.686,195.314,9.000,192.000,9.000" style="fill: none;" class="fills"/><g stroke-linecap="round" stroke-linejoin="round" class="strokes"><path d="M198.000,15.000C198.000,11.686,195.314,9.000,192.000,9.000" style="fill: none; stroke-width: 2; stroke: rgb(0, 0, 0); stroke-opacity: 1;" class="stroke-shape"/></g><path d="M202.000,15.000C202.000,9.477,197.523,5.000,192.000,5.000" style="fill: none;" class="fills"/><g stroke-linecap="round" stroke-linejoin="round" class="strokes"><path d="M202.000,15.000C202.000,9.477,197.523,5.000,192.000,5.000" style="fill: none; stroke-width: 2; stroke: rgb(0, 0, 0); stroke-opacity: 1;" class="stroke-shape"/></g></g><g class="fills"><rect rx="0" ry="0" x="221" y="2" width="24" height="24" transform="matrix(1.000000, 0.000000, 0.000000, 1.000000, 0.000000, 0.000000)" class="frame-background"/></g><g class="frame-children"><rect width="20" height="8" x="223" transform="matrix(1.000000, 0.000000, 0.000000, 1.000000, 0.000000, 0.000000)" style="fill: none;" ry="2" rx="2" y="4" class="fills"/><g stroke-linejoin="round" stroke-linecap="round" class="strokes"><rect rx="2" ry="2" x="223" y="4" transform="matrix(1.000000, 0.000000, 0.000000, 1.000000, 0.000000, 0.000000)" width="20" height="8" style="fill: none; stroke-width: 2; stroke: rgb(0, 0, 0); stroke-opacity: 1;" class="stroke-shape"/></g><rect width="20" height="8" x="223" transform="matrix(1.000000, 0.000000, 0.000000, 1.000000, 0.000000, 0.000000)" style="fill: none;" ry="2" rx="2" y="16" class="fills"/><g stroke-linejoin="round" stroke-linecap="round" class="strokes"><rect rx="2" ry="2" x="223" y="16" transform="matrix(1.000000, 0.000000, 0.000000, 1.000000, 0.000000, 0.000000)" width="20" height="8" style="fill: none; stroke-width: 2; stroke: rgb(0, 0, 0); stroke-opacity: 1;" class="stroke-shape"/></g><path d="M227.000,8.000L227.000,8.000Z" style="fill: none;" class="fills"/><g stroke-linejoin="round" stroke-linecap="round" class="strokes"><path d="M227.000,8.000L227.000,8.000Z" style="fill: none; stroke-width: 2; stroke: rgb(0, 0, 0); stroke-opacity: 1;" class="stroke-shape"/></g><path d="M227.000,20.000L227.000,20.000Z" style="fill: none;" class="fills"/><g stroke-linejoin="round" stroke-linecap="round" class="strokes"><path d="M227.000,20.000L227.000,20.000Z" style="fill: none; stroke-width: 2; stroke: rgb(0, 0, 0); stroke-opacity: 1;" class="stroke-shape"/></g></g><g class="fills"><rect rx="0" ry="0" x="259" y="2" width="24" height="24" transform="matrix(1.000000, 0.000000, 0.000000, 1.000000, 0.000000, 0.000000)" class="frame-background"/></g><g class="frame-children"><rect width="18" height="18" x="262" transform="matrix(1.000000, 0.000000, 0.000000, 1.000000, 0.000000, 0.000000)" style="fill: none;" ry="2" rx="2" y="5" class="fills"/><g stroke-linejoin="round" stroke-linecap="round" class="strokes"><rect rx="2" ry="2" x="262" y="5" transform="matrix(1.000000, 0.000000, 0.000000, 1.000000, 0.000000, 0.000000)" width="18" height="18" style="fill: none; stroke-width: 2; stroke: rgb(0, 0, 0); stroke-opacity: 1;" class="stroke-shape"/></g><path d="M262.000,11.000L280.000,11.000" style="fill: none;" class="fills"/><g stroke-linejoin="round" stroke-linecap="round" class="strokes"><path d="M262.000,11.000L280.000,11.000" style="fill: none; stroke-width: 2; stroke: rgb(0, 0, 0); stroke-opacity: 1;" class="stroke-shape"/></g><path d="M262.000,17.000L280.000,17.000" style="fill: none;" class="fills"/><g stroke-linejoin="round" stroke-linecap="round" class="strokes"><path d="M262.000,17.000L280.000,17.000" style="fill: none; stroke-width: 2; stroke: rgb(0, 0, 0); stroke-opacity: 1;" class="stroke-shape"/></g><path d="M268.000,11.000L268.000,23.000" style="fill: none;" class="fills"/><g stroke-linejoin="round" stroke-linecap="round" class="strokes"><path d="M268.000,11.000L268.000,23.000" style="fill: none; stroke-width: 2; stroke: rgb(0, 0, 0); stroke-opacity: 1;" class="stroke-shape"/></g><path d="M274.000,11.000L274.000,23.000" style="fill: none;" class="fills"/><g stroke-linejoin="round" stroke-linecap="round" class="strokes"><path d="M274.000,11.000L274.000,23.000" style="fill: none; stroke-width: 2; stroke: rgb(0, 0, 0); stroke-opacity: 1;" class="stroke-shape"/></g></g><g class="fills"><rect rx="0" ry="0" x="297" y="2" width="24" height="24" transform="matrix(1.000000, 0.000000, 0.000000, 1.000000, 0.000000, 0.000000)" class="frame-background"/></g><g class="frame-children"><ellipse cy="23" transform="matrix(1.000000, 0.000000, 0.000000, 1.000000, 0.000000, 0.000000)" style="fill: none;" ry="1" rx="1" cx="305" class="fills"/><g stroke-linecap="round" stroke-linejoin="round" class="strokes"><ellipse cx="305" cy="23" rx="1" ry="1" transform="matrix(1.000000, 0.000000, 0.000000, 1.000000, 0.000000, 0.000000)" style="fill: none; stroke-width: 2; stroke: rgb(0, 0, 0); stroke-opacity: 1;" class="stroke-shape"/></g><ellipse cy="23" transform="matrix(1.000000, 0.000000, 0.000000, 1.000000, 0.000000, 0.000000)" style="fill: none;" ry="1" rx="1" cx="316" class="fills"/><g stroke-linecap="round" stroke-linejoin="round" class="strokes"><ellipse cx="316" cy="23" rx="1" ry="1" transform="matrix(1.000000, 0.000000, 0.000000, 1.000000, 0.000000, 0.000000)" style="fill: none; stroke-width: 2; stroke: rgb(0, 0, 0); stroke-opacity: 1;" class="stroke-shape"/></g><path d="M299.050,4.050L301.050,4.050L303.710,16.470C303.911,17.408,304.751,18.071,305.710,18.050L315.490,18.050C316.428,18.048,317.238,17.396,317.440,16.480L319.090,9.050L302.120,9.050" style="fill: none;" class="fills"/><g stroke-linecap="round" stroke-linejoin="round" class="strokes"><path d="M299.050,4.050L301.050,4.050L303.710,16.470C303.911,17.408,304.751,18.071,305.710,18.050L315.490,18.050C316.428,18.048,317.238,17.396,317.440,16.480L319.090,9.050L302.120,9.050" style="fill: none; stroke-width: 2; stroke: rgb(0, 0, 0); stroke-opacity: 1;" class="stroke-shape"/></g></g><g class="fills"><rect rx="0" ry="0" x="333" y="2" width="24" height="24" transform="matrix(1.000000, 0.000000, 0.000000, 1.000000, 0.000000, 0.000000)" class="frame-background"/></g><g class="frame-children"><path d="M335.000,22.000L335.000,22.000Z" style="fill: none;" class="fills"/><g stroke-linecap="round" stroke-linejoin="round" class="strokes"><path d="M335.000,22.000L335.000,22.000Z" style="fill: none; stroke-width: 2; stroke: rgb(0, 0, 0); stroke-opacity: 1;" class="stroke-shape"/></g><path d="M340.000,22.000L340.000,18.000" style="fill: none;" class="fills"/><g stroke-linecap="round" stroke-linejoin="round" class="strokes"><path d="M340.000,22.000L340.000,18.000" style="fill: none; stroke-width: 2; stroke: rgb(0, 0, 0); stroke-opacity: 1;" class="stroke-shape"/></g><path d="M345.000,22.000L345.000,14.000" style="fill: none;" class="fills"/><g stroke-linecap="round" stroke-linejoin="round" class="strokes"><path d="M345.000,22.000L345.000,14.000" style="fill: none; stroke-width: 2; stroke: rgb(0, 0, 0); stroke-opacity: 1;" class="stroke-shape"/></g><path d="M350.000,22.000L350.000,10.000" style="fill: none;" class="fills"/><g stroke-linecap="round" stroke-linejoin="round" class="strokes"><path d="M350.000,22.000L350.000,10.000" style="fill: none; stroke-width: 2; stroke: rgb(0, 0, 0); stroke-opacity: 1;" class="stroke-shape"/></g><path d="M355.000,6.000L355.000,22.000" style="fill: none;" class="fills"/><g stroke-linecap="round" stroke-linejoin="round" class="strokes"><path d="M355.000,6.000L355.000,22.000" style="fill: none; stroke-width: 2; stroke: rgb(0, 0, 0); stroke-opacity: 1;" class="stroke-shape"/></g></g><g class="fills"><rect rx="0" ry="0" x="371" width="24" height="24" transform="matrix(1.000000, 0.000000, 0.000000, 1.000000, 0.000000, 0.000000)" class="frame-background"/></g><g class="frame-children"><g class="fills"><rect rx="0" ry="0" x="371" width="24" height="24" transform="matrix(1.000000, 0.000000, 0.000000, 1.000000, 0.000000, 0.000000)" class="frame-background"/></g><g class="frame-children"><rect width="14" height="20" x="376" transform="matrix(1.000000, 0.000000, 0.000000, 1.000000, 0.000000, 0.000000)" style="fill: none;" ry="2" rx="2" y="2" class="fills"/><g stroke-linejoin="round" stroke-linecap="round" class="strokes"><rect rx="2" ry="2" x="376" y="2" transform="matrix(1.000000, 0.000000, 0.000000, 1.000000, 0.000000, 0.000000)" width="14" height="20" style="fill: none; stroke-width: 2; stroke: rgb(0, 0, 0); stroke-opacity: 1;" class="stroke-shape"/></g><path d="M383.000,18.000L383.000,18.000Z" style="fill: none;" class="fills"/><g stroke-linecap="round" stroke-linejoin="round" class="strokes"><path d="M383.000,18.000L383.000,18.000Z" style="fill: none; stroke-width: 2; stroke: rgb(0, 0, 0); stroke-opacity: 1;" class="stroke-shape"/></g></g></g><g class="fills"><rect rx="0" ry="0" x="409" width="24" height="24" transform="matrix(1.000000, 0.000000, 0.000000, 1.000000, 0.000000, 0.000000)" class="frame-background"/></g><g class="frame-children"><g class="fills"><rect rx="0" ry="0" x="409" width="24" height="24" transform="matrix(1.000000, 0.000000, 0.000000, 1.000000, 0.000000, 0.000000)" class="frame-background"/></g><g class="frame-children"><path d="M421.000,3.000L419.088,8.813C418.890,9.416,418.416,9.890,417.813,10.088L412.000,12.000L417.813,13.912C418.416,14.110,418.890,14.584,419.088,15.187L421.000,21.000L422.912,15.187C423.110,14.584,423.584,14.110,424.187,13.912L430.000,12.000L424.187,10.088C423.584,9.890,423.110,9.416,422.912,8.813L421.000,3.000ZZ" style="fill: none;" class="fills"/><g stroke-linecap="round" stroke-linejoin="round" class="strokes"><path d="M421.000,3.000L419.088,8.813C418.890,9.416,418.416,9.890,417.813,10.088L412.000,12.000L417.813,13.912C418.416,14.110,418.890,14.584,419.088,15.187L421.000,21.000L422.912,15.187C423.110,14.584,423.584,14.110,424.187,13.912L430.000,12.000L424.187,10.088C423.584,9.890,423.110,9.416,422.912,8.813L421.000,3.000ZZ" style="fill: none; stroke-width: 2; stroke: rgb(0, 0, 0); stroke-opacity: 1;" class="stroke-shape"/></g><path d="M414.000,3.000L414.000,7.000" style="fill: none;" class="fills"/><g stroke-linecap="round" stroke-linejoin="round" class="strokes"><path d="M414.000,3.000L414.000,7.000" style="fill: none; stroke-width: 2; stroke: rgb(0, 0, 0); stroke-opacity: 1;" class="stroke-shape"/></g><path d="M428.000,17.000L428.000,21.000" style="fill: none;" class="fills"/><g stroke-linecap="round" stroke-linejoin="round" class="strokes"><path d="M428.000,17.000L428.000,21.000" style="fill: none; stroke-width: 2; stroke: rgb(0, 0, 0); stroke-opacity: 1;" class="stroke-shape"/></g><path d="M412.000,5.000L416.000,5.000" style="fill: none;" class="fills"/><g stroke-linecap="round" stroke-linejoin="round" class="strokes"><path d="M412.000,5.000L416.000,5.000" style="fill: none; stroke-width: 2; stroke: rgb(0, 0, 0); stroke-opacity: 1;" class="stroke-shape"/></g><path d="M426.000,19.000L430.000,19.000" style="fill: none;" class="fills"/><g stroke-linecap="round" stroke-linejoin="round" class="strokes"><path d="M426.000,19.000L430.000,19.000" style="fill: none; stroke-width: 2; stroke: rgb(0, 0, 0); stroke-opacity: 1;" class="stroke-shape"/></g></g></g><g class="fills"><rect rx="0" ry="0" x="451" width="24" height="24" transform="matrix(1.000000, 0.000000, 0.000000, 1.000000, 0.000000, 0.000000)" class="frame-background"/></g><g class="frame-children"><path d="M473.000,7.000L464.500,15.500L459.500,10.500L453.000,17.000" style="fill: none;" class="fills"/><g stroke-linecap="round" stroke-linejoin="round" class="strokes"><path d="M473.000,7.000L464.500,15.500L459.500,10.500L453.000,17.000" style="fill: none; stroke-width: 2; stroke: rgb(0, 0, 0); stroke-opacity: 1;" class="stroke-shape"/></g><path d="M467.000,7.000L473.000,7.000L473.000,13.000" style="fill: none;" class="fills"/><g stroke-linecap="round" stroke-linejoin="round" class="strokes"><path d="M467.000,7.000L473.000,7.000L473.000,13.000" style="fill: none; stroke-width: 2; stroke: rgb(0, 0, 0); stroke-opacity: 1;" class="stroke-shape"/></g></g><g class="fills"><rect rx="0" ry="0" y="3" width="24" height="24" transform="matrix(1.000000, 0.000000, 0.000000, 1.000000, 0.000000, 0.000000)" class="frame-background"/></g><g class="frame-children"><path d="M2.000,6.000L8.000,6.000C10.209,6.000,12.000,7.791,12.000,10.000L12.000,24.000C12.000,22.343,10.657,21.000,9.000,21.000L2.000,21.000Z" style="fill: none;" class="fills"/><g stroke-linecap="round" stroke-linejoin="round" class="strokes"><path d="M2.000,6.000L8.000,6.000C10.209,6.000,12.000,7.791,12.000,10.000L12.000,24.000C12.000,22.343,10.657,21.000,9.000,21.000L2.000,21.000Z" style="fill: none; stroke-width: 2; stroke: rgb(0, 0, 0); stroke-opacity: 1;" class="stroke-shape"/></g><path d="M22.000,6.000L16.000,6.000C13.791,6.000,12.000,7.791,12.000,10.000L12.000,24.000C12.000,22.343,13.343,21.000,15.000,21.000L22.000,21.000Z" style="fill: none;" class="fills"/><g stroke-linecap="round" stroke-linejoin="round" class="strokes"><path d="M22.000,6.000L16.000,6.000C13.791,6.000,12.000,7.791,12.000,10.000L12.000,24.000C12.000,22.343,13.343,21.000,15.000,21.000L22.000,21.000Z" style="fill: none; stroke-width: 2; stroke: rgb(0, 0, 0); stroke-opacity: 1;" class="stroke-shape"/></g></g></svg>