<svg width="207.96" xmlns="http://www.w3.org/2000/svg" height="76.081" fill="none"><g class="fills"><rect rx="0" ry="0" x="51.889" y="54.081" width="24" height="24" transform="matrix(1.000000, 0.000000, 0.000000, 1.000000, 0.000000, 0.000000)" class="frame-background"/></g><g class="frame-children"><path d="M54.889,63.081L63.889,56.081L72.889,63.081L72.889,74.081C72.889,75.186,71.993,76.081,70.889,76.081L56.889,76.081C55.784,76.081,54.889,75.186,54.889,74.081Z" style="fill: none;" class="fills"/><g stroke-linecap="round" stroke-linejoin="round" class="strokes"><path d="M54.889,63.081L63.889,56.081L72.889,63.081L72.889,74.081C72.889,75.186,71.993,76.081,70.889,76.081L56.889,76.081C55.784,76.081,54.889,75.186,54.889,74.081Z" style="fill: none; stroke-width: 2; stroke: rgb(0, 0, 0); stroke-opacity: 1;" class="stroke-shape"/></g><path d="M60.889,76.081L60.889,66.081L66.889,66.081L66.889,76.081" style="fill: none;" class="fills"/><g stroke-linecap="round" stroke-linejoin="round" class="strokes"><path d="M60.889,76.081L60.889,66.081L66.889,66.081L66.889,76.081" style="fill: none; stroke-width: 2; stroke: rgb(0, 0, 0); stroke-opacity: 1;" class="stroke-shape"/></g></g><g class="fills"><rect rx="0" ry="0" x="31.931" y="34.5" width="24" height="24" transform="matrix(1.000000, 0.000000, 0.000000, 1.000000, 0.000000, 0.000000)" class="frame-background"/></g><g class="frame-children"><path d="M34.931,41.500L43.931,34.500L52.931,41.500L52.931,52.500C52.931,53.605,52.036,54.500,50.931,54.500L36.931,54.500C35.827,54.500,34.931,53.605,34.931,52.500Z" style="fill: none;" class="fills"/><g stroke-linecap="round" stroke-linejoin="round" class="strokes"><path d="M34.931,41.500L43.931,34.500L52.931,41.500L52.931,52.500C52.931,53.605,52.036,54.500,50.931,54.500L36.931,54.500C35.827,54.500,34.931,53.605,34.931,52.500Z" style="fill: none; stroke-width: 2; stroke: rgb(0, 0, 0); stroke-opacity: 1;" class="stroke-shape"/></g><path d="M40.931,56.500L40.931,46.500L46.931,46.500L46.931,56.500" style="fill: none;" class="fills"/><g stroke-linecap="round" stroke-linejoin="round" class="strokes"><path d="M40.931,56.500L40.931,46.500L46.931,46.500L46.931,56.500" style="fill: none; stroke-width: 2; stroke: rgb(0, 0, 0); stroke-opacity: 1;" class="stroke-shape"/></g></g><g class="fills"><rect rx="0" ry="0" x="121.739" y="54.081" width="24" height="24" transform="matrix(1.000000, 0.000000, 0.000000, 1.000000, 0.000000, 0.000000)" class="frame-background"/></g><g class="frame-children"><path d="M124.739,63.081L133.739,56.081L142.739,63.081L142.739,74.081C142.739,75.186,141.843,76.081,140.739,76.081L126.739,76.081C125.634,76.081,124.739,75.186,124.739,74.081Z" style="fill: none;" class="fills"/><g stroke-linecap="round" stroke-linejoin="round" class="strokes"><path d="M124.739,63.081L133.739,56.081L142.739,63.081L142.739,74.081C142.739,75.186,141.843,76.081,140.739,76.081L126.739,76.081C125.634,76.081,124.739,75.186,124.739,74.081Z" style="fill: none; stroke-width: 2; stroke: rgb(0, 0, 0); stroke-opacity: 1;" class="stroke-shape"/></g><path d="M130.739,76.081L130.739,66.081L136.739,66.081L136.739,76.081" style="fill: none;" class="fills"/><g stroke-linecap="round" stroke-linejoin="round" class="strokes"><path d="M130.739,76.081L130.739,66.081L136.739,66.081L136.739,76.081" style="fill: none; stroke-width: 2; stroke: rgb(0, 0, 0); stroke-opacity: 1;" class="stroke-shape"/></g></g><g class="fills"><rect rx="0" ry="0" x="185.17" y="11.772" width="24" height="24" transform="matrix(0.986057, -0.166411, 0.165774, 0.986164, -0.933963, 32.776592)" class="frame-background"/></g><g class="frame-children"><path d="M188.056,21.947L195.770,13.547L205.805,18.952L207.629,29.800C207.812,30.889,207.077,31.921,205.988,32.105L192.183,34.435C191.094,34.619,190.063,33.885,189.880,32.795Z" style="fill: none;" class="fills"/><g stroke-linecap="round" stroke-linejoin="round" class="strokes"><path d="M188.056,21.947L195.770,13.547L205.805,18.952L207.629,29.800C207.812,30.889,207.077,31.921,205.988,32.105L192.183,34.435C191.094,34.619,190.063,33.885,189.880,32.795Z" style="fill: none; stroke-width: 2; stroke: rgb(0, 0, 0); stroke-opacity: 1;" class="stroke-shape"/></g><path d="M196.128,33.769L194.470,23.907L200.386,22.909L202.044,32.771" style="fill: none;" class="fills"/><g stroke-linecap="round" stroke-linejoin="round" class="strokes"><path d="M196.128,33.769L194.470,23.907L200.386,22.909L202.044,32.771" style="fill: none; stroke-width: 2; stroke: rgb(0, 0, 0); stroke-opacity: 1;" class="stroke-shape"/></g></g><g class="fills"><rect rx="0" ry="0" x="156.664" y="34.5" width="24" height="24" transform="matrix(1.000000, 0.000000, 0.000000, 1.000000, 0.000000, 0.000000)" class="frame-background"/></g><g class="frame-children"><path d="M159.664,41.500L168.664,34.500L177.664,41.500L177.664,52.500C177.664,53.605,176.768,54.500,175.664,54.500L161.664,54.500C160.559,54.500,159.664,53.605,159.664,52.500Z" style="fill: none;" class="fills"/><g stroke-linecap="round" stroke-linejoin="round" class="strokes"><path d="M159.664,41.500L168.664,34.500L177.664,41.500L177.664,52.500C177.664,53.605,176.768,54.500,175.664,54.500L161.664,54.500C160.559,54.500,159.664,53.605,159.664,52.500Z" style="fill: none; stroke-width: 2; stroke: rgb(0, 0, 0); stroke-opacity: 1;" class="stroke-shape"/></g><path d="M165.664,56.500L165.664,46.500L171.664,46.500L171.664,56.500" style="fill: none;" class="fills"/><g stroke-linecap="round" stroke-linejoin="round" class="strokes"><path d="M165.664,56.500L165.664,46.500L171.664,46.500L171.664,56.500" style="fill: none; stroke-width: 2; stroke: rgb(0, 0, 0); stroke-opacity: 1;" class="stroke-shape"/></g></g><g class="fills"><rect rx="0" ry="0" width="24" height="24" transform="matrix(1.000000, 0.000000, 0.000000, 1.000000, 0.000000, 0.000000)" class="frame-background"/></g><g class="frame-children"><path d="M3.000,9.000L12.000,2.000L21.000,9.000L21.000,20.000C21.000,21.105,20.105,22.000,19.000,22.000L5.000,22.000C3.895,22.000,3.000,21.105,3.000,20.000Z" style="fill: none;" class="fills"/><g stroke-linecap="round" stroke-linejoin="round" class="strokes"><path d="M3.000,9.000L12.000,2.000L21.000,9.000L21.000,20.000C21.000,21.105,20.105,22.000,19.000,22.000L5.000,22.000C3.895,22.000,3.000,21.105,3.000,20.000Z" style="fill: none; stroke-width: 2; stroke: rgb(0, 0, 0); stroke-opacity: 1;" class="stroke-shape"/></g><path d="M9.000,22.000L9.000,12.000L15.000,12.000L15.000,22.000" style="fill: none;" class="fills"/><g stroke-linecap="round" stroke-linejoin="round" class="strokes"><path d="M9.000,22.000L9.000,12.000L15.000,12.000L15.000,22.000" style="fill: none; stroke-width: 2; stroke: rgb(0, 0, 0); stroke-opacity: 1;" class="stroke-shape"/></g></g><g class="fills"><rect rx="0" ry="0" x="87.812" y="43.824" width="24" height="24" transform="matrix(1.000000, 0.000000, 0.000000, 1.000000, 0.000000, 0.000000)" class="frame-background"/></g><g class="frame-children"><path d="M90.812,50.824L99.812,43.824L108.812,50.824L108.812,61.824C108.812,62.929,107.916,63.824,106.812,63.824L92.812,63.824C91.707,63.824,90.812,62.929,90.812,61.824Z" style="fill: none;" class="fills"/><g stroke-linecap="round" stroke-linejoin="round" class="strokes"><path d="M90.812,50.824L99.812,43.824L108.812,50.824L108.812,61.824C108.812,62.929,107.916,63.824,106.812,63.824L92.812,63.824C91.707,63.824,90.812,62.929,90.812,61.824Z" style="fill: none; stroke-width: 2; stroke: rgb(0, 0, 0); stroke-opacity: 1;" class="stroke-shape"/></g><path d="M96.812,65.824L96.812,55.824L102.812,55.824L102.812,65.824" style="fill: none;" class="fills"/><g stroke-linecap="round" stroke-linejoin="round" class="strokes"><path d="M96.812,65.824L96.812,55.824L102.812,55.824L102.812,65.824" style="fill: none; stroke-width: 2; stroke: rgb(0, 0, 0); stroke-opacity: 1;" class="stroke-shape"/></g></g></svg>