<svg width="264" xmlns="http://www.w3.org/2000/svg" height="280.49" viewBox="-25.697 -8.49 264 280.49" xmlns:xlink="http://www.w3.org/1999/xlink" fill="none"><g class="fills"><rect rx="0" ry="0" y="3" width="212.287" height="269" class="frame-background"/></g><g class="frame-children"><g style="fill: rgb(0, 0, 0); fill-opacity: 1;"><path d="M51.287 83a57.204 57.204 0 0 1 5.254-23.943 56.933 56.933 0 0 1 2.531-4.846 55.75 55.75 0 0 1 12.221-14.499 55.406 55.406 0 0 1 4.313-3.274 54.255 54.255 0 0 1 4.607-2.825 53.746 53.746 0 0 1 7.36-3.339 54.562 54.562 0 0 1 5.139-1.595 53.396 53.396 0 0 1 7.932-1.409 53.4 53.4 0 0 1 5.364-.269h.002a53.4 53.4 0 0 1 13.296 1.678 54.069 54.069 0 0 1 7.645 2.584 54.118 54.118 0 0 1 7.191 3.705 54.886 54.886 0 0 1 8.617 6.539 56.056 56.056 0 0 1 5.551 5.967 56 56 0 0 1 4.636 6.737 56.726 56.726 0 0 1 2.531 4.846 57 57 0 0 1 5.188 21.195c.044.915.066 1.831.066 2.748v6.169a10.977 10.977 0 0 1 1.005.22 10.752 10.752 0 0 1 .982.31 11.68 11.68 0 0 1 5.338 3.964 11.674 11.674 0 0 1 .592.86 13.626 13.626 0 0 1 .517.91 13.656 13.656 0 0 1 .436.953 12.63 12.63 0 0 1 .621 2.004 12.705 12.705 0 0 1 .179 1.036 11.446 11.446 0 0 1 .09 1.048c.008.175.012.35.012.526v14.002a11.981 11.981 0 0 1-.106 1.603 11.891 11.891 0 0 1-.463 2.088 11.15 11.15 0 0 1-.367 1.004 12.491 12.491 0 0 1-.452.967 11.712 11.712 0 0 1-.832 1.362 10.97 10.97 0 0 1-.65.84 11.08 11.08 0 0 1-.721.778 11.946 11.946 0 0 1-2.073 1.629 12.171 12.171 0 0 1-1.88.939 10.787 10.787 0 0 1-.994.337 11.119 11.119 0 0 1-1.537.332 56.227 56.227 0 0 1-.478 3.546 58.41 58.41 0 0 1-.321 1.759 57.76 57.76 0 0 1-3.066 10.252 56.356 56.356 0 0 1-3.083 6.421 57.473 57.473 0 0 1-1.836 3.046c-.322.497-.651.989-.988 1.477a58.306 58.306 0 0 1-2.113 2.852 56.38 56.38 0 0 1-2.285 2.708c-.396.438-.798.871-1.206 1.297a52.702 52.702 0 0 1-2.529 2.472 56.384 56.384 0 0 1-2.677 2.302 56.336 56.336 0 0 1-2.817 2.121 53.258 53.258 0 0 1-2.943 1.934c-.5.306-1.005.604-1.514.894-.511.289-1.025.57-1.542.843-.519.272-1.042.537-1.569.793v18.403h34.691a38.108 38.108 0 0 1 3.879.195 37.798 37.798 0 0 1 5.736 1.019c.629.16 1.253.337 1.873.53a37.72 37.72 0 0 1 3.656 1.339 37.76 37.76 0 0 1 3.511 1.699 38.458 38.458 0 0 1 3.331 2.043c.539.368 1.069.75 1.588 1.145.521.394 1.031.802 1.532 1.223a39.537 39.537 0 0 1 4.217 4.108 40.705 40.705 0 0 1 3.582 4.698 40.737 40.737 0 0 1 3.657 7.002 40.53 40.53 0 0 1 1.826 5.658 40.438 40.438 0 0 1 .996 5.87 42.421 42.421 0 0 1 .191 3.97v40.501H8.291V230.5a41.138 41.138 0 0 1 .191-3.97 40.632 40.632 0 0 1 .569-3.931 42.36 42.36 0 0 1 .944-3.855 41.092 41.092 0 0 1 2.969-7.335A39.814 39.814 0 0 1 14.961 208a39.699 39.699 0 0 1 3.582-4.697 39.537 39.537 0 0 1 5.748-5.332 39.404 39.404 0 0 1 8.43-4.887 38.933 38.933 0 0 1 7.424-2.305c.635-.13 1.273-.243 1.914-.34a37.968 37.968 0 0 1 5.807-.438h34.691v-18.403a56.12 56.12 0 0 1-3.111-1.636 54.726 54.726 0 0 1-7.274-4.949 56.432 56.432 0 0 1-3.961-3.517 54.706 54.706 0 0 1-3.615-3.889 56.416 56.416 0 0 1-6.058-8.748 57.594 57.594 0 0 1-1.642-3.16 56.382 56.382 0 0 1-2.085-4.925 55.968 55.968 0 0 1-1.129-3.387 54.906 54.906 0 0 1-.916-3.454 57.747 57.747 0 0 1-.699-3.506 59.34 59.34 0 0 1-.478-3.546 11.104 11.104 0 0 1-1.536-.332 11.198 11.198 0 0 1-1.955-.764 11.43 11.43 0 0 1-1.791-1.107 10.805 10.805 0 0 1-.816-.671 11.974 11.974 0 0 1-2.054-2.422 12.245 12.245 0 0 1-1.631-3.925 13.906 13.906 0 0 1-.186-1.055 11.888 11.888 0 0 1-.093-1.067 11.981 11.981 0 0 1-.012-.536V101a13.146 13.146 0 0 1 .045-1.051 13.052 13.052 0 0 1 .135-1.043 12.705 12.705 0 0 1 .368-1.532 12.63 12.63 0 0 1 .354-.988 11.426 11.426 0 0 1 .436-.953 13.65 13.65 0 0 1 .517-.91c.092-.147.188-.293.287-.436a10.572 10.572 0 0 1 .628-.833 11.592 11.592 0 0 1 .698-.773 11.597 11.597 0 0 1 1.163-1.035 12.43 12.43 0 0 1 .845-.599 11.084 11.084 0 0 1 1.356-.751 11.665 11.665 0 0 1 2.435-.828c.167-.037.336-.07.505-.099V83Z" fill-rule="evenodd" style="fill: rgb(133, 94, 75); fill-opacity: 1;" class="fills"/><path d="M51.287 121.001v8a57.266 57.266 0 0 0 3.199 18.865 56.91 56.91 0 0 0 2.055 5.078 56.726 56.726 0 0 0 3.968 7.168 56.643 56.643 0 0 0 3.199 4.414 57.09 57.09 0 0 0 1.754 2.082 56.115 56.115 0 0 0 5.831 5.681 55.406 55.406 0 0 0 4.313 3.273 55.31 55.31 0 0 0 4.607 2.826 53.727 53.727 0 0 0 4.854 2.349 54.562 54.562 0 0 0 7.645 2.585 54.574 54.574 0 0 0 5.267 1.072 54.323 54.323 0 0 0 5.344.539c.894.044 1.789.067 2.685.067h.002c.896 0 1.791-.023 2.685-.067a54.567 54.567 0 0 0 5.344-.539 55.313 55.313 0 0 0 2.647-.47 54.069 54.069 0 0 0 7.758-2.197 54.118 54.118 0 0 0 9.698-4.694 55.966 55.966 0 0 0 4.466-3.053 55.343 55.343 0 0 0 11.354-11.62 56.401 56.401 0 0 0 4.308-6.961 57.512 57.512 0 0 0 2.295-4.968c.343-.847.665-1.702.968-2.565a56.898 56.898 0 0 0 2.606-10.648 56.837 56.837 0 0 0 .526-5.469c.044-.916.066-1.832.066-2.748v-8a57.266 57.266 0 0 1-3.198 18.865 58.175 58.175 0 0 1-2.056 5.078 56.726 56.726 0 0 1-3.969 7.168 55.575 55.575 0 0 1-12.9 13.868 55.472 55.472 0 0 1-4.466 3.053 54.337 54.337 0 0 1-9.698 4.694 54.524 54.524 0 0 1-5.138 1.595c-.869.222-1.742.423-2.62.602a54.323 54.323 0 0 1-7.991 1.009c-.894.044-1.789.067-2.685.067h-.002c-.896 0-1.791-.023-2.685-.067a54.474 54.474 0 0 1-5.344-.539 54.574 54.574 0 0 1-7.856-1.805 54.562 54.562 0 0 1-5.056-1.852 54.118 54.118 0 0 1-7.191-3.704 55.31 55.31 0 0 1-4.465-3.053 55.406 55.406 0 0 1-4.151-3.486 56.115 56.115 0 0 1-3.798-3.886 57.09 57.09 0 0 1-3.406-4.248 56.643 56.643 0 0 1-2.984-4.57 56.726 56.726 0 0 1-3.62-7.359 56.91 56.91 0 0 1-2.525-7.823 57.502 57.502 0 0 1-1.048-5.39 58.146 58.146 0 0 1-.329-2.728 58.408 58.408 0 0 1-.263-5.489Z" fill-rule="evenodd" style="fill: rgb(0, 0, 0); fill-opacity: 0.101961;" class="fills"/></g><g style="fill: rgb(0, 0, 0); fill-opacity: 1;"><g clip-path="url(#a)" style="fill: rgb(255, 255, 177); fill-opacity: 1;"><defs><clipPath id="a" class="svg-def" transform="matrix(.97718 0 0 1.04272 -21.352 167.014)"><use xlink:href="#b" clip-rule="evenodd"/></clipPath><rect width="264" height="110" id="b"/></defs><path d="M67.745 190H48.037a38.462 38.462 0 0 0-9.658 1.229 39.237 39.237 0 0 0-14.02 6.839 39.95 39.95 0 0 0-4.428 3.94 41.222 41.222 0 0 0-3.82 4.568 41.092 41.092 0 0 0-4.005 6.894 40.376 40.376 0 0 0-1.493 3.717 42.046 42.046 0 0 0-2.276 11.8c-.032.67-.048 1.341-.048 2.012V272h196.413v-41.001a42.179 42.179 0 0 0-1.191-9.962 41.631 41.631 0 0 0-1.834-5.728 41.529 41.529 0 0 0-5.997-10.319 40.264 40.264 0 0 0-5.509-5.684 39.945 39.945 0 0 0-6.479-4.465 39.948 39.948 0 0 0-3.527-1.72 38.876 38.876 0 0 0-11.314-2.924 38.52 38.52 0 0 0-3.896-.197h-19.708a24.91 24.91 0 0 1-2.525 8.024 24.353 24.353 0 0 1-5.031 6.651l-28.565 26.57a3.893 3.893 0 0 1-2.271 1.026 3.904 3.904 0 0 1-1.076-.051 3.891 3.891 0 0 1-.692-.201 3.951 3.951 0 0 1-1.221-.774l-28.565-26.57a23.885 23.885 0 0 1-2.797-3.099 24.143 24.143 0 0 1-2.234-3.552 24.543 24.543 0 0 1-1.603-3.898 25.18 25.18 0 0 1-.922-4.126Z" fill-rule="evenodd" style="fill: rgb(255, 255, 177); fill-opacity: 1;" class="fills"/></g></g><g style="fill: rgb(0, 0, 0); fill-opacity: 1;"><g clip-path="url(#e)" style="fill: rgb(0, 0, 0); fill-opacity: 1;"><defs><clipPath id="e" class="svg-def" transform="matrix(.99997 0 0 1.0269 48.001 75.437)"><use xlink:href="#f" clip-rule="evenodd"/></clipPath><rect width="112" height="24" id="f"/></defs><path d="M65.63 93.08c3.915-5.508 14.648-8.597 23.893-6.327a2 2 0 0 0 .954-3.885c-10.736-2.636-23.165.941-28.107 7.895a2 2 0 1 0 3.26 2.317ZM146.37 93.08c-3.915-5.508-14.647-8.597-23.893-6.327a2.001 2.001 0 0 1-.954-3.885c10.737-2.636 23.165.941 28.108 7.895a2 2 0 0 1-3.261 2.317Z" fill-rule="evenodd" style="fill: rgb(0, 0, 0); fill-opacity: 0.6;" class="fills"/></g><g clip-path="url(#g)" style="fill: rgb(0, 0, 0); fill-opacity: 1;"><defs><clipPath id="g" class="svg-def" transform="translate(52 83.922)"><use xlink:href="#h" clip-rule="evenodd"/></clipPath><rect width="112" height="44" id="h"/></defs><path d="M79.5 112.396a6 6 0 1 0 0-12 6 6 0 0 0 0 12ZM131.5 112.396a6 6 0 1 0 0-12 6 6 0 0 0 0 12Z" fill-rule="evenodd" style="fill: rgb(0, 0, 0); fill-opacity: 0.6;" class="fills"/></g><g clip-path="url(#i)" style="fill: rgb(0, 0, 0); fill-opacity: 1;"><defs><clipPath id="i" class="svg-def" transform="matrix(.97718 0 0 1 80.078 115.922)"><use xlink:href="#j" clip-rule="evenodd"/></clipPath><rect width="56" height="24" id="j"/></defs><path d="M92.781 123.922c0 4.418 5.25 8 11.726 8 6.477 0 11.727-3.582 11.727-8" fill-rule="evenodd" style="fill: rgb(0, 0, 0); fill-opacity: 0.160784;" class="fills"/></g></g></g><defs><rect width="264" height="110" id="l"/></defs><g class="fills"><rect width="200" height="96.929" class="frame-background" x="6" ry="0" rx="0" y="175" clip-path="url(#-clip_2)"/></g><g class="frame-children"><path d="M82 175c-15.299 1.712-27.596 5.954-31.037 15.929h-4.464c-.663 0-1.325.016-1.987.048a40.98 40.98 0 0 0-5.914.73 40.191 40.191 0 0 0-5.742 1.589 40.333 40.333 0 0 0-8.857 4.458 40.893 40.893 0 0 0-3.192 2.367 40.49 40.49 0 0 0-5.614 5.614 40.926 40.926 0 0 0-2.368 3.193 41.263 41.263 0 0 0-2.043 3.409 40.273 40.273 0 0 0-3.038 7.334 41.158 41.158 0 0 0-.966 3.856 41.008 41.008 0 0 0-.729 5.914A39.893 39.893 0 0 0 6 231.428v40.501h200v-40.501a39.893 39.893 0 0 0-.195-3.97 41.008 41.008 0 0 0-.583-3.931 40.24 40.24 0 0 0-.966-3.856 40.086 40.086 0 0 0-2.144-5.559 40.869 40.869 0 0 0-4.082-6.81 40.926 40.926 0 0 0-2.521-3.072 40.488 40.488 0 0 0-26.039-13.106 40.98 40.98 0 0 0-1.982-.147 41.138 41.138 0 0 0-1.987-.048h-4.464C157.596 180.954 145.299 176.712 130 175v18.93a24.371 24.371 0 0 1-.116 2.352c-.038.391-.086.781-.144 1.169a22.7 22.7 0 0 1-.201 1.161 25.073 25.073 0 0 1-.572 2.285 23.579 23.579 0 0 1-.794 2.217 23.483 23.483 0 0 1-1.007 2.129 22.857 22.857 0 0 1-1.211 2.02 23.132 23.132 0 0 1-1.403 1.892 24.088 24.088 0 0 1-3.326 3.327 24.873 24.873 0 0 1-1.892 1.402 23.478 23.478 0 0 1-3.072 1.741 23.483 23.483 0 0 1-2.176.901 23.579 23.579 0 0 1-3.403.942 22.7 22.7 0 0 1-1.161.201c-.388.058-.778.106-1.169.144a23.079 23.079 0 0 1-2.352.116h-.002a24.371 24.371 0 0 1-2.352-.116 22.878 22.878 0 0 1-1.169-.144 22.7 22.7 0 0 1-1.161-.201 25.073 25.073 0 0 1-2.285-.572 23.579 23.579 0 0 1-2.217-.794 23.483 23.483 0 0 1-2.129-1.007 23.449 23.449 0 0 1-2.983-1.889 24.873 24.873 0 0 1-.929-.724 25.105 25.105 0 0 1-1.745-1.582 24.088 24.088 0 0 1-5.202-7.786 23.579 23.579 0 0 1-1.366-4.502 22.7 22.7 0 0 1-.201-1.161 22.878 22.878 0 0 1-.144-1.169A22.994 22.994 0 0 1 82 193.93V175Z" fill-rule="evenodd" style="fill: rgb(183, 193, 219); fill-opacity: 1;" class="fills"/><path d="M69 220.079a64.501 64.501 0 0 0 7 3.589v48.261h-7v-51.85Zm74 0a64.501 64.501 0 0 1-7 3.589v36.762a3.564 3.564 0 0 0 .151 1.016 3.512 3.512 0 0 0 2.665 2.416 3.572 3.572 0 0 0 .683.067h.002a3.564 3.564 0 0 0 1.016-.151 3.512 3.512 0 0 0 2.416-2.665 3.572 3.572 0 0 0 .067-.683v-40.351Z" fill-rule="evenodd" style="fill: rgb(244, 244, 244); fill-opacity: 1;" class="fills"/><path d="M172.272 191.499a38.618 38.618 0 0 0-2.802-.375 40.98 40.98 0 0 0-1.982-.147 41.138 41.138 0 0 0-1.987-.048h-3.602c.067.671.101 1.363.101 2.077 0 20.392-27.821 36.923-56 36.923s-56-16.531-56-36.923c0-.714.034-1.406.101-2.077h-3.602c-.663 0-1.325.016-1.987.048a40.98 40.98 0 0 0-4.799.524 17.763 17.763 0 0 0-.213 2.736c0 19.712 33.038 35.692 66.5 35.692s66.5-15.98 66.5-35.692c0-.951-.077-1.861-.228-2.738Z" style="fill: rgb(0, 0, 0); fill-opacity: 0.16;" class="fills"/></g><defs><rect width="168" height="152" id="m"/></defs><g class="fills"><rect width="114" height="89" class="frame-background" x="49" ry="0" rx="0" y="93" clip-path="url(#-clip_8)"/></g><g class="frame-children"><path d="M123.428 165.169c-2.513 2.294-5.191 3.325-8.575 2.604-.582-.124-2.957-4.538-8.853-4.538-5.897 0-8.271 4.414-8.853 4.538-3.384.721-6.062-.31-8.576-2.604-4.725-4.313-8.654-10.261-6.293-16.75 1.23-3.382 3.232-7.095 6.873-8.173 3.887-1.151 9.346-.002 13.264-.788 1.269-.254 2.656-.707 3.585-1.458.929.751 2.316 1.204 3.585 1.458 3.918.786 9.376-.363 13.264.788 3.641 1.078 5.642 4.791 6.873 8.173 2.361 6.489-1.568 12.437-6.294 16.75ZM162.081 93c-3.41 8.4-2.093 18.858-2.724 27.676-.513 7.167-2.02 17.91-8.384 22.539-3.255 2.367-9.179 6.345-13.431 5.235-2.927-.764-3.24-9.16-7.087-12.303-4.363-3.565-9.812-5.131-15.306-4.889-2.37.104-7.165.08-9.149 1.902-1.984-1.822-6.778-1.798-9.149-1.902-5.494-.242-10.943 1.324-15.306 4.889-3.847 3.143-4.159 11.539-7.087 12.303-4.252 1.11-10.176-2.868-13.431-5.235-6.365-4.629-7.871-15.372-8.384-22.539-.631-8.818.686-19.276-2.724-27.676-1.659 0-.565 16.129-.565 16.129v20.356c.032 15.288 9.581 38.17 30.754 46.908C85.286 178.53 97.015 182 106 182s20.714-3.14 25.892-5.277c21.173-8.737 30.722-31.95 30.754-47.238v-20.356S163.74 93 162.081 93Z" fill-rule="evenodd" style="fill: rgb(51, 27, 12); fill-opacity: 1;" class="fills"/></g><defs><rect width="266" height="280" id="n"/></defs><g class="fills"><rect width="48.138" height="83.796" class="frame-background" x="88.575" transform="matrix(2.93506 0 0 2.32086 -217.973 -128.439)" ry="0" rx="0" y="55.341" clip-path="url(#-clip_12)"/></g><g class="frame-children"><path d="M45.986 190.518c.272-.005.544-.008.816-.008h35.501v-18.403a56.14 56.14 0 0 1-9.357-5.615 57.59 57.59 0 0 1-2.854-2.264 55.737 55.737 0 0 1-6.439-6.427 55.7 55.7 0 0 1-2.269-2.849 56.993 56.993 0 0 1-3.959-6.111 57.496 57.496 0 0 1-1.673-3.235c-.262-.548-.514-1.1-.757-1.657a53.63 53.63 0 0 1-1.35-3.383 55.492 55.492 0 0 1-1.607-5.221 56.3 56.3 0 0 1-1.524-8.969 11.768 11.768 0 0 1-2.569-.685 12.454 12.454 0 0 1-1.447-.678 11.72 11.72 0 0 1-1.343-.864 11.253 11.253 0 0 1-.827-.672 12.167 12.167 0 0 1-1.121-1.139 11.878 11.878 0 0 1-.546-.683L42 138.014c.659 18.268 1.742 36.118 3.986 52.504Zm-2.168-97.494c.011-.011.022-.023 0 0Za12.298 12.298 0 0 1 1.224-1.069 12.814 12.814 0 0 1 .865-.599c.148-.093.299-.184.451-.271a13.766 13.766 0 0 1 .936-.48 11.523 11.523 0 0 1 .975-.397 12.149 12.149 0 0 1 1.517-.431c.171-.037.344-.07.517-.099v-6.169a55.995 55.995 0 0 1 3.273-18.866 56.259 56.259 0 0 1 4.694-9.923 56.023 56.023 0 0 1 10.425-12.704 56.983 56.983 0 0 1 6.496-5.069 56.023 56.023 0 0 1 9.448-5.077c-21.966 2.794-39.203 21.096-40.12 43.783l-.701 17.371Zm85.326-60.644a56.89 56.89 0 0 1 5.949 3.097 56.023 56.023 0 0 1 10.808 8.435 56.505 56.505 0 0 1 3.691 4.072 56.168 56.168 0 0 1 3.273 4.414 56.234 56.234 0 0 1 4.061 7.168 56.259 56.259 0 0 1 2.966 7.687 56.415 56.415 0 0 1 1.335 5.331c.178.899.335 1.802.47 2.708a56.879 56.879 0 0 1 .539 5.469c.044.916.067 1.832.067 2.748v6.169a11.757 11.757 0 0 1 1.535.364 13.25 13.25 0 0 1 .991.354 12.791 12.791 0 0 1 .956.439 13.766 13.766 0 0 1 .518.282V77.51c0-22.379-15.982-41.026-37.159-45.13Zm37.159 92.522a12.483 12.483 0 0 1-1.15.585 11.565 11.565 0 0 1-2.016.684 11.81 11.81 0 0 1-1.046.205 57.9 57.9 0 0 1-.187 1.812 57.94 57.94 0 0 1-.552 3.6 56.98 56.98 0 0 1-1.263 5.315 58.317 58.317 0 0 1-1.128 3.463 60.2 60.2 0 0 1-.647 1.703 58.901 58.901 0 0 1-1.46 3.337 60.3 60.3 0 0 1-.81 1.631c-.28.539-.567 1.074-.863 1.604a56.971 56.971 0 0 1-2.896 4.633c-.347.498-.701.991-1.063 1.478a57.603 57.603 0 0 1-2.27 2.849 55.952 55.952 0 0 1-5.069 5.227 57.9 57.9 0 0 1-2.778 2.355 54.704 54.704 0 0 1-4.44 3.182 55.074 55.074 0 0 1-4.729 2.735 61.83 61.83 0 0 1-1.633.807v18.403h35.501a39.923 39.923 0 0 1 3.97.195 40.967 40.967 0 0 1 3.931.583 40.2 40.2 0 0 1 3.855.966 40.456 40.456 0 0 1 5.56 2.144l.168.08c-8.905-15.245-16.985-31.44-16.985-48.859v-20.717Z" style="fill: rgb(51, 27, 12); fill-opacity: 1;" class="fills"/><g style="fill: rgb(0, 0, 0); fill-opacity: 1;"><path d="M106.302 27.51Za55.945 55.945 0 0 1 26.399 6.612 55.657 55.657 0 0 1 6.961 4.408 56.2 56.2 0 0 1 6.239 5.382 55.602 55.602 0 0 1 3.691 4.072 56.168 56.168 0 0 1 3.273 4.414 56.234 56.234 0 0 1 4.061 7.168 56.259 56.259 0 0 1 2.966 7.687 56.415 56.415 0 0 1 1.335 5.331c.178.899.335 1.802.47 2.708a56.879 56.879 0 0 1 .539 5.469c.044.916.067 1.832.067 2.748v38.002c0 .916-.023 1.832-.067 2.748a57.106 57.106 0 0 1-.539 5.469 57.058 57.058 0 0 1-1.072 5.39 56.415 56.415 0 0 1-1.595 5.258 56.259 56.259 0 0 1-4.694 9.924 57.118 57.118 0 0 1-3.053 4.57 56.168 56.168 0 0 1-9.454 9.929 56.2 56.2 0 0 1-6.736 4.744 55.657 55.657 0 0 1-7.359 3.704 56.073 56.073 0 0 1-7.824 2.585 56.057 56.057 0 0 1-13.606 1.678h-.002a55.935 55.935 0 0 1-23.943-5.377 55.197 55.197 0 0 1-4.846-2.59 55.42 55.42 0 0 1-4.57-3.053 56.983 56.983 0 0 1-4.248-3.486 56.564 56.564 0 0 1-3.886-3.886 55.564 55.564 0 0 1-3.486-4.248 56.448 56.448 0 0 1-3.053-4.57 56.234 56.234 0 0 1-3.705-7.359 57.247 57.247 0 0 1-1.851-5.174 56.415 56.415 0 0 1-1.335-5.331 55.637 55.637 0 0 1-1.076-10.925V83.509a55.995 55.995 0 0 1 3.273-18.866 56.259 56.259 0 0 1 4.694-9.923 56.023 56.023 0 0 1 10.425-12.704 56.983 56.983 0 0 1 4.248-3.486 55.673 55.673 0 0 1 4.57-3.053 56.234 56.234 0 0 1 4.846-2.591 56.242 56.242 0 0 1 13.018-4.3 56.316 56.316 0 0 1 8.177-1.009 55.935 55.935 0 0 1 2.748-.067Z" fill="none" style="fill: none;" class="fills"/><path d="M149.104 47.45c17.62-10.599 20.788-29.003 8.049-45.014-1.302-1.636-2.986-.02-5.662 2.546-3.933 3.772-10.009 9.598-20.16 10.178-7.953.455-11.842-.884-15.567-2.167-4.265-1.468-8.316-2.863-18.004-1.409-18.151 2.724-16.146 17.304-27.99 20.803-11.208 3.31-10.068 11.984-6.234 15.023a54.083 54.083 0 0 0-3 3.808 53.505 53.505 0 0 0-2.65 4.059 55.427 55.427 0 0 0-2.279 4.279 54.805 54.805 0 0 0-2.683 6.754 53.841 53.841 0 0 0-1.279 4.676 54.594 54.594 0 0 0-1.342 12.023v6a54.096 54.096 0 0 1 .28-5.515 54.278 54.278 0 0 1 3.114-13.418 54.575 54.575 0 0 1 8.015-14.435 54.272 54.272 0 0 1 5.552-6.142c28.048 13.854 66.046 3.35 77.63-.421a55.195 55.195 0 0 1 3.901 4.017 54.17 54.17 0 0 1 5.029 6.72 55.056 55.056 0 0 1 2.753 4.876c.416.836.811 1.682 1.185 2.538a56.08 56.08 0 0 1 1.971 5.24 55.286 55.286 0 0 1 1.924 8.171 55.163 55.163 0 0 1 .574 5.569c.048.933.072 1.866.072 2.8v-6a54.318 54.318 0 0 0-.483-7.242 54.453 54.453 0 0 0-5.897-18.344 54.505 54.505 0 0 0-3.826-6.168 57.142 57.142 0 0 0-1.454-1.936 57.38 57.38 0 0 0-1.539-1.869Z" fill-rule="evenodd" style="fill: rgb(0, 0, 0); fill-opacity: 0.160784;" class="fills"/></g><path d="M64.181 43.871c33.225 19.299 83.366 0 83.366 0 14.531-7.772 25.087-23.319 8.707-43.398-2.169-2.658-10.707 6.713-27.6 7.687-16.893.975-13.271-3.3-31.248-.576-17.977 2.724-15.991 17.304-27.722 20.803-11.73 3.498-9.803 12.987-5.503 15.484Z" fill-rule="evenodd" style="fill: rgb(51, 27, 12); fill-opacity: 1;" class="fills"/></g><defs><rect width="108" height="44" id="o"/></defs><g class="fills"><rect width="28" height="11" class="frame-background" x="89" ry="0" rx="0" y="141" clip-path="url(#-clip_9)"/></g><g class="frame-children"><path d="M89 143c0 5.372 6.158 9 14 9s14-3.628 14-9c0-1.105-.95-2-2-2-1.293 0-1.87.905-2 2-1.242 2.938-4.317 4.716-10 5-5.683-.284-8.758-2.062-10-5-.13-1.095-.707-2-2-2-1.05 0-2 .895-2 2Z" fill-rule="evenodd" style="fill: rgb(0, 0, 0); fill-opacity: 0.6;" class="fills"/></g></svg>