<svg width="24" xmlns="http://www.w3.org/2000/svg" height="24" fill="none"><g class="fills"><rect rx="0" ry="0" width="24" height="24" transform="matrix(1.000000, 0.000000, 0.000000, 1.000000, 0.000000, 0.000000)" class="frame-background"/></g><g class="frame-children"><path d="M17.000,3.000C17.695,2.179,18.796,1.819,19.846,2.069C20.896,2.318,21.714,3.136,21.958,4.180C22.202,5.224,21.831,6.316,21.000,7.000L7.500,20.500L2.000,22.000L3.500,16.500Z" style="fill: none;" class="fills"/><g stroke-linecap="round" stroke-linejoin="round" class="strokes"><path d="M17.000,3.000C17.695,2.179,18.796,1.819,19.846,2.069C20.896,2.318,21.714,3.136,21.958,4.180C22.202,5.224,21.831,6.316,21.000,7.000L7.500,20.500L2.000,22.000L3.500,16.500Z" style="fill: none; stroke-width: 2; stroke: rgb(0, 0, 0); stroke-opacity: 1;" class="stroke-shape"/></g><path d="M15.000,5.000L19.000,9.000" style="fill: none;" class="fills"/><g stroke-linecap="round" stroke-linejoin="round" class="strokes"><path d="M15.000,5.000L19.000,9.000" style="fill: none; stroke-width: 2; stroke: rgb(0, 0, 0); stroke-opacity: 1;" class="stroke-shape"/></g></g></svg>