<svg width="202" xmlns="http://www.w3.org/2000/svg" height="265.929" fill="none"><g class="fills"><rect rx="0" ry="0" x="67.929" y="90.433" width="68.142" height="105.134" transform="matrix(2.935063, 0.000001, -0.000001, 2.320856, -197.376514, -188.882528)" class="frame-background"/></g><g class="frame-children"><path d="M46.000,76.999C46.000,76.083,46.023,75.167,46.068,74.251C46.113,73.336,46.180,72.422,46.270,71.510C46.360,70.598,46.472,69.689,46.606,68.782C46.741,67.876,46.897,66.973,47.076,66.074C47.255,65.175,47.456,64.281,47.678,63.392C47.901,62.503,48.145,61.620,48.411,60.743C48.677,59.866,48.965,58.996,49.274,58.134C49.582,57.271,49.912,56.416,50.263,55.569C50.613,54.722,50.985,53.885,51.377,53.056C51.768,52.228,52.180,51.410,52.612,50.601C53.044,49.793,53.496,48.996,53.967,48.210C54.438,47.424,54.928,46.650,55.438,45.888C55.947,45.126,56.474,44.377,57.020,43.640C57.566,42.904,58.130,42.182,58.711,41.474C59.293,40.765,59.891,40.072,60.507,39.392C61.122,38.713,61.754,38.050,62.402,37.402C63.050,36.754,63.713,36.122,64.392,35.507C65.071,34.891,65.765,34.293,66.474,33.711C67.182,33.130,67.904,32.566,68.640,32.020C69.377,31.474,70.126,30.947,70.888,30.438C71.650,29.928,72.424,29.438,73.210,28.967C73.996,28.496,74.793,28.044,75.601,27.612C76.410,27.180,77.228,26.768,78.056,26.377C78.885,25.985,79.722,25.613,80.569,25.263C81.416,24.912,82.271,24.582,83.134,24.274C83.996,23.965,84.866,23.677,85.743,23.411C86.620,23.145,87.503,22.901,88.392,22.678C89.281,22.456,90.175,22.255,91.074,22.076C91.973,21.897,92.876,21.741,93.782,21.606C94.689,21.472,95.598,21.360,96.510,21.270C97.422,21.180,98.336,21.112,99.251,21.067C100.167,21.023,101.083,21.000,101.999,21.000L102.001,21.000C102.918,21.000,103.834,21.023,104.749,21.067C105.664,21.112,106.578,21.180,107.490,21.270C108.402,21.360,109.311,21.472,110.218,21.606C111.125,21.741,112.027,21.897,112.926,22.076C113.825,22.255,114.719,22.456,115.608,22.678C116.497,22.901,117.380,23.145,118.257,23.411C119.134,23.677,120.003,23.965,120.866,24.274C121.729,24.582,122.584,24.912,123.431,25.263C124.278,25.613,125.115,25.985,125.944,26.377C126.772,26.768,127.590,27.180,128.399,27.612C129.207,28.044,130.004,28.496,130.790,28.967C131.576,29.438,132.350,29.928,133.112,30.438C133.874,30.947,134.623,31.474,135.360,32.020C136.096,32.566,136.818,33.130,137.526,33.711C138.235,34.293,138.929,34.891,139.608,35.507C140.287,36.122,140.950,36.754,141.598,37.402C142.246,38.050,142.878,38.713,143.494,39.392C144.109,40.072,144.708,40.765,145.289,41.474C145.870,42.182,146.434,42.904,146.980,43.640C147.526,44.377,148.053,45.126,148.562,45.888C149.071,46.650,149.562,47.424,150.033,48.210C150.504,48.996,150.956,49.793,151.388,50.601C151.820,51.410,152.232,52.228,152.623,53.056C153.015,53.885,153.386,54.722,153.737,55.569C154.088,56.416,154.418,57.271,154.727,58.134C155.036,58.996,155.323,59.866,155.589,60.743C155.855,61.620,156.099,62.503,156.322,63.392C156.545,64.281,156.745,65.175,156.924,66.074C157.103,66.973,157.259,67.876,157.394,68.782C157.529,69.689,157.641,70.598,157.730,71.510C157.820,72.422,157.888,73.336,157.933,74.251C157.978,75.167,158.000,76.083,158.000,76.999L158.000,83.168C158.173,83.197,158.345,83.230,158.517,83.267C158.688,83.304,158.859,83.344,159.029,83.388C159.198,83.433,159.367,83.481,159.535,83.532C159.702,83.584,159.869,83.639,160.034,83.698C160.199,83.757,160.363,83.820,160.526,83.886C160.689,83.952,160.850,84.022,161.009,84.095C161.168,84.168,161.326,84.245,161.482,84.325C161.638,84.405,161.792,84.489,161.945,84.576C162.097,84.662,162.247,84.753,162.396,84.846C162.545,84.940,162.691,85.036,162.835,85.136C162.979,85.236,163.121,85.339,163.261,85.445C163.400,85.552,163.538,85.661,163.673,85.773C163.808,85.885,163.940,86.000,164.070,86.118C164.200,86.236,164.327,86.357,164.451,86.480C164.576,86.604,164.698,86.730,164.817,86.859C164.936,86.988,165.052,87.119,165.165,87.253C165.278,87.387,165.389,87.524,165.496,87.663C165.603,87.801,165.707,87.943,165.808,88.086C165.909,88.229,166.007,88.375,166.102,88.523C166.197,88.670,166.288,88.820,166.376,88.972C166.464,89.123,166.549,89.277,166.631,89.432C166.712,89.588,166.790,89.745,166.864,89.904C166.939,90.063,167.010,90.223,167.077,90.385C167.145,90.547,167.209,90.710,167.269,90.875C167.329,91.040,167.386,91.206,167.439,91.373C167.492,91.540,167.542,91.709,167.587,91.878C167.632,92.047,167.674,92.218,167.713,92.389C167.751,92.560,167.785,92.732,167.816,92.905C167.847,93.078,167.873,93.251,167.896,93.425C167.919,93.599,167.939,93.773,167.954,93.948C167.969,94.123,167.981,94.298,167.988,94.473C167.996,94.648,168.000,94.824,168.000,94.999L168.000,109.001C168.000,109.180,167.996,109.358,167.988,109.537C167.980,109.715,167.968,109.894,167.952,110.072C167.936,110.250,167.916,110.427,167.892,110.604C167.869,110.781,167.841,110.958,167.809,111.134C167.777,111.310,167.741,111.485,167.702,111.659C167.663,111.833,167.619,112.007,167.572,112.179C167.525,112.351,167.473,112.522,167.418,112.692C167.363,112.862,167.305,113.031,167.242,113.199C167.179,113.366,167.113,113.532,167.043,113.696C166.973,113.861,166.899,114.024,166.822,114.185C166.745,114.346,166.665,114.505,166.580,114.663C166.496,114.820,166.408,114.976,166.317,115.130C166.226,115.283,166.131,115.435,166.033,115.584C165.935,115.734,165.834,115.881,165.729,116.026C165.624,116.171,165.516,116.313,165.405,116.453C165.294,116.593,165.180,116.731,165.063,116.866C164.946,117.001,164.826,117.133,164.703,117.263C164.580,117.392,164.454,117.519,164.325,117.643C164.196,117.767,164.065,117.888,163.931,118.006C163.797,118.124,163.660,118.239,163.521,118.351C163.382,118.463,163.240,118.572,163.096,118.678C162.952,118.783,162.806,118.886,162.657,118.985C162.508,119.084,162.357,119.180,162.204,119.272C162.051,119.365,161.896,119.453,161.739,119.539C161.582,119.624,161.424,119.706,161.263,119.785C161.102,119.863,160.940,119.938,160.776,120.009C160.612,120.080,160.447,120.147,160.280,120.211C160.113,120.275,159.945,120.335,159.775,120.391C159.606,120.447,159.435,120.500,159.263,120.548C159.091,120.597,158.918,120.642,158.744,120.682C158.570,120.723,158.395,120.760,158.219,120.793C158.044,120.826,157.867,120.855,157.690,120.881C157.628,121.474,157.556,122.066,157.474,122.657C157.393,123.248,157.302,123.838,157.201,124.426C157.101,125.014,156.991,125.600,156.872,126.185C156.753,126.770,156.624,127.352,156.486,127.932C156.349,128.513,156.202,129.091,156.045,129.667C155.889,130.243,155.724,130.816,155.549,131.386C155.374,131.957,155.191,132.524,154.998,133.089C154.805,133.654,154.604,134.215,154.393,134.773C154.182,135.332,153.963,135.886,153.735,136.437C153.506,136.988,153.269,137.536,153.023,138.079C152.777,138.623,152.523,139.163,152.260,139.698C151.997,140.233,151.725,140.764,151.445,141.291C151.165,141.818,150.877,142.341,150.580,142.858C150.283,143.375,149.978,143.888,149.665,144.396C149.352,144.904,149.030,145.407,148.701,145.904C148.372,146.401,148.035,146.894,147.690,147.381C147.345,147.868,146.992,148.349,146.632,148.824C146.271,149.299,145.903,149.769,145.528,150.233C145.153,150.696,144.770,151.154,144.380,151.606C143.990,152.057,143.593,152.502,143.189,152.941C142.784,153.380,142.373,153.812,141.955,154.238C141.537,154.664,141.112,155.083,140.681,155.495C140.250,155.907,139.812,156.312,139.367,156.710C138.923,157.108,138.473,157.499,138.016,157.883C137.559,158.266,137.096,158.643,136.627,159.012C136.158,159.381,135.684,159.742,135.203,160.096C134.722,160.449,134.236,160.795,133.745,161.133C133.254,161.472,132.757,161.802,132.255,162.124C131.753,162.447,131.246,162.761,130.733,163.067C130.221,163.373,129.704,163.671,129.183,163.961C128.661,164.250,128.135,164.531,127.605,164.804C127.074,165.077,126.539,165.341,126.000,165.597L126.000,184.000L161.501,184.000C162.164,184.000,162.826,184.016,163.488,184.049C164.150,184.082,164.811,184.130,165.471,184.195C166.130,184.260,166.788,184.341,167.443,184.438C168.099,184.535,168.752,184.649,169.402,184.778C170.052,184.907,170.698,185.053,171.341,185.214C171.984,185.375,172.623,185.551,173.257,185.744C173.892,185.936,174.521,186.144,175.145,186.367C175.769,186.590,176.387,186.829,176.999,187.083C177.612,187.336,178.218,187.605,178.817,187.888C179.416,188.171,180.007,188.469,180.592,188.782C181.177,189.095,181.753,189.421,182.322,189.762C182.890,190.103,183.450,190.457,184.001,190.825C184.552,191.194,185.094,191.575,185.626,191.970C186.159,192.365,186.681,192.772,187.193,193.193C187.706,193.614,188.207,194.046,188.698,194.491C189.189,194.936,189.669,195.393,190.138,195.862C190.607,196.331,191.064,196.810,191.509,197.301C191.954,197.792,192.386,198.294,192.807,198.807C193.228,199.319,193.635,199.841,194.030,200.374C194.425,200.906,194.806,201.448,195.175,201.999C195.543,202.550,195.897,203.110,196.238,203.678C196.579,204.247,196.905,204.823,197.218,205.408C197.531,205.993,197.829,206.584,198.112,207.183C198.395,207.782,198.664,208.388,198.917,209.001C199.171,209.613,199.410,210.231,199.633,210.855C199.856,211.479,200.064,212.108,200.256,212.743C200.449,213.377,200.625,214.016,200.786,214.659C200.947,215.302,201.093,215.948,201.222,216.598C201.351,217.248,201.465,217.901,201.562,218.557C201.659,219.212,201.740,219.870,201.805,220.529C201.870,221.189,201.918,221.850,201.951,222.512C201.984,223.174,202.000,223.836,202.000,224.499L202.000,265.000L2.000,265.000L2.000,224.499C2.000,223.836,2.016,223.174,2.049,222.512C2.081,221.850,2.130,221.189,2.195,220.529C2.260,219.870,2.341,219.212,2.438,218.557C2.536,217.901,2.649,217.248,2.778,216.598C2.908,215.948,3.053,215.302,3.214,214.659C3.375,214.016,3.552,213.377,3.744,212.743C3.936,212.108,4.144,211.479,4.367,210.855C4.591,210.231,4.829,209.613,5.083,209.001C5.337,208.388,5.605,207.782,5.888,207.183C6.172,206.584,6.470,205.993,6.782,205.408C7.095,204.823,7.421,204.247,7.762,203.678C8.103,203.110,8.457,202.550,8.825,201.999C9.194,201.448,9.575,200.906,9.970,200.374C10.365,199.841,10.772,199.319,11.193,198.807C11.613,198.294,12.046,197.793,12.491,197.302C12.936,196.811,13.393,196.331,13.862,195.862C14.331,195.393,14.811,194.936,15.302,194.491C15.793,194.046,16.294,193.614,16.807,193.193C17.319,192.772,17.841,192.365,18.374,191.970C18.906,191.575,19.448,191.194,19.999,190.825C20.550,190.457,21.110,190.103,21.678,189.762C22.247,189.421,22.823,189.095,23.408,188.782C23.993,188.469,24.584,188.171,25.183,187.888C25.783,187.605,26.388,187.336,27.001,187.083C27.613,186.829,28.231,186.590,28.855,186.367C29.479,186.144,30.109,185.936,30.743,185.744C31.377,185.551,32.016,185.375,32.659,185.214C33.302,185.053,33.948,184.907,34.598,184.778C35.248,184.649,35.901,184.535,36.557,184.438C37.212,184.341,37.870,184.260,38.529,184.195C39.189,184.130,39.850,184.082,40.512,184.049C41.174,184.016,41.836,184.000,42.499,184.000L78.000,184.000L78.000,165.597C77.461,165.341,76.926,165.077,76.396,164.804C75.865,164.531,75.339,164.250,74.817,163.961C74.296,163.671,73.779,163.373,73.267,163.067C72.755,162.761,72.247,162.447,71.745,162.124C71.243,161.802,70.747,161.472,70.255,161.133C69.764,160.795,69.278,160.449,68.797,160.096C68.317,159.742,67.842,159.381,67.373,159.012C66.904,158.643,66.441,158.266,65.984,157.883C65.528,157.499,65.077,157.108,64.633,156.710C64.188,156.312,63.750,155.907,63.319,155.495C62.888,155.083,62.463,154.664,62.045,154.238C61.627,153.812,61.216,153.380,60.811,152.941C60.407,152.502,60.010,152.057,59.620,151.606C59.230,151.154,58.847,150.696,58.472,150.233C58.097,149.769,57.729,149.299,57.368,148.824C57.008,148.349,56.655,147.868,56.310,147.381C55.965,146.894,55.628,146.401,55.299,145.904C54.970,145.407,54.649,144.904,54.335,144.396C54.022,143.888,53.717,143.375,53.420,142.858C53.124,142.341,52.835,141.818,52.555,141.291C52.275,140.764,52.003,140.233,51.740,139.698C51.477,139.163,51.223,138.623,50.977,138.079C50.731,137.536,50.494,136.988,50.265,136.437C50.037,135.886,49.818,135.332,49.607,134.773C49.396,134.215,49.195,133.654,49.002,133.089C48.809,132.524,48.625,131.957,48.451,131.386C48.276,130.816,48.111,130.243,47.955,129.667C47.798,129.091,47.651,128.513,47.514,127.932C47.376,127.352,47.247,126.770,47.128,126.185C47.009,125.600,46.899,125.014,46.799,124.426C46.698,123.838,46.607,123.248,46.526,122.657C46.444,122.066,46.372,121.474,46.310,120.881C46.133,120.855,45.956,120.826,45.781,120.793C45.605,120.760,45.430,120.723,45.256,120.682C45.082,120.642,44.909,120.597,44.737,120.548C44.565,120.500,44.395,120.447,44.225,120.391C44.055,120.335,43.887,120.275,43.720,120.211C43.553,120.147,43.388,120.080,43.224,120.009C43.060,119.938,42.898,119.863,42.737,119.785C42.576,119.706,42.418,119.624,42.261,119.539C42.104,119.453,41.949,119.365,41.796,119.272C41.643,119.180,41.492,119.084,41.343,118.985C41.195,118.886,41.048,118.783,40.904,118.678C40.760,118.572,40.618,118.463,40.479,118.351C40.340,118.239,40.203,118.124,40.069,118.006C39.935,117.888,39.803,117.767,39.675,117.643C39.546,117.519,39.420,117.392,39.297,117.263C39.174,117.133,39.054,117.001,38.937,116.866C38.820,116.731,38.706,116.593,38.595,116.453C38.484,116.313,38.376,116.171,38.271,116.026C38.167,115.881,38.065,115.734,37.967,115.584C37.869,115.435,37.775,115.283,37.683,115.130C37.592,114.976,37.504,114.820,37.420,114.663C37.336,114.505,37.255,114.346,37.178,114.185C37.100,114.024,37.027,113.861,36.957,113.696C36.887,113.532,36.821,113.366,36.758,113.199C36.696,113.031,36.637,112.862,36.582,112.692C36.527,112.522,36.476,112.351,36.428,112.179C36.381,112.007,36.338,111.833,36.298,111.659C36.259,111.485,36.223,111.310,36.191,111.134C36.159,110.958,36.132,110.781,36.108,110.604C36.084,110.427,36.064,110.250,36.048,110.072C36.032,109.894,36.020,109.715,36.012,109.537C36.004,109.358,36.000,109.180,36.000,109.001L36.000,94.999C36.000,94.824,36.004,94.648,36.012,94.473C36.019,94.298,36.031,94.123,36.046,93.948C36.062,93.773,36.081,93.599,36.104,93.425C36.127,93.251,36.154,93.078,36.184,92.905C36.215,92.732,36.249,92.560,36.287,92.389C36.326,92.218,36.367,92.047,36.413,91.878C36.459,91.709,36.508,91.540,36.561,91.373C36.614,91.206,36.671,91.040,36.731,90.875C36.791,90.710,36.855,90.547,36.923,90.385C36.990,90.223,37.061,90.063,37.136,89.904C37.210,89.745,37.288,89.588,37.369,89.432C37.451,89.277,37.536,89.123,37.624,88.972C37.712,88.820,37.803,88.670,37.898,88.523C37.993,88.375,38.091,88.229,38.192,88.086C38.293,87.943,38.397,87.801,38.504,87.663C38.611,87.524,38.722,87.387,38.835,87.253C38.948,87.119,39.064,86.988,39.183,86.859C39.302,86.730,39.424,86.604,39.549,86.480C39.673,86.357,39.801,86.236,39.930,86.118C40.060,86.000,40.193,85.885,40.327,85.773C40.462,85.661,40.600,85.552,40.739,85.445C40.879,85.339,41.021,85.236,41.165,85.136C41.309,85.036,41.456,84.940,41.604,84.846C41.753,84.753,41.903,84.662,42.055,84.576C42.208,84.489,42.362,84.405,42.518,84.325C42.674,84.245,42.832,84.168,42.991,84.095C43.151,84.022,43.312,83.952,43.474,83.886C43.637,83.820,43.801,83.757,43.966,83.698C44.131,83.639,44.298,83.584,44.465,83.532C44.633,83.481,44.802,83.433,44.971,83.388C45.141,83.344,45.312,83.304,45.483,83.267C45.655,83.230,45.827,83.197,46.000,83.168L46.000,76.999ZZZZZZZ" fill-rule="evenodd" style="fill: rgb(191, 165, 149); fill-opacity: 1;" class="fills"/><path d="M46.000,115.000L46.000,123.000C46.000,123.917,46.023,124.833,46.068,125.748C46.113,126.663,46.180,127.577,46.270,128.489C46.360,129.401,46.472,130.310,46.606,131.217C46.741,132.124,46.897,133.026,47.076,133.925C47.255,134.824,47.456,135.718,47.678,136.607C47.901,137.496,48.145,138.379,48.411,139.256C48.677,140.133,48.965,141.002,49.274,141.865C49.582,142.728,49.912,143.583,50.263,144.430C50.613,145.277,50.985,146.114,51.377,146.943C51.768,147.771,52.180,148.589,52.612,149.398C53.044,150.206,53.496,151.003,53.967,151.789C54.438,152.575,54.928,153.349,55.438,154.111C55.947,154.873,56.474,155.622,57.020,156.359C57.566,157.095,58.130,157.817,58.711,158.525C59.293,159.234,59.891,159.928,60.507,160.607C61.122,161.286,61.754,161.949,62.402,162.597C63.050,163.245,63.713,163.877,64.392,164.493C65.071,165.108,65.765,165.707,66.474,166.288C67.182,166.869,67.904,167.433,68.640,167.979C69.377,168.525,70.126,169.052,70.888,169.561C71.650,170.070,72.424,170.561,73.210,171.032C73.996,171.503,74.793,171.955,75.601,172.387C76.410,172.819,77.228,173.231,78.056,173.622C78.885,174.014,79.722,174.385,80.569,174.736C81.416,175.087,82.271,175.417,83.134,175.726C83.996,176.035,84.866,176.322,85.743,176.588C86.620,176.854,87.503,177.098,88.392,177.321C89.281,177.544,90.175,177.744,91.074,177.923C91.973,178.102,92.876,178.258,93.782,178.393C94.689,178.528,95.598,178.640,96.510,178.729C97.422,178.819,98.336,178.887,99.251,178.932C100.167,178.977,101.083,178.999,101.999,178.999L102.001,178.999C102.918,178.999,103.834,178.977,104.749,178.932C105.664,178.887,106.578,178.819,107.490,178.729C108.402,178.640,109.311,178.528,110.218,178.393C111.125,178.258,112.027,178.102,112.926,177.923C113.825,177.744,114.719,177.544,115.608,177.321C116.497,177.098,117.380,176.854,118.257,176.588C119.134,176.322,120.003,176.035,120.866,175.726C121.729,175.417,122.584,175.087,123.431,174.736C124.278,174.385,125.115,174.014,125.944,173.622C126.772,173.231,127.590,172.819,128.399,172.387C129.207,171.955,130.004,171.503,130.790,171.032C131.576,170.561,132.350,170.070,133.112,169.561C133.874,169.052,134.623,168.525,135.360,167.979C136.096,167.433,136.818,166.869,137.526,166.288C138.235,165.707,138.929,165.108,139.608,164.493C140.287,163.877,140.950,163.245,141.598,162.597C142.246,161.949,142.878,161.286,143.494,160.607C144.109,159.928,144.708,159.234,145.289,158.525C145.870,157.817,146.434,157.095,146.980,156.359C147.526,155.622,148.053,154.873,148.562,154.111C149.071,153.349,149.562,152.575,150.033,151.789C150.504,151.003,150.956,150.206,151.388,149.398C151.820,148.589,152.232,147.771,152.623,146.943C153.015,146.114,153.386,145.277,153.737,144.430C154.088,143.583,154.418,142.728,154.727,141.865C155.036,141.002,155.323,140.133,155.589,139.256C155.855,138.379,156.099,137.496,156.322,136.607C156.545,135.718,156.745,134.824,156.924,133.925C157.103,133.026,157.259,132.124,157.394,131.217C157.529,130.310,157.641,129.401,157.730,128.489C157.820,127.577,157.888,126.663,157.933,125.748C157.978,124.833,158.000,123.917,158.000,123.000L158.000,115.000C158.000,115.917,157.978,116.832,157.933,117.748C157.888,118.663,157.820,119.577,157.730,120.489C157.641,121.401,157.529,122.310,157.394,123.217C157.259,124.124,157.103,125.026,156.924,125.925C156.745,126.824,156.545,127.718,156.322,128.607C156.099,129.496,155.855,130.379,155.589,131.256C155.323,132.133,155.036,133.002,154.727,133.865C154.418,134.728,154.088,135.583,153.737,136.430C153.386,137.277,153.015,138.114,152.623,138.943C152.232,139.771,151.820,140.589,151.388,141.398C150.956,142.206,150.504,143.003,150.033,143.789C149.562,144.575,149.071,145.349,148.562,146.111C148.053,146.873,147.526,147.622,146.980,148.359C146.434,149.095,145.870,149.817,145.289,150.525C144.708,151.234,144.109,151.928,143.494,152.607C142.878,153.286,142.246,153.949,141.598,154.597C140.950,155.245,140.287,155.877,139.608,156.493C138.929,157.108,138.235,157.707,137.526,158.288C136.818,158.869,136.096,159.433,135.360,159.979C134.623,160.525,133.874,161.052,133.112,161.561C132.350,162.070,131.576,162.561,130.790,163.032C130.004,163.503,129.207,163.955,128.399,164.387C127.590,164.819,126.772,165.231,125.944,165.622C125.115,166.014,124.278,166.385,123.431,166.736C122.584,167.087,121.729,167.417,120.866,167.726C120.003,168.035,119.134,168.322,118.257,168.588C117.380,168.854,116.497,169.098,115.608,169.321C114.719,169.544,113.825,169.744,112.926,169.923C112.027,170.102,111.125,170.258,110.218,170.393C109.311,170.528,108.402,170.640,107.490,170.729C106.578,170.819,105.664,170.887,104.749,170.932C103.834,170.977,102.918,170.999,102.001,170.999L101.999,170.999C101.083,170.999,100.167,170.977,99.251,170.932C98.336,170.887,97.422,170.819,96.510,170.729C95.598,170.640,94.689,170.528,93.782,170.393C92.876,170.258,91.973,170.102,91.074,169.923C90.175,169.744,89.281,169.544,88.392,169.321C87.503,169.098,86.620,168.854,85.743,168.588C84.866,168.322,83.996,168.035,83.134,167.726C82.271,167.417,81.416,167.087,80.569,166.736C79.722,166.385,78.885,166.014,78.056,165.622C77.228,165.231,76.410,164.819,75.601,164.387C74.793,163.955,73.996,163.503,73.210,163.032C72.424,162.561,71.650,162.070,70.888,161.561C70.126,161.052,69.377,160.525,68.640,159.979C67.904,159.433,67.182,158.869,66.474,158.288C65.765,157.707,65.071,157.108,64.392,156.493C63.713,155.877,63.050,155.245,62.402,154.597C61.754,153.949,61.122,153.286,60.507,152.607C59.891,151.928,59.293,151.234,58.711,150.525C58.130,149.817,57.566,149.095,57.020,148.359C56.474,147.622,55.947,146.873,55.438,146.111C54.928,145.349,54.438,144.575,53.967,143.789C53.496,143.003,53.044,142.206,52.612,141.398C52.180,140.589,51.768,139.771,51.377,138.943C50.985,138.114,50.613,137.277,50.263,136.430C49.912,135.583,49.582,134.728,49.274,133.865C48.965,133.002,48.677,132.133,48.411,131.256C48.145,130.379,47.901,129.496,47.678,128.607C47.456,127.718,47.255,126.824,47.076,125.925C46.897,125.026,46.741,124.124,46.606,123.217C46.472,122.310,46.360,121.401,46.270,120.489C46.180,119.577,46.113,118.663,46.068,117.748C46.023,116.832,46.000,115.917,46.000,115.000ZZZZZZZ" fill-rule="evenodd" style="fill: rgb(0, 0, 0); fill-opacity: 0.101961;" class="fills"/></g><defs><rect width="112" height="44" id="a"/></defs><g class="fills"><rect width="73" height="12" class="frame-background" x="70" transform="matrix(1.000000, 0.000000, 0.000000, 1.000000, 0.000000, 0.000000)" ry="0" rx="0" y="93" clip-path="url(#-clip_7)"/></g><defs><rect width="264" height="110" id="b"/></defs><g class="fills"><rect width="200" height="96.929" class="frame-background" transform="matrix(1.000000, 0.000000, 0.000000, 1.000000, 0.000000, 0.000000)" ry="0" rx="0" y="169" clip-path="url(#-clip_2)"/></g><g class="frame-children"><path d="M76.000,169.000C60.701,170.712,48.404,174.954,44.963,184.929L40.499,184.929C39.836,184.929,39.174,184.945,38.512,184.977C37.850,185.010,37.189,185.059,36.530,185.124C35.870,185.189,35.212,185.270,34.557,185.367C33.901,185.464,33.248,185.577,32.598,185.707C31.948,185.836,31.302,185.981,30.659,186.142C30.016,186.303,29.377,186.480,28.743,186.672C28.109,186.865,27.479,187.073,26.856,187.296C26.231,187.519,25.613,187.758,25.001,188.011C24.389,188.265,23.783,188.534,23.184,188.817C22.584,189.100,21.993,189.398,21.408,189.711C20.823,190.023,20.247,190.350,19.678,190.690C19.110,191.031,18.550,191.386,17.999,191.754C17.448,192.122,16.906,192.504,16.374,192.898C15.841,193.293,15.319,193.701,14.807,194.121C14.294,194.542,13.793,194.975,13.302,195.420C12.811,195.865,12.331,196.322,11.862,196.790C11.393,197.259,10.936,197.739,10.491,198.230C10.046,198.721,9.613,199.223,9.193,199.735C8.772,200.248,8.365,200.770,7.970,201.302C7.575,201.835,7.194,202.377,6.825,202.928C6.457,203.479,6.103,204.039,5.762,204.607C5.421,205.176,5.095,205.752,4.782,206.337C4.470,206.921,4.172,207.513,3.888,208.112C3.605,208.711,3.336,209.317,3.083,209.929C2.829,210.542,2.591,211.160,2.367,211.784C2.144,212.408,1.936,213.037,1.744,213.671C1.552,214.306,1.375,214.944,1.214,215.587C1.053,216.230,0.907,216.877,0.778,217.527C0.649,218.177,0.536,218.830,0.438,219.485C0.341,220.141,0.260,220.799,0.195,221.458C0.130,222.118,0.081,222.779,0.049,223.441C0.016,224.103,0.000,224.765,0.000,225.428L0.000,265.929L200.000,265.929L200.000,225.428C200.000,224.765,199.984,224.103,199.951,223.441C199.918,222.779,199.870,222.118,199.805,221.458C199.740,220.799,199.659,220.141,199.562,219.485C199.465,218.830,199.351,218.177,199.222,217.527C199.093,216.877,198.947,216.230,198.786,215.587C198.625,214.944,198.449,214.306,198.256,213.671C198.063,213.037,197.856,212.408,197.633,211.784C197.410,211.160,197.171,210.542,196.917,209.929C196.664,209.317,196.395,208.711,196.112,208.112C195.829,207.513,195.531,206.921,195.218,206.337C194.905,205.752,194.579,205.176,194.238,204.607C193.897,204.039,193.543,203.479,193.175,202.928C192.806,202.377,192.425,201.835,192.030,201.302C191.635,200.770,191.228,200.248,190.807,199.735C190.386,199.223,189.954,198.721,189.509,198.230C189.064,197.739,188.607,197.259,188.138,196.790C187.669,196.322,187.189,195.865,186.698,195.420C186.207,194.975,185.706,194.542,185.193,194.121C184.681,193.701,184.159,193.293,183.626,192.898C183.094,192.504,182.552,192.122,182.001,191.754C181.450,191.386,180.890,191.031,180.321,190.690C179.753,190.350,179.177,190.023,178.592,189.711C178.007,189.398,177.415,189.100,176.816,188.817C176.217,188.534,175.612,188.265,174.999,188.011C174.387,187.758,173.769,187.519,173.145,187.296C172.520,187.073,171.891,186.865,171.257,186.672C170.623,186.480,169.984,186.303,169.341,186.142C168.698,185.981,168.052,185.836,167.402,185.707C166.752,185.577,166.099,185.464,165.443,185.367C164.788,185.270,164.130,185.189,163.470,185.124C162.811,185.059,162.150,185.010,161.488,184.977C160.826,184.945,160.164,184.929,159.501,184.929L155.037,184.929C151.596,174.954,139.299,170.712,124.000,169.000L124.000,187.930C124.000,188.323,123.990,188.715,123.971,189.108C123.952,189.500,123.923,189.892,123.884,190.282C123.846,190.673,123.798,191.063,123.740,191.451C123.683,191.840,123.616,192.227,123.539,192.612C123.462,192.997,123.376,193.380,123.281,193.761C123.186,194.142,123.081,194.521,122.967,194.897C122.853,195.272,122.730,195.645,122.597,196.015C122.465,196.385,122.324,196.751,122.173,197.114C122.023,197.477,121.864,197.836,121.696,198.191C121.528,198.546,121.351,198.897,121.166,199.243C120.981,199.589,120.787,199.931,120.586,200.268C120.384,200.605,120.174,200.937,119.955,201.263C119.737,201.590,119.511,201.911,119.277,202.226C119.043,202.542,118.801,202.851,118.552,203.155C118.303,203.458,118.047,203.756,117.783,204.047C117.519,204.338,117.248,204.622,116.971,204.900C116.693,205.178,116.409,205.448,116.118,205.712C115.827,205.976,115.529,206.232,115.226,206.482C114.922,206.731,114.612,206.972,114.297,207.206C113.982,207.440,113.661,207.666,113.334,207.884C113.007,208.103,112.676,208.313,112.339,208.515C112.002,208.717,111.661,208.910,111.314,209.095C110.967,209.280,110.617,209.457,110.262,209.625C109.907,209.793,109.548,209.952,109.185,210.102C108.822,210.253,108.456,210.394,108.086,210.526C107.716,210.659,107.343,210.782,106.968,210.896C106.592,211.010,106.213,211.114,105.832,211.210C105.451,211.305,105.068,211.391,104.683,211.468C104.298,211.545,103.911,211.612,103.522,211.669C103.134,211.727,102.744,211.775,102.353,211.813C101.962,211.852,101.571,211.881,101.179,211.900C100.786,211.919,100.394,211.929,100.001,211.929L99.999,211.929C99.606,211.929,99.214,211.919,98.821,211.900C98.429,211.881,98.038,211.852,97.647,211.813C97.256,211.775,96.866,211.727,96.478,211.669C96.089,211.612,95.702,211.545,95.317,211.468C94.932,211.391,94.549,211.305,94.168,211.210C93.787,211.114,93.408,211.010,93.032,210.896C92.657,210.782,92.284,210.659,91.914,210.526C91.544,210.394,91.178,210.253,90.815,210.102C90.452,209.952,90.093,209.793,89.738,209.625C89.383,209.457,89.033,209.280,88.686,209.095C88.339,208.910,87.998,208.717,87.661,208.515C87.324,208.313,86.993,208.103,86.666,207.884C86.339,207.666,86.018,207.440,85.703,207.206C85.388,206.972,85.078,206.731,84.774,206.482C84.471,206.232,84.173,205.976,83.882,205.712C83.591,205.448,83.307,205.178,83.029,204.900C82.752,204.622,82.481,204.338,82.217,204.047C81.953,203.756,81.697,203.458,81.448,203.155C81.199,202.851,80.957,202.542,80.723,202.226C80.489,201.911,80.263,201.590,80.045,201.263C79.826,200.937,79.616,200.605,79.414,200.268C79.212,199.931,79.019,199.589,78.834,199.243C78.649,198.897,78.472,198.546,78.304,198.191C78.136,197.836,77.977,197.477,77.827,197.114C77.676,196.751,77.535,196.385,77.403,196.015C77.270,195.645,77.147,195.272,77.033,194.897C76.919,194.521,76.814,194.142,76.719,193.761C76.624,193.380,76.538,192.997,76.461,192.612C76.384,192.227,76.317,191.840,76.260,191.451C76.202,191.063,76.154,190.673,76.116,190.282C76.077,189.892,76.048,189.500,76.029,189.108C76.010,188.715,76.000,188.323,76.000,187.930L76.000,169.000ZZZZZZZ" fill-rule="evenodd" style="fill: rgb(191, 101, 118); fill-opacity: 1;" class="fills"/><path d="M63.000,214.079C65.204,215.389,67.547,216.590,70.000,217.668L70.000,265.929L63.000,265.929L63.000,214.079ZZZZZZZM137.000,214.079C134.796,215.389,132.453,216.590,130.000,217.668L130.000,254.430C130.000,254.545,130.006,254.659,130.017,254.773C130.028,254.887,130.045,255.000,130.067,255.113C130.090,255.225,130.118,255.336,130.151,255.446C130.184,255.555,130.223,255.663,130.266,255.769C130.310,255.875,130.359,255.978,130.413,256.079C130.467,256.180,130.526,256.279,130.590,256.374C130.653,256.469,130.721,256.561,130.794,256.650C130.867,256.739,130.944,256.823,131.025,256.904C131.106,256.985,131.190,257.062,131.279,257.135C131.368,257.208,131.460,257.276,131.555,257.339C131.650,257.403,131.749,257.462,131.850,257.516C131.951,257.570,132.054,257.619,132.160,257.663C132.266,257.706,132.374,257.745,132.483,257.778C132.593,257.811,132.704,257.839,132.816,257.862C132.929,257.884,133.042,257.901,133.156,257.912C133.270,257.923,133.384,257.929,133.499,257.929L133.501,257.929C133.616,257.929,133.730,257.923,133.844,257.912C133.958,257.901,134.071,257.884,134.184,257.862C134.296,257.839,134.407,257.811,134.517,257.778C134.626,257.745,134.734,257.706,134.840,257.663C134.946,257.619,135.049,257.570,135.150,257.516C135.251,257.462,135.350,257.403,135.445,257.339C135.540,257.276,135.632,257.208,135.721,257.135C135.810,257.062,135.894,256.985,135.975,256.904C136.056,256.823,136.133,256.739,136.206,256.650C136.279,256.561,136.347,256.469,136.410,256.374C136.474,256.279,136.533,256.180,136.587,256.079C136.641,255.978,136.690,255.875,136.734,255.769C136.777,255.663,136.816,255.555,136.849,255.446C136.882,255.336,136.910,255.225,136.933,255.113C136.955,255.000,136.972,254.887,136.983,254.773C136.994,254.659,137.000,254.545,137.000,254.430L137.000,214.079ZZZZZZZ" fill-rule="evenodd" style="fill: rgb(191, 101, 118); fill-opacity: 1;" class="fills"/><path d="M166.272,185.499C165.996,185.452,165.720,185.408,165.443,185.367C164.788,185.270,164.130,185.189,163.470,185.124C162.811,185.059,162.150,185.010,161.488,184.977C160.826,184.945,160.164,184.929,159.501,184.929L155.899,184.929C155.966,185.600,156.000,186.292,156.000,187.006C156.000,207.398,128.179,223.929,100.000,223.929C71.821,223.929,44.000,207.398,44.000,187.006C44.000,186.292,44.034,185.600,44.101,184.929L40.499,184.929C39.836,184.929,39.174,184.945,38.512,184.977C37.850,185.010,37.189,185.059,36.530,185.124C35.870,185.189,35.212,185.270,34.557,185.367C34.275,185.409,33.994,185.453,33.713,185.501C33.577,186.376,33.500,187.286,33.500,188.237C33.500,207.949,66.538,223.929,100.000,223.929C133.462,223.929,166.500,207.949,166.500,188.237C166.500,187.286,166.423,186.376,166.272,185.499Z" style="fill: rgb(0, 0, 0); fill-opacity: 0.16;" class="fills"/></g><defs><rect width="112" height="24" id="c"/></defs><g class="fills"><rect width="88" height="18" class="frame-background" x="57" transform="matrix(1.000000, 0.000000, -0.000000, 1.000000, 0.000002, -0.000004)" ry="0" rx="0" y="75" clip-path="url(#-clip_6)"/></g><g class="frame-children"><path d="M67.766,76.578L68.677,76.176C73.919,74.095,81.865,74.967,86.723,77.299C87.290,77.571,86.902,78.452,86.321,78.407C71.402,77.256,61.358,86.553,57.946,92.847C57.845,93.034,57.539,93.055,57.464,92.881C55.156,87.562,61.913,78.896,67.766,76.578ZZZZZZZ" fill-rule="evenodd" style="fill: rgb(87, 83, 81); fill-opacity: 1;" class="fills"/><path d="M134.234,76.578L133.323,76.176C128.081,74.095,120.136,74.967,115.277,77.299C114.710,77.571,115.098,78.452,115.679,78.407C130.598,77.256,140.642,86.553,144.054,92.847C144.155,93.034,144.461,93.055,144.537,92.881C146.844,87.562,140.087,78.896,134.234,76.578ZZZZZZZ" fill-rule="evenodd" style="fill: rgb(87, 83, 81); fill-opacity: 1;" class="fills"/></g><defs><rect width="108" height="44" id="d"/></defs><g class="fills"><rect width="28" height="11" class="frame-background" x="87" transform="matrix(1.000000, 0.000000, 0.000000, 1.000000, 0.000000, 0.000000)" ry="0" rx="0" y="139" clip-path="url(#-clip_9)"/></g><g class="frame-children"><path d="M87.000,141.000C87.000,146.372,93.158,150.000,101.000,150.000C108.842,150.000,115.000,146.372,115.000,141.000C115.000,139.895,114.050,139.000,113.000,139.000C111.707,139.000,111.130,139.905,111.000,141.000C109.758,143.938,106.683,145.716,101.000,146.000C95.317,145.716,92.242,143.938,91.000,141.000C90.870,139.905,90.293,139.000,89.000,139.000C87.950,139.000,87.000,139.895,87.000,141.000ZZZZZZZ" fill-rule="evenodd" style="fill: rgb(0, 0, 0); fill-opacity: 0.6;" class="fills"/></g><defs><rect width="56" height="24" id="e"/></defs><g class="fills"><rect width="24" height="8" class="frame-background" x="87" transform="matrix(1.000000, 0.000000, -0.000000, 1.000000, 0.000002, 0.000007)" ry="0" rx="0" y="123" clip-path="url(#-clip_10)"/></g><g class="frame-children"><path d="M87.000,123.000C87.000,127.418,92.373,131.000,99.000,131.000L99.000,131.000C105.627,131.000,111.000,127.418,111.000,123.000" fill-rule="evenodd" style="fill: rgb(0, 0, 0); fill-opacity: 0.160784;" class="fills"/></g><defs><rect width="112" height="44" id="f"/></defs><g class="fills"><rect width="80" height="8" class="frame-background" x="62" transform="matrix(1.000000, 0.000000, 0.000000, 1.000000, 0.000004, -0.000005)" ry="0" rx="0" y="91" clip-path="url(#-clip_7)"/></g><g class="frame-children"><path d="M62.160,97.447C64.007,93.648,68.164,91.000,72.998,91.000C77.814,91.000,81.959,93.630,83.815,97.407C84.367,98.529,83.582,99.447,82.791,98.767C80.339,96.660,76.859,95.344,72.998,95.344C69.257,95.344,65.874,96.579,63.437,98.572C62.547,99.300,61.620,98.558,62.160,97.447ZZZZZZZ" fill-rule="evenodd" style="fill: rgb(0, 0, 0); fill-opacity: 0.6;" class="fills"/><path d="M120.160,97.447C122.007,93.648,126.164,91.000,130.998,91.000C135.814,91.000,139.959,93.630,141.815,97.407C142.367,98.529,141.582,99.447,140.791,98.767C138.339,96.660,134.859,95.344,130.998,95.344C127.257,95.344,123.874,96.579,121.437,98.572C120.547,99.300,119.620,98.558,120.160,97.447ZZZZZZZ" fill-rule="evenodd" style="fill: rgb(0, 0, 0); fill-opacity: 0.6;" class="fills"/></g><defs><rect width="266" height="280" id="g"/></defs><g class="fills"><rect width="39.863" height="35.332" class="frame-background" x="81.569" transform="matrix(2.935063, 0.000000, -0.000000, 2.320856, -196.408916, -54.155105)" ry="0" rx="0" y="23.334" clip-path="url(#-clip_12)"/></g><g class="frame-children"><path d="M149.150,22.920C146.390,20.100,143.186,17.707,140.069,15.307C139.382,14.777,138.683,14.261,138.011,13.712C137.858,13.587,136.292,12.466,136.105,12.053C135.654,11.060,135.915,11.833,135.977,10.649C136.056,9.151,139.111,4.919,136.831,3.949C135.828,3.522,134.040,4.658,133.078,5.033C131.196,5.767,129.292,6.393,127.347,6.933C128.279,5.076,130.055,1.360,126.716,2.354C124.114,3.129,121.690,5.122,119.076,6.059C119.941,4.642,123.400,0.248,120.274,0.002C119.302,-0.074,116.471,1.750,115.424,2.140C112.287,3.306,109.083,4.059,105.790,4.653C94.592,6.671,81.497,6.095,71.137,11.194C63.150,15.124,55.263,21.222,50.648,28.988C46.201,36.473,44.538,44.664,43.607,53.241C42.924,59.536,42.868,66.043,43.188,72.360C43.292,74.430,43.525,83.971,46.532,81.081C48.030,79.642,48.019,73.828,48.396,71.860C49.147,67.945,49.870,64.013,51.122,60.223C53.328,53.544,55.931,46.430,61.427,41.830C64.954,38.878,67.431,34.889,70.806,31.911C72.322,30.574,71.165,30.713,73.603,30.889C75.241,31.006,76.885,31.051,78.526,31.094C82.322,31.193,86.124,31.168,89.921,31.181C97.568,31.209,105.179,31.317,112.819,30.916C116.214,30.739,119.618,30.642,123.004,30.328C124.895,30.153,128.251,28.941,129.808,29.867C131.233,30.714,132.713,33.482,133.736,34.615C136.154,37.294,139.036,39.339,141.862,41.536C147.757,46.115,150.732,51.867,152.523,59.023C154.306,66.153,153.806,72.768,156.013,79.785C156.402,81.019,157.429,83.145,158.695,81.239C158.930,80.885,158.870,78.939,158.870,77.819C158.870,73.300,160.014,69.908,160.000,65.359C159.944,51.527,159.496,33.491,149.150,22.920ZZZZZZZ" fill-rule="evenodd" style="fill: rgb(31, 49, 64); fill-opacity: 1;" class="fills"/></g></svg>