<svg width="212.287" xmlns="http://www.w3.org/2000/svg" height="269.001" xmlns:xlink="http://www.w3.org/1999/xlink" fill="none"><g class="fills"><rect rx="0" ry="0" width="212.287" height="269" transform="matrix(1.000000, 0.000000, 0.000000, 1.000000, 0.000000, 0.000000)" class="frame-background"/></g><g class="frame-children"><g style="fill: rgb(0, 0, 0); fill-opacity: 1;"><path d="M51.287,80.000C51.287,79.083,51.309,78.167,51.353,77.252C51.397,76.337,51.463,75.423,51.550,74.511C51.638,73.599,51.748,72.690,51.879,71.783C52.011,70.876,52.164,69.974,52.338,69.075C52.513,68.176,52.709,67.282,52.927,66.393C53.144,65.504,53.383,64.621,53.643,63.744C53.903,62.867,54.184,61.997,54.486,61.134C54.787,60.271,55.110,59.417,55.452,58.570C55.795,57.723,56.158,56.886,56.541,56.057C56.924,55.229,57.326,54.410,57.748,53.602C58.170,52.794,58.612,51.997,59.072,51.211C59.533,50.424,60.011,49.650,60.509,48.888C61.007,48.126,61.522,47.377,62.056,46.641C62.589,45.905,63.140,45.183,63.708,44.474C64.276,43.766,64.861,43.072,65.462,42.393C66.064,41.714,66.681,41.051,67.314,40.403C67.948,39.755,68.596,39.123,69.260,38.507C69.923,37.892,70.601,37.293,71.293,36.712C71.986,36.131,72.691,35.567,73.411,35.021C74.130,34.475,74.862,33.948,75.606,33.438C76.351,32.929,77.107,32.439,77.876,31.968C78.644,31.497,79.423,31.045,80.213,30.613C81.002,30.181,81.802,29.769,82.612,29.377C83.421,28.985,84.240,28.614,85.067,28.263C85.894,27.913,86.730,27.583,87.573,27.274C88.416,26.966,89.266,26.678,90.123,26.412C90.980,26.146,91.843,25.902,92.712,25.679C93.580,25.456,94.454,25.256,95.332,25.077C96.211,24.898,97.093,24.741,97.979,24.607C98.865,24.472,99.753,24.360,100.644,24.270C101.535,24.181,102.428,24.113,103.323,24.068C104.217,24.023,105.112,24.001,106.008,24.001L106.010,24.001C106.906,24.001,107.801,24.023,108.695,24.068C109.590,24.113,110.482,24.181,111.374,24.270C112.265,24.360,113.153,24.472,114.039,24.607C114.925,24.741,115.807,24.898,116.686,25.077C117.564,25.256,118.437,25.456,119.306,25.679C120.175,25.902,121.038,26.146,121.895,26.412C122.752,26.678,123.601,26.966,124.444,27.274C125.288,27.583,126.123,27.913,126.951,28.263C127.778,28.614,128.597,28.985,129.406,29.377C130.216,29.769,131.015,30.181,131.805,30.613C132.595,31.045,133.374,31.497,134.142,31.968C134.910,32.439,135.666,32.929,136.411,33.438C137.155,33.948,137.888,34.475,138.608,35.021C139.327,35.567,140.032,36.131,140.724,36.712C141.417,37.293,142.095,37.892,142.759,38.507C143.422,39.123,144.070,39.755,144.703,40.403C145.336,41.051,145.954,41.714,146.556,42.393C147.157,43.072,147.742,43.766,148.310,44.474C148.878,45.183,149.429,45.905,149.962,46.641C150.496,47.377,151.011,48.126,151.508,48.888C152.006,49.650,152.485,50.424,152.946,51.211C153.406,51.997,153.848,52.794,154.270,53.602C154.692,54.410,155.094,55.229,155.477,56.057C155.860,56.886,156.222,57.723,156.565,58.570C156.908,59.417,157.230,60.271,157.533,61.134C157.834,61.997,158.115,62.867,158.375,63.744C158.635,64.621,158.874,65.504,159.091,66.393C159.309,67.282,159.505,68.176,159.679,69.075C159.854,69.974,160.007,70.876,160.139,71.783C160.270,72.690,160.380,73.599,160.467,74.511C160.555,75.423,160.621,76.337,160.665,77.252C160.709,78.167,160.731,79.083,160.731,80.000L160.731,86.169C160.900,86.198,161.068,86.231,161.236,86.268C161.403,86.304,161.570,86.345,161.736,86.389C161.902,86.433,162.067,86.481,162.231,86.533C162.394,86.585,162.557,86.640,162.718,86.699C162.880,86.758,163.040,86.821,163.199,86.887C163.358,86.953,163.516,87.023,163.671,87.096C163.827,87.169,163.981,87.246,164.133,87.326C164.286,87.406,164.437,87.489,164.586,87.576C164.734,87.663,164.881,87.753,165.027,87.847C165.172,87.940,165.315,88.037,165.456,88.137C165.596,88.237,165.735,88.340,165.872,88.446C166.008,88.552,166.142,88.661,166.274,88.774C166.406,88.886,166.535,89.001,166.662,89.119C166.789,89.237,166.913,89.358,167.035,89.481C167.156,89.605,167.276,89.731,167.392,89.860C167.508,89.989,167.622,90.120,167.732,90.254C167.843,90.388,167.951,90.525,168.056,90.663C168.161,90.802,168.262,90.943,168.361,91.087C168.460,91.230,168.555,91.376,168.648,91.523C168.740,91.671,168.830,91.821,168.916,91.972C169.002,92.124,169.085,92.278,169.165,92.433C169.244,92.589,169.320,92.746,169.393,92.905C169.466,93.063,169.535,93.224,169.601,93.386C169.667,93.548,169.730,93.711,169.788,93.876C169.847,94.041,169.902,94.207,169.954,94.374C170.007,94.541,170.055,94.709,170.099,94.879C170.143,95.048,170.184,95.218,170.222,95.390C170.259,95.561,170.293,95.733,170.323,95.906C170.353,96.078,170.379,96.252,170.401,96.426C170.424,96.600,170.443,96.774,170.458,96.949C170.473,97.123,170.484,97.298,170.491,97.474C170.499,97.649,170.503,97.824,170.503,98.000L170.503,112.002C170.503,112.181,170.499,112.359,170.491,112.538C170.483,112.716,170.471,112.894,170.456,113.072C170.440,113.250,170.421,113.428,170.397,113.605C170.374,113.782,170.347,113.959,170.316,114.135C170.285,114.310,170.250,114.485,170.211,114.660C170.173,114.834,170.131,115.007,170.084,115.180C170.038,115.352,169.988,115.523,169.934,115.693C169.881,115.863,169.823,116.032,169.762,116.199C169.701,116.367,169.636,116.533,169.567,116.697C169.499,116.862,169.427,117.024,169.352,117.186C169.277,117.347,169.198,117.506,169.115,117.664C169.033,117.821,168.947,117.977,168.858,118.130C168.769,118.284,168.676,118.436,168.581,118.585C168.485,118.734,168.386,118.882,168.283,119.026C168.181,119.171,168.076,119.314,167.967,119.454C167.859,119.594,167.747,119.731,167.633,119.866C167.519,120.001,167.401,120.134,167.281,120.263C167.160,120.393,167.037,120.520,166.912,120.644C166.786,120.768,166.657,120.889,166.527,121.007C166.396,121.125,166.262,121.240,166.126,121.352C165.990,121.464,165.851,121.573,165.711,121.678C165.570,121.784,165.427,121.886,165.282,121.986C165.136,122.085,164.989,122.181,164.839,122.273C164.690,122.365,164.538,122.454,164.385,122.540C164.231,122.625,164.076,122.707,163.919,122.785C163.762,122.864,163.604,122.939,163.444,123.010C163.283,123.081,163.122,123.148,162.959,123.212C162.796,123.276,162.631,123.336,162.465,123.392C162.300,123.448,162.133,123.500,161.965,123.549C161.797,123.598,161.628,123.642,161.458,123.683C161.288,123.724,161.117,123.761,160.945,123.794C160.774,123.827,160.601,123.856,160.428,123.881C160.367,124.474,160.297,125.066,160.217,125.658C160.137,126.249,160.048,126.839,159.950,127.427C159.852,128.015,159.745,128.601,159.629,129.186C159.512,129.770,159.386,130.353,159.251,130.933C159.117,131.513,158.974,132.092,158.820,132.668C158.668,133.244,158.506,133.817,158.336,134.387C158.165,134.957,157.986,135.525,157.797,136.090C157.609,136.654,157.412,137.216,157.206,137.774C157.000,138.332,156.786,138.887,156.563,139.438C156.340,139.989,156.108,140.536,155.867,141.080C155.627,141.624,155.379,142.163,155.122,142.699C154.865,143.234,154.599,143.765,154.325,144.292C154.052,144.819,153.770,145.341,153.480,145.859C153.190,146.376,152.892,146.889,152.586,147.397C152.280,147.905,151.966,148.407,151.644,148.905C151.322,149.402,150.993,149.894,150.656,150.382C150.319,150.868,149.974,151.349,149.622,151.825C149.270,152.300,148.910,152.770,148.543,153.234C148.177,153.697,147.803,154.155,147.422,154.607C147.041,155.058,146.653,155.503,146.258,155.942C145.862,156.380,145.460,156.813,145.052,157.239C144.644,157.665,144.229,158.084,143.807,158.496C143.386,158.908,142.958,159.313,142.523,159.711C142.089,160.109,141.649,160.500,141.203,160.884C140.756,161.267,140.304,161.643,139.846,162.013C139.388,162.381,138.924,162.743,138.454,163.097C137.984,163.450,137.510,163.796,137.029,164.134C136.549,164.472,136.064,164.803,135.573,165.125C135.083,165.447,134.587,165.762,134.086,166.068C133.586,166.374,133.081,166.672,132.572,166.962C132.061,167.251,131.547,167.532,131.030,167.805C130.511,168.077,129.988,168.342,129.461,168.598L129.461,187.001L164.152,187.001C164.800,187.001,165.447,187.017,166.094,187.050C166.741,187.082,167.386,187.131,168.031,187.196C168.676,187.260,169.318,187.341,169.958,187.439C170.599,187.536,171.237,187.649,171.873,187.779C172.508,187.908,173.139,188.053,173.767,188.215C174.396,188.375,175.020,188.552,175.640,188.745C176.260,188.937,176.875,189.144,177.485,189.368C178.094,189.591,178.698,189.830,179.296,190.084C179.895,190.337,180.487,190.605,181.073,190.889C181.658,191.172,182.236,191.470,182.807,191.783C183.379,192.095,183.942,192.422,184.498,192.763C185.053,193.103,185.600,193.458,186.138,193.826C186.677,194.194,187.207,194.576,187.726,194.971C188.247,195.365,188.757,195.773,189.258,196.194C189.759,196.614,190.249,197.047,190.728,197.492C191.208,197.937,191.677,198.394,192.135,198.863C192.593,199.331,193.040,199.811,193.475,200.302C193.910,200.793,194.332,201.295,194.744,201.808C195.155,202.320,195.553,202.842,195.939,203.375C196.324,203.907,196.697,204.448,197.057,205.000C197.417,205.551,197.763,206.111,198.096,206.679C198.429,207.247,198.748,207.824,199.054,208.409C199.359,208.993,199.651,209.585,199.927,210.184C200.204,210.783,200.467,211.389,200.714,212.002C200.962,212.614,201.196,213.232,201.414,213.856C201.632,214.480,201.835,215.109,202.023,215.744C202.211,216.378,202.383,217.016,202.540,217.660C202.698,218.302,202.840,218.949,202.966,219.599C203.093,220.249,203.204,220.902,203.299,221.558C203.394,222.213,203.473,222.870,203.536,223.530C203.599,224.190,203.647,224.851,203.679,225.513C203.711,226.175,203.727,226.837,203.727,227.500L203.727,268.001L8.291,268.001L8.291,227.500C8.291,226.837,8.307,226.175,8.339,225.513C8.370,224.851,8.418,224.190,8.482,223.530C8.545,222.870,8.624,222.213,8.719,221.558C8.814,220.902,8.925,220.249,9.051,219.599C9.178,218.949,9.320,218.302,9.477,217.660C9.634,217.016,9.807,216.378,9.995,215.744C10.183,215.109,10.386,214.480,10.604,213.856C10.823,213.232,11.056,212.614,11.303,212.002C11.551,211.389,11.814,210.783,12.091,210.184C12.368,209.585,12.659,208.993,12.964,208.409C13.269,207.824,13.588,207.247,13.921,206.679C14.254,206.111,14.601,205.551,14.961,205.000C15.320,204.448,15.693,203.907,16.079,203.375C16.465,202.842,16.863,202.320,17.274,201.808C17.685,201.295,18.108,200.793,18.543,200.303C18.978,199.811,19.424,199.331,19.882,198.863C20.340,198.394,20.809,197.937,21.289,197.492C21.769,197.047,22.259,196.614,22.760,196.194C23.260,195.773,23.771,195.365,24.291,194.971C24.811,194.576,25.341,194.194,25.879,193.826C26.418,193.458,26.965,193.103,27.520,192.763C28.076,192.422,28.639,192.095,29.210,191.783C29.782,191.470,30.360,191.172,30.945,190.889C31.531,190.605,32.123,190.337,32.721,190.084C33.320,189.830,33.924,189.591,34.533,189.368C35.143,189.144,35.758,188.937,36.378,188.745C36.998,188.552,37.622,188.375,38.250,188.215C38.878,188.053,39.510,187.908,40.145,187.779C40.780,187.649,41.418,187.536,42.059,187.439C42.700,187.341,43.342,187.260,43.987,187.196C44.631,187.131,45.277,187.082,45.924,187.050C46.571,187.017,47.218,187.001,47.866,187.001L82.557,187.001L82.557,168.598C82.030,168.342,81.507,168.077,80.989,167.805C80.470,167.532,79.956,167.251,79.446,166.962C78.937,166.672,78.432,166.374,77.931,166.068C77.431,165.762,76.935,165.447,76.445,165.125C75.954,164.803,75.469,164.472,74.988,164.134C74.508,163.796,74.033,163.450,73.564,163.097C73.094,162.743,72.630,162.381,72.172,162.013C71.714,161.643,71.262,161.267,70.815,160.884C70.369,160.500,69.928,160.109,69.494,159.711C69.060,159.313,68.632,158.908,68.211,158.496C67.789,158.084,67.374,157.665,66.965,157.239C66.557,156.813,66.155,156.380,65.760,155.942C65.365,155.503,64.977,155.058,64.596,154.607C64.215,154.155,63.841,153.697,63.474,153.234C63.107,152.770,62.748,152.300,62.396,151.825C62.044,151.349,61.699,150.868,61.362,150.382C61.025,149.894,60.695,149.402,60.374,148.905C60.052,148.407,59.738,147.905,59.432,147.397C59.126,146.889,58.828,146.376,58.538,145.859C58.248,145.341,57.966,144.819,57.692,144.292C57.419,143.765,57.153,143.234,56.896,142.699C56.639,142.163,56.390,141.624,56.150,141.080C55.910,140.536,55.678,139.989,55.455,139.438C55.232,138.887,55.017,138.332,54.811,137.774C54.605,137.216,54.408,136.654,54.220,136.090C54.032,135.525,53.852,134.957,53.682,134.387C53.511,133.817,53.349,133.244,53.197,132.668C53.044,132.092,52.900,131.513,52.766,130.933C52.631,130.353,52.506,129.770,52.389,129.186C52.273,128.601,52.166,128.015,52.067,127.427C51.969,126.839,51.880,126.249,51.801,125.658C51.721,125.066,51.651,124.474,51.589,123.881C51.416,123.856,51.244,123.827,51.073,123.794C50.901,123.761,50.730,123.724,50.560,123.683C50.390,123.642,50.221,123.598,50.053,123.549C49.885,123.500,49.718,123.448,49.552,123.392C49.387,123.336,49.222,123.276,49.059,123.212C48.896,123.148,48.734,123.081,48.574,123.010C48.414,122.939,48.255,122.864,48.098,122.785C47.941,122.707,47.786,122.625,47.633,122.540C47.479,122.454,47.328,122.365,47.179,122.273C47.029,122.181,46.882,122.085,46.736,121.986C46.591,121.886,46.448,121.784,46.307,121.678C46.166,121.573,46.028,121.464,45.892,121.352C45.756,121.240,45.622,121.125,45.491,121.007C45.360,120.889,45.232,120.768,45.106,120.644C44.980,120.520,44.857,120.393,44.737,120.263C44.617,120.134,44.499,120.001,44.385,119.866C44.270,119.731,44.159,119.594,44.050,119.454C43.942,119.314,43.837,119.171,43.734,119.026C43.632,118.882,43.533,118.734,43.437,118.585C43.342,118.436,43.249,118.284,43.160,118.130C43.071,117.977,42.985,117.821,42.902,117.664C42.820,117.506,42.741,117.347,42.666,117.186C42.590,117.024,42.518,116.862,42.450,116.697C42.382,116.533,42.317,116.367,42.256,116.199C42.195,116.032,42.137,115.863,42.084,115.693C42.030,115.523,41.980,115.352,41.934,115.180C41.888,115.007,41.845,114.834,41.806,114.660C41.768,114.485,41.733,114.310,41.702,114.135C41.671,113.959,41.644,113.782,41.620,113.605C41.597,113.428,41.577,113.250,41.562,113.072C41.546,112.894,41.535,112.716,41.527,112.538C41.519,112.359,41.515,112.181,41.515,112.002L41.515,98.000C41.515,97.824,41.519,97.649,41.526,97.474C41.534,97.298,41.545,97.123,41.560,96.949C41.575,96.774,41.594,96.600,41.616,96.426C41.639,96.252,41.665,96.078,41.695,95.906C41.725,95.733,41.759,95.561,41.796,95.390C41.833,95.218,41.874,95.048,41.919,94.879C41.963,94.709,42.011,94.541,42.063,94.374C42.115,94.207,42.170,94.041,42.229,93.876C42.288,93.711,42.351,93.548,42.417,93.386C42.483,93.224,42.552,93.063,42.625,92.905C42.698,92.746,42.774,92.589,42.853,92.433C42.933,92.278,43.016,92.124,43.102,91.972C43.188,91.821,43.277,91.671,43.370,91.523C43.462,91.376,43.558,91.230,43.657,91.087C43.755,90.943,43.857,90.802,43.962,90.663C44.067,90.525,44.175,90.388,44.285,90.254C44.396,90.120,44.509,89.989,44.626,89.860C44.742,89.731,44.861,89.605,44.983,89.481C45.104,89.358,45.229,89.237,45.356,89.119C45.483,89.001,45.612,88.886,45.744,88.774C45.875,88.661,46.010,88.552,46.146,88.446C46.283,88.340,46.421,88.237,46.562,88.137C46.703,88.037,46.846,87.940,46.991,87.847C47.136,87.753,47.283,87.663,47.432,87.576C47.581,87.489,47.732,87.406,47.884,87.326C48.037,87.246,48.191,87.169,48.347,87.096C48.503,87.023,48.660,86.953,48.819,86.887C48.977,86.821,49.138,86.758,49.299,86.699C49.461,86.640,49.623,86.585,49.787,86.533C49.951,86.481,50.116,86.433,50.282,86.389C50.447,86.345,50.614,86.304,50.782,86.268C50.949,86.231,51.118,86.198,51.287,86.169L51.287,80.000ZZZZZZZ" fill-rule="evenodd" style="fill: rgb(185, 131, 104); fill-opacity: 0.53;" class="fills"/><path d="M81.000,163.000L81.000,164.375C81.000,164.533,81.010,164.690,81.031,164.847C81.052,165.005,81.083,165.162,81.125,165.318C81.167,165.475,81.219,165.632,81.281,165.787C81.344,165.943,81.417,166.098,81.500,166.253C81.583,166.407,81.676,166.561,81.779,166.714C81.883,166.867,81.996,167.018,82.120,167.169C82.243,167.320,82.376,167.469,82.520,167.617C82.663,167.766,82.816,167.913,82.979,168.058C83.142,168.204,83.314,168.348,83.496,168.490C83.678,168.633,83.869,168.773,84.070,168.912C84.271,169.051,84.480,169.188,84.699,169.323C84.918,169.458,85.145,169.591,85.382,169.722C85.618,169.853,85.863,169.982,86.117,170.109C86.370,170.235,86.632,170.359,86.902,170.481C87.172,170.603,87.449,170.722,87.735,170.839C88.021,170.955,88.314,171.069,88.615,171.181C88.916,171.292,89.224,171.401,89.539,171.507C89.855,171.613,90.177,171.715,90.506,171.815C90.835,171.915,91.170,172.012,91.512,172.106C91.853,172.200,92.201,172.290,92.555,172.378C92.909,172.465,93.268,172.550,93.633,172.631C93.998,172.712,94.368,172.789,94.743,172.864C95.119,172.938,95.499,173.009,95.883,173.076C96.268,173.143,96.657,173.207,97.050,173.267C97.443,173.328,97.840,173.384,98.241,173.437C98.641,173.490,99.045,173.540,99.452,173.586C99.859,173.631,100.269,173.673,100.682,173.712C101.095,173.750,101.510,173.784,101.927,173.815C102.345,173.846,102.764,173.873,103.185,173.896C103.606,173.919,104.028,173.938,104.451,173.954C104.875,173.969,105.299,173.981,105.724,173.988C106.149,173.996,106.574,174.000,107.000,174.000L107.000,174.000C107.426,174.000,107.851,173.996,108.276,173.988C108.701,173.981,109.126,173.969,109.549,173.954C109.972,173.938,110.395,173.919,110.815,173.896C111.236,173.873,111.656,173.846,112.073,173.815C112.490,173.784,112.905,173.750,113.318,173.712C113.731,173.673,114.141,173.631,114.548,173.586C114.955,173.540,115.359,173.490,115.759,173.437C116.160,173.384,116.557,173.328,116.950,173.267C117.343,173.207,117.732,173.143,118.117,173.076C118.501,173.009,118.881,172.938,119.257,172.864C119.632,172.789,120.002,172.712,120.367,172.631C120.732,172.550,121.091,172.465,121.445,172.378C121.799,172.290,122.147,172.200,122.489,172.106C122.830,172.012,123.166,171.915,123.494,171.815C123.823,171.715,124.145,171.613,124.461,171.507C124.776,171.401,125.084,171.292,125.385,171.181C125.686,171.069,125.979,170.955,126.265,170.839C126.551,170.722,126.829,170.603,127.098,170.481C127.368,170.359,127.630,170.235,127.884,170.109C128.137,169.982,128.382,169.853,128.618,169.722C128.855,169.591,129.082,169.458,129.301,169.323C129.520,169.188,129.730,169.051,129.930,168.912C130.131,168.773,130.322,168.633,130.504,168.490C130.686,168.348,130.858,168.204,131.021,168.058C131.184,167.913,131.337,167.766,131.480,167.617C131.624,167.469,131.757,167.320,131.881,167.169C132.004,167.018,132.118,166.867,132.221,166.714C132.324,166.561,132.417,166.407,132.500,166.253C132.583,166.098,132.656,165.943,132.719,165.787C132.781,165.632,132.833,165.475,132.875,165.318C132.916,165.162,132.948,165.005,132.969,164.847C132.990,164.690,133.000,164.533,133.000,164.375L133.000,163.000C133.000,163.158,132.990,163.315,132.969,163.472C132.948,163.630,132.916,163.787,132.875,163.943C132.833,164.100,132.781,164.256,132.719,164.412C132.656,164.568,132.583,164.723,132.500,164.878C132.417,165.032,132.324,165.186,132.221,165.339C132.118,165.491,132.004,165.643,131.881,165.794C131.757,165.945,131.624,166.094,131.480,166.242C131.337,166.391,131.184,166.538,131.021,166.683C130.858,166.829,130.686,166.973,130.504,167.115C130.322,167.258,130.131,167.398,129.930,167.537C129.730,167.676,129.520,167.813,129.301,167.948C129.082,168.083,128.855,168.216,128.618,168.347C128.382,168.478,128.137,168.607,127.884,168.734C127.630,168.860,127.368,168.984,127.098,169.106C126.829,169.228,126.551,169.347,126.265,169.464C125.979,169.580,125.686,169.694,125.385,169.806C125.084,169.917,124.776,170.026,124.461,170.132C124.145,170.237,123.823,170.340,123.494,170.440C123.166,170.540,122.830,170.637,122.489,170.731C122.147,170.825,121.799,170.915,121.445,171.003C121.091,171.090,120.732,171.175,120.367,171.256C120.002,171.337,119.632,171.414,119.257,171.489C118.881,171.563,118.501,171.634,118.117,171.701C117.732,171.768,117.343,171.832,116.950,171.892C116.557,171.953,116.160,172.009,115.759,172.062C115.359,172.115,114.955,172.165,114.548,172.211C114.141,172.256,113.731,172.298,113.318,172.337C112.905,172.375,112.490,172.409,112.073,172.440C111.656,172.471,111.236,172.498,110.815,172.521C110.395,172.544,109.972,172.563,109.549,172.579C109.126,172.594,108.701,172.606,108.276,172.613C107.851,172.621,107.426,172.625,107.000,172.625L107.000,172.625C106.574,172.625,106.149,172.621,105.724,172.613C105.299,172.606,104.875,172.594,104.451,172.579C104.028,172.563,103.606,172.544,103.185,172.521C102.764,172.498,102.345,172.471,101.927,172.440C101.510,172.409,101.095,172.375,100.682,172.337C100.269,172.298,99.859,172.256,99.452,172.211C99.045,172.165,98.641,172.115,98.241,172.062C97.840,172.009,97.443,171.953,97.050,171.892C96.657,171.832,96.268,171.768,95.883,171.701C95.499,171.634,95.119,171.563,94.743,171.489C94.368,171.414,93.998,171.337,93.633,171.256C93.268,171.175,92.909,171.090,92.555,171.003C92.201,170.915,91.853,170.825,91.512,170.731C91.170,170.637,90.835,170.540,90.506,170.440C90.177,170.340,89.855,170.237,89.539,170.132C89.224,170.026,88.916,169.917,88.615,169.806C88.314,169.694,88.021,169.580,87.735,169.464C87.449,169.347,87.172,169.228,86.902,169.106C86.632,168.984,86.370,168.860,86.117,168.734C85.863,168.607,85.618,168.478,85.382,168.347C85.145,168.216,84.918,168.083,84.699,167.948C84.480,167.813,84.271,167.676,84.070,167.537C83.869,167.398,83.678,167.258,83.496,167.115C83.314,166.973,83.142,166.829,82.979,166.683C82.816,166.538,82.663,166.391,82.520,166.242C82.376,166.094,82.243,165.945,82.120,165.794C81.996,165.643,81.883,165.491,81.779,165.339C81.676,165.186,81.583,165.032,81.500,164.878C81.417,164.723,81.344,164.568,81.281,164.412C81.219,164.256,81.167,164.100,81.125,163.943C81.083,163.787,81.052,163.630,81.031,163.472C81.010,163.315,81.000,163.158,81.000,163.000ZZZZZZZ" fill-rule="evenodd" style="fill: rgb(0, 0, 0); fill-opacity: 0.101961;" class="fills"/></g><g style="fill: rgb(0, 0, 0); fill-opacity: 1;"><g clip-path="url(#c)" style="fill: rgb(0, 0, 0); fill-opacity: 1;"><defs><clipPath id="c" class="svg-def" transform="matrix(1.000000, 0.000000, 0.000000, 1.000000, 53.500000, 120.999998)"><use xlink:href="#d" clip-rule="evenodd"/></clipPath><rect width="108" height="44" id="d"/></defs><path d="M93.000,136.000C93.000,143.732,99.268,150.000,107.000,150.000L107.000,150.000C114.732,150.000,121.000,143.732,121.000,136.000" fill-rule="evenodd" style="fill: rgb(0, 0, 0); fill-opacity: 0.698039;" class="fills"/></g><g clip-path="url(#e)" style="fill: rgb(0, 0, 0); fill-opacity: 1;"><defs><clipPath id="e" class="svg-def" transform="matrix(0.999972, 0.000000, 0.000000, 1.026909, 49.501030, 68.515079)"><use xlink:href="#f" clip-rule="evenodd"/></clipPath><rect width="112" height="24" id="f"/></defs><path d="M67.130,86.158C71.045,80.650,81.778,77.561,91.023,79.831C92.096,80.094,93.179,79.438,93.442,78.366C93.706,77.293,93.050,76.210,91.977,75.946C81.240,73.310,68.812,76.887,63.870,83.841C63.230,84.742,63.441,85.990,64.341,86.630C65.242,87.270,66.490,87.059,67.130,86.158ZZZZZZZ" fill-rule="evenodd" style="fill: rgb(0, 0, 0); fill-opacity: 0.6;" class="fills"/><path d="M147.870,86.158C143.955,80.650,133.222,77.561,123.977,79.831C122.905,80.094,121.821,79.438,121.558,78.366C121.295,77.293,121.951,76.210,123.023,75.946C133.760,73.310,146.188,76.887,151.131,83.841C151.770,84.742,151.559,85.990,150.659,86.630C149.759,87.270,148.510,87.059,147.870,86.158ZZZZZZZ" fill-rule="evenodd" style="fill: rgb(0, 0, 0); fill-opacity: 0.6;" class="fills"/></g><g clip-path="url(#g)" style="fill: rgb(0, 0, 0); fill-opacity: 1;"><defs><clipPath id="g" class="svg-def" transform="matrix(1.000000, 0.000000, 0.000000, 1.000000, 53.499999, 76.999999)"><use xlink:href="#h" clip-rule="evenodd"/></clipPath><rect width="112" height="44" id="h"/></defs><path d="M81.000,105.474C84.314,105.474,87.000,102.788,87.000,99.474C87.000,96.160,84.314,93.474,81.000,93.474C77.686,93.474,75.000,96.160,75.000,99.474C75.000,102.788,77.686,105.474,81.000,105.474ZZZZZZZ" fill-rule="evenodd" style="fill: rgb(0, 0, 0); fill-opacity: 0.6;" class="fills"/><path d="M133.000,105.474C136.314,105.474,139.000,102.788,139.000,99.474C139.000,96.160,136.314,93.474,133.000,93.474C129.686,93.474,127.000,96.160,127.000,99.474C127.000,102.788,129.686,105.474,133.000,105.474ZZZZZZZ" fill-rule="evenodd" style="fill: rgb(0, 0, 0); fill-opacity: 0.6;" class="fills"/></g><g clip-path="url(#i)" style="fill: rgb(0, 0, 0); fill-opacity: 1;"><defs><clipPath id="i" class="svg-def" transform="matrix(0.977179, 0.000000, 0.000000, 1.000000, 81.577801, 109.000001)"><use xlink:href="#j" clip-rule="evenodd"/></clipPath><rect width="56" height="24" id="j"/></defs><path d="M94.281,117.000C94.281,121.418,99.531,125.000,106.007,125.000L106.007,125.000C112.483,125.000,117.733,121.418,117.733,117.000" fill-rule="evenodd" style="fill: rgb(0, 0, 0); fill-opacity: 0.160784;" class="fills"/></g></g></g><defs><rect width="266" height="280" id="l"/></defs><g class="fills"><rect width="50.06" height="37.992" class="frame-background" x="90.435" transform="matrix(2.935063, 0.000000, -0.000000, 2.320856, -223.432441, -76.724721)" ry="0" rx="0" y="39.091" clip-path="url(#-clip_12)"/></g><g class="frame-children"><path d="M60.183,28.709C65.324,24.877,71.402,21.593,77.742,20.331C84.189,19.049,88.101,18.738,94.447,20.258C96.080,20.650,96.631,21.039,98.068,20.110C99.279,19.327,107.730,10.620,133.489,15.453C159.523,20.338,167.257,59.528,176.915,61.019C180.395,61.556,184.697,60.635,184.831,58.492C188.795,64.526,189.839,72.499,188.159,79.566C186.712,85.652,183.662,91.370,178.170,94.703C173.444,97.570,166.910,98.819,161.449,98.290C158.963,98.050,156.703,97.527,154.417,96.524C151.658,95.315,149.460,93.133,146.752,91.981C149.579,94.429,152.655,96.588,155.929,98.399C157.568,99.306,159.232,99.931,161.042,100.423C162.277,100.759,164.803,101.904,165.998,101.605C158.190,103.001,150.837,101.785,143.678,98.442C140.447,96.934,137.340,95.110,134.487,92.966C131.654,90.836,128.393,88.659,126.176,85.857C127.107,87.060,125.479,85.270,125.264,85.051C124.656,84.431,124.061,83.799,123.477,83.156C122.475,82.052,121.480,80.928,120.547,79.765C118.553,77.279,116.695,74.683,115.039,71.962C113.362,69.206,106.681,58.089,104.664,55.472C106.569,61.180,108.644,66.890,111.071,72.398C106.358,70.927,101.788,66.853,98.776,63.057C95.384,58.781,93.376,53.789,92.668,48.391C88.843,58.807,79.883,67.021,70.636,72.686C72.639,68.956,75.692,65.801,77.688,62.008C68.497,71.337,53.120,75.901,49.093,89.582C48.061,84.825,44.740,81.001,43.746,76.149C42.641,70.760,41.849,65.040,42.024,59.533C42.422,47.291,50.656,35.811,60.183,28.709ZZZZZZZ" fill-rule="evenodd" style="fill: rgb(191, 101, 118); fill-opacity: 1;" class="fills"/></g><defs><rect width="112" height="44" id="m"/></defs><g class="fills"><rect width="80" height="8" class="frame-background" x="66" transform="matrix(1.000000, 0.000000, 0.000000, 1.000000, 0.000004, -0.000005)" ry="0" rx="0" y="93" clip-path="url(#-clip_7)"/></g><g class="frame-children"><path d="M66.160,99.447C68.007,95.649,72.164,93.000,76.998,93.000C81.814,93.000,85.959,95.630,87.815,99.407C88.367,100.529,87.582,101.448,86.791,100.767C84.339,98.660,80.859,97.344,76.998,97.344C73.257,97.344,69.874,98.579,67.437,100.572C66.547,101.300,65.620,100.558,66.160,99.447ZZZZZZZ" fill-rule="evenodd" style="fill: rgb(0, 0, 0); fill-opacity: 0.6;" class="fills"/><path d="M124.160,99.447C126.007,95.649,130.164,93.000,134.998,93.000C139.814,93.000,143.959,95.630,145.815,99.407C146.367,100.529,145.582,101.448,144.791,100.767C142.339,98.660,138.859,97.344,134.998,97.344C131.257,97.344,127.874,98.579,125.437,100.572C124.547,101.300,123.620,100.558,124.160,99.447ZZZZZZZ" fill-rule="evenodd" style="fill: rgb(0, 0, 0); fill-opacity: 0.6;" class="fills"/></g><defs><rect width="264" height="110" id="n"/></defs><g class="fills"><rect width="197" height="81" class="frame-background" x="9" transform="matrix(1.000000, 0.000000, 0.000000, 1.000000, 0.000000, 0.000000)" ry="0" rx="0" y="188" clip-path="url(#-clip_2)"/></g><g class="frame-children"><path d="M143.000,191.448C143.000,203.322,128.002,212.948,109.500,212.948C90.998,212.948,76.000,203.322,76.000,191.448C76.000,190.275,76.147,189.123,76.429,188.000L49.473,188.000C48.811,188.000,48.149,188.016,47.487,188.049C46.826,188.081,46.165,188.130,45.506,188.195C44.847,188.260,44.190,188.341,43.535,188.438C42.879,188.535,42.227,188.649,41.577,188.778C40.928,188.907,40.281,189.052,39.639,189.213C38.996,189.374,38.358,189.551,37.724,189.743C37.091,189.935,36.462,190.143,35.838,190.366C35.215,190.589,34.597,190.827,33.985,191.081C33.373,191.334,32.767,191.603,32.169,191.886C31.570,192.169,30.978,192.467,30.394,192.779C29.810,193.091,29.234,193.418,28.666,193.758C28.098,194.099,27.538,194.453,26.988,194.821C26.437,195.189,25.895,195.570,25.363,195.965C24.831,196.359,24.309,196.767,23.797,197.187C23.285,197.607,22.784,198.040,22.293,198.485C21.802,198.929,21.323,199.386,20.854,199.854C20.386,200.323,19.929,200.802,19.485,201.293C19.040,201.784,18.607,202.285,18.187,202.797C17.767,203.309,17.359,203.831,16.965,204.363C16.570,204.895,16.189,205.437,15.821,205.988C15.453,206.538,15.099,207.098,14.758,207.666C14.418,208.234,14.091,208.810,13.779,209.394C13.467,209.978,13.169,210.570,12.886,211.169C12.603,211.767,12.334,212.373,12.081,212.985C11.827,213.597,11.589,214.215,11.366,214.838C11.143,215.462,10.935,216.091,10.743,216.724C10.550,217.358,10.374,217.996,10.213,218.639C10.052,219.282,9.907,219.928,9.778,220.577C9.648,221.227,9.535,221.879,9.438,222.535C9.341,223.190,9.260,223.847,9.195,224.506C9.130,225.165,9.081,225.826,9.049,226.487C9.016,227.149,9.000,227.811,9.000,228.473L9.000,268.948L209.000,268.948L209.000,228.473C209.000,227.811,208.984,227.149,208.951,226.487C208.919,225.826,208.870,225.165,208.805,224.506C208.740,223.847,208.659,223.190,208.562,222.535C208.465,221.879,208.351,221.227,208.222,220.577C208.093,219.928,207.948,219.282,207.787,218.639C207.626,217.996,207.450,217.358,207.257,216.724C207.065,216.091,206.857,215.462,206.634,214.838C206.411,214.215,206.172,213.597,205.919,212.985C205.666,212.373,205.397,211.767,205.114,211.169C204.831,210.570,204.533,209.978,204.221,209.394C203.909,208.810,203.583,208.234,203.242,207.666C202.901,207.098,202.547,206.538,202.179,205.988C201.811,205.437,201.430,204.895,201.035,204.363C200.640,203.831,200.233,203.309,199.813,202.797C199.393,202.285,198.960,201.784,198.515,201.293C198.070,200.802,197.614,200.323,197.146,199.854C196.677,199.386,196.198,198.929,195.707,198.485C195.216,198.040,194.715,197.607,194.203,197.187C193.691,196.767,193.169,196.359,192.637,195.965C192.105,195.570,191.564,195.189,191.013,194.821C190.462,194.453,189.902,194.099,189.334,193.758C188.766,193.418,188.190,193.091,187.606,192.779C187.021,192.467,186.430,192.169,185.831,191.886C185.232,191.603,184.627,191.334,184.015,191.081C183.403,190.827,182.785,190.589,182.162,190.366C181.538,190.143,180.909,189.935,180.276,189.743C179.642,189.551,179.004,189.374,178.361,189.213C177.718,189.052,177.072,188.907,176.423,188.778C175.773,188.649,175.120,188.535,174.465,188.438C173.810,188.341,173.153,188.260,172.494,188.195C171.835,188.130,171.174,188.081,170.513,188.049C169.851,188.016,169.189,188.000,168.527,188.000L142.571,188.000C142.853,189.123,143.000,190.275,143.000,191.448ZZZZZZZ" fill-rule="evenodd" style="fill: rgb(13, 13, 13); fill-opacity: 1;" class="fills"/><path d="M119.282,236.877C118.984,239.654,113.589,241.151,111.610,239.325C110.699,238.483,110.683,236.751,110.482,235.624C110.101,233.490,109.826,231.366,109.731,229.200C109.673,227.876,109.325,226.816,110.775,226.619C111.658,226.499,112.568,227.086,113.290,227.551C115.737,229.124,119.620,233.690,119.282,236.877ZZZZZZM106.881,231.024C107.166,233.850,108.202,238.763,105.946,241.129C103.930,243.244,99.786,241.147,99.163,238.657C98.390,235.567,101.438,231.876,103.308,229.787C103.882,229.145,105.152,227.374,106.144,227.967C106.526,228.195,106.837,230.579,106.881,231.024ZZZZZZM108.321,242.055C108.968,240.532,115.234,245.073,112.275,247.233C111.792,247.586,108.115,248.700,107.410,248.176C105.925,247.072,107.841,243.211,108.321,242.055ZZZZZZM127.325,234.475C126.882,218.999,107.065,214.635,96.476,223.453C92.427,226.824,90.113,230.952,90.007,236.231C89.917,240.703,90.626,244.920,94.041,247.995C95.522,249.328,96.500,250.144,97.286,251.965C98.110,253.872,98.485,256.301,100.028,257.798C100.879,258.624,102.118,259.290,103.294,258.757C105.456,257.778,104.764,254.780,105.419,253.109C107.456,258.078,112.630,259.662,113.569,253.358C114.600,255.177,117.295,257.559,119.268,255.568C120.081,254.749,120.203,253.419,120.341,252.341C120.586,250.429,120.160,249.678,121.696,248.366C125.735,244.917,127.469,239.695,127.325,234.475ZZZZZZ" style="fill: rgb(255, 255, 255); fill-opacity: 1;" class="fills"/></g><defs><rect width="264" height="110" id="o"/></defs><g class="fills"><rect width="128" height="81.001" class="frame-background" x="42" transform="matrix(1.000000, 0.000000, -0.000000, 1.000000, 0.000003, 0.000003)" ry="0" rx="0" y="188" clip-path="url(#-clip_2)"/></g><g class="frame-children"><path d="M42.000,269.001L68.000,269.001L144.000,269.001L160.000,269.001L170.000,269.001L170.000,188.251C168.505,188.084,167.005,188.000,165.501,188.000L144.000,188.000L144.000,233.001L68.000,233.001L68.000,188.000L46.499,188.000C44.995,188.000,43.495,188.084,42.000,188.251L42.000,269.001ZZZZZZZ" fill-rule="evenodd" style="fill: rgb(191, 101, 118); fill-opacity: 1;" class="fills"/><path d="M157.000,247.001C159.761,247.001,162.000,244.762,162.000,242.001C162.000,239.239,159.761,237.001,157.000,237.001C154.239,237.001,152.000,239.239,152.000,242.001C152.000,244.762,154.239,247.001,157.000,247.001ZZZZZZZ" fill-rule="evenodd" style="fill: rgb(244, 244, 244); fill-opacity: 1;" class="fills"/><path d="M55.000,247.001C57.761,247.001,60.000,244.762,60.000,242.001C60.000,239.239,57.761,237.001,55.000,237.001C52.239,237.001,50.000,239.239,50.000,242.001C50.000,244.762,52.239,247.001,55.000,247.001ZZZZZZZ" fill-rule="evenodd" style="fill: rgb(244, 244, 244); fill-opacity: 1;" class="fills"/></g></svg>