<svg width="204" xmlns="http://www.w3.org/2000/svg" height="261" fill="none"><g class="fills"><rect rx="0" ry="0" x="65.929" y="86.433" width="68.142" height="105.134" transform="matrix(2.935063, 0.000001, -0.000001, 2.320856, -193.506390, -183.599048)" class="frame-background"/></g><g class="frame-children"><path d="M44.000,72.999C44.000,72.083,44.023,71.167,44.068,70.251C44.113,69.336,44.180,68.422,44.270,67.510C44.360,66.598,44.472,65.689,44.606,64.782C44.741,63.876,44.897,62.973,45.076,62.074C45.255,61.175,45.456,60.281,45.678,59.392C45.901,58.503,46.145,57.620,46.411,56.743C46.677,55.866,46.965,54.996,47.274,54.133C47.582,53.271,47.912,52.416,48.263,51.569C48.613,50.722,48.985,49.885,49.377,49.056C49.768,48.228,50.180,47.410,50.612,46.601C51.044,45.793,51.496,44.996,51.967,44.210C52.438,43.424,52.928,42.650,53.438,41.888C53.947,41.126,54.474,40.377,55.020,39.640C55.566,38.904,56.130,38.182,56.711,37.474C57.293,36.765,57.891,36.071,58.507,35.392C59.122,34.713,59.754,34.050,60.402,33.402C61.050,32.754,61.713,32.122,62.392,31.506C63.071,30.891,63.765,30.293,64.474,29.711C65.182,29.130,65.904,28.566,66.640,28.020C67.377,27.474,68.126,26.947,68.888,26.438C69.650,25.928,70.424,25.438,71.210,24.967C71.996,24.496,72.793,24.044,73.601,23.612C74.410,23.180,75.228,22.768,76.056,22.376C76.885,21.985,77.722,21.613,78.569,21.263C79.416,20.912,80.271,20.582,81.134,20.273C81.996,19.965,82.866,19.677,83.743,19.411C84.620,19.145,85.503,18.901,86.392,18.678C87.281,18.456,88.175,18.255,89.074,18.076C89.973,17.897,90.876,17.741,91.782,17.606C92.689,17.472,93.598,17.359,94.510,17.270C95.422,17.180,96.336,17.112,97.251,17.067C98.167,17.022,99.083,17.000,99.999,17.000L100.001,17.000C100.918,17.000,101.834,17.022,102.749,17.067C103.664,17.112,104.578,17.180,105.490,17.270C106.402,17.359,107.311,17.472,108.218,17.606C109.125,17.741,110.027,17.897,110.926,18.076C111.825,18.255,112.719,18.456,113.608,18.678C114.497,18.901,115.380,19.145,116.257,19.411C117.134,19.677,118.003,19.965,118.866,20.273C119.729,20.582,120.584,20.912,121.431,21.263C122.278,21.613,123.115,21.985,123.944,22.376C124.772,22.768,125.590,23.180,126.399,23.612C127.207,24.044,128.004,24.496,128.790,24.967C129.576,25.438,130.350,25.928,131.112,26.438C131.874,26.947,132.623,27.474,133.360,28.020C134.096,28.566,134.818,29.130,135.526,29.711C136.235,30.293,136.929,30.891,137.608,31.506C138.287,32.122,138.950,32.754,139.598,33.402C140.246,34.050,140.878,34.713,141.494,35.392C142.109,36.071,142.708,36.765,143.289,37.474C143.870,38.182,144.434,38.904,144.980,39.640C145.526,40.377,146.053,41.126,146.562,41.888C147.071,42.650,147.562,43.424,148.033,44.210C148.504,44.996,148.956,45.793,149.388,46.601C149.820,47.410,150.232,48.228,150.623,49.056C151.015,49.885,151.386,50.722,151.737,51.569C152.088,52.416,152.418,53.271,152.727,54.133C153.036,54.996,153.323,55.866,153.589,56.743C153.855,57.620,154.099,58.503,154.322,59.392C154.545,60.281,154.745,61.175,154.924,62.074C155.103,62.973,155.259,63.876,155.394,64.782C155.529,65.689,155.641,66.598,155.730,67.510C155.820,68.422,155.888,69.336,155.933,70.251C155.978,71.167,156.000,72.083,156.000,72.999L156.000,79.168C156.173,79.197,156.345,79.230,156.517,79.267C156.688,79.303,156.859,79.344,157.029,79.388C157.198,79.433,157.367,79.481,157.535,79.532C157.702,79.584,157.869,79.639,158.034,79.698C158.199,79.757,158.363,79.820,158.526,79.886C158.689,79.952,158.850,80.022,159.009,80.095C159.168,80.168,159.326,80.245,159.482,80.325C159.638,80.405,159.792,80.489,159.945,80.575C160.097,80.662,160.247,80.753,160.396,80.846C160.545,80.940,160.691,81.036,160.835,81.136C160.979,81.236,161.121,81.339,161.261,81.445C161.400,81.552,161.538,81.661,161.673,81.773C161.808,81.885,161.940,82.000,162.070,82.118C162.200,82.236,162.327,82.357,162.451,82.480C162.576,82.604,162.698,82.730,162.817,82.859C162.936,82.988,163.052,83.119,163.165,83.253C163.278,83.387,163.389,83.524,163.496,83.663C163.603,83.801,163.707,83.943,163.808,84.086C163.909,84.229,164.007,84.375,164.102,84.523C164.197,84.670,164.288,84.820,164.376,84.972C164.464,85.123,164.549,85.277,164.631,85.432C164.712,85.588,164.790,85.745,164.864,85.904C164.939,86.063,165.010,86.223,165.077,86.385C165.145,86.547,165.209,86.710,165.269,86.875C165.329,87.040,165.386,87.206,165.439,87.373C165.492,87.540,165.542,87.709,165.587,87.878C165.632,88.047,165.674,88.218,165.713,88.389C165.751,88.560,165.785,88.732,165.816,88.905C165.847,89.078,165.873,89.251,165.896,89.425C165.919,89.599,165.939,89.773,165.954,89.948C165.969,90.123,165.981,90.298,165.988,90.473C165.996,90.648,166.000,90.824,166.000,90.999L166.000,105.001C166.000,105.180,165.996,105.358,165.988,105.537C165.980,105.715,165.968,105.894,165.952,106.072C165.936,106.250,165.916,106.427,165.892,106.604C165.869,106.781,165.841,106.958,165.809,107.134C165.777,107.310,165.741,107.485,165.702,107.659C165.663,107.833,165.619,108.006,165.572,108.179C165.525,108.351,165.473,108.522,165.418,108.692C165.363,108.862,165.305,109.031,165.242,109.198C165.179,109.366,165.113,109.532,165.043,109.696C164.973,109.861,164.899,110.024,164.822,110.185C164.745,110.346,164.665,110.505,164.580,110.663C164.496,110.820,164.408,110.976,164.317,111.130C164.226,111.283,164.131,111.435,164.033,111.584C163.935,111.734,163.834,111.881,163.729,112.026C163.624,112.171,163.516,112.313,163.405,112.453C163.294,112.593,163.180,112.731,163.063,112.866C162.946,113.001,162.826,113.133,162.703,113.263C162.580,113.392,162.454,113.519,162.325,113.643C162.196,113.767,162.065,113.888,161.931,114.006C161.797,114.124,161.660,114.239,161.521,114.351C161.382,114.463,161.240,114.572,161.096,114.678C160.952,114.783,160.806,114.886,160.657,114.985C160.508,115.084,160.357,115.180,160.204,115.272C160.051,115.365,159.896,115.453,159.739,115.539C159.582,115.624,159.424,115.706,159.263,115.785C159.102,115.863,158.940,115.938,158.776,116.009C158.612,116.080,158.447,116.147,158.280,116.211C158.113,116.275,157.945,116.335,157.775,116.391C157.606,116.447,157.435,116.500,157.263,116.548C157.091,116.597,156.918,116.641,156.744,116.682C156.570,116.723,156.395,116.760,156.219,116.793C156.044,116.826,155.867,116.855,155.690,116.880C155.628,117.474,155.556,118.066,155.474,118.657C155.393,119.248,155.302,119.838,155.201,120.426C155.101,121.014,154.991,121.600,154.872,122.185C154.753,122.770,154.624,123.352,154.486,123.932C154.349,124.513,154.202,125.091,154.045,125.667C153.889,126.243,153.724,126.816,153.549,127.386C153.374,127.957,153.191,128.524,152.998,129.089C152.805,129.654,152.604,130.215,152.393,130.773C152.182,131.332,151.963,131.886,151.735,132.437C151.506,132.988,151.269,133.536,151.023,134.079C150.777,134.623,150.523,135.163,150.260,135.698C149.997,136.233,149.725,136.764,149.445,137.291C149.165,137.818,148.877,138.341,148.580,138.858C148.283,139.375,147.978,139.888,147.665,140.396C147.352,140.904,147.030,141.407,146.701,141.904C146.372,142.401,146.035,142.894,145.690,143.381C145.345,143.868,144.992,144.349,144.632,144.824C144.271,145.299,143.903,145.769,143.528,146.233C143.153,146.696,142.770,147.154,142.380,147.606C141.990,148.057,141.593,148.502,141.189,148.941C140.784,149.380,140.373,149.812,139.955,150.238C139.537,150.664,139.112,151.083,138.681,151.495C138.250,151.907,137.812,152.312,137.367,152.710C136.923,153.108,136.473,153.499,136.016,153.883C135.559,154.266,135.096,154.643,134.627,155.012C134.158,155.381,133.684,155.742,133.203,156.096C132.722,156.449,132.236,156.795,131.745,157.133C131.254,157.472,130.757,157.802,130.255,158.124C129.753,158.447,129.246,158.761,128.733,159.067C128.221,159.373,127.704,159.671,127.183,159.961C126.661,160.250,126.135,160.531,125.605,160.804C125.074,161.077,124.539,161.341,124.000,161.597L124.000,180.000L159.501,180.000C160.164,180.000,160.826,180.016,161.488,180.049C162.150,180.082,162.811,180.130,163.471,180.195C164.130,180.260,164.788,180.341,165.443,180.438C166.099,180.535,166.752,180.649,167.402,180.778C168.052,180.907,168.698,181.053,169.341,181.214C169.984,181.375,170.623,181.551,171.257,181.744C171.892,181.936,172.521,182.144,173.145,182.367C173.769,182.590,174.387,182.829,174.999,183.083C175.612,183.336,176.218,183.605,176.817,183.888C177.416,184.171,178.007,184.469,178.592,184.782C179.177,185.095,179.753,185.421,180.322,185.762C180.890,186.103,181.450,186.457,182.001,186.825C182.552,187.194,183.094,187.575,183.626,187.970C184.159,188.365,184.681,188.772,185.193,189.193C185.706,189.614,186.207,190.046,186.698,190.491C187.189,190.936,187.669,191.393,188.138,191.862C188.607,192.331,189.064,192.810,189.509,193.301C189.954,193.792,190.386,194.294,190.807,194.807C191.228,195.319,191.635,195.841,192.030,196.374C192.425,196.906,192.806,197.448,193.175,197.999C193.543,198.550,193.897,199.110,194.238,199.678C194.579,200.247,194.905,200.823,195.218,201.408C195.531,201.993,195.829,202.584,196.112,203.183C196.395,203.782,196.664,204.388,196.917,205.001C197.171,205.613,197.410,206.231,197.633,206.855C197.856,207.479,198.064,208.108,198.256,208.743C198.449,209.377,198.625,210.016,198.786,210.659C198.947,211.302,199.093,211.948,199.222,212.598C199.351,213.248,199.465,213.901,199.562,214.557C199.659,215.212,199.740,215.870,199.805,216.529C199.870,217.189,199.918,217.850,199.951,218.512C199.984,219.174,200.000,219.836,200.000,220.499L200.000,261.000L0.000,261.000L0.000,220.499C0.000,219.836,0.016,219.174,0.049,218.512C0.081,217.850,0.130,217.189,0.195,216.529C0.260,215.870,0.341,215.212,0.438,214.557C0.536,213.901,0.649,213.248,0.778,212.598C0.908,211.948,1.053,211.302,1.214,210.659C1.375,210.016,1.552,209.377,1.744,208.743C1.936,208.108,2.144,207.479,2.367,206.855C2.591,206.231,2.829,205.613,3.083,205.001C3.337,204.388,3.605,203.782,3.888,203.183C4.172,202.584,4.470,201.993,4.782,201.408C5.095,200.823,5.421,200.247,5.762,199.678C6.103,199.110,6.457,198.550,6.825,197.999C7.194,197.448,7.575,196.906,7.970,196.374C8.365,195.841,8.772,195.319,9.193,194.807C9.613,194.294,10.046,193.793,10.491,193.302C10.936,192.811,11.393,192.331,11.862,191.862C12.331,191.393,12.811,190.936,13.302,190.491C13.793,190.046,14.294,189.614,14.807,189.193C15.319,188.772,15.841,188.365,16.374,187.970C16.906,187.575,17.448,187.194,17.999,186.825C18.550,186.457,19.110,186.103,19.678,185.762C20.247,185.421,20.823,185.095,21.408,184.782C21.993,184.469,22.584,184.171,23.183,183.888C23.783,183.605,24.388,183.336,25.001,183.083C25.613,182.829,26.231,182.590,26.855,182.367C27.479,182.144,28.109,181.936,28.743,181.744C29.377,181.551,30.016,181.375,30.659,181.214C31.302,181.053,31.948,180.907,32.598,180.778C33.248,180.649,33.901,180.535,34.557,180.438C35.212,180.341,35.870,180.260,36.529,180.195C37.189,180.130,37.850,180.082,38.512,180.049C39.174,180.016,39.836,180.000,40.499,180.000L76.000,180.000L76.000,161.597C75.461,161.341,74.926,161.077,74.396,160.804C73.865,160.531,73.339,160.250,72.817,159.961C72.296,159.671,71.779,159.373,71.267,159.067C70.755,158.761,70.247,158.447,69.745,158.124C69.243,157.802,68.747,157.472,68.255,157.133C67.764,156.795,67.278,156.449,66.797,156.096C66.317,155.742,65.842,155.381,65.373,155.012C64.904,154.643,64.441,154.266,63.984,153.883C63.528,153.499,63.077,153.108,62.633,152.710C62.188,152.312,61.750,151.907,61.319,151.495C60.888,151.083,60.463,150.664,60.045,150.238C59.627,149.812,59.216,149.380,58.811,148.941C58.407,148.502,58.010,148.057,57.620,147.606C57.230,147.154,56.847,146.696,56.472,146.233C56.097,145.769,55.729,145.299,55.368,144.824C55.008,144.349,54.655,143.868,54.310,143.381C53.965,142.894,53.628,142.401,53.299,141.904C52.970,141.407,52.649,140.904,52.335,140.396C52.022,139.888,51.717,139.375,51.420,138.858C51.124,138.341,50.835,137.818,50.555,137.291C50.275,136.764,50.003,136.233,49.740,135.698C49.477,135.163,49.223,134.623,48.977,134.079C48.731,133.536,48.494,132.988,48.265,132.437C48.037,131.886,47.818,131.332,47.607,130.773C47.396,130.215,47.195,129.654,47.002,129.089C46.809,128.524,46.625,127.957,46.451,127.386C46.276,126.816,46.111,126.243,45.955,125.667C45.798,125.091,45.651,124.513,45.514,123.932C45.376,123.352,45.247,122.770,45.128,122.185C45.009,121.600,44.899,121.014,44.799,120.426C44.698,119.838,44.607,119.248,44.526,118.657C44.444,118.066,44.372,117.474,44.310,116.880C44.133,116.855,43.956,116.826,43.781,116.793C43.605,116.760,43.430,116.723,43.256,116.682C43.082,116.641,42.909,116.597,42.737,116.548C42.565,116.500,42.395,116.447,42.225,116.391C42.055,116.335,41.887,116.275,41.720,116.211C41.553,116.147,41.388,116.080,41.224,116.009C41.060,115.938,40.898,115.863,40.737,115.785C40.576,115.706,40.418,115.624,40.261,115.539C40.104,115.453,39.949,115.365,39.796,115.272C39.643,115.180,39.492,115.084,39.343,114.985C39.195,114.886,39.048,114.783,38.904,114.678C38.760,114.572,38.618,114.463,38.479,114.351C38.340,114.239,38.203,114.124,38.069,114.006C37.935,113.888,37.803,113.767,37.675,113.643C37.546,113.519,37.420,113.392,37.297,113.263C37.174,113.133,37.054,113.001,36.937,112.866C36.820,112.731,36.706,112.593,36.595,112.453C36.484,112.313,36.376,112.171,36.271,112.026C36.167,111.881,36.065,111.734,35.967,111.584C35.869,111.435,35.775,111.283,35.683,111.130C35.592,110.976,35.504,110.820,35.420,110.663C35.336,110.505,35.255,110.346,35.178,110.185C35.100,110.024,35.027,109.861,34.957,109.696C34.887,109.532,34.821,109.366,34.758,109.198C34.696,109.031,34.637,108.862,34.582,108.692C34.527,108.522,34.476,108.351,34.428,108.179C34.381,108.006,34.338,107.833,34.298,107.659C34.259,107.485,34.223,107.310,34.191,107.134C34.159,106.958,34.132,106.781,34.108,106.604C34.084,106.427,34.064,106.250,34.048,106.072C34.032,105.894,34.020,105.715,34.012,105.537C34.004,105.358,34.000,105.180,34.000,105.001L34.000,90.999C34.000,90.824,34.004,90.648,34.012,90.473C34.019,90.298,34.031,90.123,34.046,89.948C34.062,89.773,34.081,89.599,34.104,89.425C34.127,89.251,34.154,89.078,34.184,88.905C34.215,88.732,34.249,88.560,34.287,88.389C34.326,88.218,34.367,88.047,34.413,87.878C34.459,87.709,34.508,87.540,34.561,87.373C34.614,87.206,34.671,87.040,34.731,86.875C34.791,86.710,34.855,86.547,34.923,86.385C34.990,86.223,35.061,86.063,35.136,85.904C35.210,85.745,35.288,85.588,35.369,85.432C35.451,85.277,35.536,85.123,35.624,84.972C35.712,84.820,35.803,84.670,35.898,84.523C35.993,84.375,36.091,84.229,36.192,84.086C36.293,83.943,36.397,83.801,36.504,83.663C36.611,83.524,36.722,83.387,36.835,83.253C36.948,83.119,37.064,82.988,37.183,82.859C37.302,82.730,37.424,82.604,37.549,82.480C37.673,82.357,37.801,82.236,37.930,82.118C38.060,82.000,38.193,81.885,38.327,81.773C38.462,81.661,38.600,81.552,38.739,81.445C38.879,81.339,39.021,81.236,39.165,81.136C39.309,81.036,39.456,80.940,39.604,80.846C39.753,80.753,39.903,80.662,40.055,80.575C40.208,80.489,40.362,80.405,40.518,80.325C40.674,80.245,40.832,80.168,40.991,80.095C41.151,80.022,41.312,79.952,41.474,79.886C41.637,79.820,41.801,79.757,41.966,79.698C42.131,79.639,42.298,79.584,42.465,79.532C42.633,79.481,42.802,79.433,42.971,79.388C43.141,79.344,43.312,79.303,43.483,79.267C43.655,79.230,43.827,79.197,44.000,79.168L44.000,72.999ZZZZZZZ" fill-rule="evenodd" style="fill: rgb(97, 67, 53); fill-opacity: 1;" class="fills"/><path d="M44.000,111.000L44.000,119.000C44.000,119.917,44.023,120.833,44.068,121.748C44.113,122.663,44.180,123.577,44.270,124.489C44.360,125.401,44.472,126.310,44.606,127.217C44.741,128.124,44.897,129.026,45.076,129.925C45.255,130.824,45.456,131.718,45.678,132.607C45.901,133.496,46.145,134.379,46.411,135.256C46.677,136.133,46.965,137.002,47.274,137.865C47.582,138.728,47.912,139.583,48.263,140.430C48.613,141.277,48.985,142.114,49.377,142.943C49.768,143.771,50.180,144.589,50.612,145.398C51.044,146.206,51.496,147.003,51.967,147.789C52.438,148.575,52.928,149.349,53.438,150.111C53.947,150.873,54.474,151.622,55.020,152.359C55.566,153.095,56.130,153.817,56.711,154.525C57.293,155.234,57.891,155.928,58.507,156.607C59.122,157.286,59.754,157.949,60.402,158.597C61.050,159.245,61.713,159.877,62.392,160.493C63.071,161.108,63.765,161.707,64.474,162.288C65.182,162.869,65.904,163.433,66.640,163.979C67.377,164.525,68.126,165.052,68.888,165.561C69.650,166.070,70.424,166.561,71.210,167.032C71.996,167.503,72.793,167.955,73.601,168.387C74.410,168.819,75.228,169.231,76.056,169.622C76.885,170.014,77.722,170.385,78.569,170.736C79.416,171.087,80.271,171.417,81.134,171.726C81.996,172.035,82.866,172.322,83.743,172.588C84.620,172.854,85.503,173.098,86.392,173.321C87.281,173.544,88.175,173.744,89.074,173.923C89.973,174.102,90.876,174.258,91.782,174.393C92.689,174.528,93.598,174.640,94.510,174.729C95.422,174.819,96.336,174.887,97.251,174.932C98.167,174.977,99.083,174.999,99.999,174.999L100.001,174.999C100.918,174.999,101.834,174.977,102.749,174.932C103.664,174.887,104.578,174.819,105.490,174.729C106.402,174.640,107.311,174.528,108.218,174.393C109.125,174.258,110.027,174.102,110.926,173.923C111.825,173.744,112.719,173.544,113.608,173.321C114.497,173.098,115.380,172.854,116.257,172.588C117.134,172.322,118.003,172.035,118.866,171.726C119.729,171.417,120.584,171.087,121.431,170.736C122.278,170.385,123.115,170.014,123.944,169.622C124.772,169.231,125.590,168.819,126.399,168.387C127.207,167.955,128.004,167.503,128.790,167.032C129.576,166.561,130.350,166.070,131.112,165.561C131.874,165.052,132.623,164.525,133.360,163.979C134.096,163.433,134.818,162.869,135.526,162.288C136.235,161.707,136.929,161.108,137.608,160.493C138.287,159.877,138.950,159.245,139.598,158.597C140.246,157.949,140.878,157.286,141.494,156.607C142.109,155.928,142.708,155.234,143.289,154.525C143.870,153.817,144.434,153.095,144.980,152.359C145.526,151.622,146.053,150.873,146.562,150.111C147.071,149.349,147.562,148.575,148.033,147.789C148.504,147.003,148.956,146.206,149.388,145.398C149.820,144.589,150.232,143.771,150.623,142.943C151.015,142.114,151.386,141.277,151.737,140.430C152.088,139.583,152.418,138.728,152.727,137.865C153.036,137.002,153.323,136.133,153.589,135.256C153.855,134.379,154.099,133.496,154.322,132.607C154.545,131.718,154.745,130.824,154.924,129.925C155.103,129.026,155.259,128.124,155.394,127.217C155.529,126.310,155.641,125.401,155.730,124.489C155.820,123.577,155.888,122.663,155.933,121.748C155.978,120.833,156.000,119.917,156.000,119.000L156.000,111.000C156.000,111.916,155.978,112.832,155.933,113.748C155.888,114.663,155.820,115.577,155.730,116.489C155.641,117.401,155.529,118.310,155.394,119.217C155.259,120.124,155.103,121.026,154.924,121.925C154.745,122.824,154.545,123.718,154.322,124.607C154.099,125.496,153.855,126.379,153.589,127.256C153.323,128.133,153.036,129.002,152.727,129.865C152.418,130.728,152.088,131.583,151.737,132.430C151.386,133.277,151.015,134.114,150.623,134.943C150.232,135.771,149.820,136.589,149.388,137.398C148.956,138.206,148.504,139.003,148.033,139.789C147.562,140.575,147.071,141.349,146.562,142.111C146.053,142.873,145.526,143.622,144.980,144.359C144.434,145.095,143.870,145.817,143.289,146.525C142.708,147.234,142.109,147.928,141.494,148.607C140.878,149.286,140.246,149.949,139.598,150.597C138.950,151.245,138.287,151.877,137.608,152.493C136.929,153.108,136.235,153.707,135.526,154.288C134.818,154.869,134.096,155.433,133.360,155.979C132.623,156.525,131.874,157.052,131.112,157.561C130.350,158.070,129.576,158.561,128.790,159.032C128.004,159.503,127.207,159.955,126.399,160.387C125.590,160.819,124.772,161.231,123.944,161.622C123.115,162.014,122.278,162.385,121.431,162.736C120.584,163.087,119.729,163.417,118.866,163.726C118.003,164.035,117.134,164.322,116.257,164.588C115.380,164.854,114.497,165.098,113.608,165.321C112.719,165.544,111.825,165.744,110.926,165.923C110.027,166.102,109.125,166.258,108.218,166.393C107.311,166.528,106.402,166.640,105.490,166.729C104.578,166.819,103.664,166.887,102.749,166.932C101.834,166.977,100.918,166.999,100.001,166.999L99.999,166.999C99.083,166.999,98.167,166.977,97.251,166.932C96.336,166.887,95.422,166.819,94.510,166.729C93.598,166.640,92.689,166.528,91.782,166.393C90.876,166.258,89.973,166.102,89.074,165.923C88.175,165.744,87.281,165.544,86.392,165.321C85.503,165.098,84.620,164.854,83.743,164.588C82.866,164.322,81.996,164.035,81.134,163.726C80.271,163.417,79.416,163.087,78.569,162.736C77.722,162.385,76.885,162.014,76.056,161.622C75.228,161.231,74.410,160.819,73.601,160.387C72.793,159.955,71.996,159.503,71.210,159.032C70.424,158.561,69.650,158.070,68.888,157.561C68.126,157.052,67.377,156.525,66.640,155.979C65.904,155.433,65.182,154.869,64.474,154.288C63.765,153.707,63.071,153.108,62.392,152.493C61.713,151.877,61.050,151.245,60.402,150.597C59.754,149.949,59.122,149.286,58.507,148.607C57.891,147.928,57.293,147.234,56.711,146.525C56.130,145.817,55.566,145.095,55.020,144.359C54.474,143.622,53.947,142.873,53.438,142.111C52.928,141.349,52.438,140.575,51.967,139.789C51.496,139.003,51.044,138.206,50.612,137.398C50.180,136.589,49.768,135.771,49.377,134.943C48.985,134.114,48.613,133.277,48.263,132.430C47.912,131.583,47.582,130.728,47.274,129.865C46.965,129.002,46.677,128.133,46.411,127.256C46.145,126.379,45.901,125.496,45.678,124.607C45.456,123.718,45.255,122.824,45.076,121.925C44.897,121.026,44.741,120.124,44.606,119.217C44.472,118.310,44.360,117.401,44.270,116.489C44.180,115.577,44.113,114.663,44.068,113.748C44.023,112.832,44.000,111.916,44.000,111.000ZZZZZZZ" fill-rule="evenodd" style="fill: rgb(0, 0, 0); fill-opacity: 0.101961;" class="fills"/></g><defs><rect width="266" height="280" id="a"/></defs><g class="fills"><rect width="39.883" height="35.014" class="frame-background" x="79.588" transform="matrix(2.935063, 0.000000, -0.000000, 2.320856, -192.595668, -53.668376)" ry="0" rx="0" y="23.124" clip-path="url(#-clip_12)"/></g><g class="frame-children"><path d="M155.709,37.124C156.601,40.371,157.872,49.074,155.637,51.957C154.891,52.919,149.796,50.218,147.671,49.044C146.428,48.357,145.256,47.703,144.139,47.081C129.224,38.765,124.404,36.077,98.246,36.458C70.130,36.867,50.868,50.040,49.784,51.387C49.030,52.325,48.068,54.828,47.276,61.801C47.026,64.008,46.956,66.769,46.886,69.513C46.736,75.435,46.588,81.273,44.631,81.263C42.192,81.250,41.661,57.477,42.714,48.046C42.753,47.694,42.820,47.273,42.892,46.820C43.115,45.413,43.389,43.691,43.047,42.706C42.894,42.262,42.507,41.992,42.110,41.715C41.490,41.282,40.845,40.831,41.033,39.675C41.245,38.370,42.125,38.246,42.997,38.124C43.566,38.044,44.132,37.965,44.506,37.557C45.634,36.329,44.959,35.690,44.188,34.960C43.733,34.529,43.244,34.066,43.073,33.431C42.439,31.069,44.097,30.336,45.760,29.600C45.887,29.544,46.014,29.488,46.140,29.431C48.106,28.544,47.851,29.323,49.446,27.585C47.315,26.023,46.544,23.894,49.462,22.752C50.021,22.533,50.984,22.544,51.962,22.554C53.152,22.567,54.365,22.580,54.898,22.180C55.151,21.990,55.252,20.901,55.408,20.678C56.758,18.747,56.642,17.279,56.486,15.289C56.463,14.993,56.439,14.685,56.418,14.362C56.289,12.324,56.306,10.453,58.747,10.250C59.752,10.166,60.641,10.640,61.517,11.108C62.061,11.398,62.600,11.686,63.158,11.836C64.033,12.071,64.257,12.271,64.479,12.268C64.668,12.266,64.854,12.116,65.437,11.715C67.663,10.182,66.148,7.194,67.913,5.412C69.489,3.821,70.711,4.782,71.909,5.722C72.552,6.227,73.189,6.727,73.869,6.822C76.415,7.177,76.933,5.759,77.491,4.232C77.858,3.227,78.243,2.175,79.236,1.551C81.065,0.402,81.883,1.503,82.670,2.564C83.169,3.236,83.655,3.891,84.379,3.948C85.383,4.027,86.885,2.855,88.218,1.815C89.032,1.180,89.783,0.594,90.317,0.373C92.586,-0.563,94.234,0.437,95.902,1.450C97.310,2.305,98.732,3.168,100.554,2.885C100.852,2.838,101.127,2.793,101.385,2.750C103.623,2.381,104.492,2.237,106.831,3.712C108.521,4.777,109.351,4.622,110.569,4.395C111.175,4.282,111.877,4.151,112.829,4.144C113.940,4.135,114.815,4.641,115.658,5.128C116.351,5.529,117.023,5.917,117.788,5.997C118.211,6.041,118.625,5.842,119.047,5.640C119.467,5.438,119.895,5.233,120.348,5.260C123.585,5.457,123.790,9.643,126.362,10.796C127.981,11.522,129.798,11.044,131.533,10.588C132.316,10.382,133.082,10.180,133.807,10.095C137.766,9.631,137.084,12.063,136.356,14.655C136.038,15.787,135.712,16.950,135.761,17.915C136.909,18.183,138.066,17.762,139.221,17.342C140.314,16.945,141.404,16.548,142.485,16.735C145.883,17.321,144.739,20.756,143.927,23.195C143.902,23.269,143.877,23.342,143.853,23.415C144.488,23.403,145.391,23.210,146.405,22.993C149.268,22.382,153.024,21.579,154.185,24.122C154.664,25.173,154.199,26.432,153.745,27.659C153.432,28.506,153.125,29.337,153.138,30.074C153.181,32.616,155.049,34.719,155.709,37.124ZZZZZZL155.709,37.124ZZZZZZM150.697,52.315C151.812,52.764,154.634,54.818,154.832,54.929C156.589,55.917,157.980,65.828,158.048,69.618C158.090,71.956,158.127,80.874,155.654,80.103C154.901,79.868,153.752,75.147,153.588,72.384C153.425,69.621,151.855,60.220,149.447,55.895C149.315,55.659,149.125,55.380,148.921,55.080C148.272,54.128,147.484,52.971,148.002,52.335C148.724,51.448,149.428,51.760,150.261,52.128C150.403,52.190,150.548,52.255,150.697,52.315ZZZZZZL150.697,52.315ZZZZZZ" fill-rule="evenodd" style="fill: rgb(46, 50, 87); fill-opacity: 1;" class="fills"/></g><defs><rect width="112" height="44" id="b"/></defs><g class="fills"><rect width="80" height="8" class="frame-background" x="60" transform="matrix(1.000000, 0.000000, 0.000000, 1.000000, 0.000004, -0.000005)" ry="0" rx="0" y="82" clip-path="url(#-clip_7)"/></g><g class="frame-children"><path d="M60.160,88.447C62.007,84.649,66.164,82.000,70.998,82.000C75.814,82.000,79.959,84.630,81.815,88.407C82.367,89.529,81.582,90.448,80.791,89.767C78.340,87.660,74.859,86.344,70.998,86.344C67.257,86.344,63.874,87.579,61.438,89.572C60.547,90.300,59.620,89.558,60.160,88.447ZZZZZZZ" fill-rule="evenodd" style="fill: rgb(0, 0, 0); fill-opacity: 0.6;" class="fills"/><path d="M118.160,88.447C120.007,84.649,124.164,82.000,128.998,82.000C133.814,82.000,137.959,84.630,139.815,88.407C140.367,89.529,139.582,90.448,138.791,89.767C136.340,87.660,132.859,86.344,128.998,86.344C125.257,86.344,121.874,87.579,119.438,89.572C118.547,90.300,117.620,89.558,118.160,88.447ZZZZZZZ" fill-rule="evenodd" style="fill: rgb(0, 0, 0); fill-opacity: 0.6;" class="fills"/></g><defs><rect width="112" height="44" id="c"/></defs><g class="fills"><rect width="64" height="12" class="frame-background" x="70" transform="matrix(1.000000, 0.000000, 0.000000, 1.000000, 0.000000, 0.000000)" ry="0" rx="0" y="96" clip-path="url(#-clip_7)"/></g><g class="frame-children"><path d="M76.000,108.000C79.314,108.000,82.000,105.314,82.000,102.000C82.000,98.686,79.314,96.000,76.000,96.000C72.686,96.000,70.000,98.686,70.000,102.000C70.000,105.314,72.686,108.000,76.000,108.000ZZZZZZZ" fill-rule="evenodd" style="fill: rgb(0, 0, 0); fill-opacity: 0.6;" class="fills"/><path d="M128.000,108.000C131.314,108.000,134.000,105.314,134.000,102.000C134.000,98.686,131.314,96.000,128.000,96.000C124.686,96.000,122.000,98.686,122.000,102.000C122.000,105.314,124.686,108.000,128.000,108.000ZZZZZZZ" fill-rule="evenodd" style="fill: rgb(0, 0, 0); fill-opacity: 0.6;" class="fills"/></g><defs><rect width="108" height="44" id="d"/></defs><g class="fills"><rect width="28" height="11" class="frame-background" x="86" transform="matrix(1.000000, 0.000000, 0.000000, 1.000000, 0.000000, 0.000000)" ry="0" rx="0" y="132" clip-path="url(#-clip_9)"/></g><g class="frame-children"><path d="M86.000,134.000C86.000,139.372,92.158,143.000,100.000,143.000C107.842,143.000,114.000,139.372,114.000,134.000C114.000,132.895,113.050,132.000,112.000,132.000C110.707,132.000,110.130,132.905,110.000,134.000C108.758,136.938,105.683,138.716,100.000,139.000C94.317,138.716,91.242,136.938,90.000,134.000C89.870,132.905,89.293,132.000,88.000,132.000C86.950,132.000,86.000,132.895,86.000,134.000ZZZZZZZ" fill-rule="evenodd" style="fill: rgb(0, 0, 0); fill-opacity: 0.6;" class="fills"/></g><defs><rect width="56" height="24" id="e"/></defs><g class="fills"><rect width="24" height="8" class="frame-background" x="87" transform="matrix(1.000000, 0.000000, -0.000000, 1.000000, 0.000002, 0.000007)" ry="0" rx="0" y="115" clip-path="url(#-clip_10)"/></g><g class="frame-children"><path d="M87.000,115.000C87.000,119.418,92.373,123.000,99.000,123.000L99.000,123.000C105.627,123.000,111.000,119.418,111.000,115.000" fill-rule="evenodd" style="fill: rgb(0, 0, 0); fill-opacity: 0.160784;" class="fills"/></g><g class="fills"><rect rx="0" ry="0" x="36" y="77" width="130" height="41" transform="matrix(1.000000, 0.000000, 0.000000, 1.000000, 0.000000, 0.000000)" class="frame-background"/></g><g class="frame-children"><path d="M67.242,118.000L70.000,118.000C84.721,118.000,95.000,109.569,95.000,97.500C95.000,87.127,93.183,77.000,71.470,77.000L68.530,77.000C46.817,77.000,45.000,87.127,45.000,97.500C45.000,110.336,53.315,118.000,67.242,118.000ZZZZZZZM49.000,98.502C49.000,89.841,49.000,83.000,68.385,83.000L71.615,83.000C91.000,83.000,91.000,89.841,91.000,98.502C91.000,107.627,82.365,114.000,70.000,114.000L66.971,114.000C52.116,114.000,49.000,105.572,49.000,98.502ZZZZZZZ" fill-rule="evenodd" style="fill: rgb(191, 101, 118); fill-opacity: 1;" class="fills"/><path d="M129.242,118.000L132.000,118.000C146.721,118.000,157.000,109.569,157.000,97.500C157.000,87.127,155.183,77.000,133.470,77.000L130.530,77.000C108.817,77.000,107.000,87.127,107.000,97.500C107.000,110.336,115.315,118.000,129.242,118.000ZZZZZZZM111.000,98.502C111.000,89.841,111.000,83.000,130.385,83.000L133.615,83.000C153.000,83.000,153.000,89.841,153.000,98.502C153.000,107.627,144.365,114.000,132.000,114.000L128.971,114.000C114.120,114.000,111.000,105.572,111.000,98.502ZZZZZZZ" fill-rule="evenodd" style="fill: rgb(191, 101, 118); fill-opacity: 1;" class="fills"/><path d="M38.955,82.772C39.646,82.096,47.210,77.000,68.500,77.000C86.351,77.000,90.130,78.853,95.850,81.652L96.269,81.859C96.667,81.999,98.700,82.690,101.079,82.766C103.246,82.673,105.100,82.085,105.642,81.897C112.170,78.722,118.561,77.000,133.500,77.000C154.790,77.000,162.354,82.096,163.045,82.772C164.679,82.772,166.000,84.062,166.000,85.657L166.000,88.543C166.000,90.139,164.679,91.429,163.045,91.429C163.045,91.429,156.144,91.429,156.144,94.315C156.144,97.200,154.182,90.139,154.182,88.543L154.182,85.732C150.579,84.353,144.128,81.786,133.500,81.786C121.659,81.786,115.761,83.886,110.702,85.971L110.759,86.108L110.756,88.094L108.539,93.444L105.801,92.361C105.556,92.264,105.028,92.090,104.296,91.910C102.256,91.407,100.159,91.254,98.304,91.634C97.624,91.774,96.992,91.984,96.413,92.267L93.771,93.558L91.127,88.396L91.244,86.102L91.325,85.907C86.962,83.874,82.939,81.786,68.500,81.786C57.872,81.786,51.422,84.352,47.818,85.731L47.818,88.543C47.818,90.139,44.864,97.200,44.864,94.315C44.864,91.429,38.955,91.429,38.955,91.429C37.324,91.429,36.000,90.139,36.000,88.543L36.000,85.657C36.000,84.062,37.324,82.772,38.955,82.772ZZZZZZZ" fill-rule="evenodd" style="fill: rgb(191, 101, 118); fill-opacity: 1;" class="fills"/></g><defs><rect width="264" height="110" id="f"/></defs><g class="fills"><rect width="201" height="83" class="frame-background" x="2" transform="matrix(1.000000, 0.000000, 0.000000, 1.000000, 0.000000, 0.000000)" ry="0" rx="0" y="177" clip-path="url(#-clip_2)"/></g><g class="frame-children"><g style="fill: rgb(0, 0, 0); fill-opacity: 0.160784;"><path d="M136.670,179.313C136.670,191.330,121.597,201.072,103.003,201.072C84.409,201.072,69.335,191.330,69.335,179.313C69.335,178.872,69.355,178.434,69.395,178.000L42.676,178.000C42.010,178.000,41.345,178.016,40.680,178.049C40.015,178.082,39.351,178.132,38.689,178.197C38.026,178.263,37.366,178.345,36.707,178.444C36.049,178.542,35.393,178.657,34.740,178.788C34.087,178.919,33.438,179.066,32.792,179.229C32.147,179.392,31.505,179.571,30.868,179.765C30.231,179.960,29.599,180.171,28.972,180.397C28.346,180.623,27.725,180.864,27.110,181.121C26.495,181.378,25.886,181.649,25.285,181.936C24.683,182.223,24.088,182.525,23.501,182.841C22.914,183.157,22.335,183.488,21.764,183.833C21.193,184.178,20.631,184.537,20.078,184.910C19.524,185.282,18.980,185.669,18.445,186.068C17.911,186.468,17.386,186.881,16.871,187.306C16.357,187.732,15.853,188.170,15.360,188.621C14.866,189.071,14.384,189.534,13.914,190.008C13.443,190.483,12.984,190.969,12.537,191.466C12.090,191.963,11.655,192.471,11.233,192.990C10.811,193.508,10.401,194.037,10.005,194.576C9.608,195.115,9.225,195.663,8.855,196.221C8.485,196.779,8.129,197.346,7.787,197.921C7.445,198.497,7.117,199.080,6.803,199.672C6.489,200.264,6.190,200.863,5.905,201.470C5.621,202.076,5.351,202.689,5.096,203.309C4.842,203.929,4.602,204.555,4.378,205.187C4.154,205.819,3.945,206.456,3.752,207.098C3.558,207.740,3.381,208.386,3.219,209.037C3.057,209.688,2.912,210.342,2.782,211.000C2.652,211.659,2.538,212.319,2.440,212.983C2.343,213.647,2.261,214.313,2.196,214.980C2.131,215.648,2.082,216.317,2.049,216.987C2.016,217.657,2.000,218.328,2.000,218.999L2.000,260.000L203.000,260.000L203.000,218.999C203.000,218.328,202.984,217.657,202.951,216.987C202.918,216.317,202.869,215.648,202.804,214.980C202.739,214.313,202.658,213.647,202.560,212.983C202.462,212.319,202.348,211.659,202.218,211.000C202.088,210.342,201.942,209.688,201.781,209.037C201.620,208.386,201.442,207.740,201.248,207.098C201.055,206.455,200.847,205.819,200.622,205.187C200.398,204.555,200.158,203.929,199.904,203.309C199.649,202.689,199.379,202.076,199.095,201.470C198.810,200.863,198.511,200.264,198.197,199.672C197.884,199.080,197.556,198.497,197.213,197.921C196.871,197.346,196.515,196.779,196.145,196.221C195.775,195.663,195.392,195.115,194.995,194.576C194.599,194.037,194.189,193.508,193.767,192.990C193.345,192.471,192.910,191.963,192.463,191.466C192.016,190.969,191.557,190.483,191.087,190.008C190.616,189.534,190.134,189.071,189.641,188.621C189.147,188.170,188.644,187.732,188.129,187.306C187.615,186.881,187.090,186.468,186.555,186.068C186.021,185.669,185.477,185.282,184.923,184.910C184.369,184.537,183.807,184.178,183.236,183.833C182.665,183.488,182.086,183.157,181.499,182.841C180.912,182.525,180.318,182.223,179.715,181.936C179.114,181.649,178.505,181.378,177.890,181.121C177.275,180.864,176.654,180.623,176.028,180.397C175.401,180.171,174.769,179.960,174.132,179.765C173.495,179.571,172.854,179.392,172.208,179.229C171.562,179.066,170.913,178.919,170.260,178.788C169.607,178.657,168.951,178.542,168.292,178.444C167.634,178.345,166.974,178.263,166.312,178.197C165.649,178.132,164.985,178.082,164.321,178.049C163.655,178.016,162.990,178.000,162.325,178.000L136.610,178.000C136.650,178.434,136.670,178.872,136.670,179.313ZZZZZZZ" fill-rule="evenodd" style="fill: rgb(230, 230, 230); fill-opacity: 1;" class="fills"/><path d="M142.756,178.000L137.279,178.000C137.320,178.434,137.340,178.872,137.340,179.313C137.340,191.330,122.192,201.072,103.505,201.072C84.819,201.072,69.670,191.330,69.670,179.313C69.670,178.872,69.690,178.434,69.731,178.000L63.244,178.000C63.083,178.985,63.000,179.986,63.000,181.000C63.000,195.912,80.909,208.000,103.000,208.000C125.092,208.000,143.000,195.912,143.000,181.000C143.000,179.986,142.917,178.985,142.756,178.000Z" style="fill: rgb(0, 0, 0); fill-opacity: 0.160784;" class="fills"/></g><g style="fill: rgb(0, 0, 0); fill-opacity: 1;"><path d="M134.296,260.000L203.000,260.000L203.000,218.999C203.000,218.328,202.984,217.657,202.951,216.987C202.918,216.317,202.869,215.648,202.804,214.980C202.739,214.313,202.658,213.647,202.560,212.983C202.462,212.319,202.348,211.659,202.218,211.000C202.088,210.342,201.942,209.688,201.781,209.037C201.620,208.386,201.442,207.740,201.248,207.098C201.055,206.456,200.847,205.819,200.622,205.187C200.398,204.555,200.158,203.929,199.904,203.309C199.649,202.689,199.379,202.076,199.095,201.470C198.810,200.863,198.511,200.264,198.197,199.672C197.884,199.080,197.556,198.497,197.213,197.921C196.871,197.346,196.515,196.779,196.145,196.221C195.775,195.663,195.392,195.115,194.995,194.576C194.599,194.037,194.189,193.508,193.767,192.990C193.345,192.471,192.910,191.963,192.463,191.466C192.016,190.969,191.557,190.483,191.087,190.008C190.616,189.534,190.134,189.071,189.641,188.621C189.147,188.170,188.644,187.732,188.129,187.306C187.615,186.881,187.090,186.468,186.555,186.068C186.021,185.669,185.477,185.282,184.923,184.910C184.369,184.537,183.807,184.178,183.236,183.833C182.665,183.488,182.086,183.157,181.499,182.841C180.912,182.525,180.318,182.223,179.715,181.936C179.114,181.649,178.505,181.378,177.890,181.121C177.275,180.864,176.654,180.623,176.028,180.397C175.401,180.171,174.769,179.960,174.132,179.765C173.495,179.571,172.854,179.392,172.208,179.229C171.562,179.066,170.913,178.919,170.260,178.788C169.607,178.657,168.951,178.542,168.292,178.444C167.634,178.345,166.974,178.263,166.312,178.197C165.649,178.132,164.985,178.082,164.321,178.049C163.655,178.016,162.990,178.000,162.325,178.000L134.858,178.000C137.929,189.776,139.685,203.418,139.685,217.961C139.685,233.367,137.714,247.763,134.296,260.000ZZZZZZZM71.147,178.000C68.076,189.776,66.320,203.418,66.320,217.961C66.320,233.367,68.291,247.763,71.709,260.000L2.000,260.000L2.000,218.999C2.000,218.328,2.016,217.657,2.049,216.987C2.082,216.317,2.131,215.648,2.196,214.980C2.261,214.313,2.343,213.647,2.440,212.983C2.538,212.319,2.652,211.659,2.782,211.000C2.912,210.342,3.057,209.688,3.219,209.037C3.381,208.386,3.558,207.740,3.752,207.098C3.945,206.456,4.154,205.819,4.378,205.187C4.602,204.555,4.842,203.929,5.096,203.309C5.351,202.689,5.621,202.076,5.905,201.470C6.190,200.863,6.489,200.264,6.803,199.672C7.117,199.080,7.445,198.497,7.787,197.921C8.129,197.346,8.485,196.779,8.855,196.221C9.225,195.663,9.608,195.115,10.005,194.576C10.401,194.037,10.811,193.508,11.233,192.990C11.655,192.471,12.090,191.963,12.537,191.466C12.984,190.969,13.443,190.483,13.914,190.008C14.384,189.534,14.866,189.071,15.360,188.621C15.853,188.170,16.357,187.732,16.871,187.306C17.386,186.881,17.911,186.468,18.445,186.068C18.980,185.669,19.524,185.282,20.078,184.910C20.631,184.537,21.193,184.178,21.764,183.833C22.335,183.488,22.914,183.157,23.501,182.841C24.088,182.525,24.683,182.223,25.285,181.936C25.886,181.649,26.495,181.378,27.110,181.121C27.725,180.864,28.346,180.623,28.972,180.397C29.599,180.171,30.231,179.960,30.868,179.765C31.505,179.571,32.147,179.392,32.792,179.229C33.438,179.066,34.087,178.919,34.740,178.788C35.393,178.657,36.049,178.542,36.707,178.444C37.366,178.345,38.026,178.263,38.689,178.197C39.351,178.132,40.015,178.082,40.680,178.049C41.345,178.016,42.010,178.000,42.676,178.000L71.147,178.000ZZZZZZZ" fill-rule="evenodd" style="fill: rgb(58, 76, 90); fill-opacity: 1;" class="fills"/><path d="M152.000,236.000L161.556,228.803C161.643,228.738,161.733,228.676,161.825,228.618C161.917,228.559,162.011,228.505,162.108,228.455C162.204,228.404,162.302,228.358,162.403,228.315C162.503,228.273,162.605,228.235,162.708,228.201C162.811,228.166,162.916,228.137,163.022,228.111C163.127,228.086,163.234,228.064,163.341,228.048C163.448,228.031,163.556,228.019,163.665,228.011C163.774,228.003,163.882,227.999,163.991,228.000C164.100,228.001,164.208,228.006,164.317,228.016C164.425,228.026,164.533,228.041,164.640,228.059C164.747,228.078,164.853,228.101,164.958,228.128C165.063,228.156,165.167,228.187,165.270,228.223C165.373,228.259,165.474,228.299,165.573,228.343C165.673,228.387,165.771,228.436,165.866,228.488C165.961,228.540,166.055,228.596,166.146,228.656C166.237,228.715,166.325,228.779,166.411,228.846L173.000,233.992L152.000,236.000ZZZZZZZ" fill-rule="evenodd" style="fill: rgb(230, 230, 230); fill-opacity: 1;" class="fills"/><path d="M71.000,177.000C65.000,206.354,76.000,260.000,76.000,260.000L60.000,260.000L46.000,223.561L52.000,214.451L46.000,208.378L65.000,178.012C65.000,178.012,68.042,177.055,71.000,177.000ZZZZZZZ" fill-rule="evenodd" style="fill: rgb(47, 67, 81); fill-opacity: 1;" class="fills"/><path d="M134.000,177.000C140.000,206.354,129.000,260.000,129.000,260.000L145.000,260.000L159.000,223.561L153.000,214.451L159.000,208.378L140.000,178.012C140.000,178.012,136.959,177.055,134.000,177.000ZZZZZZZ" fill-rule="evenodd" style="fill: rgb(47, 67, 81); fill-opacity: 1;" class="fills"/></g></g></svg>