<svg width="200" xmlns="http://www.w3.org/2000/svg" height="263.948" fill="none"><g class="fills"><rect rx="0" ry="0" x="65.929" y="88.433" width="68.142" height="105.134" transform="matrix(2.935063, 0.000001, -0.000001, 2.320856, -193.506388, -186.240760)" class="frame-background"/></g><g class="frame-children"><path d="M44.000,74.999C44.000,74.083,44.023,73.167,44.068,72.251C44.113,71.336,44.180,70.422,44.270,69.510C44.360,68.598,44.472,67.689,44.606,66.782C44.741,65.876,44.897,64.973,45.076,64.074C45.255,63.175,45.456,62.281,45.678,61.392C45.901,60.503,46.145,59.620,46.411,58.743C46.677,57.866,46.965,56.996,47.274,56.133C47.582,55.271,47.912,54.416,48.263,53.569C48.613,52.722,48.985,51.885,49.377,51.056C49.768,50.228,50.180,49.410,50.612,48.601C51.044,47.793,51.496,46.996,51.967,46.210C52.438,45.424,52.928,44.650,53.438,43.888C53.947,43.126,54.474,42.377,55.020,41.640C55.566,40.904,56.130,40.182,56.711,39.474C57.293,38.765,57.891,38.071,58.507,37.392C59.122,36.713,59.754,36.050,60.402,35.402C61.050,34.754,61.713,34.122,62.392,33.506C63.071,32.891,63.765,32.293,64.474,31.711C65.182,31.130,65.904,30.566,66.640,30.020C67.377,29.474,68.126,28.947,68.888,28.438C69.650,27.928,70.424,27.438,71.210,26.967C71.996,26.496,72.793,26.044,73.601,25.612C74.410,25.180,75.228,24.768,76.056,24.376C76.885,23.985,77.722,23.613,78.569,23.263C79.416,22.912,80.271,22.582,81.134,22.273C81.996,21.965,82.866,21.677,83.743,21.411C84.620,21.145,85.503,20.901,86.392,20.678C87.281,20.456,88.175,20.255,89.074,20.076C89.973,19.897,90.876,19.741,91.782,19.606C92.689,19.472,93.598,19.359,94.510,19.270C95.422,19.180,96.336,19.112,97.251,19.067C98.167,19.022,99.083,19.000,99.999,19.000L100.001,19.000C100.918,19.000,101.834,19.022,102.749,19.067C103.664,19.112,104.578,19.180,105.490,19.270C106.402,19.359,107.311,19.472,108.218,19.606C109.125,19.741,110.027,19.897,110.926,20.076C111.825,20.255,112.719,20.456,113.608,20.678C114.497,20.901,115.380,21.145,116.257,21.411C117.134,21.677,118.003,21.965,118.866,22.273C119.729,22.582,120.584,22.912,121.431,23.263C122.278,23.613,123.115,23.985,123.944,24.376C124.772,24.768,125.590,25.180,126.399,25.612C127.207,26.044,128.004,26.496,128.790,26.967C129.576,27.438,130.350,27.928,131.112,28.438C131.874,28.947,132.623,29.474,133.360,30.020C134.096,30.566,134.818,31.130,135.526,31.711C136.235,32.293,136.929,32.891,137.608,33.506C138.287,34.122,138.950,34.754,139.598,35.402C140.246,36.050,140.878,36.713,141.494,37.392C142.109,38.071,142.708,38.765,143.289,39.474C143.870,40.182,144.434,40.904,144.980,41.640C145.526,42.377,146.053,43.126,146.562,43.888C147.071,44.650,147.562,45.424,148.033,46.210C148.504,46.996,148.956,47.793,149.388,48.601C149.820,49.410,150.232,50.228,150.623,51.056C151.015,51.885,151.386,52.722,151.737,53.569C152.088,54.416,152.418,55.271,152.727,56.133C153.036,56.996,153.323,57.866,153.589,58.743C153.855,59.620,154.099,60.503,154.322,61.392C154.545,62.281,154.745,63.175,154.924,64.074C155.103,64.973,155.259,65.876,155.394,66.782C155.529,67.689,155.641,68.598,155.730,69.510C155.820,70.422,155.888,71.336,155.933,72.251C155.978,73.167,156.000,74.083,156.000,74.999L156.000,81.168C156.173,81.197,156.345,81.230,156.517,81.267C156.688,81.303,156.859,81.344,157.029,81.388C157.198,81.433,157.367,81.481,157.535,81.532C157.702,81.584,157.869,81.639,158.034,81.698C158.199,81.757,158.363,81.820,158.526,81.886C158.689,81.952,158.850,82.022,159.009,82.095C159.168,82.168,159.326,82.245,159.482,82.325C159.638,82.405,159.792,82.489,159.945,82.575C160.097,82.662,160.247,82.753,160.396,82.846C160.545,82.940,160.691,83.036,160.835,83.136C160.979,83.236,161.121,83.339,161.261,83.445C161.400,83.552,161.538,83.661,161.673,83.773C161.808,83.885,161.940,84.000,162.070,84.118C162.200,84.236,162.327,84.357,162.451,84.480C162.576,84.604,162.698,84.730,162.817,84.859C162.936,84.988,163.052,85.119,163.165,85.253C163.278,85.387,163.389,85.524,163.496,85.663C163.603,85.801,163.707,85.943,163.808,86.086C163.909,86.229,164.007,86.375,164.102,86.523C164.197,86.670,164.288,86.820,164.376,86.972C164.464,87.123,164.549,87.277,164.631,87.432C164.712,87.588,164.790,87.745,164.864,87.904C164.939,88.063,165.010,88.223,165.077,88.385C165.145,88.547,165.209,88.710,165.269,88.875C165.329,89.040,165.386,89.206,165.439,89.373C165.492,89.540,165.542,89.709,165.587,89.878C165.632,90.047,165.674,90.218,165.713,90.389C165.751,90.560,165.785,90.732,165.816,90.905C165.847,91.078,165.873,91.251,165.896,91.425C165.919,91.599,165.939,91.773,165.954,91.948C165.969,92.123,165.981,92.298,165.988,92.473C165.996,92.648,166.000,92.824,166.000,92.999L166.000,107.001C166.000,107.180,165.996,107.358,165.988,107.537C165.980,107.715,165.968,107.894,165.952,108.072C165.936,108.250,165.916,108.427,165.892,108.604C165.869,108.781,165.841,108.958,165.809,109.134C165.777,109.310,165.741,109.485,165.702,109.659C165.663,109.833,165.619,110.006,165.572,110.179C165.525,110.351,165.473,110.522,165.418,110.692C165.363,110.862,165.305,111.031,165.242,111.198C165.179,111.366,165.113,111.532,165.043,111.696C164.973,111.861,164.899,112.024,164.822,112.185C164.745,112.346,164.665,112.505,164.580,112.663C164.496,112.820,164.408,112.976,164.317,113.130C164.226,113.283,164.131,113.435,164.033,113.584C163.935,113.734,163.834,113.881,163.729,114.026C163.624,114.171,163.516,114.313,163.405,114.453C163.294,114.593,163.180,114.731,163.063,114.866C162.946,115.001,162.826,115.133,162.703,115.263C162.580,115.392,162.454,115.519,162.325,115.643C162.196,115.767,162.065,115.888,161.931,116.006C161.797,116.124,161.660,116.239,161.521,116.351C161.382,116.463,161.240,116.572,161.096,116.678C160.952,116.783,160.806,116.886,160.657,116.985C160.508,117.084,160.357,117.180,160.204,117.272C160.051,117.365,159.896,117.453,159.739,117.539C159.582,117.624,159.424,117.706,159.263,117.785C159.102,117.863,158.940,117.938,158.776,118.009C158.612,118.080,158.447,118.147,158.280,118.211C158.113,118.275,157.945,118.335,157.775,118.391C157.606,118.447,157.435,118.500,157.263,118.548C157.091,118.597,156.918,118.641,156.744,118.682C156.570,118.723,156.395,118.760,156.219,118.793C156.044,118.826,155.867,118.855,155.690,118.880C155.628,119.474,155.556,120.066,155.474,120.657C155.393,121.248,155.302,121.838,155.201,122.426C155.101,123.014,154.991,123.600,154.872,124.185C154.753,124.770,154.624,125.352,154.486,125.932C154.349,126.513,154.202,127.091,154.045,127.667C153.889,128.243,153.724,128.816,153.549,129.386C153.374,129.957,153.191,130.524,152.998,131.089C152.805,131.654,152.604,132.215,152.393,132.773C152.182,133.332,151.963,133.886,151.735,134.437C151.506,134.988,151.269,135.536,151.023,136.079C150.777,136.623,150.523,137.163,150.260,137.698C149.997,138.233,149.725,138.764,149.445,139.291C149.165,139.818,148.877,140.341,148.580,140.858C148.283,141.375,147.978,141.888,147.665,142.396C147.352,142.904,147.030,143.407,146.701,143.904C146.372,144.401,146.035,144.894,145.690,145.381C145.345,145.868,144.992,146.349,144.632,146.824C144.271,147.299,143.903,147.769,143.528,148.233C143.153,148.696,142.770,149.154,142.380,149.606C141.990,150.057,141.593,150.502,141.189,150.941C140.784,151.380,140.373,151.812,139.955,152.238C139.537,152.664,139.112,153.083,138.681,153.495C138.250,153.907,137.812,154.312,137.367,154.710C136.923,155.108,136.473,155.499,136.016,155.883C135.559,156.266,135.096,156.643,134.627,157.012C134.158,157.381,133.684,157.742,133.203,158.096C132.722,158.449,132.236,158.795,131.745,159.133C131.254,159.472,130.757,159.802,130.255,160.124C129.753,160.447,129.246,160.761,128.733,161.067C128.221,161.373,127.704,161.671,127.183,161.961C126.661,162.250,126.135,162.531,125.605,162.804C125.074,163.077,124.539,163.341,124.000,163.597L124.000,182.000L159.501,182.000C160.164,182.000,160.826,182.016,161.488,182.049C162.150,182.082,162.811,182.130,163.471,182.195C164.130,182.260,164.788,182.341,165.443,182.438C166.099,182.535,166.752,182.649,167.402,182.778C168.052,182.907,168.698,183.053,169.341,183.214C169.984,183.375,170.623,183.551,171.257,183.744C171.892,183.936,172.521,184.144,173.145,184.367C173.769,184.590,174.387,184.829,174.999,185.083C175.612,185.336,176.218,185.605,176.817,185.888C177.416,186.171,178.007,186.469,178.592,186.782C179.177,187.095,179.753,187.421,180.322,187.762C180.890,188.103,181.450,188.457,182.001,188.825C182.552,189.194,183.094,189.575,183.626,189.970C184.159,190.365,184.681,190.772,185.193,191.193C185.706,191.614,186.207,192.046,186.698,192.491C187.189,192.936,187.669,193.393,188.138,193.862C188.607,194.331,189.064,194.810,189.509,195.301C189.954,195.792,190.386,196.294,190.807,196.807C191.228,197.319,191.635,197.841,192.030,198.374C192.425,198.906,192.806,199.448,193.175,199.999C193.543,200.550,193.897,201.110,194.238,201.678C194.579,202.247,194.905,202.823,195.218,203.408C195.531,203.993,195.829,204.584,196.112,205.183C196.395,205.782,196.664,206.388,196.917,207.001C197.171,207.613,197.410,208.231,197.633,208.855C197.856,209.479,198.064,210.108,198.256,210.743C198.449,211.377,198.625,212.016,198.786,212.659C198.947,213.302,199.093,213.948,199.222,214.598C199.351,215.248,199.465,215.901,199.562,216.557C199.659,217.212,199.740,217.870,199.805,218.529C199.870,219.189,199.918,219.850,199.951,220.512C199.984,221.174,200.000,221.836,200.000,222.499L200.000,263.000L0.000,263.000L0.000,222.499C0.000,221.836,0.016,221.174,0.049,220.512C0.081,219.850,0.130,219.189,0.195,218.529C0.260,217.870,0.341,217.212,0.438,216.557C0.536,215.901,0.649,215.248,0.778,214.598C0.908,213.948,1.053,213.302,1.214,212.659C1.375,212.016,1.552,211.377,1.744,210.743C1.936,210.108,2.144,209.479,2.367,208.855C2.591,208.231,2.829,207.613,3.083,207.001C3.337,206.388,3.605,205.782,3.888,205.183C4.172,204.584,4.470,203.993,4.782,203.408C5.095,202.823,5.421,202.247,5.762,201.678C6.103,201.110,6.457,200.550,6.825,199.999C7.194,199.448,7.575,198.906,7.970,198.374C8.365,197.841,8.772,197.319,9.193,196.807C9.613,196.294,10.046,195.793,10.491,195.302C10.936,194.811,11.393,194.331,11.862,193.862C12.331,193.393,12.811,192.936,13.302,192.491C13.793,192.046,14.294,191.614,14.807,191.193C15.319,190.772,15.841,190.365,16.374,189.970C16.906,189.575,17.448,189.194,17.999,188.825C18.550,188.457,19.110,188.103,19.678,187.762C20.247,187.421,20.823,187.095,21.408,186.782C21.993,186.469,22.584,186.171,23.183,185.888C23.783,185.605,24.388,185.336,25.001,185.083C25.613,184.829,26.231,184.590,26.855,184.367C27.479,184.144,28.109,183.936,28.743,183.744C29.377,183.551,30.016,183.375,30.659,183.214C31.302,183.053,31.948,182.907,32.598,182.778C33.248,182.649,33.901,182.535,34.557,182.438C35.212,182.341,35.870,182.260,36.529,182.195C37.189,182.130,37.850,182.082,38.512,182.049C39.174,182.016,39.836,182.000,40.499,182.000L76.000,182.000L76.000,163.597C75.461,163.341,74.926,163.077,74.396,162.804C73.865,162.531,73.339,162.250,72.817,161.961C72.296,161.671,71.779,161.373,71.267,161.067C70.755,160.761,70.247,160.447,69.745,160.124C69.243,159.802,68.747,159.472,68.255,159.133C67.764,158.795,67.278,158.449,66.797,158.096C66.317,157.742,65.842,157.381,65.373,157.012C64.904,156.643,64.441,156.266,63.984,155.883C63.528,155.499,63.077,155.108,62.633,154.710C62.188,154.312,61.750,153.907,61.319,153.495C60.888,153.083,60.463,152.664,60.045,152.238C59.627,151.812,59.216,151.380,58.811,150.941C58.407,150.502,58.010,150.057,57.620,149.606C57.230,149.154,56.847,148.696,56.472,148.233C56.097,147.769,55.729,147.299,55.368,146.824C55.008,146.349,54.655,145.868,54.310,145.381C53.965,144.894,53.628,144.401,53.299,143.904C52.970,143.407,52.649,142.904,52.335,142.396C52.022,141.888,51.717,141.375,51.420,140.858C51.124,140.341,50.835,139.818,50.555,139.291C50.275,138.764,50.003,138.233,49.740,137.698C49.477,137.163,49.223,136.623,48.977,136.079C48.731,135.536,48.494,134.988,48.265,134.437C48.037,133.886,47.818,133.332,47.607,132.773C47.396,132.215,47.195,131.654,47.002,131.089C46.809,130.524,46.625,129.957,46.451,129.386C46.276,128.816,46.111,128.243,45.955,127.667C45.798,127.091,45.651,126.513,45.514,125.932C45.376,125.352,45.247,124.770,45.128,124.185C45.009,123.600,44.899,123.014,44.799,122.426C44.698,121.838,44.607,121.248,44.526,120.657C44.444,120.066,44.372,119.474,44.310,118.880C44.133,118.855,43.956,118.826,43.781,118.793C43.605,118.760,43.430,118.723,43.256,118.682C43.082,118.641,42.909,118.597,42.737,118.548C42.565,118.500,42.395,118.447,42.225,118.391C42.055,118.335,41.887,118.275,41.720,118.211C41.553,118.147,41.388,118.080,41.224,118.009C41.060,117.938,40.898,117.863,40.737,117.785C40.576,117.706,40.418,117.624,40.261,117.539C40.104,117.453,39.949,117.365,39.796,117.272C39.643,117.180,39.492,117.084,39.343,116.985C39.195,116.886,39.048,116.783,38.904,116.678C38.760,116.572,38.618,116.463,38.479,116.351C38.340,116.239,38.203,116.124,38.069,116.006C37.935,115.888,37.803,115.767,37.675,115.643C37.546,115.519,37.420,115.392,37.297,115.263C37.174,115.133,37.054,115.001,36.937,114.866C36.820,114.731,36.706,114.593,36.595,114.453C36.484,114.313,36.376,114.171,36.271,114.026C36.167,113.881,36.065,113.734,35.967,113.584C35.869,113.435,35.775,113.283,35.683,113.130C35.592,112.976,35.504,112.820,35.420,112.663C35.336,112.505,35.255,112.346,35.178,112.185C35.100,112.024,35.027,111.861,34.957,111.696C34.887,111.532,34.821,111.366,34.758,111.198C34.696,111.031,34.637,110.862,34.582,110.692C34.527,110.522,34.476,110.351,34.428,110.179C34.381,110.006,34.338,109.833,34.298,109.659C34.259,109.485,34.223,109.310,34.191,109.134C34.159,108.958,34.132,108.781,34.108,108.604C34.084,108.427,34.064,108.250,34.048,108.072C34.032,107.894,34.020,107.715,34.012,107.537C34.004,107.358,34.000,107.180,34.000,107.001L34.000,92.999C34.000,92.824,34.004,92.648,34.012,92.473C34.019,92.298,34.031,92.123,34.046,91.948C34.062,91.773,34.081,91.599,34.104,91.425C34.127,91.251,34.154,91.078,34.184,90.905C34.215,90.732,34.249,90.560,34.287,90.389C34.326,90.218,34.367,90.047,34.413,89.878C34.459,89.709,34.508,89.540,34.561,89.373C34.614,89.206,34.671,89.040,34.731,88.875C34.791,88.710,34.855,88.547,34.923,88.385C34.990,88.223,35.061,88.063,35.136,87.904C35.210,87.745,35.288,87.588,35.369,87.432C35.451,87.277,35.536,87.123,35.624,86.972C35.712,86.820,35.803,86.670,35.898,86.523C35.993,86.375,36.091,86.229,36.192,86.086C36.293,85.943,36.397,85.801,36.504,85.663C36.611,85.524,36.722,85.387,36.835,85.253C36.948,85.119,37.064,84.988,37.183,84.859C37.302,84.730,37.424,84.604,37.549,84.480C37.673,84.357,37.801,84.236,37.930,84.118C38.060,84.000,38.193,83.885,38.327,83.773C38.462,83.661,38.600,83.552,38.739,83.445C38.879,83.339,39.021,83.236,39.165,83.136C39.309,83.036,39.456,82.940,39.604,82.846C39.753,82.753,39.903,82.662,40.055,82.575C40.208,82.489,40.362,82.405,40.518,82.325C40.674,82.245,40.832,82.168,40.991,82.095C41.151,82.022,41.312,81.952,41.474,81.886C41.637,81.820,41.801,81.757,41.966,81.698C42.131,81.639,42.298,81.584,42.465,81.532C42.633,81.481,42.802,81.433,42.971,81.388C43.141,81.344,43.312,81.303,43.483,81.267C43.655,81.230,43.827,81.197,44.000,81.168L44.000,74.999ZZZZZZZ" fill-rule="evenodd" style="fill: rgb(136, 104, 93); fill-opacity: 1;" class="fills"/><path d="M44.000,113.000L44.000,121.000C44.000,121.917,44.023,122.833,44.068,123.748C44.113,124.663,44.180,125.577,44.270,126.489C44.360,127.401,44.472,128.310,44.606,129.217C44.741,130.124,44.897,131.026,45.076,131.925C45.255,132.824,45.456,133.718,45.678,134.607C45.901,135.496,46.145,136.379,46.411,137.256C46.677,138.133,46.965,139.002,47.274,139.865C47.582,140.728,47.912,141.583,48.263,142.430C48.613,143.277,48.985,144.114,49.377,144.943C49.768,145.771,50.180,146.589,50.612,147.398C51.044,148.206,51.496,149.003,51.967,149.789C52.438,150.575,52.928,151.349,53.438,152.111C53.947,152.873,54.474,153.622,55.020,154.359C55.566,155.095,56.130,155.817,56.711,156.525C57.293,157.234,57.891,157.928,58.507,158.607C59.122,159.286,59.754,159.949,60.402,160.597C61.050,161.245,61.713,161.877,62.392,162.493C63.071,163.108,63.765,163.707,64.474,164.288C65.182,164.869,65.904,165.433,66.640,165.979C67.377,166.525,68.126,167.052,68.888,167.561C69.650,168.070,70.424,168.561,71.210,169.032C71.996,169.503,72.793,169.955,73.601,170.387C74.410,170.819,75.228,171.231,76.056,171.622C76.885,172.014,77.722,172.385,78.569,172.736C79.416,173.087,80.271,173.417,81.134,173.726C81.996,174.035,82.866,174.322,83.743,174.588C84.620,174.854,85.503,175.098,86.392,175.321C87.281,175.544,88.175,175.744,89.074,175.923C89.973,176.102,90.876,176.258,91.782,176.393C92.689,176.528,93.598,176.640,94.510,176.729C95.422,176.819,96.336,176.887,97.251,176.932C98.167,176.977,99.083,176.999,99.999,176.999L100.001,176.999C100.918,176.999,101.834,176.977,102.749,176.932C103.664,176.887,104.578,176.819,105.490,176.729C106.402,176.640,107.311,176.528,108.218,176.393C109.125,176.258,110.027,176.102,110.926,175.923C111.825,175.744,112.719,175.544,113.608,175.321C114.497,175.098,115.380,174.854,116.257,174.588C117.134,174.322,118.003,174.035,118.866,173.726C119.729,173.417,120.584,173.087,121.431,172.736C122.278,172.385,123.115,172.014,123.944,171.622C124.772,171.231,125.590,170.819,126.399,170.387C127.207,169.955,128.004,169.503,128.790,169.032C129.576,168.561,130.350,168.070,131.112,167.561C131.874,167.052,132.623,166.525,133.360,165.979C134.096,165.433,134.818,164.869,135.526,164.288C136.235,163.707,136.929,163.108,137.608,162.493C138.287,161.877,138.950,161.245,139.598,160.597C140.246,159.949,140.878,159.286,141.494,158.607C142.109,157.928,142.708,157.234,143.289,156.525C143.870,155.817,144.434,155.095,144.980,154.359C145.526,153.622,146.053,152.873,146.562,152.111C147.071,151.349,147.562,150.575,148.033,149.789C148.504,149.003,148.956,148.206,149.388,147.398C149.820,146.589,150.232,145.771,150.623,144.943C151.015,144.114,151.386,143.277,151.737,142.430C152.088,141.583,152.418,140.728,152.727,139.865C153.036,139.002,153.323,138.133,153.589,137.256C153.855,136.379,154.099,135.496,154.322,134.607C154.545,133.718,154.745,132.824,154.924,131.925C155.103,131.026,155.259,130.124,155.394,129.217C155.529,128.310,155.641,127.401,155.730,126.489C155.820,125.577,155.888,124.663,155.933,123.748C155.978,122.833,156.000,121.917,156.000,121.000L156.000,113.000C156.000,113.916,155.978,114.832,155.933,115.748C155.888,116.663,155.820,117.577,155.730,118.489C155.641,119.401,155.529,120.310,155.394,121.217C155.259,122.124,155.103,123.026,154.924,123.925C154.745,124.824,154.545,125.718,154.322,126.607C154.099,127.496,153.855,128.379,153.589,129.256C153.323,130.133,153.036,131.002,152.727,131.865C152.418,132.728,152.088,133.583,151.737,134.430C151.386,135.277,151.015,136.114,150.623,136.943C150.232,137.771,149.820,138.589,149.388,139.398C148.956,140.206,148.504,141.003,148.033,141.789C147.562,142.575,147.071,143.349,146.562,144.111C146.053,144.873,145.526,145.622,144.980,146.359C144.434,147.095,143.870,147.817,143.289,148.525C142.708,149.234,142.109,149.928,141.494,150.607C140.878,151.286,140.246,151.949,139.598,152.597C138.950,153.245,138.287,153.877,137.608,154.493C136.929,155.108,136.235,155.707,135.526,156.288C134.818,156.869,134.096,157.433,133.360,157.979C132.623,158.525,131.874,159.052,131.112,159.561C130.350,160.070,129.576,160.561,128.790,161.032C128.004,161.503,127.207,161.955,126.399,162.387C125.590,162.819,124.772,163.231,123.944,163.622C123.115,164.014,122.278,164.385,121.431,164.736C120.584,165.087,119.729,165.417,118.866,165.726C118.003,166.035,117.134,166.322,116.257,166.588C115.380,166.854,114.497,167.098,113.608,167.321C112.719,167.544,111.825,167.744,110.926,167.923C110.027,168.102,109.125,168.258,108.218,168.393C107.311,168.528,106.402,168.640,105.490,168.729C104.578,168.819,103.664,168.887,102.749,168.932C101.834,168.977,100.918,168.999,100.001,168.999L99.999,168.999C99.083,168.999,98.167,168.977,97.251,168.932C96.336,168.887,95.422,168.819,94.510,168.729C93.598,168.640,92.689,168.528,91.782,168.393C90.876,168.258,89.973,168.102,89.074,167.923C88.175,167.744,87.281,167.544,86.392,167.321C85.503,167.098,84.620,166.854,83.743,166.588C82.866,166.322,81.996,166.035,81.134,165.726C80.271,165.417,79.416,165.087,78.569,164.736C77.722,164.385,76.885,164.014,76.056,163.622C75.228,163.231,74.410,162.819,73.601,162.387C72.793,161.955,71.996,161.503,71.210,161.032C70.424,160.561,69.650,160.070,68.888,159.561C68.126,159.052,67.377,158.525,66.640,157.979C65.904,157.433,65.182,156.869,64.474,156.288C63.765,155.707,63.071,155.108,62.392,154.493C61.713,153.877,61.050,153.245,60.402,152.597C59.754,151.949,59.122,151.286,58.507,150.607C57.891,149.928,57.293,149.234,56.711,148.525C56.130,147.817,55.566,147.095,55.020,146.359C54.474,145.622,53.947,144.873,53.438,144.111C52.928,143.349,52.438,142.575,51.967,141.789C51.496,141.003,51.044,140.206,50.612,139.398C50.180,138.589,49.768,137.771,49.377,136.943C48.985,136.114,48.613,135.277,48.263,134.430C47.912,133.583,47.582,132.728,47.274,131.865C46.965,131.002,46.677,130.133,46.411,129.256C46.145,128.379,45.901,127.496,45.678,126.607C45.456,125.718,45.255,124.824,45.076,123.925C44.897,123.026,44.741,122.124,44.606,121.217C44.472,120.310,44.360,119.401,44.270,118.489C44.180,117.577,44.113,116.663,44.068,115.748C44.023,114.832,44.000,113.916,44.000,113.000ZZZZZZZ" fill-rule="evenodd" style="fill: rgb(0, 0, 0); fill-opacity: 0.101961;" class="fills"/></g><defs><rect width="56" height="24" id="a"/></defs><g class="fills"><rect width="24" height="8" class="frame-background" x="88" transform="matrix(1.000000, 0.000000, -0.000000, 1.000000, 0.000002, 0.000007)" ry="0" rx="0" y="120" clip-path="url(#-clip_10)"/></g><g class="frame-children"><path d="M88.000,120.000C88.000,124.418,93.373,128.000,100.000,128.000L100.000,128.000C106.627,128.000,112.000,124.418,112.000,120.000" fill-rule="evenodd" style="fill: rgb(0, 0, 0); fill-opacity: 0.160784;" class="fills"/></g><defs><rect width="108" height="44" id="b"/></defs><g class="fills"><rect width="28" height="14" class="frame-background" x="86" transform="matrix(1.000000, 0.000000, 0.000000, 1.000000, -0.000001, -0.000005)" ry="0" rx="0" y="138" clip-path="url(#-clip_9)"/></g><g class="frame-children"><path d="M86.000,138.000C86.000,145.732,92.268,152.000,100.000,152.000L100.000,152.000C107.732,152.000,114.000,145.732,114.000,138.000" fill-rule="evenodd" style="fill: rgb(0, 0, 0); fill-opacity: 0.698039;" class="fills"/></g><defs><rect width="112" height="24" id="c"/></defs><g class="fills"><rect width="88.001" height="18.815" class="frame-background" x="56" transform="matrix(1.000000, 0.000000, -0.000000, 1.000000, 0.000001, 0.000000)" ry="0" rx="0" y="77" clip-path="url(#-clip_6)"/></g><g class="frame-children"><path d="M59.976,94.125C61.471,84.602,74.059,78.106,83.164,82.298C84.167,82.760,85.355,82.321,85.817,81.318C86.279,80.315,85.840,79.127,84.837,78.665C73.349,73.375,57.936,81.330,56.025,93.505C55.853,94.596,56.599,95.619,57.690,95.791C58.781,95.962,59.805,95.216,59.976,94.125ZZZZZZZ" fill-rule="evenodd" style="fill: rgb(0, 0, 0); fill-opacity: 0.6;" class="fills"/><path d="M140.025,94.125C138.530,84.602,125.942,78.106,116.837,82.298C115.834,82.760,114.646,82.321,114.184,81.318C113.722,80.315,114.161,79.127,115.164,78.665C126.652,73.375,142.065,81.330,143.976,93.505C144.148,94.596,143.402,95.619,142.311,95.791C141.220,95.962,140.196,95.216,140.025,94.125ZZZZZZZ" fill-rule="evenodd" style="fill: rgb(0, 0, 0); fill-opacity: 0.6;" class="fills"/></g><defs><rect width="112" height="44" id="d"/></defs><g class="fills"><rect width="80" height="8" class="frame-background" x="61" transform="matrix(1.000000, 0.000000, 0.000000, 1.000000, 0.000004, -0.000006)" ry="0" rx="0" y="97" clip-path="url(#-clip_7)"/></g><g class="frame-children"><path d="M61.160,103.447C63.007,99.649,67.164,97.000,71.998,97.000C76.814,97.000,80.959,99.630,82.815,103.407C83.367,104.529,82.582,105.448,81.791,104.767C79.340,102.660,75.859,101.344,71.998,101.344C68.257,101.344,64.874,102.579,62.438,104.572C61.547,105.300,60.620,104.558,61.160,103.447ZZZZZZZ" fill-rule="evenodd" style="fill: rgb(0, 0, 0); fill-opacity: 0.6;" class="fills"/><path d="M119.160,103.447C121.007,99.649,125.164,97.000,129.998,97.000C134.814,97.000,138.959,99.630,140.815,103.407C141.367,104.529,140.582,105.448,139.791,104.767C137.340,102.660,133.859,101.344,129.998,101.344C126.257,101.344,122.874,102.579,120.438,104.572C119.547,105.300,118.620,104.558,119.160,103.447ZZZZZZZ" fill-rule="evenodd" style="fill: rgb(0, 0, 0); fill-opacity: 0.6;" class="fills"/></g><defs><rect width="264" height="110" id="e"/></defs><g class="fills"><rect width="200" height="80.948" class="frame-background" transform="matrix(1.000000, 0.000000, 0.000000, 1.000000, 0.000000, 0.000000)" ry="0" rx="0" y="183" clip-path="url(#-clip_2)"/></g><g class="frame-children"><path d="M134.000,184.296C134.000,196.159,119.002,205.776,100.500,205.776C81.998,205.776,67.000,196.159,67.000,184.296C67.000,183.861,67.020,183.429,67.060,183.000L40.473,183.000C39.811,183.000,39.149,183.016,38.487,183.049C37.826,183.081,37.165,183.130,36.506,183.195C35.847,183.260,35.190,183.341,34.535,183.438C33.879,183.535,33.227,183.649,32.577,183.778C31.928,183.907,31.282,184.052,30.639,184.213C29.997,184.374,29.358,184.551,28.724,184.743C28.091,184.935,27.462,185.143,26.838,185.366C26.215,185.589,25.597,185.827,24.985,186.081C24.373,186.334,23.767,186.603,23.169,186.886C22.570,187.169,21.978,187.467,21.394,187.779C20.810,188.091,20.234,188.418,19.666,188.758C19.098,189.099,18.538,189.453,17.988,189.821C17.437,190.189,16.895,190.570,16.363,190.965C15.831,191.359,15.309,191.767,14.797,192.187C14.285,192.607,13.784,193.040,13.293,193.485C12.802,193.929,12.323,194.386,11.854,194.854C11.386,195.323,10.929,195.802,10.485,196.293C10.040,196.784,9.607,197.285,9.187,197.797C8.767,198.309,8.359,198.831,7.965,199.363C7.570,199.895,7.189,200.437,6.821,200.988C6.453,201.538,6.099,202.098,5.758,202.666C5.418,203.234,5.091,203.810,4.779,204.394C4.467,204.978,4.169,205.570,3.886,206.169C3.603,206.767,3.334,207.373,3.081,207.985C2.827,208.597,2.589,209.215,2.366,209.838C2.143,210.462,1.935,211.091,1.743,211.724C1.551,212.358,1.374,212.996,1.213,213.639C1.052,214.282,0.907,214.928,0.778,215.577C0.649,216.227,0.535,216.879,0.438,217.535C0.341,218.190,0.260,218.847,0.195,219.506C0.130,220.165,0.081,220.826,0.049,221.487C0.016,222.149,0.000,222.811,0.000,223.473L0.000,263.948L200.000,263.948L200.000,223.473C200.000,222.811,199.984,222.149,199.951,221.487C199.919,220.826,199.870,220.165,199.805,219.506C199.740,218.847,199.659,218.190,199.562,217.535C199.465,216.879,199.351,216.227,199.222,215.577C199.093,214.928,198.948,214.282,198.787,213.639C198.626,212.996,198.450,212.358,198.257,211.724C198.065,211.091,197.857,210.462,197.634,209.838C197.411,209.215,197.172,208.597,196.919,207.985C196.666,207.373,196.397,206.767,196.114,206.169C195.831,205.570,195.533,204.978,195.221,204.394C194.909,203.810,194.583,203.234,194.242,202.666C193.901,202.098,193.547,201.538,193.179,200.988C192.811,200.437,192.430,199.895,192.035,199.363C191.640,198.831,191.233,198.309,190.813,197.797C190.393,197.285,189.960,196.784,189.515,196.293C189.070,195.802,188.614,195.323,188.146,194.854C187.677,194.386,187.198,193.929,186.707,193.485C186.216,193.040,185.715,192.607,185.203,192.187C184.691,191.767,184.169,191.359,183.637,190.965C183.105,190.570,182.564,190.189,182.013,189.821C181.462,189.453,180.902,189.099,180.334,188.758C179.766,188.418,179.190,188.091,178.606,187.779C178.021,187.467,177.430,187.169,176.831,186.886C176.232,186.603,175.627,186.334,175.015,186.081C174.403,185.827,173.785,185.589,173.162,185.366C172.538,185.143,171.909,184.935,171.276,184.743C170.642,184.551,170.004,184.374,169.361,184.213C168.718,184.052,168.072,183.907,167.423,183.778C166.773,183.649,166.120,183.535,165.465,183.438C164.810,183.341,164.153,183.260,163.494,183.195C162.835,183.130,162.174,183.081,161.513,183.049C160.851,183.016,160.189,183.000,159.527,183.000L133.940,183.000C133.980,183.429,134.000,183.861,134.000,184.296ZZZZZZ" fill-rule="evenodd" style="fill: rgb(13, 13, 13); fill-opacity: 1;" class="fills"/><path d="M139.924,183.000L133.940,183.000C133.980,183.429,134.000,183.861,134.000,184.296C134.000,196.159,119.002,205.776,100.500,205.776C81.998,205.776,67.000,196.159,67.000,184.296C67.000,183.861,67.020,183.429,67.060,183.000L61.076,183.000C60.937,183.919,60.865,184.852,60.865,185.796C60.865,200.660,78.610,212.710,100.500,212.710C122.390,212.710,140.135,200.660,140.135,185.796C140.135,184.852,140.064,183.919,139.924,183.000Z" style="fill: rgb(0, 0, 0); fill-opacity: 0.160784;" class="fills"/></g><defs><rect width="266" height="280" id="f"/></defs><g class="fills"><rect width="168.484" height="259" class="frame-background" x="20" transform="matrix(1.000000, 0.000000, -0.000000, 1.000000, 0.000009, -0.000007)" ry="0" rx="0" clip-path="url(#-clip_12)"/></g><g class="frame-children"><path d="M101.283,0.000L101.283,0.000ZZZZZZC102.398,0.000,103.510,0.027,104.622,0.082C105.734,0.137,106.843,0.218,107.950,0.327C109.058,0.437,110.162,0.573,111.263,0.736C112.364,0.899,113.460,1.089,114.551,1.307C115.643,1.524,116.728,1.767,117.807,2.038C118.887,2.308,119.960,2.605,121.024,2.928C122.089,3.251,123.145,3.600,124.193,3.975C125.241,4.350,126.279,4.750,127.307,5.176C128.335,5.602,129.352,6.053,130.358,6.529C131.364,7.004,132.358,7.505,133.339,8.029C134.321,8.554,135.289,9.102,136.243,9.674C137.198,10.246,138.138,10.842,139.063,11.460C139.989,12.078,140.898,12.719,141.792,13.382C142.686,14.045,143.563,14.729,144.423,15.435C145.283,16.141,146.126,16.868,146.950,17.615C147.775,18.362,148.581,19.130,149.368,19.916C150.155,20.703,150.922,21.509,151.669,22.334C152.417,23.158,153.143,24.001,153.849,24.861C154.555,25.721,155.240,26.598,155.902,27.492C156.566,28.386,157.206,29.295,157.824,30.221C158.442,31.146,159.038,32.086,159.610,33.041C160.182,33.995,160.731,34.963,161.255,35.945C161.780,36.926,162.280,37.920,162.755,38.926C163.231,39.932,163.682,40.949,164.108,41.977C164.534,43.005,164.935,44.043,165.309,45.091C165.684,46.139,166.033,47.195,166.356,48.260C166.680,49.325,166.976,50.397,167.246,51.477C167.517,52.556,167.761,53.642,167.977,54.733C168.195,55.825,168.385,56.921,168.548,58.022C168.712,59.122,168.848,60.226,168.957,61.334C169.066,62.441,169.148,63.551,169.202,64.662C169.257,65.774,169.284,66.886,169.284,67.999L169.284,98.577C169.877,105.029,170.859,114.808,171.740,119.354C173.117,126.458,177.434,124.115,177.434,134.220C177.434,144.325,173.106,147.720,173.087,156.705C173.078,160.933,176.486,164.753,180.098,168.802C184.162,173.358,188.484,178.203,188.484,184.243C188.484,195.649,181.410,249.476,110.862,249.476C94.635,249.476,81.862,242.849,71.811,232.643C73.336,245.791,74.284,259.000,74.284,259.000L27.284,259.000C27.759,246.908,25.866,237.528,23.891,227.743C21.984,218.291,20.000,208.461,20.000,195.446C20.000,179.296,25.068,158.673,28.945,142.897C31.428,132.795,33.422,124.680,33.284,121.000C33.304,120.428,33.325,119.719,33.346,118.890C33.305,117.927,33.284,116.964,33.284,116.001L33.284,67.999C33.284,64.107,33.616,60.243,34.280,56.408C34.282,56.207,34.284,56.078,34.284,56.026C34.284,56.009,34.284,56.000,34.284,56.000L34.286,56.002C34.290,56.010,34.307,56.040,34.335,56.092C34.508,55.119,34.702,54.151,34.917,53.186C35.133,52.222,35.369,51.263,35.626,50.308C35.883,49.354,36.161,48.406,36.459,47.464C36.758,46.522,37.076,45.587,37.415,44.659C37.755,43.731,38.114,42.811,38.493,41.899C38.872,40.986,39.271,40.082,39.690,39.187C40.109,38.292,40.547,37.407,41.004,36.531C41.461,35.655,41.937,34.789,42.432,33.934C42.927,33.079,43.441,32.235,43.973,31.402C44.504,30.569,45.054,29.749,45.622,28.940C46.189,28.131,46.774,27.335,47.376,26.552C47.979,25.768,48.598,24.998,49.234,24.242C49.870,23.486,50.522,22.743,51.190,22.016C51.858,21.288,52.542,20.575,53.241,19.876C53.940,19.178,54.654,18.496,55.383,17.829C56.112,17.162,56.856,16.511,57.613,15.876C58.371,15.242,59.141,14.624,59.926,14.023C60.710,13.422,61.507,12.838,62.317,12.272C63.127,11.706,63.948,11.158,64.782,10.627C65.616,10.097,66.461,9.585,67.317,9.091C68.173,8.598,69.039,8.123,69.915,7.667C70.792,7.211,71.678,6.775,72.574,6.358C73.470,5.941,74.374,5.543,75.287,5.165C76.201,4.788,77.122,4.430,78.050,4.092C78.979,3.755,79.914,3.437,80.856,3.141C81.799,2.844,82.748,2.568,83.702,2.312C84.657,2.057,85.617,1.822,86.581,1.608C87.546,1.395,88.515,1.202,89.487,1.031C90.461,0.860,91.437,0.709,92.417,0.581C93.397,0.452,94.379,0.344,95.363,0.258C96.347,0.172,97.333,0.108,98.320,0.065C99.308,0.022,100.295,0.000,101.283,0.000ZZZZZZZM100.783,32.000L101.785,32.000C102.677,32.000,103.569,32.022,104.459,32.066C105.350,32.109,106.239,32.175,107.127,32.262C108.015,32.350,108.900,32.459,109.782,32.590C110.664,32.721,111.543,32.873,112.417,33.047C113.292,33.221,114.162,33.417,115.027,33.633C115.893,33.850,116.752,34.088,117.605,34.347C118.459,34.606,119.305,34.885,120.145,35.186C120.985,35.486,121.817,35.807,122.641,36.149C123.465,36.490,124.280,36.851,125.086,37.233C125.893,37.614,126.690,38.015,127.476,38.435C128.263,38.856,129.039,39.295,129.803,39.754C130.569,40.212,131.322,40.689,132.063,41.185C132.805,41.680,133.534,42.194,134.250,42.725C134.967,43.256,135.670,43.805,136.359,44.371C137.049,44.937,137.724,45.519,138.384,46.118C139.046,46.717,139.692,47.332,140.322,47.962C140.953,48.593,141.568,49.239,142.166,49.900C142.766,50.561,143.348,51.236,143.913,51.925C144.479,52.615,145.028,53.318,145.559,54.034C146.091,54.750,146.604,55.479,147.099,56.221C147.595,56.963,148.072,57.716,148.530,58.481C148.989,59.246,149.429,60.022,149.849,60.808C150.269,61.595,150.670,62.391,151.052,63.198C151.434,64.004,151.795,64.819,152.136,65.643C152.477,66.467,152.798,67.299,153.098,68.139C153.399,68.979,153.679,69.825,153.937,70.679C154.197,71.532,154.435,72.392,154.651,73.257C154.868,74.122,155.063,74.992,155.237,75.867C155.411,76.742,155.564,77.620,155.694,78.502C155.825,79.385,155.934,80.270,156.022,81.157C156.110,82.045,156.175,82.934,156.218,83.825C156.262,84.716,156.284,85.607,156.284,86.499L156.284,109.501C156.284,110.393,156.262,111.284,156.218,112.175C156.175,113.066,156.110,113.955,156.022,114.843C155.934,115.730,155.825,116.615,155.694,117.498C155.564,118.380,155.411,119.258,155.237,120.133C155.063,121.008,154.868,121.878,154.651,122.743C154.435,123.608,154.197,124.468,153.937,125.321C153.679,126.175,153.399,127.022,153.098,127.861C152.798,128.701,152.477,129.533,152.135,130.357C151.794,131.181,151.433,131.996,151.051,132.802C150.670,133.609,150.269,134.405,149.849,135.192C149.429,135.979,148.989,136.754,148.530,137.519C148.072,138.284,147.595,139.038,147.099,139.779C146.604,140.520,146.091,141.249,145.559,141.966C145.028,142.683,144.479,143.386,143.913,144.075C143.348,144.764,142.766,145.439,142.166,146.100C141.568,146.761,140.953,147.407,140.322,148.038C139.692,148.669,139.046,149.283,138.384,149.882C137.724,150.481,137.049,151.064,136.359,151.629C135.670,152.195,134.967,152.744,134.250,153.275C133.534,153.806,132.805,154.320,132.063,154.815C131.322,155.311,130.569,155.788,129.803,156.246C129.039,156.705,128.263,157.144,127.476,157.565C126.690,157.985,125.893,158.386,125.086,158.768C124.280,159.149,123.465,159.511,122.641,159.852C121.817,160.193,120.985,160.513,120.145,160.814C119.305,161.115,118.459,161.394,117.605,161.653C116.752,161.912,115.893,162.150,115.027,162.367C114.162,162.584,113.292,162.779,112.417,162.953C111.543,163.127,110.664,163.279,109.782,163.410C108.900,163.541,108.015,163.650,107.127,163.738C106.239,163.825,105.350,163.891,104.459,163.934C103.569,163.978,102.677,164.000,101.785,164.000L100.783,164.000C99.891,164.000,99.000,163.978,98.109,163.934C97.219,163.891,96.329,163.825,95.441,163.738C94.554,163.650,93.669,163.541,92.786,163.410C91.904,163.279,91.026,163.127,90.151,162.953C89.277,162.779,88.407,162.584,87.541,162.367C86.676,162.150,85.817,161.912,84.963,161.653C84.109,161.394,83.263,161.115,82.423,160.814C81.583,160.513,80.751,160.193,79.927,159.852C79.103,159.511,78.288,159.149,77.482,158.768C76.676,158.386,75.879,157.985,75.092,157.565C74.306,157.144,73.530,156.705,72.765,156.246C72.000,155.788,71.247,155.311,70.505,154.815C69.764,154.320,69.035,153.806,68.318,153.275C67.602,152.744,66.899,152.195,66.210,151.629C65.520,151.064,64.845,150.481,64.184,149.882C63.523,149.283,62.878,148.669,62.247,148.038C61.616,147.407,61.001,146.761,60.402,146.100C59.803,145.439,59.221,144.764,58.655,144.075C58.089,143.386,57.541,142.683,57.009,141.966C56.478,141.249,55.965,140.520,55.469,139.779C54.974,139.038,54.497,138.284,54.038,137.519C53.580,136.754,53.140,135.979,52.720,135.192C52.299,134.405,51.898,133.609,51.517,132.802C51.136,131.996,50.774,131.181,50.433,130.357C50.092,129.533,49.771,128.701,49.470,127.861C49.170,127.022,48.890,126.175,48.631,125.321C48.372,124.468,48.134,123.608,47.918,122.743C47.701,121.878,47.506,121.008,47.332,120.133C47.158,119.258,47.005,118.380,46.874,117.498C46.744,116.615,46.634,115.730,46.547,114.843C46.459,113.955,46.394,113.066,46.350,112.175C46.306,111.284,46.284,110.393,46.284,109.501L46.284,86.499C46.284,85.607,46.306,84.716,46.350,83.825C46.394,82.934,46.459,82.045,46.547,81.157C46.634,80.270,46.744,79.385,46.874,78.502C47.005,77.620,47.158,76.742,47.332,75.867C47.506,74.992,47.701,74.122,47.918,73.257C48.134,72.392,48.372,71.532,48.631,70.679C48.890,69.825,49.170,68.979,49.470,68.139C49.771,67.299,50.092,66.467,50.433,65.643C50.774,64.819,51.136,64.004,51.517,63.198C51.898,62.391,52.299,61.595,52.720,60.808C53.140,60.022,53.580,59.246,54.038,58.481C54.497,57.716,54.974,56.963,55.469,56.221C55.965,55.479,56.478,54.750,57.009,54.034C57.541,53.318,58.089,52.615,58.655,51.925C59.221,51.236,59.803,50.561,60.402,49.900C61.001,49.239,61.616,48.593,62.247,47.962C62.878,47.332,63.523,46.717,64.184,46.118C64.845,45.519,65.520,44.937,66.210,44.371C66.899,43.805,67.602,43.256,68.318,42.725C69.035,42.194,69.764,41.680,70.505,41.185C71.247,40.689,72.000,40.212,72.765,39.754C73.530,39.295,74.306,38.856,75.092,38.435C75.879,38.015,76.676,37.614,77.482,37.233C78.288,36.851,79.103,36.490,79.927,36.149C80.751,35.807,81.583,35.486,82.423,35.186C83.263,34.885,84.109,34.606,84.963,34.347C85.817,34.088,86.676,33.850,87.541,33.633C88.407,33.417,89.277,33.221,90.151,33.047C91.026,32.873,91.904,32.721,92.786,32.590C93.669,32.459,94.554,32.350,95.441,32.262C96.329,32.175,97.219,32.109,98.109,32.066C99.000,32.022,99.891,32.000,100.783,32.000ZZZZZZZ" fill-rule="evenodd" style="fill: rgb(191, 101, 118); fill-opacity: 1;" class="fills"/><path d="M40.359,83.960C41.943,51.683,68.614,26.000,101.284,26.000C133.954,26.000,160.625,51.683,162.210,83.960C162.915,80.247,163.284,76.416,163.284,72.500C163.284,38.535,135.526,11.000,101.284,11.000C67.043,11.000,39.284,38.535,39.284,72.500C39.284,76.416,39.653,80.247,40.359,83.960ZZZZZZZ" fill-rule="evenodd" style="fill: rgb(153, 153, 153); fill-opacity: 0.501961;" class="fills"/><path d="M46.353,83.446C45.641,86.990,45.284,90.569,45.284,94.183L45.284,117.406C45.284,118.298,45.306,119.189,45.350,120.080C45.394,120.971,45.459,121.860,45.547,122.748C45.634,123.635,45.744,124.520,45.874,125.403C46.005,126.285,46.158,127.163,46.332,128.038C46.506,128.913,46.701,129.783,46.918,130.648C47.134,131.513,47.372,132.373,47.631,133.226C47.890,134.079,48.170,134.926,48.470,135.766C48.771,136.606,49.092,137.438,49.433,138.262C49.774,139.086,50.136,139.901,50.517,140.707C50.898,141.514,51.299,142.310,51.720,143.097C52.140,143.884,52.580,144.659,53.038,145.424C53.497,146.189,53.974,146.943,54.469,147.684C54.965,148.425,55.478,149.154,56.009,149.871C56.541,150.588,57.089,151.291,57.655,151.980C58.221,152.669,58.803,153.344,59.402,154.005C60.001,154.666,60.616,155.312,61.247,155.943C61.878,156.574,62.523,157.188,63.184,157.787C63.845,158.386,64.520,158.969,65.210,159.534C65.899,160.100,66.602,160.649,67.318,161.180C68.035,161.711,68.764,162.225,69.505,162.720C70.247,163.216,71.000,163.693,71.765,164.151C72.530,164.610,73.306,165.049,74.092,165.470C74.879,165.890,75.676,166.291,76.482,166.672C77.288,167.053,78.103,167.415,78.927,167.756C79.751,168.097,80.583,168.418,81.423,168.719C82.263,169.020,83.109,169.299,83.963,169.558C84.817,169.817,85.676,170.055,86.541,170.272C87.407,170.489,88.277,170.684,89.151,170.858C90.026,171.032,90.904,171.184,91.786,171.315C92.669,171.446,93.554,171.555,94.441,171.643C95.329,171.730,96.219,171.796,97.109,171.839C98.000,171.883,98.891,171.905,99.783,171.905L102.785,171.905C103.677,171.905,104.569,171.883,105.459,171.839C106.350,171.796,107.239,171.730,108.127,171.643C109.015,171.555,109.900,171.446,110.782,171.315C111.664,171.184,112.543,171.032,113.417,170.858C114.292,170.684,115.162,170.489,116.027,170.272C116.893,170.055,117.752,169.817,118.605,169.558C119.459,169.299,120.305,169.020,121.145,168.719C121.985,168.418,122.817,168.097,123.641,167.756C124.465,167.415,125.280,167.053,126.086,166.672C126.893,166.291,127.690,165.890,128.476,165.470C129.263,165.049,130.039,164.610,130.803,164.151C131.569,163.693,132.322,163.216,133.063,162.720C133.805,162.225,134.534,161.711,135.250,161.180C135.967,160.649,136.670,160.100,137.359,159.534C138.049,158.969,138.724,158.386,139.384,157.787C140.046,157.188,140.692,156.574,141.322,155.943C141.953,155.312,142.568,154.666,143.166,154.005C143.766,153.344,144.348,152.669,144.913,151.980C145.479,151.291,146.028,150.588,146.559,149.871C147.091,149.154,147.604,148.425,148.099,147.684C148.595,146.943,149.072,146.189,149.530,145.424C149.989,144.659,150.429,143.884,150.849,143.097C151.269,142.310,151.670,141.514,152.051,140.707C152.433,139.901,152.795,139.086,153.136,138.262C153.477,137.438,153.798,136.606,154.098,135.766C154.399,134.926,154.679,134.079,154.937,133.226C155.197,132.373,155.435,131.513,155.651,130.648C155.868,129.783,156.063,128.913,156.237,128.038C156.411,127.163,156.564,126.285,156.694,125.403C156.825,124.520,156.934,123.635,157.022,122.748C157.110,121.860,157.175,120.971,157.218,120.080C157.262,119.189,157.284,118.298,157.284,117.406L157.284,94.183C157.284,90.569,156.928,86.990,156.216,83.446C156.262,84.353,156.284,85.261,156.284,86.170L156.284,109.393C156.284,110.284,156.262,111.176,156.218,112.067C156.175,112.958,156.110,113.847,156.022,114.734C155.934,115.622,155.825,116.507,155.694,117.389C155.564,118.272,155.411,119.150,155.237,120.025C155.063,120.900,154.868,121.770,154.651,122.635C154.435,123.500,154.197,124.360,153.937,125.213C153.679,126.066,153.399,126.913,153.098,127.753C152.798,128.592,152.477,129.424,152.136,130.248C151.795,131.072,151.433,131.887,151.051,132.694C150.670,133.500,150.269,134.296,149.849,135.083C149.429,135.870,148.989,136.646,148.530,137.411C148.072,138.176,147.595,138.929,147.099,139.671C146.604,140.412,146.091,141.141,145.559,141.858C145.028,142.574,144.479,143.277,143.913,143.966C143.348,144.656,142.766,145.331,142.166,145.992C141.568,146.653,140.953,147.298,140.322,147.929C139.692,148.560,139.046,149.175,138.384,149.774C137.724,150.373,137.049,150.955,136.359,151.521C135.670,152.087,134.967,152.636,134.250,153.167C133.534,153.698,132.805,154.212,132.063,154.707C131.322,155.202,130.569,155.679,129.803,156.138C129.039,156.597,128.263,157.036,127.476,157.456C126.690,157.877,125.893,158.278,125.086,158.659C124.280,159.040,123.465,159.402,122.641,159.743C121.817,160.084,120.985,160.405,120.145,160.706C119.305,161.006,118.459,161.286,117.605,161.545C116.752,161.804,115.893,162.041,115.027,162.258C114.162,162.475,113.292,162.670,112.417,162.844C111.543,163.018,110.664,163.171,109.782,163.302C108.900,163.433,108.015,163.542,107.127,163.629C106.239,163.716,105.350,163.782,104.459,163.826C103.569,163.870,102.677,163.892,101.785,163.892L100.783,163.892C99.891,163.892,99.000,163.870,98.109,163.826C97.219,163.782,96.329,163.716,95.441,163.629C94.554,163.542,93.669,163.433,92.786,163.302C91.904,163.171,91.026,163.018,90.151,162.844C89.277,162.670,88.407,162.475,87.541,162.258C86.676,162.041,85.817,161.804,84.963,161.545C84.109,161.286,83.263,161.006,82.423,160.706C81.583,160.405,80.751,160.084,79.927,159.743C79.103,159.402,78.288,159.040,77.482,158.659C76.676,158.278,75.879,157.877,75.092,157.456C74.306,157.036,73.530,156.597,72.765,156.138C72.000,155.679,71.247,155.202,70.505,154.707C69.764,154.212,69.035,153.698,68.318,153.167C67.602,152.636,66.899,152.087,66.210,151.521C65.520,150.955,64.845,150.373,64.184,149.774C63.523,149.175,62.878,148.560,62.247,147.929C61.616,147.298,61.001,146.653,60.402,145.992C59.803,145.331,59.221,144.656,58.655,143.966C58.089,143.277,57.541,142.574,57.009,141.858C56.478,141.141,55.965,140.412,55.469,139.671C54.974,138.929,54.497,138.176,54.038,137.411C53.580,136.646,53.140,135.870,52.720,135.083C52.299,134.296,51.898,133.500,51.517,132.694C51.136,131.887,50.774,131.072,50.433,130.248C50.092,129.424,49.771,128.592,49.470,127.753C49.170,126.913,48.890,126.066,48.631,125.213C48.372,124.360,48.134,123.500,47.918,122.635C47.701,121.770,47.506,120.900,47.332,120.025C47.158,119.150,47.005,118.272,46.874,117.389C46.744,116.507,46.634,115.622,46.547,114.734C46.459,113.847,46.394,112.958,46.350,112.067C46.306,111.176,46.284,110.284,46.284,109.393L46.284,86.170C46.284,85.261,46.307,84.353,46.353,83.446ZZZZZZZM155.326,173.033C150.936,179.935,137.421,186.691,120.682,189.642C103.940,192.594,88.927,190.867,82.443,185.880C82.465,186.144,82.499,186.406,82.545,186.668C84.255,196.363,101.972,201.343,122.117,197.791C142.262,194.238,157.208,183.499,155.498,173.804C155.452,173.544,155.395,173.286,155.326,173.033ZZZZZZZM166.924,188.414C164.278,198.009,152.047,208.621,135.369,214.691C118.684,220.764,102.486,220.494,94.295,214.837C94.393,215.179,94.503,215.518,94.625,215.855C99.152,228.291,119.095,232.450,139.169,225.144C159.243,217.838,171.847,201.833,167.321,189.396C167.199,189.063,167.067,188.735,166.924,188.414ZZZZZZZ" fill-rule="evenodd" style="fill: rgb(0, 0, 0); fill-opacity: 0.144706;" class="fills"/></g></svg>