<svg width="146" xmlns="http://www.w3.org/2000/svg" height="158" fill="none"><g class="fills"><rect rx="0" ry="0" width="146" height="158" class="frame-background"/></g><g class="frame-children"><path d="M0 66.656c0-20.46 17.5-37.031 39.107-37.031h2.607c5.769 0 10.429 4.413 10.429 9.875s-4.66 9.875-10.429 9.875h-2.607c-10.07 0-18.25 7.746-18.25 17.281v2.469h20.857c11.504 0 20.857 8.857 20.857 19.75v19.75c0 10.893-9.353 19.75-20.857 19.75H20.857C9.353 128.375 0 119.518 0 108.625V66.656Zm83.429 0c0-20.46 17.5-37.031 39.107-37.031h2.607c5.768 0 10.428 4.413 10.428 9.875s-4.66 9.875-10.428 9.875h-2.607c-10.07 0-18.25 7.746-18.25 17.281v2.469h20.857c11.504 0 20.857 8.857 20.857 19.75v19.75c0 10.893-9.353 19.75-20.857 19.75h-20.857c-11.504 0-20.857-8.857-20.857-19.75V66.656Z" class="fills" style="fill: rgb(0, 0, 0);"/></g></svg>