<svg width="24" xmlns="http://www.w3.org/2000/svg" height="24" fill="none"><g class="fills"><rect rx="0" ry="0" width="24" height="24" transform="matrix(1.000000, 0.000000, 0.000000, 1.000000, 0.000000, 0.000000)" class="frame-background"/></g><g class="frame-children"><path d="M4.900,16.100C1.000,12.200,1.000,5.800,4.900,1.900" style="fill: none;" class="fills"/><g stroke-linecap="round" stroke-linejoin="round" class="strokes"><path d="M4.900,16.100C1.000,12.200,1.000,5.800,4.900,1.900" style="fill: none; stroke-width: 2; stroke: rgb(0, 0, 0); stroke-opacity: 1;" class="stroke-shape"/></g><path d="M7.800,4.700C5.848,6.722,5.519,9.812,7.000,12.200" style="fill: none;" class="fills"/><g stroke-linecap="round" stroke-linejoin="round" class="strokes"><path d="M7.800,4.700C5.848,6.722,5.519,9.812,7.000,12.200" style="fill: none; stroke-width: 2; stroke: rgb(0, 0, 0); stroke-opacity: 1;" class="stroke-shape"/></g><ellipse cy="9" transform="matrix(1.000000, 0.000000, 0.000000, 1.000000, 0.000000, 0.000000)" style="fill: none;" ry="2" rx="2" cx="12" class="fills"/><g stroke-linecap="round" stroke-linejoin="round" class="strokes"><ellipse cx="12" cy="9" rx="2" ry="2" transform="matrix(1.000000, 0.000000, 0.000000, 1.000000, 0.000000, 0.000000)" style="fill: none; stroke-width: 2; stroke: rgb(0, 0, 0); stroke-opacity: 1;" class="stroke-shape"/></g><path d="M16.200,4.800C18.200,6.800,18.460,9.910,17.000,12.270" style="fill: none;" class="fills"/><g stroke-linecap="round" stroke-linejoin="round" class="strokes"><path d="M16.200,4.800C18.200,6.800,18.460,9.910,17.000,12.270" style="fill: none; stroke-width: 2; stroke: rgb(0, 0, 0); stroke-opacity: 1;" class="stroke-shape"/></g><path d="M19.100,1.900C20.972,3.768,22.024,6.305,22.024,8.950C22.024,11.595,20.972,14.132,19.100,16.000" style="fill: none;" class="fills"/><g stroke-linecap="round" stroke-linejoin="round" class="strokes"><path d="M19.100,1.900C20.972,3.768,22.024,6.305,22.024,8.950C22.024,11.595,20.972,14.132,19.100,16.000" style="fill: none; stroke-width: 2; stroke: rgb(0, 0, 0); stroke-opacity: 1;" class="stroke-shape"/></g><path d="M9.500,18.000L14.500,18.000" style="fill: none;" class="fills"/><g stroke-linecap="round" stroke-linejoin="round" class="strokes"><path d="M9.500,18.000L14.500,18.000" style="fill: none; stroke-width: 2; stroke: rgb(0, 0, 0); stroke-opacity: 1;" class="stroke-shape"/></g><path d="M8.000,22.000L12.000,11.000L16.000,22.000" style="fill: none;" class="fills"/><g stroke-linecap="round" stroke-linejoin="round" class="strokes"><path d="M8.000,22.000L12.000,11.000L16.000,22.000" style="fill: none; stroke-width: 2; stroke: rgb(0, 0, 0); stroke-opacity: 1;" class="stroke-shape"/></g></g></svg>