<svg width="210" xmlns="http://www.w3.org/2000/svg" height="264" fill="none"><g class="fills"><rect rx="0" ry="0" x="65.929" y="88.433" width="68.142" height="105.134" transform="matrix(2.935063, 0.000001, -0.000001, 2.320856, -193.506388, -186.240814)" class="frame-background"/></g><g class="frame-children"><path d="M44.000,74.999C44.000,74.083,44.023,73.167,44.068,72.251C44.113,71.336,44.180,70.422,44.270,69.510C44.360,68.598,44.472,67.689,44.606,66.782C44.741,65.876,44.897,64.973,45.076,64.074C45.255,63.175,45.456,62.281,45.678,61.392C45.901,60.503,46.145,59.620,46.411,58.743C46.677,57.866,46.965,56.996,47.274,56.134C47.582,55.271,47.912,54.416,48.263,53.569C48.613,52.722,48.985,51.885,49.377,51.056C49.768,50.228,50.180,49.410,50.612,48.601C51.044,47.793,51.496,46.996,51.967,46.210C52.438,45.424,52.928,44.650,53.438,43.888C53.947,43.126,54.474,42.377,55.020,41.640C55.566,40.904,56.130,40.182,56.711,39.474C57.293,38.765,57.891,38.072,58.507,37.392C59.122,36.713,59.754,36.050,60.402,35.402C61.050,34.754,61.713,34.122,62.392,33.507C63.071,32.891,63.765,32.293,64.474,31.711C65.182,31.130,65.904,30.566,66.640,30.020C67.377,29.474,68.126,28.947,68.888,28.438C69.650,27.928,70.424,27.438,71.210,26.967C71.996,26.496,72.793,26.044,73.601,25.612C74.410,25.180,75.228,24.768,76.056,24.377C76.885,23.985,77.722,23.613,78.569,23.263C79.416,22.912,80.271,22.582,81.134,22.274C81.996,21.965,82.866,21.677,83.743,21.411C84.620,21.145,85.503,20.901,86.392,20.678C87.281,20.456,88.175,20.255,89.074,20.076C89.973,19.897,90.876,19.741,91.782,19.606C92.689,19.472,93.598,19.360,94.510,19.270C95.422,19.180,96.336,19.112,97.251,19.067C98.167,19.023,99.083,19.000,99.999,19.000L100.001,19.000C100.918,19.000,101.834,19.023,102.749,19.067C103.664,19.112,104.578,19.180,105.490,19.270C106.402,19.360,107.311,19.472,108.218,19.606C109.125,19.741,110.027,19.897,110.926,20.076C111.825,20.255,112.719,20.456,113.608,20.678C114.497,20.901,115.380,21.145,116.257,21.411C117.134,21.677,118.003,21.965,118.866,22.274C119.729,22.582,120.584,22.912,121.431,23.263C122.278,23.613,123.115,23.985,123.944,24.377C124.772,24.768,125.590,25.180,126.399,25.612C127.207,26.044,128.004,26.496,128.790,26.967C129.576,27.438,130.350,27.928,131.112,28.438C131.874,28.947,132.623,29.474,133.360,30.020C134.096,30.566,134.818,31.130,135.526,31.711C136.235,32.293,136.929,32.891,137.608,33.507C138.287,34.122,138.950,34.754,139.598,35.402C140.246,36.050,140.878,36.713,141.494,37.392C142.109,38.072,142.708,38.765,143.289,39.474C143.870,40.182,144.434,40.904,144.980,41.640C145.526,42.377,146.053,43.126,146.562,43.888C147.071,44.650,147.562,45.424,148.033,46.210C148.504,46.996,148.956,47.793,149.388,48.601C149.820,49.410,150.232,50.228,150.623,51.056C151.015,51.885,151.386,52.722,151.737,53.569C152.088,54.416,152.418,55.271,152.727,56.134C153.036,56.996,153.323,57.866,153.589,58.743C153.855,59.620,154.099,60.503,154.322,61.392C154.545,62.281,154.745,63.175,154.924,64.074C155.103,64.973,155.259,65.876,155.394,66.782C155.529,67.689,155.641,68.598,155.730,69.510C155.820,70.422,155.888,71.336,155.933,72.251C155.978,73.167,156.000,74.083,156.000,74.999L156.000,81.168C156.173,81.197,156.345,81.230,156.517,81.267C156.688,81.304,156.859,81.344,157.029,81.388C157.198,81.433,157.367,81.481,157.535,81.532C157.702,81.584,157.869,81.639,158.034,81.698C158.199,81.757,158.363,81.820,158.526,81.886C158.689,81.952,158.850,82.022,159.009,82.095C159.168,82.168,159.326,82.245,159.482,82.325C159.638,82.405,159.792,82.489,159.945,82.576C160.097,82.662,160.247,82.753,160.396,82.846C160.545,82.940,160.691,83.036,160.835,83.136C160.979,83.236,161.121,83.339,161.261,83.445C161.400,83.552,161.538,83.661,161.673,83.773C161.808,83.885,161.940,84.000,162.070,84.118C162.200,84.236,162.327,84.357,162.451,84.480C162.576,84.604,162.698,84.730,162.817,84.859C162.936,84.988,163.052,85.119,163.165,85.253C163.278,85.387,163.389,85.524,163.496,85.663C163.603,85.801,163.707,85.943,163.808,86.086C163.909,86.229,164.007,86.375,164.102,86.523C164.197,86.670,164.288,86.820,164.376,86.972C164.464,87.123,164.549,87.277,164.631,87.432C164.712,87.588,164.790,87.745,164.864,87.904C164.939,88.063,165.010,88.223,165.077,88.385C165.145,88.547,165.209,88.710,165.269,88.875C165.329,89.040,165.386,89.206,165.439,89.373C165.492,89.540,165.542,89.709,165.587,89.878C165.632,90.047,165.674,90.218,165.713,90.389C165.751,90.560,165.785,90.732,165.816,90.905C165.847,91.078,165.873,91.251,165.896,91.425C165.919,91.599,165.939,91.773,165.954,91.948C165.969,92.123,165.981,92.298,165.988,92.473C165.996,92.648,166.000,92.824,166.000,92.999L166.000,107.001C166.000,107.180,165.996,107.358,165.988,107.537C165.980,107.715,165.968,107.894,165.952,108.072C165.936,108.250,165.916,108.427,165.892,108.604C165.869,108.781,165.841,108.958,165.809,109.134C165.777,109.310,165.741,109.485,165.702,109.659C165.663,109.833,165.619,110.007,165.572,110.179C165.525,110.351,165.473,110.522,165.418,110.692C165.363,110.862,165.305,111.031,165.242,111.199C165.179,111.366,165.113,111.532,165.043,111.696C164.973,111.861,164.899,112.024,164.822,112.185C164.745,112.346,164.665,112.505,164.580,112.663C164.496,112.820,164.408,112.976,164.317,113.130C164.226,113.283,164.131,113.435,164.033,113.584C163.935,113.734,163.834,113.881,163.729,114.026C163.624,114.171,163.516,114.313,163.405,114.453C163.294,114.593,163.180,114.731,163.063,114.866C162.946,115.001,162.826,115.133,162.703,115.263C162.580,115.392,162.454,115.519,162.325,115.643C162.196,115.767,162.065,115.888,161.931,116.006C161.797,116.124,161.660,116.239,161.521,116.351C161.382,116.463,161.240,116.572,161.096,116.678C160.952,116.783,160.806,116.886,160.657,116.985C160.508,117.084,160.357,117.180,160.204,117.272C160.051,117.365,159.896,117.453,159.739,117.539C159.582,117.624,159.424,117.706,159.263,117.785C159.102,117.863,158.940,117.938,158.776,118.009C158.612,118.080,158.447,118.147,158.280,118.211C158.113,118.275,157.945,118.335,157.775,118.391C157.606,118.447,157.435,118.500,157.263,118.548C157.091,118.597,156.918,118.642,156.744,118.682C156.570,118.723,156.395,118.760,156.219,118.793C156.044,118.826,155.867,118.855,155.690,118.881C155.628,119.474,155.556,120.066,155.474,120.657C155.393,121.248,155.302,121.838,155.201,122.426C155.101,123.014,154.991,123.600,154.872,124.185C154.753,124.770,154.624,125.352,154.486,125.932C154.349,126.513,154.202,127.091,154.045,127.667C153.889,128.243,153.724,128.816,153.549,129.386C153.374,129.957,153.191,130.524,152.998,131.089C152.805,131.654,152.604,132.215,152.393,132.773C152.182,133.332,151.963,133.886,151.735,134.437C151.506,134.988,151.269,135.536,151.023,136.079C150.777,136.623,150.523,137.163,150.260,137.698C149.997,138.233,149.725,138.764,149.445,139.291C149.165,139.818,148.877,140.341,148.580,140.858C148.283,141.375,147.978,141.888,147.665,142.396C147.352,142.904,147.030,143.407,146.701,143.904C146.372,144.401,146.035,144.894,145.690,145.381C145.345,145.868,144.992,146.349,144.632,146.824C144.271,147.299,143.903,147.769,143.528,148.233C143.153,148.696,142.770,149.154,142.380,149.606C141.990,150.057,141.593,150.502,141.189,150.941C140.784,151.380,140.373,151.812,139.955,152.238C139.537,152.664,139.112,153.083,138.681,153.495C138.250,153.907,137.812,154.312,137.367,154.710C136.923,155.108,136.473,155.499,136.016,155.883C135.559,156.266,135.096,156.643,134.627,157.012C134.158,157.381,133.684,157.742,133.203,158.096C132.722,158.449,132.236,158.795,131.745,159.133C131.254,159.472,130.757,159.802,130.255,160.124C129.753,160.447,129.246,160.761,128.733,161.067C128.221,161.373,127.704,161.671,127.183,161.961C126.661,162.250,126.135,162.531,125.605,162.804C125.074,163.077,124.539,163.341,124.000,163.597L124.000,182.000L159.501,182.000C160.164,182.000,160.826,182.016,161.488,182.049C162.150,182.082,162.811,182.130,163.471,182.195C164.130,182.260,164.788,182.341,165.443,182.438C166.099,182.535,166.752,182.649,167.402,182.778C168.052,182.907,168.698,183.053,169.341,183.214C169.984,183.375,170.623,183.551,171.257,183.744C171.892,183.936,172.521,184.144,173.145,184.367C173.769,184.590,174.387,184.829,174.999,185.083C175.612,185.336,176.218,185.605,176.817,185.888C177.416,186.171,178.007,186.469,178.592,186.782C179.177,187.095,179.753,187.421,180.322,187.762C180.890,188.103,181.450,188.457,182.001,188.825C182.552,189.194,183.094,189.575,183.626,189.970C184.159,190.365,184.681,190.772,185.193,191.193C185.706,191.614,186.207,192.046,186.698,192.491C187.189,192.936,187.669,193.393,188.138,193.862C188.607,194.331,189.064,194.810,189.509,195.301C189.954,195.792,190.386,196.294,190.807,196.807C191.228,197.319,191.635,197.841,192.030,198.374C192.425,198.906,192.806,199.448,193.175,199.999C193.543,200.550,193.897,201.110,194.238,201.678C194.579,202.247,194.905,202.823,195.218,203.408C195.531,203.993,195.829,204.584,196.112,205.183C196.395,205.782,196.664,206.388,196.917,207.001C197.171,207.613,197.410,208.231,197.633,208.855C197.856,209.479,198.064,210.108,198.256,210.743C198.449,211.377,198.625,212.016,198.786,212.659C198.947,213.302,199.093,213.948,199.222,214.598C199.351,215.248,199.465,215.901,199.562,216.557C199.659,217.212,199.740,217.870,199.805,218.529C199.870,219.189,199.918,219.850,199.951,220.512C199.984,221.174,200.000,221.836,200.000,222.499L200.000,263.000L0.000,263.000L0.000,222.499C0.000,221.836,0.016,221.174,0.049,220.512C0.081,219.850,0.130,219.189,0.195,218.529C0.260,217.870,0.341,217.212,0.438,216.557C0.536,215.901,0.649,215.248,0.778,214.598C0.908,213.948,1.053,213.302,1.214,212.659C1.375,212.016,1.552,211.377,1.744,210.743C1.936,210.108,2.144,209.479,2.367,208.855C2.591,208.231,2.829,207.613,3.083,207.001C3.337,206.388,3.605,205.782,3.888,205.183C4.172,204.584,4.470,203.993,4.782,203.408C5.095,202.823,5.421,202.247,5.762,201.678C6.103,201.110,6.457,200.550,6.825,199.999C7.194,199.448,7.575,198.906,7.970,198.374C8.365,197.841,8.772,197.319,9.193,196.807C9.613,196.294,10.046,195.793,10.491,195.302C10.936,194.811,11.393,194.331,11.862,193.862C12.331,193.393,12.811,192.936,13.302,192.491C13.793,192.046,14.294,191.614,14.807,191.193C15.319,190.772,15.841,190.365,16.374,189.970C16.906,189.575,17.448,189.194,17.999,188.825C18.550,188.457,19.110,188.103,19.678,187.762C20.247,187.421,20.823,187.095,21.408,186.782C21.993,186.469,22.584,186.171,23.183,185.888C23.783,185.605,24.388,185.336,25.001,185.083C25.613,184.829,26.231,184.590,26.855,184.367C27.479,184.144,28.109,183.936,28.743,183.744C29.377,183.551,30.016,183.375,30.659,183.214C31.302,183.053,31.948,182.907,32.598,182.778C33.248,182.649,33.901,182.535,34.557,182.438C35.212,182.341,35.870,182.260,36.529,182.195C37.189,182.130,37.850,182.082,38.512,182.049C39.174,182.016,39.836,182.000,40.499,182.000L76.000,182.000L76.000,163.597C75.461,163.341,74.926,163.077,74.396,162.804C73.865,162.531,73.339,162.250,72.817,161.961C72.296,161.671,71.779,161.373,71.267,161.067C70.755,160.761,70.247,160.447,69.745,160.124C69.243,159.802,68.747,159.472,68.255,159.133C67.764,158.795,67.278,158.449,66.797,158.096C66.317,157.742,65.842,157.381,65.373,157.012C64.904,156.643,64.441,156.266,63.984,155.883C63.528,155.499,63.077,155.108,62.633,154.710C62.188,154.312,61.750,153.907,61.319,153.495C60.888,153.083,60.463,152.664,60.045,152.238C59.627,151.812,59.216,151.380,58.811,150.941C58.407,150.502,58.010,150.057,57.620,149.606C57.230,149.154,56.847,148.696,56.472,148.233C56.097,147.769,55.729,147.299,55.368,146.824C55.008,146.349,54.655,145.868,54.310,145.381C53.965,144.894,53.628,144.401,53.299,143.904C52.970,143.407,52.649,142.904,52.335,142.396C52.022,141.888,51.717,141.375,51.420,140.858C51.124,140.341,50.835,139.818,50.555,139.291C50.275,138.764,50.003,138.233,49.740,137.698C49.477,137.163,49.223,136.623,48.977,136.079C48.731,135.536,48.494,134.988,48.265,134.437C48.037,133.886,47.818,133.332,47.607,132.773C47.396,132.215,47.195,131.654,47.002,131.089C46.809,130.524,46.625,129.957,46.451,129.386C46.276,128.816,46.111,128.243,45.955,127.667C45.798,127.091,45.651,126.513,45.514,125.932C45.376,125.352,45.247,124.770,45.128,124.185C45.009,123.600,44.899,123.014,44.799,122.426C44.698,121.838,44.607,121.248,44.526,120.657C44.444,120.066,44.372,119.474,44.310,118.881C44.133,118.855,43.956,118.826,43.781,118.793C43.605,118.760,43.430,118.723,43.256,118.682C43.082,118.642,42.909,118.597,42.737,118.548C42.565,118.500,42.395,118.447,42.225,118.391C42.055,118.335,41.887,118.275,41.720,118.211C41.553,118.147,41.388,118.080,41.224,118.009C41.060,117.938,40.898,117.863,40.737,117.785C40.576,117.706,40.418,117.624,40.261,117.539C40.104,117.453,39.949,117.365,39.796,117.272C39.643,117.180,39.492,117.084,39.343,116.985C39.195,116.886,39.048,116.783,38.904,116.678C38.760,116.572,38.618,116.463,38.479,116.351C38.340,116.239,38.203,116.124,38.069,116.006C37.935,115.888,37.803,115.767,37.675,115.643C37.546,115.519,37.420,115.392,37.297,115.263C37.174,115.133,37.054,115.001,36.937,114.866C36.820,114.731,36.706,114.593,36.595,114.453C36.484,114.313,36.376,114.171,36.271,114.026C36.167,113.881,36.065,113.734,35.967,113.584C35.869,113.435,35.775,113.283,35.683,113.130C35.592,112.976,35.504,112.820,35.420,112.663C35.336,112.505,35.255,112.346,35.178,112.185C35.100,112.024,35.027,111.861,34.957,111.696C34.887,111.532,34.821,111.366,34.758,111.199C34.696,111.031,34.637,110.862,34.582,110.692C34.527,110.522,34.476,110.351,34.428,110.179C34.381,110.007,34.338,109.833,34.298,109.659C34.259,109.485,34.223,109.310,34.191,109.134C34.159,108.958,34.132,108.781,34.108,108.604C34.084,108.427,34.064,108.250,34.048,108.072C34.032,107.894,34.020,107.715,34.012,107.537C34.004,107.358,34.000,107.180,34.000,107.001L34.000,92.999C34.000,92.824,34.004,92.648,34.012,92.473C34.019,92.298,34.031,92.123,34.046,91.948C34.062,91.773,34.081,91.599,34.104,91.425C34.127,91.251,34.154,91.078,34.184,90.905C34.215,90.732,34.249,90.560,34.287,90.389C34.326,90.218,34.367,90.047,34.413,89.878C34.459,89.709,34.508,89.540,34.561,89.373C34.614,89.206,34.671,89.040,34.731,88.875C34.791,88.710,34.855,88.547,34.923,88.385C34.990,88.223,35.061,88.063,35.136,87.904C35.210,87.745,35.288,87.588,35.369,87.432C35.451,87.277,35.536,87.123,35.624,86.972C35.712,86.820,35.803,86.670,35.898,86.523C35.993,86.375,36.091,86.229,36.192,86.086C36.293,85.943,36.397,85.801,36.504,85.663C36.611,85.524,36.722,85.387,36.835,85.253C36.948,85.119,37.064,84.988,37.183,84.859C37.302,84.730,37.424,84.604,37.549,84.480C37.673,84.357,37.801,84.236,37.930,84.118C38.060,84.000,38.193,83.885,38.327,83.773C38.462,83.661,38.600,83.552,38.739,83.445C38.879,83.339,39.021,83.236,39.165,83.136C39.309,83.036,39.456,82.940,39.604,82.846C39.753,82.753,39.903,82.662,40.055,82.576C40.208,82.489,40.362,82.405,40.518,82.325C40.674,82.245,40.832,82.168,40.991,82.095C41.151,82.022,41.312,81.952,41.474,81.886C41.637,81.820,41.801,81.757,41.966,81.698C42.131,81.639,42.298,81.584,42.465,81.532C42.633,81.481,42.802,81.433,42.971,81.388C43.141,81.344,43.312,81.304,43.483,81.267C43.655,81.230,43.827,81.197,44.000,81.168L44.000,74.999ZL44.000,74.999ZL44.000,74.999ZL44.000,74.999ZL44.000,74.999ZL44.000,74.999ZL44.000,74.999Z" fill-rule="evenodd" style="fill: rgb(231, 178, 168); fill-opacity: 1;" class="fills"/><path d="M44.000,113.000L44.000,121.000C44.000,121.917,44.023,122.833,44.068,123.748C44.113,124.663,44.180,125.577,44.270,126.489C44.360,127.401,44.472,128.310,44.606,129.217C44.741,130.124,44.897,131.026,45.076,131.925C45.255,132.824,45.456,133.718,45.678,134.607C45.901,135.496,46.145,136.379,46.411,137.256C46.677,138.133,46.965,139.002,47.274,139.865C47.582,140.728,47.912,141.583,48.263,142.430C48.613,143.277,48.985,144.114,49.377,144.943C49.768,145.771,50.180,146.589,50.612,147.398C51.044,148.206,51.496,149.003,51.967,149.789C52.438,150.575,52.928,151.349,53.438,152.111C53.947,152.873,54.474,153.622,55.020,154.359C55.566,155.095,56.130,155.817,56.711,156.525C57.293,157.234,57.891,157.928,58.507,158.607C59.122,159.286,59.754,159.949,60.402,160.597C61.050,161.245,61.713,161.877,62.392,162.493C63.071,163.108,63.765,163.707,64.474,164.288C65.182,164.869,65.904,165.433,66.640,165.979C67.377,166.525,68.126,167.052,68.888,167.561C69.650,168.070,70.424,168.561,71.210,169.032C71.996,169.503,72.793,169.955,73.601,170.387C74.410,170.819,75.228,171.231,76.056,171.622C76.885,172.014,77.722,172.385,78.569,172.736C79.416,173.087,80.271,173.417,81.134,173.726C81.996,174.035,82.866,174.322,83.743,174.588C84.620,174.854,85.503,175.098,86.392,175.321C87.281,175.544,88.175,175.744,89.074,175.923C89.973,176.102,90.876,176.258,91.782,176.393C92.689,176.528,93.598,176.640,94.510,176.729C95.422,176.819,96.336,176.887,97.251,176.932C98.167,176.977,99.083,176.999,99.999,176.999L100.001,176.999C100.918,176.999,101.834,176.977,102.749,176.932C103.664,176.887,104.578,176.819,105.490,176.729C106.402,176.640,107.311,176.528,108.218,176.393C109.125,176.258,110.027,176.102,110.926,175.923C111.825,175.744,112.719,175.544,113.608,175.321C114.497,175.098,115.380,174.854,116.257,174.588C117.134,174.322,118.003,174.035,118.866,173.726C119.729,173.417,120.584,173.087,121.431,172.736C122.278,172.385,123.115,172.014,123.944,171.622C124.772,171.231,125.590,170.819,126.399,170.387C127.207,169.955,128.004,169.503,128.790,169.032C129.576,168.561,130.350,168.070,131.112,167.561C131.874,167.052,132.623,166.525,133.360,165.979C134.096,165.433,134.818,164.869,135.526,164.288C136.235,163.707,136.929,163.108,137.608,162.493C138.287,161.877,138.950,161.245,139.598,160.597C140.246,159.949,140.878,159.286,141.494,158.607C142.109,157.928,142.708,157.234,143.289,156.525C143.870,155.817,144.434,155.095,144.980,154.359C145.526,153.622,146.053,152.873,146.562,152.111C147.071,151.349,147.562,150.575,148.033,149.789C148.504,149.003,148.956,148.206,149.388,147.398C149.820,146.589,150.232,145.771,150.623,144.943C151.015,144.114,151.386,143.277,151.737,142.430C152.088,141.583,152.418,140.728,152.727,139.865C153.036,139.002,153.323,138.133,153.589,137.256C153.855,136.379,154.099,135.496,154.322,134.607C154.545,133.718,154.745,132.824,154.924,131.925C155.103,131.026,155.259,130.124,155.394,129.217C155.529,128.310,155.641,127.401,155.730,126.489C155.820,125.577,155.888,124.663,155.933,123.748C155.978,122.833,156.000,121.917,156.000,121.000L156.000,113.000C156.000,113.917,155.978,114.832,155.933,115.748C155.888,116.663,155.820,117.577,155.730,118.489C155.641,119.401,155.529,120.310,155.394,121.217C155.259,122.124,155.103,123.026,154.924,123.925C154.745,124.824,154.545,125.718,154.322,126.607C154.099,127.496,153.855,128.379,153.589,129.256C153.323,130.133,153.036,131.002,152.727,131.865C152.418,132.728,152.088,133.583,151.737,134.430C151.386,135.277,151.015,136.114,150.623,136.943C150.232,137.771,149.820,138.589,149.388,139.398C148.956,140.206,148.504,141.003,148.033,141.789C147.562,142.575,147.071,143.349,146.562,144.111C146.053,144.873,145.526,145.622,144.980,146.359C144.434,147.095,143.870,147.817,143.289,148.525C142.708,149.234,142.109,149.928,141.494,150.607C140.878,151.286,140.246,151.949,139.598,152.597C138.950,153.245,138.287,153.877,137.608,154.493C136.929,155.108,136.235,155.707,135.526,156.288C134.818,156.869,134.096,157.433,133.360,157.979C132.623,158.525,131.874,159.052,131.112,159.561C130.350,160.070,129.576,160.561,128.790,161.032C128.004,161.503,127.207,161.955,126.399,162.387C125.590,162.819,124.772,163.231,123.944,163.622C123.115,164.014,122.278,164.385,121.431,164.736C120.584,165.087,119.729,165.417,118.866,165.726C118.003,166.035,117.134,166.322,116.257,166.588C115.380,166.854,114.497,167.098,113.608,167.321C112.719,167.544,111.825,167.744,110.926,167.923C110.027,168.102,109.125,168.258,108.218,168.393C107.311,168.528,106.402,168.640,105.490,168.729C104.578,168.819,103.664,168.887,102.749,168.932C101.834,168.977,100.918,168.999,100.001,168.999L99.999,168.999C99.083,168.999,98.167,168.977,97.251,168.932C96.336,168.887,95.422,168.819,94.510,168.729C93.598,168.640,92.689,168.528,91.782,168.393C90.876,168.258,89.973,168.102,89.074,167.923C88.175,167.744,87.281,167.544,86.392,167.321C85.503,167.098,84.620,166.854,83.743,166.588C82.866,166.322,81.996,166.035,81.134,165.726C80.271,165.417,79.416,165.087,78.569,164.736C77.722,164.385,76.885,164.014,76.056,163.622C75.228,163.231,74.410,162.819,73.601,162.387C72.793,161.955,71.996,161.503,71.210,161.032C70.424,160.561,69.650,160.070,68.888,159.561C68.126,159.052,67.377,158.525,66.640,157.979C65.904,157.433,65.182,156.869,64.474,156.288C63.765,155.707,63.071,155.108,62.392,154.493C61.713,153.877,61.050,153.245,60.402,152.597C59.754,151.949,59.122,151.286,58.507,150.607C57.891,149.928,57.293,149.234,56.711,148.525C56.130,147.817,55.566,147.095,55.020,146.359C54.474,145.622,53.947,144.873,53.438,144.111C52.928,143.349,52.438,142.575,51.967,141.789C51.496,141.003,51.044,140.206,50.612,139.398C50.180,138.589,49.768,137.771,49.377,136.943C48.985,136.114,48.613,135.277,48.263,134.430C47.912,133.583,47.582,132.728,47.274,131.865C46.965,131.002,46.677,130.133,46.411,129.256C46.145,128.379,45.901,127.496,45.678,126.607C45.456,125.718,45.255,124.824,45.076,123.925C44.897,123.026,44.741,122.124,44.606,121.217C44.472,120.310,44.360,119.401,44.270,118.489C44.180,117.577,44.113,116.663,44.068,115.748C44.023,114.832,44.000,113.917,44.000,113.000ZZZZZZZ" fill-rule="evenodd" style="fill: rgb(0, 0, 0); fill-opacity: 0.101961;" class="fills"/></g><defs><rect width="112" height="44" id="a"/></defs><g class="fills"><rect width="64" height="12" class="frame-background" x="68" transform="matrix(1.000000, 0.000000, 0.000000, 1.000000, 0.000000, 0.000000)" ry="0" rx="0" y="91" clip-path="url(#-clip_7)"/></g><g class="frame-children"><path d="M74.000,103.000C77.314,103.000,80.000,100.314,80.000,97.000C80.000,93.686,77.314,91.000,74.000,91.000C70.686,91.000,68.000,93.686,68.000,97.000C68.000,100.314,70.686,103.000,74.000,103.000ZZZZZZZ" fill-rule="evenodd" style="fill: rgb(0, 0, 0); fill-opacity: 0.6;" class="fills"/><path d="M126.000,103.000C129.314,103.000,132.000,100.314,132.000,97.000C132.000,93.686,129.314,91.000,126.000,91.000C122.686,91.000,120.000,93.686,120.000,97.000C120.000,100.314,122.686,103.000,126.000,103.000ZZZZZZZ" fill-rule="evenodd" style="fill: rgb(0, 0, 0); fill-opacity: 0.6;" class="fills"/></g><defs><rect width="264" height="110" id="b"/></defs><g class="fills"><rect width="200" height="96.929" class="frame-background" transform="matrix(1.000000, 0.000000, 0.000000, 1.000000, 0.000000, 0.000000)" ry="0" rx="0" y="167" clip-path="url(#-clip_2)"/></g><g class="frame-children"><path d="M76.000,167.000C60.701,168.712,48.404,172.954,44.963,182.929L40.499,182.929C39.836,182.929,39.174,182.945,38.512,182.977C37.850,183.010,37.189,183.059,36.530,183.124C35.870,183.189,35.212,183.270,34.557,183.367C33.901,183.464,33.248,183.577,32.598,183.707C31.948,183.836,31.302,183.981,30.659,184.142C30.016,184.303,29.377,184.480,28.743,184.672C28.109,184.865,27.479,185.073,26.856,185.296C26.231,185.519,25.613,185.758,25.001,186.011C24.389,186.265,23.783,186.534,23.184,186.817C22.584,187.100,21.993,187.398,21.408,187.711C20.823,188.023,20.247,188.350,19.678,188.690C19.110,189.031,18.550,189.386,17.999,189.754C17.448,190.122,16.906,190.504,16.374,190.898C15.841,191.293,15.319,191.701,14.807,192.121C14.294,192.542,13.793,192.975,13.302,193.420C12.811,193.865,12.331,194.322,11.862,194.790C11.393,195.259,10.936,195.739,10.491,196.230C10.046,196.721,9.613,197.223,9.193,197.735C8.772,198.248,8.365,198.770,7.970,199.302C7.575,199.835,7.194,200.377,6.825,200.928C6.457,201.479,6.103,202.039,5.762,202.607C5.421,203.176,5.095,203.752,4.782,204.337C4.470,204.921,4.172,205.513,3.888,206.112C3.605,206.711,3.336,207.317,3.083,207.929C2.829,208.542,2.591,209.160,2.367,209.784C2.144,210.408,1.936,211.037,1.744,211.671C1.552,212.306,1.375,212.944,1.214,213.587C1.053,214.230,0.907,214.877,0.778,215.527C0.649,216.177,0.536,216.830,0.438,217.485C0.341,218.141,0.260,218.799,0.195,219.458C0.130,220.118,0.081,220.779,0.049,221.441C0.016,222.103,0.000,222.765,0.000,223.428L0.000,263.929L200.000,263.929L200.000,223.428C200.000,222.765,199.984,222.103,199.951,221.441C199.918,220.779,199.870,220.118,199.805,219.458C199.740,218.799,199.659,218.141,199.562,217.485C199.465,216.830,199.351,216.177,199.222,215.527C199.093,214.877,198.947,214.230,198.786,213.587C198.625,212.944,198.449,212.306,198.256,211.671C198.063,211.037,197.856,210.408,197.633,209.784C197.410,209.160,197.171,208.542,196.917,207.929C196.664,207.317,196.395,206.711,196.112,206.112C195.829,205.513,195.531,204.921,195.218,204.337C194.905,203.752,194.579,203.176,194.238,202.607C193.897,202.039,193.543,201.479,193.175,200.928C192.806,200.377,192.425,199.835,192.030,199.302C191.635,198.770,191.228,198.248,190.807,197.735C190.386,197.223,189.954,196.721,189.509,196.230C189.064,195.739,188.607,195.259,188.138,194.790C187.669,194.322,187.189,193.865,186.698,193.420C186.207,192.975,185.706,192.542,185.193,192.121C184.681,191.701,184.159,191.293,183.626,190.898C183.094,190.504,182.552,190.122,182.001,189.754C181.450,189.386,180.890,189.031,180.321,188.690C179.753,188.350,179.177,188.023,178.592,187.711C178.007,187.398,177.415,187.100,176.816,186.817C176.217,186.534,175.612,186.265,174.999,186.011C174.387,185.758,173.769,185.519,173.145,185.296C172.520,185.073,171.891,184.865,171.257,184.672C170.623,184.480,169.984,184.303,169.341,184.142C168.698,183.981,168.052,183.836,167.402,183.707C166.752,183.577,166.099,183.464,165.443,183.367C164.788,183.270,164.130,183.189,163.470,183.124C162.811,183.059,162.150,183.010,161.488,182.977C160.826,182.945,160.164,182.929,159.501,182.929L155.037,182.929C151.596,172.954,139.299,168.712,124.000,167.000L124.000,185.930C124.000,186.323,123.990,186.715,123.971,187.108C123.952,187.500,123.923,187.892,123.884,188.282C123.846,188.673,123.798,189.063,123.740,189.451C123.683,189.840,123.616,190.227,123.539,190.612C123.462,190.997,123.376,191.380,123.281,191.761C123.186,192.142,123.081,192.521,122.967,192.897C122.853,193.272,122.730,193.645,122.597,194.015C122.465,194.385,122.324,194.751,122.173,195.114C122.023,195.477,121.864,195.836,121.696,196.191C121.528,196.546,121.351,196.897,121.166,197.243C120.981,197.589,120.787,197.931,120.586,198.268C120.384,198.605,120.174,198.937,119.955,199.263C119.737,199.590,119.511,199.911,119.277,200.226C119.043,200.542,118.801,200.851,118.552,201.155C118.303,201.458,118.047,201.756,117.783,202.047C117.519,202.338,117.248,202.622,116.971,202.900C116.693,203.178,116.409,203.448,116.118,203.712C115.827,203.976,115.529,204.232,115.226,204.482C114.922,204.731,114.612,204.972,114.297,205.206C113.982,205.440,113.661,205.666,113.334,205.884C113.007,206.103,112.676,206.313,112.339,206.515C112.002,206.717,111.661,206.910,111.314,207.095C110.967,207.280,110.617,207.457,110.262,207.625C109.907,207.793,109.548,207.952,109.185,208.102C108.822,208.253,108.456,208.394,108.086,208.526C107.716,208.659,107.343,208.782,106.968,208.896C106.592,209.010,106.213,209.114,105.832,209.210C105.451,209.305,105.068,209.391,104.683,209.468C104.298,209.545,103.911,209.612,103.522,209.669C103.134,209.727,102.744,209.775,102.353,209.813C101.962,209.852,101.571,209.881,101.179,209.900C100.786,209.919,100.394,209.929,100.001,209.929L99.999,209.929C99.606,209.929,99.214,209.919,98.821,209.900C98.429,209.881,98.038,209.852,97.647,209.813C97.256,209.775,96.866,209.727,96.478,209.669C96.089,209.612,95.702,209.545,95.317,209.468C94.932,209.391,94.549,209.305,94.168,209.210C93.787,209.114,93.408,209.010,93.032,208.896C92.657,208.782,92.284,208.659,91.914,208.526C91.544,208.394,91.178,208.253,90.815,208.102C90.452,207.952,90.093,207.793,89.738,207.625C89.383,207.457,89.033,207.280,88.686,207.095C88.339,206.910,87.998,206.717,87.661,206.515C87.324,206.313,86.993,206.103,86.666,205.884C86.339,205.666,86.018,205.440,85.703,205.206C85.388,204.972,85.078,204.731,84.774,204.482C84.471,204.232,84.173,203.976,83.882,203.712C83.591,203.448,83.307,203.178,83.029,202.900C82.752,202.622,82.481,202.338,82.217,202.047C81.953,201.756,81.697,201.458,81.448,201.155C81.199,200.851,80.957,200.542,80.723,200.226C80.489,199.911,80.263,199.590,80.045,199.263C79.826,198.937,79.616,198.605,79.414,198.268C79.212,197.931,79.019,197.589,78.834,197.243C78.649,196.897,78.472,196.546,78.304,196.191C78.136,195.836,77.977,195.477,77.827,195.114C77.676,194.751,77.535,194.385,77.403,194.015C77.270,193.645,77.147,193.272,77.033,192.897C76.919,192.521,76.814,192.142,76.719,191.761C76.624,191.380,76.538,190.997,76.461,190.612C76.384,190.227,76.317,189.840,76.260,189.451C76.202,189.063,76.154,188.673,76.116,188.282C76.077,187.892,76.048,187.500,76.029,187.108C76.010,186.715,76.000,186.323,76.000,185.930L76.000,167.000ZZZZZZZ" fill-rule="evenodd" style="fill: rgb(191, 165, 149); fill-opacity: 1;" class="fills"/><path d="M63.000,212.079C65.204,213.389,67.547,214.590,70.000,215.668L70.000,263.929L63.000,263.929L63.000,212.079ZZZZZZZM137.000,212.079C134.796,213.389,132.453,214.590,130.000,215.668L130.000,252.430C130.000,252.545,130.006,252.659,130.017,252.773C130.028,252.887,130.045,253.000,130.067,253.113C130.090,253.225,130.118,253.336,130.151,253.446C130.184,253.555,130.223,253.663,130.266,253.769C130.310,253.875,130.359,253.978,130.413,254.079C130.467,254.180,130.526,254.279,130.590,254.374C130.653,254.469,130.721,254.561,130.794,254.650C130.867,254.739,130.944,254.823,131.025,254.904C131.106,254.985,131.190,255.062,131.279,255.135C131.368,255.208,131.460,255.276,131.555,255.339C131.650,255.403,131.749,255.462,131.850,255.516C131.951,255.570,132.054,255.619,132.160,255.663C132.266,255.706,132.374,255.745,132.483,255.778C132.593,255.811,132.704,255.839,132.816,255.862C132.929,255.884,133.042,255.901,133.156,255.912C133.270,255.923,133.384,255.929,133.499,255.929L133.501,255.929C133.616,255.929,133.730,255.923,133.844,255.912C133.958,255.901,134.071,255.884,134.184,255.862C134.296,255.839,134.407,255.811,134.517,255.778C134.626,255.745,134.734,255.706,134.840,255.663C134.946,255.619,135.049,255.570,135.150,255.516C135.251,255.462,135.350,255.403,135.445,255.339C135.540,255.276,135.632,255.208,135.721,255.135C135.810,255.062,135.894,254.985,135.975,254.904C136.056,254.823,136.133,254.739,136.206,254.650C136.279,254.561,136.347,254.469,136.410,254.374C136.474,254.279,136.533,254.180,136.587,254.079C136.641,253.978,136.690,253.875,136.734,253.769C136.777,253.663,136.816,253.555,136.849,253.446C136.882,253.336,136.910,253.225,136.933,253.113C136.955,253.000,136.972,252.887,136.983,252.773C136.994,252.659,137.000,252.545,137.000,252.430L137.000,212.079ZZZZZZZ" fill-rule="evenodd" style="fill: rgb(191, 101, 118); fill-opacity: 1;" class="fills"/><path d="M166.272,183.499C165.996,183.452,165.720,183.408,165.443,183.367C164.788,183.270,164.130,183.189,163.470,183.124C162.811,183.059,162.150,183.010,161.488,182.977C160.826,182.945,160.164,182.929,159.501,182.929L155.899,182.929C155.966,183.600,156.000,184.292,156.000,185.006C156.000,205.398,128.179,221.929,100.000,221.929C71.821,221.929,44.000,205.398,44.000,185.006C44.000,184.292,44.034,183.600,44.101,182.929L40.499,182.929C39.836,182.929,39.174,182.945,38.512,182.977C37.850,183.010,37.189,183.059,36.530,183.124C35.870,183.189,35.212,183.270,34.557,183.367C34.275,183.409,33.994,183.453,33.713,183.501C33.577,184.376,33.500,185.286,33.500,186.237C33.500,205.949,66.538,221.929,100.000,221.929C133.462,221.929,166.500,205.949,166.500,186.237C166.500,185.286,166.423,184.376,166.272,183.499Z" style="fill: rgb(0, 0, 0); fill-opacity: 0.16;" class="fills"/></g><defs><rect width="112" height="24" id="c"/></defs><g class="fills"><rect width="88" height="18" class="frame-background" x="55" transform="matrix(1.000000, 0.000000, -0.000000, 1.000000, 0.000002, -0.000004)" ry="0" rx="0" y="73" clip-path="url(#-clip_6)"/></g><g class="frame-children"><path d="M65.766,74.578L66.677,74.176C71.919,72.095,79.865,72.967,84.723,75.299C85.290,75.571,84.902,76.452,84.321,76.407C69.402,75.256,59.358,84.553,55.946,90.847C55.845,91.034,55.539,91.055,55.464,90.881C53.156,85.562,59.913,76.896,65.766,74.578ZZZZZZZ" fill-rule="evenodd" style="fill: rgb(255, 255, 255); fill-opacity: 0.6;" class="fills"/><path d="M132.234,74.578L131.323,74.176C126.081,72.095,118.136,72.967,113.277,75.299C112.710,75.571,113.098,76.452,113.679,76.407C128.598,75.256,138.642,84.553,142.054,90.847C142.155,91.034,142.461,91.055,142.537,90.881C144.844,85.562,138.087,76.896,132.234,74.578ZZZZZZZ" fill-rule="evenodd" style="fill: rgb(255, 255, 255); fill-opacity: 0.6;" class="fills"/></g><defs><rect width="56" height="24" id="d"/></defs><g class="fills"><rect width="24" height="8" class="frame-background" x="85" transform="matrix(1.000000, 0.000000, -0.000000, 1.000000, 0.000002, 0.000007)" ry="0" rx="0" y="117" clip-path="url(#-clip_10)"/></g><g class="frame-children"><path d="M85.000,117.000C85.000,121.418,90.373,125.000,97.000,125.000L97.000,125.000C103.627,125.000,109.000,121.418,109.000,117.000" fill-rule="evenodd" style="fill: rgb(0, 0, 0); fill-opacity: 0.160784;" class="fills"/></g><defs><rect width="266" height="280" id="e"/></defs><g class="fills"><rect width="201" height="264" class="frame-background" x="8" transform="matrix(1.000000, 0.000000, 0.000000, 1.000000, 0.000000, 0.000000)" ry="0" rx="0" clip-path="url(#-clip_12)"/></g><g class="frame-children"><path d="M36.014,97.929C46.879,75.231,70.703,66.338,91.484,58.580C104.811,53.605,116.887,49.098,123.491,41.716C125.725,43.742,128.256,45.772,130.919,47.908C141.133,56.102,153.289,65.852,158.079,82.931L158.079,83.099C158.382,83.150,158.683,83.213,158.981,83.287C159.279,83.361,159.574,83.447,159.865,83.544C160.157,83.640,160.444,83.748,160.728,83.867C161.011,83.986,161.290,84.116,161.562,84.256C161.836,84.396,162.104,84.547,162.366,84.707C162.627,84.868,162.882,85.039,163.131,85.219C163.380,85.399,163.621,85.589,163.856,85.788C164.090,85.987,164.316,86.194,164.534,86.410C164.752,86.627,164.961,86.851,165.162,87.083C165.363,87.315,165.555,87.555,165.738,87.802C165.920,88.049,166.092,88.303,166.256,88.563C166.419,88.823,166.571,89.089,166.714,89.361C166.857,89.633,166.989,89.910,167.109,90.192C167.231,90.474,167.341,90.761,167.440,91.051C167.540,91.342,167.628,91.636,167.705,91.933C167.781,92.230,167.846,92.530,167.900,92.832L167.900,70.973C167.900,69.695,167.847,68.418,167.741,67.144C172.289,50.140,164.649,29.357,155.078,19.942C145.592,11.126,132.764,7.626,124.108,11.466C112.497,-6.071,78.942,-1.813,59.027,12.944C45.766,22.775,34.167,38.741,31.144,58.840C30.389,62.178,30.011,65.557,30.011,68.979L30.011,157.459C29.819,188.969,22.613,239.942,9.000,247.902C71.392,264.696,80.969,209.764,78.037,165.917L78.037,165.514C77.488,165.253,76.943,164.984,76.403,164.707C75.863,164.429,75.327,164.142,74.797,163.847C74.266,163.552,73.740,163.248,73.219,162.935C72.698,162.623,72.182,162.302,71.672,161.972C71.161,161.644,70.656,161.307,70.157,160.961C69.657,160.615,69.163,160.262,68.675,159.900C68.187,159.538,67.705,159.168,67.229,158.791C66.753,158.414,66.283,158.029,65.820,157.636C65.357,157.244,64.900,156.844,64.449,156.436C63.999,156.029,63.555,155.615,63.118,155.193C62.681,154.771,62.251,154.342,61.828,153.906C61.405,153.470,60.989,153.027,60.581,152.578C60.172,152.129,59.771,151.673,59.377,151.210C58.984,150.748,58.598,150.280,58.219,149.805C57.841,149.330,57.470,148.849,57.107,148.362C56.744,147.875,56.389,147.382,56.043,146.884C55.696,146.386,55.357,145.881,55.027,145.371C54.697,144.862,54.375,144.348,54.061,143.828C53.747,143.307,53.442,142.782,53.146,142.252C52.849,141.722,52.561,141.187,52.282,140.648C52.003,140.109,51.733,139.565,51.472,139.018C51.210,138.470,50.958,137.917,50.714,137.361C50.471,136.805,50.236,136.245,50.011,135.681C49.786,135.117,49.570,134.550,49.363,133.978C49.157,133.408,48.959,132.834,48.771,132.257C48.583,131.679,48.404,131.099,48.235,130.516C48.066,129.933,47.907,129.347,47.756,128.758C47.606,128.170,47.466,127.580,47.335,126.987C47.204,126.394,47.083,125.799,46.971,125.202C46.860,124.605,46.758,124.007,46.666,123.407C46.574,122.807,46.492,122.205,46.419,121.603C46.347,121.000,46.284,120.396,46.232,119.791C46.056,119.764,45.881,119.734,45.706,119.700C45.532,119.666,45.358,119.628,45.185,119.586C45.013,119.544,44.841,119.498,44.670,119.449C44.500,119.399,44.330,119.346,44.162,119.289C43.993,119.232,43.826,119.171,43.661,119.106C43.495,119.041,43.331,118.973,43.168,118.902C43.006,118.830,42.845,118.755,42.686,118.676C42.526,118.597,42.369,118.514,42.213,118.428C42.058,118.342,41.904,118.253,41.752,118.160C41.601,118.068,41.451,117.972,41.304,117.872C41.157,117.773,41.012,117.670,40.869,117.564C40.726,117.458,40.586,117.349,40.448,117.237C40.310,117.125,40.174,117.010,40.041,116.892C39.909,116.774,39.779,116.653,39.651,116.529C39.524,116.406,39.399,116.279,39.277,116.150C39.155,116.020,39.036,115.888,38.920,115.754C38.804,115.619,38.692,115.482,38.582,115.343C38.472,115.203,38.365,115.061,38.262,114.917C38.158,114.772,38.058,114.625,37.961,114.477C37.864,114.328,37.770,114.177,37.680,114.024C37.589,113.871,37.502,113.716,37.419,113.559C37.336,113.402,37.256,113.244,37.179,113.083C37.103,112.922,37.030,112.760,36.961,112.597C36.892,112.433,36.826,112.268,36.764,112.101C36.702,111.935,36.644,111.767,36.590,111.598C36.536,111.429,36.485,111.259,36.438,111.087C36.391,110.916,36.348,110.744,36.309,110.571C36.270,110.397,36.235,110.223,36.203,110.049C36.172,109.873,36.144,109.698,36.121,109.522C36.097,109.346,36.078,109.169,36.062,108.992C36.046,108.815,36.034,108.638,36.026,108.461C36.018,108.284,36.014,108.106,36.014,107.928L36.014,97.929ZL36.014,97.929ZL36.014,97.929ZL36.014,97.929ZL36.014,97.929ZL36.014,97.929ZL36.014,97.929ZM126.062,183.914L126.062,165.514C126.611,165.253,127.156,164.984,127.696,164.707C128.237,164.429,128.772,164.142,129.302,163.847C129.833,163.552,130.359,163.248,130.880,162.935C131.401,162.623,131.917,162.302,132.428,161.972C132.938,161.644,133.443,161.307,133.943,160.961C134.442,160.615,134.936,160.262,135.424,159.900C135.912,159.538,136.394,159.168,136.870,158.791C137.346,158.414,137.815,158.029,138.279,157.636C138.743,157.244,139.199,156.844,139.650,156.436C140.101,156.029,140.544,155.615,140.981,155.193C141.418,154.771,141.848,154.342,142.271,153.906C142.694,153.470,143.110,153.027,143.519,152.578C143.927,152.129,144.328,151.673,144.721,151.210C145.116,150.748,145.502,150.280,145.880,149.805C146.259,149.330,146.630,148.849,146.993,148.362C147.355,147.875,147.709,147.382,148.056,146.884C148.403,146.386,148.742,145.881,149.073,145.371C149.403,144.862,149.725,144.348,150.038,143.828C150.352,143.307,150.657,142.782,150.954,142.252C151.250,141.722,151.538,141.187,151.817,140.648C152.096,140.109,152.366,139.565,152.628,139.018C152.889,138.470,153.142,137.917,153.385,137.361C153.628,136.805,153.863,136.245,154.088,135.681C154.313,135.117,154.529,134.550,154.736,133.978C154.942,133.408,155.140,132.834,155.328,132.257C155.516,131.679,155.695,131.099,155.864,130.516C156.033,129.933,156.192,129.347,156.343,128.758C156.493,128.170,156.633,127.580,156.764,126.987C156.895,126.394,157.017,125.799,157.128,125.202C157.239,124.605,157.341,124.007,157.433,123.407C157.525,122.807,157.608,122.205,157.680,121.603C157.752,121.000,157.815,120.396,157.867,119.791C158.021,119.768,158.175,119.742,158.329,119.713C158.481,119.684,158.634,119.651,158.786,119.616C158.937,119.581,159.088,119.543,159.239,119.502C159.389,119.461,159.539,119.417,159.687,119.370C159.836,119.323,159.983,119.274,160.130,119.221C160.276,119.169,160.422,119.114,160.567,119.055C160.712,118.997,160.855,118.936,160.997,118.872C161.139,118.809,161.280,118.742,161.419,118.673C161.559,118.604,161.697,118.532,161.833,118.457C161.970,118.382,162.106,118.305,162.240,118.225C162.373,118.145,162.505,118.063,162.636,117.978C162.766,117.893,162.895,117.805,163.022,117.715C163.150,117.625,163.275,117.533,163.398,117.438C163.522,117.343,163.643,117.246,163.763,117.146C163.883,117.046,164.000,116.944,164.116,116.840C164.232,116.736,164.345,116.630,164.457,116.521C164.568,116.413,164.678,116.302,164.785,116.189C164.892,116.076,164.997,115.961,165.100,115.844C165.203,115.727,165.304,115.608,165.402,115.487C165.500,115.366,165.596,115.243,165.690,115.119C165.783,114.994,165.874,114.868,165.962,114.740C166.050,114.612,166.136,114.482,166.220,114.350C166.303,114.219,166.384,114.086,166.462,113.951C166.541,113.816,166.616,113.680,166.689,113.543C166.762,113.405,166.832,113.266,166.899,113.126C166.967,112.985,167.032,112.844,167.094,112.701C167.156,112.558,167.215,112.414,167.271,112.269C167.327,112.124,167.381,111.978,167.431,111.830C167.482,111.683,167.530,111.535,167.576,111.386C167.620,111.237,167.662,111.087,167.702,110.936C167.740,110.786,167.776,110.634,167.810,110.482C167.843,110.330,167.873,110.177,167.900,110.024L167.900,111.397C167.900,113.366,167.958,115.334,168.075,117.300C168.191,119.267,168.365,121.228,168.598,123.183C168.830,125.139,169.120,127.086,169.468,129.025C169.815,130.964,170.220,132.890,170.681,134.805C171.143,136.720,171.660,138.619,172.234,140.503C172.808,142.388,173.437,144.253,174.121,146.100C174.805,147.947,175.543,149.773,176.335,151.576C177.127,153.380,177.971,155.158,178.869,156.911L205.832,209.612C206.017,209.972,206.195,210.335,206.367,210.701C206.540,211.066,206.707,211.434,206.867,211.806C207.029,212.177,207.184,212.551,207.333,212.927C207.481,213.302,207.624,213.681,207.761,214.061C207.898,214.442,208.028,214.825,208.153,215.209C208.278,215.594,208.396,215.980,208.508,216.369C208.620,216.758,208.726,217.148,208.827,217.540C208.927,217.932,209.020,218.325,209.107,218.720C209.194,219.115,209.275,219.511,209.350,219.908C209.425,220.306,209.493,220.704,209.554,221.104C209.616,221.503,209.671,221.904,209.720,222.306C209.769,222.707,209.812,223.109,209.848,223.512C209.884,223.914,209.914,224.318,209.937,224.721C209.960,225.125,209.977,225.529,209.988,225.933C209.998,226.338,210.002,226.742,209.999,227.146C209.997,227.551,209.988,227.955,209.972,228.359C209.957,228.763,209.935,229.167,209.907,229.571C209.878,229.974,209.843,230.376,209.802,230.778C209.761,231.181,209.714,231.583,209.660,231.983C209.605,232.384,209.545,232.784,209.478,233.183C209.411,233.582,209.338,233.979,209.259,234.376C209.179,234.772,209.093,235.167,209.001,235.561C208.909,235.954,208.810,236.347,208.705,236.737C208.601,237.128,208.490,237.517,208.373,237.904C208.256,238.291,208.132,238.676,208.003,239.059C207.874,239.442,207.738,239.823,207.597,240.203C207.455,240.581,207.307,240.958,207.154,241.332C207.000,241.705,206.840,242.077,206.674,242.446C206.509,242.816,206.338,243.182,206.161,243.545C205.984,243.908,205.801,244.269,205.612,244.627C205.423,244.985,205.229,245.339,205.029,245.691C204.828,246.042,204.623,246.390,204.411,246.736C203.702,247.894,202.933,249.012,202.103,250.088L202.103,224.406C202.103,223.743,202.087,223.081,202.054,222.419C202.021,221.757,201.973,221.096,201.908,220.436C201.843,219.777,201.762,219.120,201.665,218.465C201.567,217.809,201.454,217.156,201.325,216.506C201.195,215.856,201.050,215.210,200.888,214.567C200.728,213.924,200.551,213.285,200.358,212.652C200.166,212.017,199.958,211.388,199.735,210.764C199.511,210.140,199.272,209.522,199.018,208.910C198.765,208.298,198.496,207.692,198.213,207.093C197.929,206.494,197.631,205.902,197.318,205.318C197.006,204.733,196.679,204.157,196.338,203.588C195.997,203.020,195.643,202.461,195.274,201.909C194.905,201.358,194.524,200.817,194.129,200.285C193.734,199.752,193.326,199.230,192.905,198.718C192.484,198.205,192.051,197.704,191.606,197.213C191.161,196.722,190.704,196.242,190.235,195.774C189.766,195.305,189.285,194.848,188.794,194.403C188.303,193.958,187.801,193.526,187.288,193.105C186.776,192.684,186.253,192.277,185.720,191.882C185.188,191.488,184.646,191.106,184.094,190.737C183.543,190.369,182.983,190.015,182.414,189.675C181.845,189.334,181.269,189.007,180.684,188.695C180.099,188.382,179.507,188.084,178.908,187.801C178.308,187.518,177.702,187.249,177.089,186.996C176.476,186.742,175.858,186.504,175.234,186.280C174.609,186.057,173.980,185.849,173.345,185.657C172.710,185.465,172.071,185.288,171.428,185.127C170.785,184.966,170.138,184.821,169.488,184.691C168.837,184.562,168.184,184.449,167.528,184.352C166.872,184.254,166.214,184.173,165.554,184.109C164.894,184.044,164.233,183.995,163.570,183.963C162.908,183.930,162.245,183.914,161.582,183.914L126.062,183.914ZL126.062,183.914ZL126.062,183.914ZL126.062,183.914ZL126.062,183.914ZL126.062,183.914ZL126.062,183.914ZM104.000,141.000" fill-rule="evenodd" style="fill: rgb(255, 255, 255); fill-opacity: 1;" class="fills"/><path d="M90.440,58.590C69.670,66.349,45.859,75.244,35.000,97.946C52.823,65.611,105.535,65.553,122.430,49.154C133.208,57.644,150.892,64.213,156.963,82.815C152.150,65.813,140.037,56.091,129.854,47.917C127.192,45.781,124.663,43.750,122.430,41.723C115.829,49.106,103.760,53.615,90.440,58.590ZZZZZZZ" fill-rule="evenodd" style="fill: rgb(0, 0, 0); fill-opacity: 0.160784;" class="fills"/></g><defs><rect width="108" height="44" id="f"/></defs><g class="fills"><rect width="28" height="14" class="frame-background" x="84" transform="matrix(1.000000, 0.000000, 0.000000, 1.000000, -0.000001, -0.000005)" ry="0" rx="0" y="135" clip-path="url(#-clip_9)"/></g><g class="frame-children"><path d="M84.000,135.000C84.000,142.732,90.268,149.000,98.000,149.000L98.000,149.000C105.732,149.000,112.000,142.732,112.000,135.000" fill-rule="evenodd" style="fill: rgb(0, 0, 0); fill-opacity: 0.698039;" class="fills"/></g></svg>