<svg width="200" xmlns="http://www.w3.org/2000/svg" height="265" id="screenshot-f849ad70-aaaf-805e-8005-8a1dd4dff260" xmlns:xlink="http://www.w3.org/1999/xlink" fill="none" version="1.1"><style>@font-face {
    font-family: &apos;sourcesanspro&apos;;
    font-style: normal;
    font-weight: 400;
    font-display: block;
    src: url(https://design.penpot.app/fonts/sourcesanspro-regular.woff) format(&apos;woff&apos;);
  }</style><g id="shape-f849ad70-aaaf-805e-8005-8a1dd4dff260"><g id="shape-f849ad70-aaaf-805e-8005-8a1a61db3994"><g class="fills" id="fills-f849ad70-aaaf-805e-8005-8a1a61db3994"><rect rx="0" ry="0" x="65.929" y="87.433" width="68.142" height="105.134" transform="matrix(2.935063, 0.000001, -0.000001, 2.320856, -193.506389, -184.919958)" class="frame-background"/></g><g class="frame-children"><g id="shape-f849ad70-aaaf-805e-8005-8a1a61db3995"><path d="M44.000,73.999C44.000,73.083,44.023,72.167,44.068,71.251C44.113,70.336,44.180,69.422,44.270,68.510C44.360,67.598,44.472,66.689,44.606,65.782C44.741,64.876,44.897,63.973,45.076,63.074C45.255,62.175,45.456,61.281,45.678,60.392C45.901,59.503,46.145,58.620,46.411,57.743C46.677,56.866,46.965,55.996,47.274,55.134C47.582,54.271,47.912,53.416,48.263,52.569C48.613,51.722,48.985,50.885,49.377,50.056C49.768,49.228,50.180,48.410,50.612,47.601C51.044,46.793,51.496,45.996,51.967,45.210C52.438,44.424,52.928,43.650,53.438,42.888C53.947,42.126,54.474,41.377,55.020,40.640C55.566,39.904,56.130,39.182,56.711,38.474C57.293,37.765,57.891,37.072,58.507,36.392C59.122,35.713,59.754,35.050,60.402,34.402C61.050,33.754,61.713,33.122,62.392,32.507C63.071,31.891,63.765,31.293,64.474,30.711C65.182,30.130,65.904,29.566,66.640,29.020C67.377,28.474,68.126,27.947,68.888,27.438C69.650,26.928,70.424,26.438,71.210,25.967C71.996,25.496,72.793,25.044,73.601,24.612C74.410,24.180,75.228,23.768,76.056,23.377C76.885,22.985,77.722,22.613,78.569,22.263C79.416,21.912,80.271,21.582,81.134,21.274C81.996,20.965,82.866,20.677,83.743,20.411C84.620,20.145,85.503,19.901,86.392,19.678C87.281,19.456,88.175,19.255,89.074,19.076C89.973,18.897,90.876,18.741,91.782,18.606C92.689,18.472,93.598,18.360,94.510,18.270C95.422,18.180,96.336,18.112,97.251,18.067C98.167,18.023,99.083,18.000,99.999,18.000L100.001,18.000C100.918,18.000,101.834,18.023,102.749,18.067C103.664,18.112,104.578,18.180,105.490,18.270C106.402,18.360,107.311,18.472,108.218,18.606C109.125,18.741,110.027,18.897,110.926,19.076C111.825,19.255,112.719,19.456,113.608,19.678C114.497,19.901,115.380,20.145,116.257,20.411C117.134,20.677,118.003,20.965,118.866,21.274C119.729,21.582,120.584,21.912,121.431,22.263C122.278,22.613,123.115,22.985,123.944,23.377C124.772,23.768,125.590,24.180,126.399,24.612C127.207,25.044,128.004,25.496,128.790,25.967C129.576,26.438,130.350,26.928,131.112,27.438C131.874,27.947,132.623,28.474,133.360,29.020C134.096,29.566,134.818,30.130,135.526,30.711C136.235,31.293,136.929,31.891,137.608,32.507C138.287,33.122,138.950,33.754,139.598,34.402C140.246,35.050,140.878,35.713,141.494,36.392C142.109,37.072,142.708,37.765,143.289,38.474C143.870,39.182,144.434,39.904,144.980,40.640C145.526,41.377,146.053,42.126,146.562,42.888C147.071,43.650,147.562,44.424,148.033,45.210C148.504,45.996,148.956,46.793,149.388,47.601C149.820,48.410,150.232,49.228,150.623,50.056C151.015,50.885,151.386,51.722,151.737,52.569C152.088,53.416,152.418,54.271,152.727,55.134C153.036,55.996,153.323,56.866,153.589,57.743C153.855,58.620,154.099,59.503,154.322,60.392C154.545,61.281,154.745,62.175,154.924,63.074C155.103,63.973,155.259,64.876,155.394,65.782C155.529,66.689,155.641,67.598,155.730,68.510C155.820,69.422,155.888,70.336,155.933,71.251C155.978,72.167,156.000,73.083,156.000,73.999L156.000,80.168C156.173,80.197,156.345,80.230,156.517,80.267C156.688,80.304,156.859,80.344,157.029,80.388C157.198,80.433,157.367,80.481,157.535,80.532C157.702,80.584,157.869,80.639,158.034,80.698C158.199,80.757,158.363,80.820,158.526,80.886C158.689,80.952,158.850,81.022,159.009,81.095C159.168,81.168,159.326,81.245,159.482,81.325C159.638,81.405,159.792,81.489,159.945,81.576C160.097,81.662,160.247,81.753,160.396,81.846C160.545,81.940,160.691,82.036,160.835,82.136C160.979,82.236,161.121,82.339,161.261,82.445C161.400,82.552,161.538,82.661,161.673,82.773C161.808,82.885,161.940,83.000,162.070,83.118C162.200,83.236,162.327,83.357,162.451,83.480C162.576,83.604,162.698,83.730,162.817,83.859C162.936,83.988,163.052,84.119,163.165,84.253C163.278,84.387,163.389,84.524,163.496,84.663C163.603,84.801,163.707,84.943,163.808,85.086C163.909,85.229,164.007,85.375,164.102,85.523C164.197,85.670,164.288,85.820,164.376,85.972C164.464,86.123,164.549,86.277,164.631,86.432C164.712,86.588,164.790,86.745,164.864,86.904C164.939,87.063,165.010,87.223,165.077,87.385C165.145,87.547,165.209,87.710,165.269,87.875C165.329,88.040,165.386,88.206,165.439,88.373C165.492,88.540,165.542,88.709,165.587,88.878C165.632,89.047,165.674,89.218,165.713,89.389C165.751,89.560,165.785,89.732,165.816,89.905C165.847,90.078,165.873,90.251,165.896,90.425C165.919,90.599,165.939,90.773,165.954,90.948C165.969,91.123,165.981,91.298,165.988,91.473C165.996,91.648,166.000,91.824,166.000,91.999L166.000,106.001C166.000,106.180,165.996,106.358,165.988,106.537C165.980,106.715,165.968,106.894,165.952,107.072C165.936,107.250,165.916,107.427,165.892,107.604C165.869,107.781,165.841,107.958,165.809,108.134C165.777,108.310,165.741,108.485,165.702,108.659C165.663,108.833,165.619,109.007,165.572,109.179C165.525,109.351,165.473,109.522,165.418,109.692C165.363,109.862,165.305,110.031,165.242,110.199C165.179,110.366,165.113,110.532,165.043,110.696C164.973,110.861,164.899,111.024,164.822,111.185C164.745,111.346,164.665,111.505,164.580,111.663C164.496,111.820,164.408,111.976,164.317,112.130C164.226,112.283,164.131,112.435,164.033,112.584C163.935,112.734,163.834,112.881,163.729,113.026C163.624,113.171,163.516,113.313,163.405,113.453C163.294,113.593,163.180,113.731,163.063,113.866C162.946,114.001,162.826,114.133,162.703,114.263C162.580,114.392,162.454,114.519,162.325,114.643C162.196,114.767,162.065,114.888,161.931,115.006C161.797,115.124,161.660,115.239,161.521,115.351C161.382,115.463,161.240,115.572,161.096,115.678C160.952,115.783,160.806,115.886,160.657,115.985C160.508,116.084,160.357,116.180,160.204,116.272C160.051,116.365,159.896,116.453,159.739,116.539C159.582,116.624,159.424,116.706,159.263,116.785C159.102,116.863,158.940,116.938,158.776,117.009C158.612,117.080,158.447,117.147,158.280,117.211C158.113,117.275,157.945,117.335,157.775,117.391C157.606,117.447,157.435,117.500,157.263,117.548C157.091,117.597,156.918,117.642,156.744,117.682C156.570,117.723,156.395,117.760,156.219,117.793C156.044,117.826,155.867,117.855,155.690,117.881C155.628,118.474,155.556,119.066,155.474,119.657C155.393,120.248,155.302,120.838,155.201,121.426C155.101,122.014,154.991,122.600,154.872,123.185C154.753,123.770,154.624,124.352,154.486,124.932C154.349,125.513,154.202,126.091,154.045,126.667C153.889,127.243,153.724,127.816,153.549,128.386C153.374,128.957,153.191,129.524,152.998,130.089C152.805,130.654,152.604,131.215,152.393,131.773C152.182,132.332,151.963,132.886,151.735,133.437C151.506,133.988,151.269,134.536,151.023,135.079C150.777,135.623,150.523,136.163,150.260,136.698C149.997,137.233,149.725,137.764,149.445,138.291C149.165,138.818,148.877,139.341,148.580,139.858C148.283,140.375,147.978,140.888,147.665,141.396C147.352,141.904,147.030,142.407,146.701,142.904C146.372,143.401,146.035,143.894,145.690,144.381C145.345,144.868,144.992,145.349,144.632,145.824C144.271,146.299,143.903,146.769,143.528,147.233C143.153,147.696,142.770,148.154,142.380,148.606C141.990,149.057,141.593,149.502,141.189,149.941C140.784,150.380,140.373,150.812,139.955,151.238C139.537,151.664,139.112,152.083,138.681,152.495C138.250,152.907,137.812,153.312,137.367,153.710C136.923,154.108,136.473,154.499,136.016,154.883C135.559,155.266,135.096,155.643,134.627,156.012C134.158,156.381,133.684,156.742,133.203,157.096C132.722,157.449,132.236,157.795,131.745,158.133C131.254,158.472,130.757,158.802,130.255,159.124C129.753,159.447,129.246,159.761,128.733,160.067C128.221,160.373,127.704,160.671,127.183,160.961C126.661,161.250,126.135,161.531,125.605,161.804C125.074,162.077,124.539,162.341,124.000,162.597L124.000,181.000L159.501,181.000C160.164,181.000,160.826,181.016,161.488,181.049C162.150,181.082,162.811,181.130,163.471,181.195C164.130,181.260,164.788,181.341,165.443,181.438C166.099,181.535,166.752,181.649,167.402,181.778C168.052,181.907,168.698,182.053,169.341,182.214C169.984,182.375,170.623,182.551,171.257,182.744C171.892,182.936,172.521,183.144,173.145,183.367C173.769,183.590,174.387,183.829,174.999,184.083C175.612,184.336,176.218,184.605,176.817,184.888C177.416,185.171,178.007,185.469,178.592,185.782C179.177,186.095,179.753,186.421,180.322,186.762C180.890,187.103,181.450,187.457,182.001,187.825C182.552,188.194,183.094,188.575,183.626,188.970C184.159,189.365,184.681,189.772,185.193,190.193C185.706,190.614,186.207,191.046,186.698,191.491C187.189,191.936,187.669,192.393,188.138,192.862C188.607,193.331,189.064,193.810,189.509,194.301C189.954,194.792,190.386,195.294,190.807,195.807C191.228,196.319,191.635,196.841,192.030,197.374C192.425,197.906,192.806,198.448,193.175,198.999C193.543,199.550,193.897,200.110,194.238,200.678C194.579,201.247,194.905,201.823,195.218,202.408C195.531,202.993,195.829,203.584,196.112,204.183C196.395,204.782,196.664,205.388,196.917,206.001C197.171,206.613,197.410,207.231,197.633,207.855C197.856,208.479,198.064,209.108,198.256,209.743C198.449,210.377,198.625,211.016,198.786,211.659C198.947,212.302,199.093,212.948,199.222,213.598C199.351,214.248,199.465,214.901,199.562,215.557C199.659,216.212,199.740,216.870,199.805,217.529C199.870,218.189,199.918,218.850,199.951,219.512C199.984,220.174,200.000,220.836,200.000,221.499L200.000,262.000L0.000,262.000L0.000,221.499C0.000,220.836,0.016,220.174,0.049,219.512C0.081,218.850,0.130,218.189,0.195,217.529C0.260,216.870,0.341,216.212,0.438,215.557C0.536,214.901,0.649,214.248,0.778,213.598C0.908,212.948,1.053,212.302,1.214,211.659C1.375,211.016,1.552,210.377,1.744,209.743C1.936,209.108,2.144,208.479,2.367,207.855C2.591,207.231,2.829,206.613,3.083,206.001C3.337,205.388,3.605,204.782,3.888,204.183C4.172,203.584,4.470,202.993,4.782,202.408C5.095,201.823,5.421,201.247,5.762,200.678C6.103,200.110,6.457,199.550,6.825,198.999C7.194,198.448,7.575,197.906,7.970,197.374C8.365,196.841,8.772,196.319,9.193,195.807C9.613,195.294,10.046,194.793,10.491,194.302C10.936,193.811,11.393,193.331,11.862,192.862C12.331,192.393,12.811,191.936,13.302,191.491C13.793,191.046,14.294,190.614,14.807,190.193C15.319,189.772,15.841,189.365,16.374,188.970C16.906,188.575,17.448,188.194,17.999,187.825C18.550,187.457,19.110,187.103,19.678,186.762C20.247,186.421,20.823,186.095,21.408,185.782C21.993,185.469,22.584,185.171,23.183,184.888C23.783,184.605,24.388,184.336,25.001,184.083C25.613,183.829,26.231,183.590,26.855,183.367C27.479,183.144,28.109,182.936,28.743,182.744C29.377,182.551,30.016,182.375,30.659,182.214C31.302,182.053,31.948,181.907,32.598,181.778C33.248,181.649,33.901,181.535,34.557,181.438C35.212,181.341,35.870,181.260,36.529,181.195C37.189,181.130,37.850,181.082,38.512,181.049C39.174,181.016,39.836,181.000,40.499,181.000L76.000,181.000L76.000,162.597C75.461,162.341,74.926,162.077,74.396,161.804C73.865,161.531,73.339,161.250,72.817,160.961C72.296,160.671,71.779,160.373,71.267,160.067C70.755,159.761,70.247,159.447,69.745,159.124C69.243,158.802,68.747,158.472,68.255,158.133C67.764,157.795,67.278,157.449,66.797,157.096C66.317,156.742,65.842,156.381,65.373,156.012C64.904,155.643,64.441,155.266,63.984,154.883C63.528,154.499,63.077,154.108,62.633,153.710C62.188,153.312,61.750,152.907,61.319,152.495C60.888,152.083,60.463,151.664,60.045,151.238C59.627,150.812,59.216,150.380,58.811,149.941C58.407,149.502,58.010,149.057,57.620,148.606C57.230,148.154,56.847,147.696,56.472,147.233C56.097,146.769,55.729,146.299,55.368,145.824C55.008,145.349,54.655,144.868,54.310,144.381C53.965,143.894,53.628,143.401,53.299,142.904C52.970,142.407,52.649,141.904,52.335,141.396C52.022,140.888,51.717,140.375,51.420,139.858C51.124,139.341,50.835,138.818,50.555,138.291C50.275,137.764,50.003,137.233,49.740,136.698C49.477,136.163,49.223,135.623,48.977,135.079C48.731,134.536,48.494,133.988,48.265,133.437C48.037,132.886,47.818,132.332,47.607,131.773C47.396,131.215,47.195,130.654,47.002,130.089C46.809,129.524,46.625,128.957,46.451,128.386C46.276,127.816,46.111,127.243,45.955,126.667C45.798,126.091,45.651,125.513,45.514,124.932C45.376,124.352,45.247,123.770,45.128,123.185C45.009,122.600,44.899,122.014,44.799,121.426C44.698,120.838,44.607,120.248,44.526,119.657C44.444,119.066,44.372,118.474,44.310,117.881C44.133,117.855,43.956,117.826,43.781,117.793C43.605,117.760,43.430,117.723,43.256,117.682C43.082,117.642,42.909,117.597,42.737,117.548C42.565,117.500,42.395,117.447,42.225,117.391C42.055,117.335,41.887,117.275,41.720,117.211C41.553,117.147,41.388,117.080,41.224,117.009C41.060,116.938,40.898,116.863,40.737,116.785C40.576,116.706,40.418,116.624,40.261,116.539C40.104,116.453,39.949,116.365,39.796,116.272C39.643,116.180,39.492,116.084,39.343,115.985C39.195,115.886,39.048,115.783,38.904,115.678C38.760,115.572,38.618,115.463,38.479,115.351C38.340,115.239,38.203,115.124,38.069,115.006C37.935,114.888,37.803,114.767,37.675,114.643C37.546,114.519,37.420,114.392,37.297,114.263C37.174,114.133,37.054,114.001,36.937,113.866C36.820,113.731,36.706,113.593,36.595,113.453C36.484,113.313,36.376,113.171,36.271,113.026C36.167,112.881,36.065,112.734,35.967,112.584C35.869,112.435,35.775,112.283,35.683,112.130C35.592,111.976,35.504,111.820,35.420,111.663C35.336,111.505,35.255,111.346,35.178,111.185C35.100,111.024,35.027,110.861,34.957,110.696C34.887,110.532,34.821,110.366,34.758,110.199C34.696,110.031,34.637,109.862,34.582,109.692C34.527,109.522,34.476,109.351,34.428,109.179C34.381,109.007,34.338,108.833,34.298,108.659C34.259,108.485,34.223,108.310,34.191,108.134C34.159,107.958,34.132,107.781,34.108,107.604C34.084,107.427,34.064,107.250,34.048,107.072C34.032,106.894,34.020,106.715,34.012,106.537C34.004,106.358,34.000,106.180,34.000,106.001L34.000,91.999C34.000,91.824,34.004,91.648,34.012,91.473C34.019,91.298,34.031,91.123,34.046,90.948C34.062,90.773,34.081,90.599,34.104,90.425C34.127,90.251,34.154,90.078,34.184,89.905C34.215,89.732,34.249,89.560,34.287,89.389C34.326,89.218,34.367,89.047,34.413,88.878C34.459,88.709,34.508,88.540,34.561,88.373C34.614,88.206,34.671,88.040,34.731,87.875C34.791,87.710,34.855,87.547,34.923,87.385C34.990,87.223,35.061,87.063,35.136,86.904C35.210,86.745,35.288,86.588,35.369,86.432C35.451,86.277,35.536,86.123,35.624,85.972C35.712,85.820,35.803,85.670,35.898,85.523C35.993,85.375,36.091,85.229,36.192,85.086C36.293,84.943,36.397,84.801,36.504,84.663C36.611,84.524,36.722,84.387,36.835,84.253C36.948,84.119,37.064,83.988,37.183,83.859C37.302,83.730,37.424,83.604,37.549,83.480C37.673,83.357,37.801,83.236,37.930,83.118C38.060,83.000,38.193,82.885,38.327,82.773C38.462,82.661,38.600,82.552,38.739,82.445C38.879,82.339,39.021,82.236,39.165,82.136C39.309,82.036,39.456,81.940,39.604,81.846C39.753,81.753,39.903,81.662,40.055,81.576C40.208,81.489,40.362,81.405,40.518,81.325C40.674,81.245,40.832,81.168,40.991,81.095C41.151,81.022,41.312,80.952,41.474,80.886C41.637,80.820,41.801,80.757,41.966,80.698C42.131,80.639,42.298,80.584,42.465,80.532C42.633,80.481,42.802,80.433,42.971,80.388C43.141,80.344,43.312,80.304,43.483,80.267C43.655,80.230,43.827,80.197,44.000,80.168L44.000,73.999ZZZZZZZ" fill-rule="evenodd" style="fill: rgb(97, 67, 53); fill-opacity: 1;" class="fills" id="fills-f849ad70-aaaf-805e-8005-8a1a61db3995"/></g><g id="shape-f849ad70-aaaf-805e-8005-8a1a61db5308"><path d="M44.000,112.000L44.000,120.000C44.000,120.917,44.023,121.833,44.068,122.748C44.113,123.663,44.180,124.577,44.270,125.489C44.360,126.401,44.472,127.310,44.606,128.217C44.741,129.124,44.897,130.026,45.076,130.925C45.255,131.824,45.456,132.718,45.678,133.607C45.901,134.496,46.145,135.379,46.411,136.256C46.677,137.133,46.965,138.002,47.274,138.865C47.582,139.728,47.912,140.583,48.263,141.430C48.613,142.277,48.985,143.114,49.377,143.943C49.768,144.771,50.180,145.589,50.612,146.398C51.044,147.206,51.496,148.003,51.967,148.789C52.438,149.575,52.928,150.349,53.438,151.111C53.947,151.873,54.474,152.622,55.020,153.359C55.566,154.095,56.130,154.817,56.711,155.525C57.293,156.234,57.891,156.928,58.507,157.607C59.122,158.286,59.754,158.949,60.402,159.597C61.050,160.245,61.713,160.877,62.392,161.493C63.071,162.108,63.765,162.707,64.474,163.288C65.182,163.869,65.904,164.433,66.640,164.979C67.377,165.525,68.126,166.052,68.888,166.561C69.650,167.070,70.424,167.561,71.210,168.032C71.996,168.503,72.793,168.955,73.601,169.387C74.410,169.819,75.228,170.231,76.056,170.622C76.885,171.014,77.722,171.385,78.569,171.736C79.416,172.087,80.271,172.417,81.134,172.726C81.996,173.035,82.866,173.322,83.743,173.588C84.620,173.854,85.503,174.098,86.392,174.321C87.281,174.544,88.175,174.744,89.074,174.923C89.973,175.102,90.876,175.258,91.782,175.393C92.689,175.528,93.598,175.640,94.510,175.729C95.422,175.819,96.336,175.887,97.251,175.932C98.167,175.977,99.083,175.999,99.999,175.999L100.001,175.999C100.918,175.999,101.834,175.977,102.749,175.932C103.664,175.887,104.578,175.819,105.490,175.729C106.402,175.640,107.311,175.528,108.218,175.393C109.125,175.258,110.027,175.102,110.926,174.923C111.825,174.744,112.719,174.544,113.608,174.321C114.497,174.098,115.380,173.854,116.257,173.588C117.134,173.322,118.003,173.035,118.866,172.726C119.729,172.417,120.584,172.087,121.431,171.736C122.278,171.385,123.115,171.014,123.944,170.622C124.772,170.231,125.590,169.819,126.399,169.387C127.207,168.955,128.004,168.503,128.790,168.032C129.576,167.561,130.350,167.070,131.112,166.561C131.874,166.052,132.623,165.525,133.360,164.979C134.096,164.433,134.818,163.869,135.526,163.288C136.235,162.707,136.929,162.108,137.608,161.493C138.287,160.877,138.950,160.245,139.598,159.597C140.246,158.949,140.878,158.286,141.494,157.607C142.109,156.928,142.708,156.234,143.289,155.525C143.870,154.817,144.434,154.095,144.980,153.359C145.526,152.622,146.053,151.873,146.562,151.111C147.071,150.349,147.562,149.575,148.033,148.789C148.504,148.003,148.956,147.206,149.388,146.398C149.820,145.589,150.232,144.771,150.623,143.943C151.015,143.114,151.386,142.277,151.737,141.430C152.088,140.583,152.418,139.728,152.727,138.865C153.036,138.002,153.323,137.133,153.589,136.256C153.855,135.379,154.099,134.496,154.322,133.607C154.545,132.718,154.745,131.824,154.924,130.925C155.103,130.026,155.259,129.124,155.394,128.217C155.529,127.310,155.641,126.401,155.730,125.489C155.820,124.577,155.888,123.663,155.933,122.748C155.978,121.833,156.000,120.917,156.000,120.000L156.000,112.000C156.000,112.917,155.978,113.832,155.933,114.748C155.888,115.663,155.820,116.577,155.730,117.489C155.641,118.401,155.529,119.310,155.394,120.217C155.259,121.124,155.103,122.026,154.924,122.925C154.745,123.824,154.545,124.718,154.322,125.607C154.099,126.496,153.855,127.379,153.589,128.256C153.323,129.133,153.036,130.002,152.727,130.865C152.418,131.728,152.088,132.583,151.737,133.430C151.386,134.277,151.015,135.114,150.623,135.943C150.232,136.771,149.820,137.589,149.388,138.398C148.956,139.206,148.504,140.003,148.033,140.789C147.562,141.575,147.071,142.349,146.562,143.111C146.053,143.873,145.526,144.622,144.980,145.359C144.434,146.095,143.870,146.817,143.289,147.525C142.708,148.234,142.109,148.928,141.494,149.607C140.878,150.286,140.246,150.949,139.598,151.597C138.950,152.245,138.287,152.877,137.608,153.493C136.929,154.108,136.235,154.707,135.526,155.288C134.818,155.869,134.096,156.433,133.360,156.979C132.623,157.525,131.874,158.052,131.112,158.561C130.350,159.070,129.576,159.561,128.790,160.032C128.004,160.503,127.207,160.955,126.399,161.387C125.590,161.819,124.772,162.231,123.944,162.622C123.115,163.014,122.278,163.385,121.431,163.736C120.584,164.087,119.729,164.417,118.866,164.726C118.003,165.035,117.134,165.322,116.257,165.588C115.380,165.854,114.497,166.098,113.608,166.321C112.719,166.544,111.825,166.744,110.926,166.923C110.027,167.102,109.125,167.258,108.218,167.393C107.311,167.528,106.402,167.640,105.490,167.729C104.578,167.819,103.664,167.887,102.749,167.932C101.834,167.977,100.918,167.999,100.001,167.999L99.999,167.999C99.083,167.999,98.167,167.977,97.251,167.932C96.336,167.887,95.422,167.819,94.510,167.729C93.598,167.640,92.689,167.528,91.782,167.393C90.876,167.258,89.973,167.102,89.074,166.923C88.175,166.744,87.281,166.544,86.392,166.321C85.503,166.098,84.620,165.854,83.743,165.588C82.866,165.322,81.996,165.035,81.134,164.726C80.271,164.417,79.416,164.087,78.569,163.736C77.722,163.385,76.885,163.014,76.056,162.622C75.228,162.231,74.410,161.819,73.601,161.387C72.793,160.955,71.996,160.503,71.210,160.032C70.424,159.561,69.650,159.070,68.888,158.561C68.126,158.052,67.377,157.525,66.640,156.979C65.904,156.433,65.182,155.869,64.474,155.288C63.765,154.707,63.071,154.108,62.392,153.493C61.713,152.877,61.050,152.245,60.402,151.597C59.754,150.949,59.122,150.286,58.507,149.607C57.891,148.928,57.293,148.234,56.711,147.525C56.130,146.817,55.566,146.095,55.020,145.359C54.474,144.622,53.947,143.873,53.438,143.111C52.928,142.349,52.438,141.575,51.967,140.789C51.496,140.003,51.044,139.206,50.612,138.398C50.180,137.589,49.768,136.771,49.377,135.943C48.985,135.114,48.613,134.277,48.263,133.430C47.912,132.583,47.582,131.728,47.274,130.865C46.965,130.002,46.677,129.133,46.411,128.256C46.145,127.379,45.901,126.496,45.678,125.607C45.456,124.718,45.255,123.824,45.076,122.925C44.897,122.026,44.741,121.124,44.606,120.217C44.472,119.310,44.360,118.401,44.270,117.489C44.180,116.577,44.113,115.663,44.068,114.748C44.023,113.832,44.000,112.917,44.000,112.000ZZZZZZZ" fill-rule="evenodd" style="fill: rgb(0, 0, 0); fill-opacity: 0.101961;" class="fills" id="fills-f849ad70-aaaf-805e-8005-8a1a61db5308"/></g></g></g><g id="shape-f849ad70-aaaf-805e-8005-8a1b246c97ba"><defs><clipPath id="render-5-clip_2" transform="matrix(1.000000, 0.000000, 0.000000, 1.003201, -31.833395, 150.566665)"><use xlink:href="#render-5-artboard_2" clip-rule="evenodd"/></clipPath><rect width="264" height="110" id="render-5-artboard_2"/></defs><g class="fills" id="fills-f849ad70-aaaf-805e-8005-8a1b246c97ba"><rect width="200" height="81" class="frame-background" transform="matrix(1.000000, 0.000000, 0.000000, 1.000000, 0.000000, 0.000000)" ry="0" rx="0" y="181" clip-path="url(#-clip_2)"/></g><g class="frame-children"><g id="shape-f849ad70-aaaf-805e-8005-8a1b246c97bb"><path d="M150.000,188.301C150.000,204.592,127.838,217.800,100.500,217.800C73.162,217.800,51.000,204.592,51.000,188.301C51.000,185.781,51.530,183.335,52.528,181.000L40.473,181.000C39.811,181.000,39.149,181.016,38.487,181.049C37.826,181.081,37.165,181.130,36.506,181.195C35.847,181.260,35.190,181.341,34.534,181.438C33.879,181.536,33.227,181.649,32.577,181.778C31.928,181.908,31.281,182.053,30.639,182.214C29.996,182.375,29.358,182.552,28.724,182.744C28.091,182.936,27.462,183.144,26.838,183.367C26.215,183.591,25.597,183.829,24.985,184.083C24.373,184.337,23.767,184.605,23.169,184.888C22.570,185.172,21.978,185.470,21.394,185.782C20.810,186.095,20.234,186.421,19.666,186.762C19.098,187.103,18.538,187.457,17.988,187.825C17.437,188.194,16.895,188.575,16.363,188.970C15.831,189.365,15.309,189.772,14.797,190.193C14.285,190.613,13.784,191.046,13.293,191.491C12.802,191.936,12.323,192.393,11.854,192.862C11.386,193.331,10.929,193.811,10.485,194.302C10.040,194.793,9.607,195.294,9.187,195.807C8.767,196.319,8.359,196.841,7.965,197.374C7.570,197.906,7.189,198.448,6.821,198.999C6.453,199.550,6.099,200.110,5.758,200.678C5.418,201.247,5.091,201.823,4.779,202.408C4.467,202.993,4.169,203.584,3.886,204.184C3.603,204.783,3.334,205.388,3.081,206.001C2.827,206.613,2.589,207.231,2.366,207.855C2.143,208.479,1.935,209.109,1.743,209.743C1.550,210.377,1.374,211.016,1.213,211.659C1.052,212.302,0.907,212.948,0.778,213.598C0.648,214.248,0.535,214.901,0.438,215.557C0.341,216.212,0.260,216.870,0.195,217.529C0.130,218.189,0.081,218.850,0.049,219.512C0.016,220.174,0.000,220.836,0.000,221.499L0.000,262.000L200.000,262.000L200.000,221.499C200.000,220.836,199.984,220.174,199.951,219.512C199.919,218.850,199.870,218.189,199.805,217.529C199.740,216.870,199.659,216.212,199.562,215.557C199.465,214.901,199.351,214.248,199.222,213.598C199.093,212.948,198.948,212.302,198.787,211.659C198.626,211.016,198.450,210.377,198.257,209.743C198.065,209.109,197.857,208.479,197.634,207.855C197.411,207.231,197.172,206.613,196.919,206.001C196.666,205.388,196.397,204.783,196.114,204.184C195.831,203.584,195.533,202.993,195.221,202.408C194.909,201.823,194.583,201.247,194.242,200.678C193.901,200.110,193.547,199.550,193.179,198.999C192.811,198.448,192.430,197.906,192.035,197.374C191.640,196.841,191.233,196.319,190.813,195.807C190.393,195.294,189.960,194.793,189.515,194.302C189.070,193.811,188.614,193.331,188.146,192.862C187.677,192.393,187.198,191.936,186.707,191.491C186.216,191.046,185.715,190.613,185.203,190.193C184.691,189.772,184.169,189.365,183.637,188.970C183.105,188.575,182.564,188.194,182.013,187.825C181.462,187.457,180.902,187.103,180.334,186.762C179.766,186.421,179.190,186.095,178.606,185.782C178.021,185.470,177.430,185.172,176.831,184.888C176.232,184.605,175.627,184.337,175.015,184.083C174.403,183.829,173.785,183.591,173.162,183.367C172.538,183.144,171.909,182.936,171.276,182.744C170.642,182.552,170.004,182.375,169.361,182.214C168.718,182.053,168.072,181.908,167.423,181.778C166.773,181.649,166.120,181.536,165.465,181.438C164.810,181.341,164.153,181.260,163.494,181.195C162.835,181.130,162.174,181.081,161.513,181.049C160.851,181.016,160.189,181.000,159.527,181.000L148.472,181.000C149.470,183.335,150.000,185.781,150.000,188.301ZZZZZZZ" fill-rule="evenodd" style="fill: rgb(255, 255, 255); fill-opacity: 1;" class="fills" id="fills-f849ad70-aaaf-805e-8005-8a1b246c97bb"/></g></g></g><g id="shape-f849ad70-aaaf-805e-8005-8a1adbaed3c4"><defs><clipPath id="render-7-clip_12" transform="matrix(14800.000000, 0.000000, 0.000000, 25771.600000, -49032497.064566, -50751000.497653)"><use xlink:href="#render-7-artboard_12" clip-rule="evenodd"/></clipPath><rect width="266" height="280" id="render-7-artboard_12"/></defs><g class="fills" id="fills-f849ad70-aaaf-805e-8005-8a1adbaed3c4"><rect width="148" height="257.716" class="frame-background" x="26" transform="matrix(-1.000000, 0.000000, 0.000000, 1.000000, 200.000000, 0.000000)" ry="0" rx="0" clip-path="url(#-clip_12)"/></g><g class="frame-children"><g id="shape-f849ad70-aaaf-805e-8005-8a1adbaed3c5"><path d="M76.000,181.000L76.000,162.611C58.469,154.283,45.952,137.115,44.209,116.867C38.431,116.002,34.000,111.019,34.000,105.000L34.000,92.000C34.000,87.358,36.636,83.331,40.494,81.335C41.270,81.052,42.045,80.749,42.820,80.426C43.206,80.320,43.600,80.233,44.000,80.166L44.000,79.917C56.776,74.234,69.122,63.070,77.890,47.885C80.825,42.801,83.169,37.595,84.934,32.397C93.569,42.941,106.256,53.602,121.658,62.495C131.222,68.017,140.853,72.291,150.000,75.266L150.000,137.246C144.399,148.318,135.227,157.277,124.000,162.611L124.000,181.000L128.000,181.000C135.673,181.000,143.065,182.200,150.000,184.423L150.000,230.000C150.000,244.106,160.431,255.776,174.000,257.716L174.000,74.000C174.000,68.891,173.482,63.904,172.497,59.086C165.596,25.366,135.760,0.000,100.000,0.000C59.131,0.000,26.000,33.131,26.000,74.000L26.000,197.608C38.475,187.237,54.509,181.000,72.000,181.000L76.000,181.000ZZZZZZZ" fill-rule="evenodd" style="fill: rgb(13, 13, 13); fill-opacity: 1;" class="fills" id="fills-f849ad70-aaaf-805e-8005-8a1adbaed3c5"/></g><g id="shape-f849ad70-aaaf-805e-8005-8a1adbaf3f76"><path d="M76.000,181.000L76.000,162.611C58.469,154.283,45.952,137.115,44.209,116.867C38.431,116.002,34.000,111.019,34.000,105.000L34.000,92.000C34.000,87.357,36.636,83.331,40.494,81.335C35.626,83.108,30.737,84.072,26.000,84.148L26.000,197.608C38.475,187.237,54.509,181.000,72.000,181.000L76.000,181.000ZZZZZZZM150.000,184.423C143.065,182.200,135.673,181.000,128.000,181.000L124.000,181.000L124.000,162.611C135.227,157.277,144.399,148.318,150.000,137.246L150.000,184.423ZZZZZZZM44.000,79.917L44.000,80.166C43.600,80.233,43.206,80.320,42.820,80.426C43.214,80.261,43.607,80.092,44.000,79.917ZZZZZZZ" fill-rule="evenodd" style="fill: rgb(0, 0, 0); fill-opacity: 0.239216;" class="fills" id="fills-f849ad70-aaaf-805e-8005-8a1adbaf3f76"/></g></g></g><g transform="matrix(1.000000, 0.000000, 0.000000, 1.000000, 0.000000, 0.000000)" class="text-container" id="shape-f849ad70-aaaf-805e-8005-8a1c6a37fc8a"><defs><pattern patternUnits="userSpaceOnUse" x="87" y="236" width="24" height="31" id="fill-0-render-10-0"><rect width="24" height="31" style="fill: rgb(0, 0, 0); fill-opacity: 1;"/></pattern></defs><text x="87" y="265.5" dominant-baseline="ideographic" textLength="24" lengthAdjust="spacingAndGlyphs" style="text-transform: none; font-family: sourcesanspro; letter-spacing: normal; font-style: normal; font-weight: 400; white-space: pre; font-size: 24px; text-decoration: none solid rgb(0, 0, 0); direction: ltr; fill: rgb(0, 0, 0); fill-opacity: 1;" class="fills" id="fills-f849ad70-aaaf-805e-8005-8a1c6a37fc8a">🖤</text></g><g id="shape-f849ad70-aaaf-805e-8005-8a1cc168af2d"><defs><clipPath id="render-11-clip_7" transform="matrix(0.999999, 0.000000, 0.000000, 1.000001, 43.499946, 71.999982)"><use xlink:href="#render-11-artboard_7" clip-rule="evenodd"/></clipPath><rect width="112" height="44" id="render-11-artboard_7"/></defs><g class="fills" id="fills-f849ad70-aaaf-805e-8005-8a1cc168af2d"><rect width="80" height="8" class="frame-background" x="58" transform="matrix(1.000000, 0.000000, 0.000000, 1.000000, 0.000003, -0.000005)" ry="0" rx="0" y="88" clip-path="url(#-clip_7)"/></g><g class="frame-children"><g id="shape-f849ad70-aaaf-805e-8005-8a1cc168af2e"><path d="M58.160,94.447C60.007,90.649,64.164,88.000,68.998,88.000C73.814,88.000,77.959,90.630,79.815,94.407C80.367,95.529,79.582,96.448,78.791,95.767C76.339,93.660,72.859,92.344,68.998,92.344C65.257,92.344,61.874,93.579,59.437,95.572C58.547,96.300,57.620,95.558,58.160,94.447ZZZZZZZ" fill-rule="evenodd" style="fill: rgb(0, 0, 0); fill-opacity: 0.6;" class="fills" id="fills-f849ad70-aaaf-805e-8005-8a1cc168af2e"/></g><g id="shape-f849ad70-aaaf-805e-8005-8a1cc168af2f"><path d="M116.160,94.447C118.007,90.649,122.164,88.000,126.998,88.000C131.814,88.000,135.959,90.630,137.815,94.407C138.367,95.529,137.582,96.448,136.791,95.767C134.339,93.660,130.859,92.344,126.998,92.344C123.257,92.344,119.874,93.579,117.437,95.572C116.547,96.300,115.620,95.558,116.160,94.447ZZZZZZZ" fill-rule="evenodd" style="fill: rgb(0, 0, 0); fill-opacity: 0.6;" class="fills" id="fills-f849ad70-aaaf-805e-8005-8a1cc168af2f"/></g></g></g><g id="shape-f849ad70-aaaf-805e-8005-8a1cdb73518e"><defs><clipPath id="render-14-clip_7" transform="matrix(1.000000, 0.000000, 0.000000, 1.000000, 41.999999, 73.999999)"><use xlink:href="#render-14-artboard_7" clip-rule="evenodd"/></clipPath><rect width="112" height="44" id="render-14-artboard_7"/></defs><g class="fills" id="fills-f849ad70-aaaf-805e-8005-8a1cdb73518e"><rect width="64" height="12" class="frame-background" x="64" transform="matrix(1.000000, 0.000000, 0.000000, 1.000000, 0.000000, 0.000000)" ry="0" rx="0" y="90" clip-path="url(#-clip_7)"/></g><g class="frame-children"><g id="shape-f849ad70-aaaf-805e-8005-8a1cdb73518f"><path d="M70.000,102.000C73.314,102.000,76.000,99.314,76.000,96.000C76.000,92.686,73.314,90.000,70.000,90.000C66.686,90.000,64.000,92.686,64.000,96.000C64.000,99.314,66.686,102.000,70.000,102.000ZZZZZZZ" fill-rule="evenodd" style="fill: rgb(0, 0, 0); fill-opacity: 0.6;" class="fills" id="fills-f849ad70-aaaf-805e-8005-8a1cdb73518f"/></g><g id="shape-f849ad70-aaaf-805e-8005-8a1cdb735190"><path d="M122.000,102.000C125.314,102.000,128.000,99.314,128.000,96.000C128.000,92.686,125.314,90.000,122.000,90.000C118.686,90.000,116.000,92.686,116.000,96.000C116.000,99.314,118.686,102.000,122.000,102.000ZZZZZZZ" fill-rule="evenodd" style="fill: rgb(0, 0, 0); fill-opacity: 0.6;" class="fills" id="fills-f849ad70-aaaf-805e-8005-8a1cdb735190"/></g></g></g><g id="shape-f849ad70-aaaf-805e-8005-8a1cf6affd09"><defs><clipPath id="render-17-clip_6" transform="matrix(1.000000, 0.000000, 0.000000, 1.000000, 39.410484, 67.876221)"><use xlink:href="#render-17-artboard_6" clip-rule="evenodd"/></clipPath><rect width="112" height="24" id="render-17-artboard_6"/></defs><g class="fills" id="fills-f849ad70-aaaf-805e-8005-8a1cf6affd09"><rect width="89.821" height="10.572" class="frame-background" x="51" transform="matrix(1.000000, 0.000000, 0.000000, 1.000000, -0.000000, 0.000002)" ry="0" rx="0" y="74" clip-path="url(#-clip_6)"/></g><g class="frame-children"><g id="shape-f849ad70-aaaf-805e-8005-8a1cf6affd0a"><path d="M65.958,74.025C60.151,74.293,50.763,78.513,51.005,84.368C51.013,84.560,51.294,84.644,51.432,84.497C54.187,81.538,73.747,78.547,80.637,80.132C81.267,80.277,81.746,79.655,81.347,79.206C77.925,75.357,71.160,73.779,65.958,74.025ZZZZZZ" fill-rule="evenodd" style="fill: rgb(0, 0, 0); fill-opacity: 0.6;" class="fills" id="fills-f849ad70-aaaf-805e-8005-8a1cf6affd0a"/></g><g id="shape-f849ad70-aaaf-805e-8005-8a1cf6affd0b"><path d="M125.863,74.025C131.670,74.293,141.058,78.513,140.816,84.368C140.808,84.560,140.526,84.644,140.389,84.497C137.634,81.538,118.074,78.547,111.184,80.132C110.554,80.277,110.075,79.655,110.474,79.206C113.896,75.357,120.661,73.779,125.863,74.025ZZZZZZ" fill-rule="evenodd" style="fill: rgb(0, 0, 0); fill-opacity: 0.6;" class="fills" id="fills-f849ad70-aaaf-805e-8005-8a1cf6affd0b"/></g></g></g><g id="shape-f849ad70-aaaf-805e-8005-8a1d05263716"><defs><clipPath id="render-20-clip_10" transform="matrix(1.000000, 0.000000, 0.000000, 1.000000, 69.999999, 105.999999)"><use xlink:href="#render-20-artboard_10" clip-rule="evenodd"/></clipPath><rect width="56" height="24" id="render-20-artboard_10"/></defs><g class="fills" id="fills-f849ad70-aaaf-805e-8005-8a1d05263716"><rect width="24" height="8" class="frame-background" x="83" transform="matrix(1.000000, 0.000000, -0.000000, 1.000000, 0.000002, 0.000007)" ry="0" rx="0" y="114" clip-path="url(#-clip_10)"/></g><g class="frame-children"><g id="shape-f849ad70-aaaf-805e-8005-8a1d05263717"><path d="M83.000,114.000C83.000,118.418,88.373,122.000,95.000,122.000L95.000,122.000C101.627,122.000,107.000,118.418,107.000,114.000" fill-rule="evenodd" style="fill: rgb(0, 0, 0); fill-opacity: 0.160784;" class="fills" id="fills-f849ad70-aaaf-805e-8005-8a1d05263717"/></g></g></g><g id="shape-f849ad70-aaaf-805e-8005-8a1d1149d114"><defs><clipPath id="render-22-clip_9" transform="matrix(1.000000, 0.000000, 0.000000, 1.000000, 42.500001, 120.000002)"><use xlink:href="#render-22-artboard_9" clip-rule="evenodd"/></clipPath><rect width="108" height="44" id="render-22-artboard_9"/></defs><g class="fills" id="fills-f849ad70-aaaf-805e-8005-8a1d1149d114"><rect width="28" height="14" class="frame-background" x="82" transform="matrix(1.000000, 0.000000, 0.000000, 1.000000, -0.000001, -0.000005)" ry="0" rx="0" y="135" clip-path="url(#-clip_9)"/></g><g class="frame-children"><g id="shape-f849ad70-aaaf-805e-8005-8a1d1149d115"><path d="M82.000,135.000C82.000,142.732,88.268,149.000,96.000,149.000L96.000,149.000C103.732,149.000,110.000,142.732,110.000,135.000" fill-rule="evenodd" style="fill: rgb(0, 0, 0); fill-opacity: 0.698039;" class="fills" id="fills-f849ad70-aaaf-805e-8005-8a1d1149d115"/></g></g></g><g id="shape-f849ad70-aaaf-805e-8005-8a1daad04fd6"><g class="fills" id="fills-f849ad70-aaaf-805e-8005-8a1daad04fd6"><rect rx="0" ry="0" x="32" y="78" width="125.931" height="37.82" transform="matrix(1.000000, 0.000000, -0.000000, 1.000000, -0.000001, 0.000001)" class="frame-background"/></g><g class="frame-children"><g id="shape-f849ad70-aaaf-805e-8005-8a1daad04fd7"><path d="M78.249,85.275C80.621,85.297,81.742,85.692,82.146,88.165C82.555,90.670,82.157,93.487,81.685,95.955C80.965,99.723,79.767,103.414,76.978,106.168C75.509,107.619,73.717,108.775,71.811,109.564C70.799,109.983,69.730,110.286,68.661,110.516C68.349,110.583,65.682,110.950,67.318,110.763C63.501,111.199,59.360,111.182,56.172,108.752C52.640,106.060,50.220,101.800,49.157,97.556C48.534,95.073,47.226,89.134,49.616,87.149C52.353,84.874,78.249,85.275,78.249,85.275ZZZZZZL78.249,85.275ZZZZZZZM54.218,78.490C48.778,78.678,45.147,79.634,42.463,85.069C37.546,95.030,45.963,109.969,55.352,114.039C66.329,118.799,78.592,113.532,84.396,104.006C87.469,98.962,89.023,91.323,88.923,85.504C88.795,78.076,83.607,77.870,77.509,78.034L54.218,78.490ZZZZZZZ" fill-rule="evenodd" style="fill: rgb(191, 101, 118); fill-opacity: 1;" class="fills" id="fills-f849ad70-aaaf-805e-8005-8a1daad04fd7"/></g><g id="shape-f849ad70-aaaf-805e-8005-8a1daad04fd8"><path d="M111.681,85.272C109.309,85.295,108.188,85.689,107.784,88.163C107.374,90.668,107.772,93.485,108.244,95.952C108.965,99.720,110.163,103.412,112.952,106.166C114.421,107.616,116.213,108.772,118.119,109.562C119.131,109.981,120.200,110.284,121.268,110.513C121.581,110.580,124.247,110.948,122.612,110.761C126.429,111.197,130.570,111.179,133.757,108.750C137.290,106.058,139.709,101.798,140.773,97.554C141.396,95.071,142.703,89.132,140.314,87.146C137.576,84.872,111.681,85.272,111.681,85.272ZZZZZZL111.681,85.272ZZZZZZZM135.712,78.488C141.152,78.675,144.783,79.631,147.466,85.066C152.384,95.028,143.967,109.966,134.577,114.037C123.600,118.797,111.338,113.529,105.534,104.004C102.461,98.960,100.907,91.321,101.007,85.501C101.135,78.074,106.323,77.868,112.421,78.031L135.712,78.488ZZZZZZZ" fill-rule="evenodd" style="fill: rgb(191, 101, 118); fill-opacity: 1;" class="fills" id="fills-f849ad70-aaaf-805e-8005-8a1daad04fd8"/></g><g id="shape-f849ad70-aaaf-805e-8005-8a1daad04fd9"><path d="M45.197,82.927C41.785,83.118,37.886,83.164,34.690,84.639C31.305,86.201,30.782,89.739,35.049,90.226C36.971,90.446,38.895,90.083,40.787,89.745C42.337,89.468,44.442,89.558,45.907,88.966C48.636,87.862,48.460,82.740,45.197,82.927ZZZZZZ" fill-rule="evenodd" style="fill: rgb(191, 101, 118); fill-opacity: 1;" class="fills" id="fills-f849ad70-aaaf-805e-8005-8a1daad04fd9"/></g><g id="shape-f849ad70-aaaf-805e-8005-8a1daad08611"><path d="M144.735,82.927C148.147,83.118,152.046,83.164,155.242,84.639C158.626,86.201,159.149,89.739,154.882,90.226C152.961,90.446,151.037,90.083,149.144,89.745C147.595,89.468,145.490,89.558,144.025,88.966C141.296,87.862,141.471,82.740,144.735,82.927ZZZZZZ" fill-rule="evenodd" style="fill: rgb(191, 101, 118); fill-opacity: 1;" class="fills" id="fills-f849ad70-aaaf-805e-8005-8a1daad08611"/></g><g id="shape-f849ad70-aaaf-805e-8005-8a1daad08612"><path d="M105.109,85.013C103.163,82.713,98.091,81.385,94.892,81.385C91.691,81.385,86.768,82.713,84.822,85.013C83.841,86.172,83.807,87.724,85.508,88.451C87.626,89.357,89.518,87.714,91.213,86.855C93.381,85.757,96.712,85.877,98.719,86.855C100.427,87.688,102.305,89.357,104.423,88.451C106.124,87.724,106.091,86.172,105.109,85.013ZZZZZZ" fill-rule="evenodd" style="fill: rgb(191, 101, 118); fill-opacity: 1;" class="fills" id="fills-f849ad70-aaaf-805e-8005-8a1daad08612"/></g></g></g></g></svg>